<svg width="40" height="40" viewBox="0 0 40 40" fill="none" xmlns="http://www.w3.org/2000/svg">
<g clip-path="url(#clip0_2285_6302)">
<path d="M38.5829 31.4339C38.1506 28.842 36.3333 26.7153 33.8406 25.8842L28.305 24.0392V23.2164H27.0184V24.3416L22.5154 32.7854L18.0123 24.3422V23.2164H16.7257V24.6638L21.8721 34.3132V35.439H14.1526V36.7256H21.8721V38.6555H12.3083L12.8216 34.548C13.6508 34.0025 14.1526 33.082 14.1526 32.0707V31.5792H12.866V32.0707C12.866 32.7127 12.509 33.2904 11.9351 33.5773L11.627 33.7311L11.0114 38.6555H6.54885L7.28156 34.2579L6.01234 34.0469L5.03003 39.9421H40.0001L38.5829 31.4339ZM23.1587 38.6555V36.7256H30.8782V35.439H23.1587V34.3132L27.9737 25.2853L30.8782 26.2528V32.0701C30.8782 33.0813 31.38 34.0019 32.2092 34.548L32.7225 38.6555H23.1587ZM34.0194 38.6555L33.4038 33.7311L33.0956 33.5773C32.5218 33.2898 32.1648 32.7127 32.1648 32.0707V26.6819L33.4334 27.1045C35.4733 27.7851 36.9599 29.5252 37.3137 31.6455L38.4813 38.6555H34.0194Z" fill="white"/>
<path d="M11.5793 14.2103C11.5793 15.861 12.8338 17.2094 14.4368 17.3908C14.7649 18.5197 15.3709 19.5548 16.2252 20.4091L18.7334 22.9173C19.3407 23.5246 20.1486 23.8597 21.0081 23.8597H24.0226C24.882 23.8597 25.69 23.5246 26.2972 22.9173L28.8054 20.4091C29.6597 19.5548 30.2651 18.5197 30.5938 17.3908C32.1969 17.2094 33.4513 15.861 33.4513 14.2103C33.4513 13.4834 33.1998 12.8195 32.7913 12.2804H34.0946V8.42068H32.0727C31.5613 4.62332 28.7894 1.44609 25.0885 0.420679V0.0578613H19.9421V0.420679C16.2419 1.44609 13.47 4.62332 12.9579 8.42068H10.936V12.2804H12.2393C11.8309 12.8195 11.5793 13.4834 11.5793 14.2103ZM12.8659 14.2103C12.8659 13.3728 13.4056 12.6651 14.1525 12.3988V15.4049C14.1525 15.6153 14.1647 15.8237 14.1827 16.0308C13.4204 15.7735 12.8659 15.0588 12.8659 14.2103ZM29.5916 15.4049C29.5916 16.952 28.9888 18.4052 27.8958 19.4995L25.3876 22.0077C25.0229 22.3724 24.5385 22.5731 24.0226 22.5731H21.0081C20.4922 22.5731 20.0071 22.3724 19.643 22.0077L17.1348 19.4995C16.0419 18.4059 15.4391 16.952 15.4391 15.4056V12.2804H29.5916V15.4049ZM30.8479 16.0308C30.8659 15.8237 30.8781 15.6159 30.8781 15.4049V12.3988C31.625 12.6651 32.1647 13.3728 32.1647 14.2103C32.1647 15.0588 31.6102 15.7735 30.8479 16.0308ZM19.9421 1.76002V7.13409H21.2287V1.34445H23.8019V7.13409H25.0885V1.76002C28.0695 2.72689 30.2953 5.32322 30.7791 8.42068H14.2516C14.736 5.32258 16.9611 2.72689 19.9421 1.76002ZM12.2226 10.9939V9.70727H32.808V10.9939H12.2226Z" fill="white"/>
<path d="M27.6616 5.84753H26.375V7.13412H27.6616V5.84753Z" fill="white"/>
<path d="M18.6555 5.84753H17.3689V7.13412H18.6555V5.84753Z" fill="white"/>
<path d="M5.90617 32.8659H9.5337L9.86629 31.2075C10.0792 31.1329 10.2876 31.0467 10.4903 30.9508L11.8972 31.8881L14.462 29.3233L13.5247 27.9164C13.6205 27.7144 13.7068 27.5053 13.7814 27.2924L15.4391 26.9598V23.3323L13.7807 22.9997C13.6604 22.6594 13.5138 22.3313 13.3407 22.0212L12.2162 22.6472C12.4047 22.9849 12.5553 23.3509 12.664 23.733L12.772 24.11L14.1526 24.3866V25.9054L12.772 26.1821L12.664 26.559C12.5553 26.9418 12.4047 27.3072 12.2162 27.6449L12.0252 27.9878L12.8049 29.1573L11.7312 30.231L10.5617 29.4513L10.2188 29.6423C9.88108 29.8308 9.51505 29.9814 9.13293 30.0901L8.75596 30.1975L8.47935 31.5793H6.96053L6.68391 30.1988L6.30694 30.0914C5.92418 29.9826 5.55879 29.8321 5.22106 29.6436L4.87819 29.4526L3.70868 30.2322L2.26191 28.7861L1.35229 29.6957L3.544 31.8881L4.95088 30.9508C5.15287 31.0467 5.36194 31.1329 5.57487 31.2075L5.90617 32.8659Z" fill="white"/>
<path d="M2.09842 28.2708L3.2229 27.6448C3.03442 27.3071 2.88389 26.9411 2.77517 26.559L2.6671 26.182L1.28659 25.906V24.3872L2.6671 24.1106L2.77517 23.7336C2.88389 23.3508 3.03442 22.9855 3.2229 22.6477L3.41396 22.3049L2.63429 21.1353L3.70794 20.0617L4.87745 20.8414L5.22033 20.6503C5.55806 20.4618 5.92409 20.3113 6.30621 20.2026L6.68318 20.0951L6.95979 18.7133H8.47861L8.75523 20.0939L9.1322 20.2013C9.51496 20.31 9.88035 20.4605 10.2181 20.649L10.561 20.8401L11.7305 20.0604L13.1772 21.5065L14.0868 20.5969L11.8951 18.4046L10.4883 19.3418C10.2863 19.246 10.0772 19.1598 9.86427 19.0852L9.53297 17.4268H5.90544L5.57285 19.0852C5.35992 19.1598 5.1515 19.246 4.94886 19.3418L3.54198 18.4046L0.977163 20.9694L1.91444 22.3763C1.81859 22.5783 1.73239 22.7873 1.65777 23.0003L0 23.3328V26.9604L1.65841 27.293C1.77871 27.6326 1.92538 27.9607 2.09842 28.2708Z" fill="white"/>
<path d="M7.71964 21.9298C5.94608 21.9298 4.50317 23.3727 4.50317 25.1463C4.50317 26.9198 5.94608 28.3627 7.71964 28.3627C9.4932 28.3627 10.9361 26.9198 10.9361 25.1463C10.9361 23.3727 9.4932 21.9298 7.71964 21.9298ZM7.71964 27.0762C6.65563 27.0762 5.78976 26.2103 5.78976 25.1463C5.78976 24.0823 6.65563 23.2164 7.71964 23.2164C8.78365 23.2164 9.64952 24.0823 9.64952 25.1463C9.64952 26.2103 8.78365 27.0762 7.71964 27.0762Z" fill="white"/>
</g>
<defs>
<clipPath id="clip0_2285_6302">
<rect width="40" height="40" fill="white"/>
</clipPath>
</defs>
</svg>
