<svg width="40" height="40" viewBox="0 0 40 40" fill="none" xmlns="http://www.w3.org/2000/svg">
<path d="M38.9436 16.6264L31.215 5.61455C31.0444 5.37135 30.7601 5.25517 30.4844 5.28736C30.4006 5.27916 17.3263 5.28307 9.92694 5.28205C9.67717 5.28205 9.44241 5.40205 9.29538 5.60392L1.27788 16.6163C0.901391 17.1334 1.27452 17.8602 1.90944 17.8602H22.3909C22.6407 17.8602 22.8755 17.7388 23.0225 17.5369L30.4819 7.28994L37.6645 17.524C37.913 17.8781 38.4005 17.962 38.753 17.7146C39.1061 17.4668 39.1915 16.9795 38.9436 16.6264ZM21.9935 16.2977H3.44467L10.3246 6.84455H28.8734L21.9935 16.2977Z" fill="white"/>
<path d="M36.8254 19.2665H5.57544C5.14395 19.2665 4.79419 19.6163 4.79419 20.0477V34.1884C4.79419 34.6198 5.14395 34.9696 5.57544 34.9696H36.8254C37.2569 34.9696 37.6067 34.6198 37.6067 34.1884V20.0477C37.6067 19.6162 37.257 19.2665 36.8254 19.2665ZM6.35677 20.829H23.388V33.4071H6.35677V20.829ZM28.7004 33.4071V27.8641C28.7004 26.8589 29.4922 26.0411 30.4973 26.0411C31.5025 26.0411 32.2942 26.8589 32.2942 27.8641V33.4071H28.7004ZM36.0442 33.4071H33.8567V27.8641C33.8567 25.9973 32.3641 24.4786 30.4973 24.4786C28.6305 24.4786 27.1379 25.9973 27.1379 27.8641V33.4071H24.9504V20.829H36.0442V33.4071Z" fill="white"/>
<path d="M9.28582 14.8803C9.50355 14.8803 9.72027 14.7898 9.87472 14.6128L13.6418 10.2974C13.9255 9.97237 13.892 9.47885 13.5669 9.1951C13.242 8.91151 12.7483 8.94479 12.4646 9.26994L8.69754 13.5853C8.25355 14.094 8.62371 14.8803 9.28582 14.8803Z" fill="white"/>
<path d="M13.7502 14.8803C13.9679 14.8803 14.1846 14.7898 14.3391 14.6128L18.106 10.2974C18.3898 9.97237 18.3563 9.47885 18.0312 9.1951C17.7063 8.91151 17.2127 8.94479 16.9288 9.26994L13.1619 13.5853C12.7179 14.094 13.0881 14.8803 13.7502 14.8803Z" fill="white"/>
<path d="M18.2146 14.8804C18.4323 14.8804 18.649 14.7898 18.8035 14.6129L22.5703 10.2975C22.8542 9.9724 22.8206 9.47889 22.4956 9.19514C22.1706 8.91139 21.6771 8.9449 21.3933 9.26998L17.6263 13.5854C17.1822 14.094 17.5524 14.8804 18.2146 14.8804Z" fill="white"/>
<path d="M19.6379 24.0321H10.2629C9.83146 24.0321 9.48169 24.3819 9.48169 24.8134V29.5009C9.48169 29.9323 9.83146 30.2821 10.2629 30.2821H19.6379C20.0694 30.2821 20.4192 29.9323 20.4192 29.5009V24.8134C20.4191 24.3819 20.0694 24.0321 19.6379 24.0321ZM18.8567 28.7196H11.0442V25.5946H18.8567V28.7196Z" fill="white"/>
</svg>
