<svg width="60" height="60" viewBox="0 0 60 60" fill="none" xmlns="http://www.w3.org/2000/svg">
<g clip-path="url(#clip0_2263_6879)">
<path d="M53.0477 32.0669C52.5288 32.0669 52.1082 32.4875 52.1082 33.0064V58.1212H24.9893C24.4704 58.1212 24.0498 58.5418 24.0498 59.0607C24.0498 59.5796 24.4703 60.0002 24.9893 60.0002H53.0477C53.5666 60.0002 53.9872 59.5796 53.9872 59.0607V33.0063C53.9872 32.4875 53.5665 32.0669 53.0477 32.0669Z" fill="#E63A27"/>
<path d="M59.6283 22.237L30.5678 0.191138C30.2321 -0.0635108 29.7678 -0.0635108 29.4322 0.191138L17.9123 8.93028V5.88751H18.9771C19.496 5.88751 19.9166 5.46692 19.9166 4.94801V0.939614C19.9166 0.420825 19.4961 0.00012207 18.9771 0.00012207H4.94796C4.42905 0.00012207 4.00847 0.420708 4.00847 0.939614V4.94801C4.00847 5.4668 4.42894 5.88751 4.94796 5.88751H6.01272V17.9578L0.37167 22.237C0.0503417 22.4808 -0.0796193 22.9027 0.0491698 23.2849C0.177724 23.6673 0.536201 23.9249 0.93956 23.9249H6.01261V59.0605C6.01261 59.5793 6.43308 60 6.9521 60H18.9772C19.4961 60 19.9167 59.5794 19.9167 59.0605C19.9167 58.5416 19.4962 58.121 18.9772 58.121H7.89147V22.9854C7.89147 22.4666 7.47101 22.0459 6.95198 22.0459H3.73226L30.0001 2.11887L56.2678 22.0461H53.048C52.5291 22.0461 52.1085 22.4667 52.1085 22.9856V27.9961C52.1085 28.5149 52.529 28.9356 53.048 28.9356C53.5669 28.9356 53.9875 28.515 53.9875 27.9961V23.925H59.0606C59.4641 23.925 59.8224 23.6674 59.951 23.285C60.0795 22.9027 59.9497 22.4809 59.6283 22.237ZM5.88733 4.00852V1.87911H18.0376V4.00852H5.88733ZM16.0335 10.3557L7.89159 16.5323V5.88751H16.0335V10.3557Z" fill="#E63A27"/>
<path d="M50.031 47.6574L41.5118 37.6369C41.3504 37.4471 41.1203 37.3292 40.8719 37.309L38.0468 37.0803C38.0401 37.0798 38.0335 37.0801 38.0267 37.0797L36.1721 34.8983L40.3792 30.6911L41.132 31.4439C41.4938 31.8057 42.0989 31.8057 42.4606 31.4439L45.2949 28.6096C45.3493 28.5553 45.3967 28.4945 45.4363 28.4287L47.562 24.8856C47.7839 24.516 47.7255 24.0427 47.4207 23.738L46.0037 22.321C45.6989 22.0162 45.2257 21.9577 44.8561 22.1797L41.3131 24.3054C41.2473 24.3449 41.1863 24.3924 41.1321 24.4468L38.2977 27.2812C37.936 27.6428 37.936 28.2481 38.2977 28.6097L39.0505 29.3626L34.951 33.4621L30.5095 28.238L32.2173 26.7862L40.1469 23.9754C40.7565 23.7594 40.9683 22.9735 40.5479 22.4804L37.5902 19.0122C36.1272 17.2915 34.0821 16.2435 31.8308 16.0612C29.579 15.8788 27.3924 16.5843 25.6719 18.047L16.8443 25.5522L16.7042 25.3874C16.2167 24.8139 15.5349 24.4645 14.7846 24.4038C14.0356 24.3433 13.3051 24.578 12.7315 25.0658L11.0137 26.5262C9.8435 27.5211 9.69654 29.328 10.6921 30.4989L17.9942 39.0878C18.9887 40.2581 20.7962 40.4049 21.967 39.4095L23.6847 37.9491C24.2905 37.4342 24.6525 36.6782 24.6764 35.8837C24.6997 35.1094 24.3963 34.4349 23.9031 33.8547L26.0243 32.0513L30.7744 37.6387L28.9814 39.4317L28.2287 38.679C28.0524 38.5027 27.8136 38.4038 27.5644 38.4038H24.7301C24.4809 38.4038 24.2421 38.5027 24.0657 38.679L14.7658 47.9788C13.6794 49.0653 13.6793 50.8782 14.7657 51.9646L17.7771 54.9761C18.8635 56.0593 20.677 56.062 21.763 54.9761L31.0631 45.6759C31.2392 45.4997 31.3381 45.2608 31.3381 45.0117V42.1774C31.3381 41.9282 31.2392 41.6893 31.0631 41.5131L30.3103 40.7603L31.9957 39.0749L33.9162 41.3338L33.752 43.3622C33.7319 43.6107 33.8114 43.8568 33.9726 44.0465L42.4918 54.067C43.4852 55.2355 45.2954 55.3828 46.4645 54.3887L49.7093 51.6302C50.8795 50.6354 51.0266 48.8285 50.031 47.6574ZM42.3791 25.8572L45.1939 24.1683L45.5736 24.5481L43.8848 27.363L41.7965 29.4513L40.2908 27.9455L42.3791 25.8572ZM20.4346 53.6476C20.0679 54.0139 19.4721 54.0137 19.1058 53.6476H19.1059L16.0944 50.6361C15.7324 50.274 15.7325 49.6695 16.0945 49.3075L24.0217 41.3803L28.3617 45.7203L20.4346 53.6476ZM29.4596 44.161L25.5813 40.2827H27.1756L28.3173 41.4242C28.3174 41.4243 28.3175 41.4244 28.3175 41.4245C28.3175 41.4247 28.3178 41.4247 28.3179 41.4248L29.4596 42.5665V44.161ZM31.6797 17.934C33.4306 18.0758 35.0215 18.8908 36.1601 20.2303L38.2328 22.6607L32.0373 24.8567L27.2328 19.2056C28.5126 18.2538 30.0756 17.8039 31.6797 17.934ZM22.796 35.8775C22.7757 36.1277 22.6592 36.3549 22.4682 36.5173C22.4682 36.5173 22.4682 36.5173 22.4681 36.5173L20.7503 37.9777C20.36 38.3095 19.7574 38.2603 19.4262 37.8705L12.124 29.2816C11.7921 28.8912 11.8412 28.2889 12.2312 27.9574L13.949 26.497C14.3394 26.165 14.9416 26.2143 15.2731 26.6042L22.5753 35.1931C22.7379 35.3842 22.8162 35.6274 22.796 35.8775ZM22.6864 32.4231L18.0616 26.9834L25.7915 20.4115L30.4163 25.8513L22.6864 32.4231ZM27.4562 30.8342L29.0784 29.4549L36.426 38.0971L34.8036 39.4765L27.4562 30.8342ZM48.4925 50.1985C48.4925 50.1985 48.4925 50.1985 48.4924 50.1985L45.2476 52.9571C44.8574 53.2888 44.255 53.24 43.9235 52.8499L35.6564 43.1259L35.8222 41.0765L38.283 38.9842L40.3323 39.1502L48.5995 48.8743C48.9315 49.2645 48.8824 49.867 48.4925 50.1985Z" fill="#E63A27"/>
</g>
<defs>
<clipPath id="clip0_2263_6879">
<rect width="60" height="60" fill="white"/>
</clipPath>
</defs>
</svg>
