<svg width="60" height="60" viewBox="0 0 60 60" fill="none" xmlns="http://www.w3.org/2000/svg">
<path d="M57.1875 52.5H56.25C56.2406 51.8759 56.1081 51.2598 55.86 50.6871C55.6119 50.1143 55.2532 49.5962 54.8044 49.1624C54.1583 48.5078 53.329 48.0642 52.4258 47.8903C52.0058 47.024 51.3504 46.2934 50.5345 45.7823C49.7186 45.2711 48.7753 45 47.8125 45C46.8497 45 45.9064 45.2711 45.0905 45.7823C44.2746 46.2934 43.6192 47.024 43.1992 47.8903C42.296 48.0642 41.4667 48.5078 40.8206 49.1624C40.3718 49.5962 40.0131 50.1143 39.765 50.6871C39.5169 51.2598 39.3844 51.8759 39.375 52.5H28.125V30.9375C28.125 30.6889 28.0262 30.4504 27.8504 30.2746C27.6746 30.0988 27.4361 30 27.1875 30H14.0625C13.8139 30 13.5754 30.0988 13.3996 30.2746C13.2238 30.4504 13.125 30.6889 13.125 30.9375V52.5H9.375V26.5953L30 9.65103L50.625 26.5953V43.125C50.625 43.3736 50.7238 43.6121 50.8996 43.7879C51.0754 43.9637 51.3139 44.0625 51.5625 44.0625C51.8111 44.0625 52.0496 43.9637 52.2254 43.7879C52.4012 43.6121 52.5 43.3736 52.5 43.125V28.1357L53.4142 28.8867C53.6049 29.0436 53.8499 29.1188 54.0959 29.096C54.3418 29.0732 54.5688 28.9542 54.7275 28.765L57.9057 24.9775C57.9853 24.8825 58.0453 24.7727 58.0823 24.6544C58.1192 24.5361 58.1323 24.4116 58.1209 24.2883C58.1094 24.1649 58.0736 24.045 58.0156 23.9355C57.9575 23.826 57.8783 23.7291 57.7826 23.6504L52.5 19.311V3.75C52.4995 3.25287 52.3018 2.77625 51.9503 2.42472C51.5988 2.0732 51.1221 1.8755 50.625 1.875H43.125C42.6279 1.8755 42.1512 2.0732 41.7997 2.42472C41.4482 2.77625 41.2505 3.25287 41.25 3.75V10.0699L32.2572 2.68296C31.6137 2.17676 30.8187 1.90155 30 1.90155C29.1813 1.90155 28.3863 2.17676 27.7428 2.68296L2.2174 23.6503C2.12168 23.729 2.0425 23.8259 1.98444 23.9354C1.92638 24.0449 1.89059 24.1648 1.87914 24.2882C1.86769 24.4116 1.88081 24.536 1.91773 24.6543C1.95466 24.7726 2.01466 24.8824 2.09427 24.9774L5.27252 28.7649C5.43119 28.9542 5.65818 29.0732 5.90413 29.096C6.15008 29.1188 6.39508 29.0435 6.58584 28.8866L7.5 28.1357V52.5H2.8125C2.56386 52.5 2.3254 52.5988 2.14959 52.7746C1.97377 52.9504 1.875 53.1889 1.875 53.4375V57.1875C1.875 57.4361 1.97377 57.6746 2.14959 57.8504C2.3254 58.0262 2.56386 58.125 2.8125 58.125H57.1875C57.4361 58.125 57.6746 58.0262 57.8504 57.8504C58.0262 57.6746 58.125 57.4361 58.125 57.1875V53.4375C58.125 53.1889 58.0262 52.9504 57.8504 52.7746C57.6746 52.5988 57.4361 52.5 57.1875 52.5ZM43.125 3.75H50.625V17.7708L43.125 11.6101V3.75ZM6.1125 26.8492L4.13956 24.4981L28.933 4.13223C29.237 3.8925 29.6128 3.76213 30 3.76213C30.3872 3.76213 30.763 3.8925 31.067 4.13223L55.8604 24.4981L53.8875 26.8492L30.5951 7.71332C30.4274 7.5754 30.2171 7.5 30 7.5C29.7829 7.5 29.5726 7.5754 29.4049 7.71332L6.1125 26.8492ZM42.1367 50.4982C42.5764 50.0247 43.1844 49.7426 43.83 49.7127C44.027 49.7156 44.2199 49.6565 44.3813 49.5436C44.5428 49.4306 44.6646 49.2698 44.7295 49.0837C44.9483 48.4397 45.3633 47.8803 45.9162 47.4842C46.4692 47.088 47.1323 46.875 47.8125 46.875C48.4927 46.875 49.1558 47.088 49.7088 47.4842C50.2617 47.8803 50.6767 48.4397 50.8955 49.0837C50.9583 49.2711 51.0796 49.4333 51.2416 49.5465C51.4035 49.6598 51.5975 49.718 51.795 49.7127C52.4389 49.7493 53.0445 50.0303 53.4883 50.4982C53.7605 50.7572 53.9789 51.0673 54.131 51.4108C54.2832 51.7543 54.3661 52.1244 54.375 52.5H41.25C41.2589 52.1244 41.3418 51.7543 41.494 51.4108C41.6461 51.0673 41.8645 50.7572 42.1367 50.4982ZM15 31.875H26.25V52.5H15V31.875ZM56.25 56.25H3.75V54.375H56.25V56.25ZM32.8125 30C32.5639 30 32.3254 30.0988 32.1496 30.2746C31.9738 30.4504 31.875 30.6889 31.875 30.9375V42.1875C31.875 42.4361 31.9738 42.6746 32.1496 42.8504C32.3254 43.0262 32.5639 43.125 32.8125 43.125H45.9375C46.1861 43.125 46.4246 43.0262 46.6004 42.8504C46.7762 42.6746 46.875 42.4361 46.875 42.1875V30.9375C46.875 30.6889 46.7762 30.4504 46.6004 30.2746C46.4246 30.0988 46.1861 30 45.9375 30H32.8125ZM45 35.625H40.3125V31.875H45V35.625ZM38.4375 31.875V35.625H33.75V31.875H38.4375ZM33.75 37.5H38.4375V41.25H33.75V37.5ZM40.3125 41.25V37.5H45V41.25H40.3125Z" fill="#E63A27"/>
</svg>
