<svg width="44" height="28" viewBox="0 0 44 28" fill="none" xmlns="http://www.w3.org/2000/svg">
<path d="M9.92188 0.171875C4.51563 0.171875 0.125 4.60937 0.125 10.0625C0.125 13.75 2.10937 17.0625 5.26562 18.7812C5.09375 20.4844 4.40625 23.9844 1.5625 24.7656C0.8125 24.9687 0.328125 25.6875 0.421875 26.4531C0.515625 27.2187 1.14063 27.8125 1.92188 27.8281H2.14062C3.5625 27.8281 11.4219 27.5156 16.5156 20.6875C19.8125 16.25 20.7969 11.4531 19.2969 7.21875C18.0156 3 14.25 0.171875 9.92188 0.171875ZM13.9844 18.8281C11.9531 21.5469 9.32813 23.0156 7.0625 23.7969C8.4375 21.0625 8.4375 18.0156 8.4375 17.8125C8.4375 17.1875 8.04688 16.6094 7.45313 16.375C4.90625 15.3281 3.25 12.8594 3.25 10.0625C3.25 6.32812 6.25 3.29687 9.92188 3.29687C12.8594 3.29687 15.4063 5.23437 16.2969 8.1875C17.875 12.625 15.5312 16.75 13.9844 18.8281ZM43.2031 7.21875C41.9375 3 38.1875 0.171875 33.8594 0.171875C28.4531 0.171875 24.0625 4.60937 24.0625 10.0625C24.0625 13.75 26.0469 17.0625 29.2031 18.7812C29.0313 20.4844 28.3437 23.9844 25.5 24.7656C24.75 24.9687 24.2656 25.6875 24.3594 26.4531C24.4531 27.2187 25.0781 27.8125 25.8594 27.8281H26.0781C27.5 27.8281 35.3594 27.5156 40.4531 20.6875C43.7187 16.2656 44.7031 11.4531 43.2031 7.21875ZM37.9063 18.8281C35.875 21.5469 33.25 23.0156 30.9844 23.7969C32.3594 21.0625 32.3594 18.0156 32.3594 17.8125C32.3594 17.1875 31.9687 16.6094 31.375 16.375C28.8125 15.3438 27.1562 12.875 27.1562 10.0781C27.1562 6.34375 30.1562 3.3125 33.8281 3.3125C36.7656 3.3125 39.3125 5.25 40.2031 8.20312C41.7969 12.625 39.4531 16.75 37.9063 18.8281Z" fill="#E63A27"/>
</svg>
