<svg width="50" height="45" viewBox="0 0 50 45" fill="none" xmlns="http://www.w3.org/2000/svg">
<path fill-rule="evenodd" clip-rule="evenodd" d="M4.36403 0C4.99119 0 5.5002 0.499843 5.5002 1.11572C5.5002 1.7316 4.99119 2.23144 4.36403 2.23144H3.40851C2.78361 2.23144 2.27234 2.73352 2.27234 3.34716V20.083C2.27234 20.6966 2.78361 21.1987 3.40851 21.1987H13.2932C13.8692 21.1987 14.3543 21.6215 14.4214 22.1839C14.66 24.1754 15.1303 29.4461 12.3865 35.0693C10.6107 38.7166 8.23378 41.1835 6.32729 42.7611C8.64507 42.8593 12.0604 42.5246 15.2621 40.3623C15.7791 40.0131 16.4869 40.1414 16.8425 40.6491C17.1982 41.1567 17.0675 41.8518 16.5506 42.201C10.7073 46.1462 4.25725 44.8419 3.16198 44.6021C2.71774 44.505 2.37462 44.158 2.29168 43.7184C2.20761 43.2788 2.3996 42.8325 2.77794 42.5848C4.39698 41.5249 7.96229 38.9822 10.3369 34.1053C12.4524 29.7708 12.4467 25.6649 12.2649 23.4301H3.40851C1.53383 23.4301 0 21.9239 0 20.083V3.34716C0 1.50622 1.53383 0 3.40851 0H4.36403ZM21.502 36.7719C21.202 37.3131 20.5112 37.5116 19.9602 37.2171C19.4103 36.9214 19.2069 36.2431 19.508 35.7031C21.8724 31.4522 21.5872 27.0027 21.5872 26.7773V3.34716C21.5872 2.73352 21.0759 2.23144 20.451 2.23144H7.80207C7.17491 2.23144 6.66591 1.7316 6.66591 1.11572C6.66591 0.499843 7.17491 0 7.80207 0H20.451C22.3257 0 23.8595 1.50622 23.8595 3.34716V26.7773C23.8595 27.0294 24.1515 32.0089 21.502 36.7719Z" fill="#E63A27"/>
<path d="M19.0437 40.2569C19.6708 40.2569 20.1792 39.7577 20.1792 39.1419C20.1792 38.5261 19.6708 38.0269 19.0437 38.0269C18.4166 38.0269 17.9082 38.5261 17.9082 39.1419C17.9082 39.7577 18.4166 40.2569 19.0437 40.2569Z" fill="#E63A27"/>
<path fill-rule="evenodd" clip-rule="evenodd" d="M49.9914 4.49302C49.9914 5.10889 49.4824 5.60874 48.8552 5.60874C48.228 5.60874 47.719 5.10889 47.719 4.49302V3.34716C47.719 2.73352 47.2078 2.23144 46.5829 2.23144H29.5403C28.9154 2.23144 28.4042 2.73352 28.4042 3.34716V20.083C28.4042 20.6966 28.9154 21.1987 29.5403 21.1987H39.425C40.0011 21.1987 40.4862 21.6215 40.5532 22.1839C40.7918 24.1754 41.2622 29.4461 38.5183 35.0693C36.7425 38.7166 34.3656 41.1835 32.4591 42.7611C34.7769 42.8593 38.1911 42.5246 41.3929 40.3634C48.2985 35.6674 47.719 27.0908 47.719 26.7773V7.86919C47.719 7.25331 48.228 6.75347 48.8552 6.75347C49.4824 6.75347 49.9914 7.25331 49.9914 7.86919V26.7773C49.9914 27.1332 50.5481 36.8534 42.6846 42.1988L42.6824 42.201C36.8391 46.1462 30.3891 44.8419 29.2938 44.6021C28.8496 44.505 28.5065 44.158 28.4235 43.7184C28.3394 43.2788 28.5314 42.8325 28.9098 42.5848C30.5288 41.5249 34.0941 38.9822 36.4687 34.1053C38.5843 29.7708 38.5785 25.6649 38.3968 23.4301H29.5403C27.6657 23.4301 26.1318 21.9239 26.1318 20.083V3.34716C26.1318 1.50622 27.6657 0 29.5403 0H46.5829C48.4575 0 49.9914 1.50622 49.9914 3.34716V4.49302Z" fill="#E63A27"/>
</svg>
