<svg width="53" height="40" viewBox="0 0 53 40" fill="none" xmlns="http://www.w3.org/2000/svg">
<path d="M49.4412 4.06283C47.0462 1.36697 44.1394 0 40.8018 0C37.8021 0 35.2591 1.07032 33.243 3.18108C31.2396 5.27836 30.2238 7.88336 30.2238 10.9239C30.2238 13.7972 31.2499 16.3576 33.2735 18.5342C35.0585 20.4543 37.3072 21.6756 39.9692 22.1734C39.5037 25.7098 36.3836 28.9108 30.677 31.6999L29.6494 32.2023L33.8626 39.996L34.8137 39.513C46.8817 33.3836 53.0006 24.7211 53.0006 13.7662C53.0006 9.98676 51.8031 6.72218 49.4412 4.06283ZM34.7689 37.0616L32.658 33.1572C39.0059 29.8243 42.222 25.8178 42.222 21.237V20.2562L41.2495 20.1458C38.63 19.8487 36.5456 18.8319 34.8773 17.0372C33.2209 15.2556 32.4157 13.256 32.4157 10.9239C32.4157 8.43372 33.2044 6.39784 34.8264 4.69948C36.4354 3.01492 38.3901 2.19602 40.8019 2.19602C43.5249 2.19602 45.8153 3.28429 47.8039 5.52284C49.826 7.79935 50.809 10.4957 50.809 13.7661C50.809 18.787 49.3979 23.3199 46.6153 27.2389C43.9602 30.9781 39.9778 34.2793 34.7689 37.0616Z" fill="#E63A27"/>
<path d="M19.734 4.05834C17.3125 1.36579 14.3937 0.000488281 11.0585 0.000488281C8.0559 0.000488281 5.52443 1.07278 3.53475 3.18748C1.56216 5.28393 0.561883 7.88696 0.561883 10.9244C0.561883 13.7976 1.58793 16.358 3.61135 18.5346C5.39265 20.4506 7.61431 21.6708 10.2268 22.1709C9.76691 25.71 6.67283 28.9126 1.01197 31.7022L0 32.2007L4.10833 40L5.06885 39.5144C17.1916 33.3853 23.3383 24.7225 23.3383 13.7666C23.3382 9.98424 22.1254 6.7179 19.734 4.05834ZM5.03697 37.0583L2.98363 33.16C9.28546 29.8258 12.4786 25.8184 12.4786 21.2374V20.2587L11.5083 20.1465C8.94252 19.8499 6.88379 18.833 5.21491 17.0376C3.55856 15.2561 2.75352 13.2564 2.75352 10.9244C2.75352 8.43099 3.53071 6.39294 5.12931 4.69406C6.71051 3.01354 8.65008 2.19651 11.0585 2.19651C13.7842 2.19651 16.0896 3.28633 18.1057 5.52841C20.1519 7.80367 21.1466 10.4985 21.1466 13.7666C21.1466 18.7867 19.7295 23.319 16.9342 27.2375C14.2676 30.9757 10.2681 34.2764 5.03697 37.0583Z" fill="#E63A27"/>
</svg>
