<svg width="60" height="60" viewBox="0 0 60 60" fill="none" xmlns="http://www.w3.org/2000/svg">
<g clip-path="url(#clip0_1709_4286)">
<path d="M17.7621 24.484C17.5441 24.266 17.2418 24.1406 16.9336 24.1406C16.6254 24.1406 16.3232 24.2659 16.1051 24.484C15.8871 24.702 15.7617 25.0043 15.7617 25.3125C15.7617 25.6207 15.8871 25.923 16.1051 26.1409C16.323 26.3589 16.6254 26.4844 16.9336 26.4844C17.2418 26.4844 17.5441 26.359 17.7621 26.1409C17.9801 25.923 18.1055 25.6207 18.1055 25.3125C18.1055 25.0043 17.9801 24.702 17.7621 24.484Z" fill="#E63A27"/>
<path d="M56.4843 0H9.84385C7.90534 0 6.32824 1.5771 6.32824 3.51561V22.9687C6.32824 24.9072 7.90534 26.4843 9.84385 26.4843H11.9532C12.6004 26.4843 13.1251 25.9595 13.1251 25.3124C13.1251 24.6653 12.6004 24.1405 11.9532 24.1405H9.84385C9.19768 24.1405 8.67198 23.6148 8.67198 22.9687V3.51561C8.67198 2.86944 9.19768 2.34374 9.84385 2.34374H56.4843C57.1305 2.34374 57.6562 2.86944 57.6562 3.51561V22.9687C57.6562 23.6148 57.1305 24.1405 56.4843 24.1405H48.646C48.3352 24.1405 48.0371 24.264 47.8174 24.4838L43.9585 28.3426L40.0997 24.4838C39.8799 24.264 39.5818 24.1405 39.271 24.1405H30.1322C30.0461 23.9193 29.9487 23.701 29.8384 23.4867C28.9994 21.8566 27.5711 20.6651 25.817 20.1318L24.1227 19.6166C23.5263 19.435 22.892 19.7528 22.6799 20.3391L20.0177 27.6972C19.2793 29.738 17.8229 31.4334 15.9169 32.4714L13.4178 33.8321C12.8036 33.0866 11.8738 32.6105 10.8347 32.6105H3.34641C1.50142 32.6105 0.000488309 34.1115 0.000488309 35.9565V56.6536C0.000253935 58.4987 1.5013 59.9998 3.3463 59.9998H10.8345C12.001 59.9998 13.0293 59.3994 13.6284 58.4918L14.8242 58.9608C16.5822 59.6504 18.4313 60 20.32 60H36.1318C38.5043 60 40.4344 58.0699 40.4344 55.6975C40.4344 54.9122 40.2219 54.176 39.8529 53.5417C41.5983 52.9931 42.868 51.3603 42.868 49.4362C42.868 48.631 42.6451 47.877 42.2586 47.2319C43.9297 46.6408 45.1304 45.0458 45.1304 43.1748C45.1304 41.2259 43.8275 39.5765 42.0474 39.0494C42.4094 38.4194 42.6175 37.6904 42.6175 36.9132C42.6175 34.5409 40.6875 32.6107 38.315 32.6107H28.918L30.2322 28.7091C30.4778 27.9797 30.594 27.2297 30.5861 26.4844H38.7856L43.1299 30.8286C43.3588 31.0574 43.6586 31.1719 43.9585 31.1719C44.2584 31.1719 44.5584 31.0574 44.7871 30.8286L49.1315 26.4843H56.4843C58.4228 26.4843 59.9999 24.9072 59.9999 22.9687V3.51561C59.9999 1.5771 58.4228 0 56.4843 0ZM11.8368 56.6537C11.8367 57.2064 11.3872 57.656 10.8345 57.656H3.3463C2.79364 57.656 2.34411 57.2064 2.34411 56.6537V35.9566C2.34411 35.404 2.79364 34.9543 3.3463 34.9543H5.91855V49.3825C5.91855 50.0296 6.4432 50.5544 7.09042 50.5544C7.73765 50.5544 8.26229 50.0296 8.26229 49.3825V34.9543H10.8345C11.2722 34.9543 11.6443 35.2369 11.7806 35.6287C11.7903 35.6854 11.8044 35.7417 11.8229 35.7974C11.8312 35.8494 11.8368 35.9022 11.8368 35.9566V56.6537ZM38.3151 34.9542V34.9543C39.3953 34.9543 40.2739 35.833 40.2739 36.9131C40.2739 37.9932 39.3953 38.872 38.3151 38.872H31.9576C31.3104 38.872 30.7858 39.3968 30.7858 40.0439C30.7858 40.691 31.3104 41.2157 31.9576 41.2157L40.828 41.216C41.9081 41.216 42.7868 42.0946 42.7868 43.1748C42.7868 44.2549 41.9081 45.1337 40.828 45.1337H31.9576C31.3104 45.1337 30.7858 45.6584 30.7858 46.3055C30.7858 46.9526 31.3104 47.4774 31.9576 47.4774H38.5656C39.6457 47.4774 40.5244 48.3561 40.5244 49.4362C40.5244 50.5163 39.6457 51.395 38.5656 51.395H31.9576C31.3104 51.395 30.7858 51.9197 30.7858 52.5668C30.7858 53.2139 31.3104 53.7387 31.9576 53.7387H36.1319C37.2121 53.7387 38.0907 54.6175 38.0907 55.6976C38.0907 56.7777 37.2121 57.6564 36.1319 57.6564H20.32C18.7255 57.6564 17.1643 57.3611 15.6799 56.779L14.1805 56.1909V36.0855L17.0376 34.5297C19.4471 33.2177 21.288 31.0745 22.2214 28.4946L24.5052 22.1827L25.1352 22.3742C26.2778 22.7216 27.208 23.4976 27.7546 24.5594C28.3012 25.6211 28.3922 26.8292 28.011 27.9608L26.1762 33.4083C26.0557 33.7659 26.1149 34.1597 26.335 34.466C26.5552 34.7724 26.9093 34.9542 27.2868 34.9542H38.3151Z" fill="#E63A27"/>
<path d="M54.6327 11.3643C54.4107 10.6818 53.8316 10.1937 53.1212 10.0907L51.0484 9.79014L50.1209 7.91222C49.803 7.26875 49.16 6.86914 48.4424 6.86914H48.4419C47.7241 6.86937 47.081 7.26933 46.7636 7.91304L45.8371 9.79155L43.7643 10.0933C43.054 10.1968 42.4751 10.6851 42.2535 11.3678C42.0319 12.0504 42.2135 12.7858 42.7278 13.2868L44.228 14.7483L43.8744 16.8128C43.7533 17.5204 44.0387 18.2218 44.6196 18.6436C44.9477 18.8819 45.3314 19.0028 45.7179 19.0028C46.0156 19.0028 46.3149 18.931 46.5913 18.7855L48.4451 17.8103L50.2993 18.7845C50.9347 19.1182 51.6901 19.0635 52.2708 18.6414C52.8513 18.2193 53.1364 17.5177 53.0149 16.8102L52.6603 14.746L54.1599 13.2835C54.6733 12.7822 54.8546 12.0468 54.6327 11.3643ZM50.846 13.2413C50.4048 13.6715 50.2038 14.2911 50.3081 14.8984L50.5428 16.2651L49.3148 15.6198C48.7692 15.3337 48.118 15.3337 47.573 15.6206L46.3457 16.2663L46.5797 14.8995C46.6838 14.2919 46.4823 13.6724 46.0409 13.2425L45.0475 12.2747L46.4199 12.0749C47.0298 11.9862 47.5566 11.6033 47.829 11.0506L48.4425 9.8069L49.0566 11.0503C49.3295 11.6028 49.8565 11.9854 50.4663 12.0739L51.8387 12.2729L50.846 13.2413Z" fill="#E63A27"/>
<path d="M39.725 11.3643C39.5029 10.6818 38.9239 10.1939 38.2135 10.0907L36.1407 9.79014L35.2131 7.91222C34.8953 7.26875 34.2523 6.86914 33.5347 6.86914H33.5342C32.8164 6.86937 32.1732 7.26933 31.8557 7.91316L30.9294 9.79155L28.8566 10.0933C28.1463 10.1968 27.5674 10.6851 27.3458 11.3678C27.1242 12.0504 27.3058 12.7858 27.82 13.2868L29.3203 14.7483L28.9667 16.8128C28.8455 17.5204 29.1311 18.2219 29.7119 18.6436C30.0399 18.8819 30.4237 19.0028 30.8101 19.0028C31.1077 19.0028 31.4069 18.931 31.6833 18.7855L33.5371 17.8103L35.3915 18.7845C36.027 19.1182 36.7822 19.0635 37.3629 18.6414C37.9435 18.2193 38.2286 17.5177 38.1071 16.8102L37.7525 14.746L39.2521 13.2835C39.7657 12.7822 39.947 12.0469 39.725 11.3643ZM35.9383 13.2413C35.4971 13.6715 35.2961 14.2911 35.4004 14.8984L35.6351 16.2651L34.4071 15.62C33.8614 15.3334 33.2102 15.3338 32.6651 15.6206L31.4378 16.2663L31.6719 14.8995C31.7759 14.2919 31.5745 13.6724 31.133 13.2425L30.1396 12.2747L31.5119 12.0749C32.1217 11.9862 32.6485 11.6034 32.9213 11.0505L33.5347 9.80678L34.1486 11.05C34.4214 11.6027 34.9485 11.9854 35.5585 12.0739L36.9309 12.2729L35.9383 13.2413Z" fill="#E63A27"/>
<path d="M24.8173 11.3643C24.5953 10.6818 24.0161 10.1937 23.3059 10.0907L21.2331 9.79014L20.3055 7.91222C19.9877 7.26875 19.3447 6.86914 18.6271 6.86914H18.6266C17.9088 6.86937 17.2656 7.26933 16.9481 7.91316L16.0217 9.79155L13.9489 10.0933C13.2386 10.1968 12.6598 10.6852 12.4381 11.368C12.2165 12.0506 12.3982 12.7859 12.9123 13.2868L14.4125 14.7483L14.059 16.8128C13.9378 17.5204 14.2234 18.2219 14.8042 18.6436C15.1322 18.8819 15.516 19.0028 15.9023 19.0028C16.2 19.0028 16.4992 18.931 16.7756 18.7855L18.6294 17.8103L20.4836 18.7845C21.119 19.1182 21.8744 19.0635 22.4551 18.6414C23.0356 18.2193 23.3207 17.5177 23.1992 16.8102L22.8446 14.746L24.3443 13.2835C24.8581 12.7822 25.0393 12.0469 24.8173 11.3643ZM21.0307 13.2413C20.5895 13.6715 20.3885 14.2911 20.4928 14.8984L20.7275 16.2651L19.4995 15.62C18.9539 15.3334 18.3024 15.3338 17.7575 15.6206L16.5302 16.2663L16.7644 14.8991C16.8682 14.2918 16.6667 13.6726 16.2254 13.2425L15.232 12.2747L16.6043 12.0749C17.2141 11.9862 17.7409 11.6034 18.0137 11.0505L18.6271 9.80678L19.241 11.05C19.5138 11.6027 20.0409 11.9854 20.6509 12.0739L22.0234 12.2729L21.0307 13.2413Z" fill="#E63A27"/>
<path d="M7.09033 52.4248C6.4431 52.4248 5.91846 52.9496 5.91846 53.5967V53.615C5.91846 54.2621 6.4431 54.7868 7.09033 54.7868C7.73755 54.7868 8.2622 54.2621 8.2622 53.615V53.5967C8.2622 52.9496 7.73755 52.4248 7.09033 52.4248Z" fill="#E63A27"/>
</g>
<defs>
<clipPath id="clip0_1709_4286">
<rect width="60" height="60" fill="white"/>
</clipPath>
</defs>
</svg>
