<svg width="50" height="50" viewBox="0 0 50 50" fill="none" xmlns="http://www.w3.org/2000/svg">
<g clip-path="url(#clip0_1892_12022)">
<path d="M14.8018 20.4032C14.6201 20.2216 14.3682 20.1171 14.1113 20.1171C13.8545 20.1171 13.6026 20.2215 13.4209 20.4032C13.2393 20.5848 13.1348 20.8368 13.1348 21.0936C13.1348 21.3505 13.2393 21.6024 13.4209 21.784C13.6025 21.9656 13.8545 22.0702 14.1113 22.0702C14.3682 22.0702 14.6201 21.9657 14.8018 21.784C14.9834 21.6024 15.0879 21.3505 15.0879 21.0936C15.0879 20.8368 14.9834 20.5848 14.8018 20.4032Z" fill="white"/>
<path d="M47.0698 0H8.2028C6.58738 0 5.27312 1.31425 5.27312 2.92968V19.1405C5.27312 20.756 6.58738 22.0702 8.2028 22.0702H9.96061C10.5 22.0702 10.9372 21.6329 10.9372 21.0937C10.9372 20.5544 10.5 20.1171 9.96061 20.1171H8.2028C7.66433 20.1171 7.22624 19.679 7.22624 19.1405V2.92968C7.22624 2.3912 7.66433 1.95312 8.2028 1.95312H47.0698C47.6083 1.95312 48.0464 2.3912 48.0464 2.92968V19.1405C48.0464 19.679 47.6083 20.1171 47.0698 20.1171H40.5379C40.2789 20.1171 40.0305 20.22 39.8474 20.4031L36.6317 23.6189L33.416 20.4031C33.2329 20.22 32.9844 20.1171 32.7255 20.1171H25.1098C25.038 19.9327 24.9568 19.7508 24.8649 19.5723C24.1657 18.2138 22.9755 17.2209 21.5138 16.7765L20.1019 16.3472C19.6048 16.1958 19.0763 16.4607 18.8995 16.9492L16.681 23.081C16.0657 24.7816 14.852 26.1945 13.2637 27.0595L11.1811 28.1934C10.6693 27.5722 9.89439 27.1754 9.02848 27.1754H2.78827C1.25078 27.1754 2.28689e-08 28.4263 2.28689e-08 29.9637V47.2113C-0.000195289 48.7489 1.25068 49.9998 2.78817 49.9998H9.02838C10.0004 49.9998 10.8574 49.4995 11.3566 48.7432L12.3531 49.134C13.8181 49.7087 15.359 50 16.9329 50H30.1095C32.0865 50 33.6949 48.3916 33.6949 46.4146C33.6949 45.7602 33.5178 45.1467 33.2103 44.6181C34.6648 44.161 35.7229 42.8002 35.7229 41.1968C35.7229 40.5258 35.5372 39.8975 35.2151 39.3599C36.6077 38.8673 37.6082 37.5381 37.6082 35.979C37.6082 34.3549 36.5225 32.9804 35.0391 32.5412C35.3408 32.0162 35.5142 31.4087 35.5142 30.761C35.5142 28.7841 33.9058 27.1756 31.9288 27.1756H24.0979L25.1931 23.9242C25.3978 23.3164 25.4946 22.6914 25.488 22.0703H32.321L35.9412 25.6905C36.1319 25.8811 36.3818 25.9766 36.6317 25.9766C36.8816 25.9766 37.1316 25.8811 37.3222 25.6905L40.9425 22.0702H47.0698C48.6853 22.0702 49.9995 20.756 49.9995 19.1405V2.92968C49.9995 1.31425 48.6853 0 47.0698 0ZM9.86363 47.2114C9.86354 47.672 9.48893 48.0467 9.02838 48.0467H2.78817C2.32763 48.0467 1.95302 47.672 1.95302 47.2114V29.9638C1.95302 29.5033 2.32763 29.1286 2.78817 29.1286H4.93172V41.1521C4.93172 41.6913 5.36892 42.1286 5.90828 42.1286C6.44763 42.1286 6.88484 41.6913 6.88484 41.1521V29.1286H9.02838C9.39313 29.1286 9.70318 29.364 9.81676 29.6906C9.82486 29.7379 9.83658 29.7847 9.85201 29.8311C9.85895 29.8745 9.86363 29.9185 9.86363 29.9638V47.2114ZM31.9289 29.1285V29.1286C32.829 29.1286 33.5612 29.8608 33.5612 30.7609C33.5612 31.661 32.829 32.3933 31.9289 32.3933H26.6309C26.0916 32.3933 25.6544 32.8306 25.6544 33.3699C25.6544 33.9091 26.0916 34.3464 26.6309 34.3464L34.0229 34.3466C34.923 34.3466 35.6552 35.0789 35.6552 35.979C35.6552 36.8791 34.923 37.6114 34.0229 37.6114H26.6309C26.0916 37.6114 25.6544 38.0487 25.6544 38.5879C25.6544 39.1272 26.0916 39.5645 26.6309 39.5645H32.1376C33.0377 39.5645 33.7699 40.2967 33.7699 41.1968C33.7699 42.0969 33.0377 42.8291 32.1376 42.8291H26.6309C26.0916 42.8291 25.6544 43.2664 25.6544 43.8057C25.6544 44.3449 26.0916 44.7822 26.6309 44.7822H30.1095C31.0096 44.7822 31.7419 45.5146 31.7419 46.4147C31.7419 47.3148 31.0096 48.047 30.1095 48.047H16.9329C15.6041 48.047 14.3032 47.8009 13.0662 47.3158L11.8167 46.8258V30.0713L14.1976 28.7748C16.2055 27.6814 17.7396 25.8954 18.5174 23.7455L20.4206 18.4856L20.9456 18.6451C21.8978 18.9347 22.673 19.5814 23.1284 20.4661C23.5839 21.3509 23.6598 22.3576 23.3421 23.3007L21.8131 27.8402C21.7127 28.1383 21.762 28.4664 21.9454 28.7217C22.1289 28.977 22.424 29.1285 22.7386 29.1285H31.9289Z" fill="white"/>
<path d="M45.5271 9.47022C45.3422 8.90148 44.8596 8.49474 44.2676 8.4089L42.5402 8.15841L41.7673 6.59348C41.5025 6.05725 40.9666 5.72424 40.3686 5.72424H40.3682C39.77 5.72444 39.2341 6.05774 38.9696 6.59416L38.1975 8.15959L36.4701 8.41105C35.8783 8.49728 35.3958 8.90421 35.2112 9.47315C35.0265 10.042 35.1779 10.6548 35.6064 11.0723L36.8566 12.2902L36.5619 14.0106C36.461 14.6003 36.6989 15.1848 37.1829 15.5363C37.4564 15.7348 37.7761 15.8356 38.0982 15.8356C38.3462 15.8356 38.5956 15.7758 38.826 15.6546L40.3708 14.8419L41.916 15.6537C42.4455 15.9318 43.075 15.8862 43.5589 15.5345C44.0427 15.1827 44.2803 14.598 44.179 14.0085L43.8835 12.2883L45.1332 11.0695C45.561 10.6518 45.7121 10.039 45.5271 9.47022ZM42.3716 11.0344C42.0039 11.3929 41.8364 11.9092 41.9234 12.4153L42.119 13.5542L41.0956 13.0165C40.6409 12.778 40.0983 12.778 39.6441 13.0171L38.6213 13.5552L38.8163 12.4162C38.903 11.9099 38.7352 11.3937 38.3673 11.0354L37.5395 10.2289L38.6831 10.0624C39.1914 9.98848 39.6304 9.66935 39.8574 9.2088L40.3687 8.17238L40.8804 9.20851C41.1078 9.66895 41.547 9.9878 42.0552 10.0615L43.1988 10.2274L42.3716 11.0344Z" fill="white"/>
<path d="M33.1043 9.47022C32.9192 8.90148 32.4367 8.49484 31.8447 8.4089L30.1174 8.15841L29.3444 6.59348C29.0796 6.05725 28.5438 5.72424 27.9457 5.72424H27.9453C27.3472 5.72444 26.8112 6.05774 26.5466 6.59426L25.7746 8.15959L24.0473 8.41105C23.4554 8.49728 22.973 8.90421 22.7883 9.47315C22.6037 10.042 22.755 10.6548 23.1835 11.0723L24.4337 12.2902L24.1391 14.0106C24.0381 14.6003 24.2761 15.1849 24.7601 15.5363C25.0334 15.7348 25.3532 15.8356 25.6752 15.8356C25.9233 15.8356 26.1726 15.7758 26.403 15.6546L27.9478 14.8419L29.4931 15.6537C30.0227 15.9318 30.652 15.8862 31.1359 15.5345C31.6197 15.1827 31.8573 14.598 31.7561 14.0085L31.4605 12.2883L32.7103 11.0695C33.1383 10.6518 33.2894 10.0391 33.1043 9.47022ZM29.9487 11.0344C29.5811 11.3929 29.4136 11.9092 29.5005 12.4153L29.6961 13.5542L28.6728 13.0166C28.218 12.7778 27.6753 12.7781 27.2211 13.0171L26.1984 13.5552L26.3934 12.4162C26.4801 11.9099 26.3122 11.3937 25.9444 11.0354L25.1165 10.2289L26.2601 10.0624C26.7683 9.98848 27.2072 9.66944 27.4346 9.2087L27.9457 8.17228L28.4573 9.20831C28.6847 9.66886 29.1239 9.9878 29.6322 10.0615L30.7759 10.2274L29.9487 11.0344Z" fill="white"/>
<path d="M20.6815 9.47022C20.4965 8.90148 20.0139 8.49474 19.422 8.4089L17.6946 8.15841L16.9217 6.59348C16.6568 6.05725 16.121 5.72424 15.5229 5.72424H15.5226C14.9244 5.72444 14.3884 6.05774 14.1238 6.59426L13.3519 8.15959L11.6245 8.41105C11.0325 8.49728 10.5502 8.90431 10.3655 9.47325C10.1808 10.0421 10.3322 10.6549 10.7607 11.0723L12.0109 12.2902L11.7162 14.0106C11.6152 14.6003 11.8532 15.1849 12.3372 15.5363C12.6106 15.7348 12.9304 15.8356 13.2524 15.8356C13.5004 15.8356 13.7497 15.7758 13.9801 15.6546L15.5249 14.8419L17.0701 15.6537C17.5996 15.9318 18.2291 15.8862 18.713 15.5345C19.1968 15.1827 19.4344 14.598 19.3331 14.0085L19.0376 12.2883L20.2873 11.0695C20.7155 10.6518 20.8665 10.0391 20.6815 9.47022ZM17.526 11.0344C17.1583 11.3929 16.9908 11.9092 17.0777 12.4153L17.2733 13.5542L16.25 13.0166C15.7953 12.7778 15.2524 12.7781 14.7983 13.0171L13.7756 13.5552L13.9707 12.4159C14.0572 11.9098 13.8894 11.3938 13.5216 11.0354L12.6938 10.2289L13.8373 10.0624C14.3455 9.98848 14.7845 9.66944 15.0118 9.2087L15.5229 8.17228L16.0346 9.20831C16.2619 9.66886 16.7012 9.9878 17.2095 10.0615L18.3532 10.2274L17.526 11.0344Z" fill="white"/>
<path d="M5.9082 43.6873C5.36885 43.6873 4.93164 44.1246 4.93164 44.6638V44.679C4.93164 45.2183 5.36885 45.6556 5.9082 45.6556C6.44755 45.6556 6.88476 45.2183 6.88476 44.679V44.6638C6.88476 44.1246 6.44755 43.6873 5.9082 43.6873Z" fill="white"/>
</g>
<defs>
<clipPath id="clip0_1892_12022">
<rect width="50" height="50" fill="white"/>
</clipPath>
</defs>
</svg>
