<svg width="60" height="60" viewBox="0 0 60 60" fill="none" xmlns="http://www.w3.org/2000/svg">
<path d="M8.4375 4.68604C6.37756 4.68604 4.6875 6.37601 4.6875 8.43598C4.6875 10.4959 6.37756 12.1859 8.4375 12.1859C10.1722 12.1859 11.6303 10.9821 12.052 9.3735H19.6875V13.8559C15.7033 16.9447 13.125 21.7632 13.125 27.1861C13.125 28.4776 13.2832 29.7308 13.559 30.9397H8.43567C8.40578 30.9382 8.37584 30.9382 8.34595 30.9397C8.11445 30.9628 7.89981 31.0712 7.7438 31.2438C7.58778 31.4163 7.50154 31.6409 7.50183 31.8735V42.3196C5.89217 42.7406 4.6875 44.2006 4.6875 45.936C4.6875 47.996 6.37756 49.686 8.4375 49.686C10.4975 49.686 12.1875 47.996 12.1875 45.936C12.1875 44.202 10.9845 42.7438 9.37683 42.3215V32.8074H14.1083C16.3303 39.0727 22.1404 43.6319 29.0662 44.0134V47.9447C27.4556 48.3651 26.25 49.8249 26.25 51.561C26.25 53.621 27.94 55.3111 30 55.3111C32.06 55.3111 33.75 53.621 33.75 51.561C33.75 49.8249 32.5444 48.3651 30.9338 47.9447V44.0134C37.8585 43.632 43.6689 39.0746 45.8917 32.811H50.625V42.3215C49.0164 42.7432 47.8125 44.2014 47.8125 45.936C47.8125 47.996 49.5025 49.686 51.5625 49.686C53.6224 49.686 55.3125 47.996 55.3125 45.936C55.3125 44.2014 54.1085 42.7432 52.5 42.3215V31.8735C52.4981 31.3555 52.0805 30.9338 51.5625 30.936H46.441C46.7163 29.7282 46.875 28.4764 46.875 27.1861C46.875 21.7632 44.2967 16.9447 40.3125 13.8559V9.3735H47.948C48.3698 10.9821 49.8278 12.1859 51.5625 12.1859C53.6224 12.1859 55.3125 10.4959 55.3125 8.43598C55.3125 6.37601 53.6224 4.68604 51.5625 4.68604C49.8278 4.68604 48.3698 5.88992 47.948 7.49847H39.375C38.857 7.49631 38.4391 7.91799 38.4375 8.43598V12.5944C35.9522 11.1521 33.076 10.311 30 10.311C26.924 10.311 24.0478 11.1521 21.5625 12.5944V8.43598C21.5606 7.91799 21.143 7.49631 20.625 7.49847H12.052C11.6303 5.88992 10.1722 4.68604 8.4375 4.68604ZM8.4375 6.56096C9.48415 6.56096 10.3125 7.38933 10.3125 8.43598C10.3125 9.48261 9.48415 10.311 8.4375 10.311C7.39088 10.311 6.5625 9.48261 6.5625 8.43598C6.5625 7.38933 7.39088 6.56096 8.4375 6.56096ZM51.5625 6.56096C52.6091 6.56096 53.4375 7.38933 53.4375 8.43598C53.4375 9.48261 52.6091 10.311 51.5625 10.311C50.5159 10.311 49.6875 9.48261 49.6875 8.43598C49.6875 7.38933 50.5159 6.56096 51.5625 6.56096ZM30 12.1859C38.2954 12.1859 45 18.8907 45 27.1861C45 35.4815 38.2954 42.186 30 42.186C21.7046 42.186 15 35.4815 15 27.1861C15 18.8907 21.7046 12.1859 30 12.1859ZM8.4375 44.061C9.48415 44.061 10.3125 44.8894 10.3125 45.936C10.3125 46.9826 9.48415 47.8111 8.4375 47.8111C7.39088 47.8111 6.5625 46.9826 6.5625 45.936C6.5625 44.8894 7.39088 44.061 8.4375 44.061ZM51.5625 44.061C52.6091 44.061 53.4375 44.8894 53.4375 45.936C53.4375 46.9826 52.6091 47.8111 51.5625 47.8111C50.5159 47.8111 49.6875 46.9826 49.6875 45.936C49.6875 44.8894 50.5159 44.061 51.5625 44.061ZM30 49.686C31.0466 49.686 31.875 50.5144 31.875 51.561C31.875 52.6077 31.0466 53.436 30 53.436C28.9534 53.436 28.125 52.6077 28.125 51.561C28.125 50.5144 28.9534 49.686 30 49.686Z" fill="white"/>
<path d="M30 14.061C29.7505 14.061 29.5077 14.1638 29.3353 14.3374L20.8997 22.7731C20.6251 23.0491 20.625 23.436 20.625 23.436C20.625 23.436 20.625 24.3735 21.5625 24.3735H22.5V37.4985C22.5019 38.0164 22.9196 38.438 23.4375 38.436H36.5625C37.0804 38.4379 37.4982 38.0164 37.5 37.4985C37.5 33.1235 37.5 28.7485 37.5 24.3735H38.4375C39.375 24.3735 39.375 23.436 39.375 23.436C39.375 23.436 39.3749 23.0492 39.1003 22.7731L30.6647 14.3374C30.4854 14.1571 30.2549 14.061 30 14.061ZM30 16.3224L36.167 22.4967H23.8348L30 16.3224ZM24.375 24.3736H26.25V32.8111H24.375V24.3736ZM28.125 24.3736H31.875V32.8111H28.125V24.3736ZM33.75 24.3736H35.625V32.8111L33.75 32.8075V24.3736ZM24.375 34.686H35.625V36.5611H24.375V34.686Z" fill="white"/>
<path d="M30 4.68604C30.1231 4.68603 30.245 4.71029 30.3588 4.7574C30.4725 4.80452 30.5759 4.87364 30.6629 4.96069C30.75 5.04775 30.819 5.15112 30.8662 5.26487C30.9133 5.37862 30.9375 5.50054 30.9375 5.62366C30.9375 5.74678 30.9133 5.86859 30.8662 5.98234C30.819 6.09608 30.75 6.19946 30.6629 6.28651C30.5759 6.37357 30.4725 6.44269 30.3588 6.4898C30.245 6.53692 30.1231 6.56117 30 6.56117C29.8769 6.56117 29.755 6.53692 29.6412 6.4898C29.5275 6.44269 29.4241 6.37357 29.3371 6.28651C29.25 6.19946 29.181 6.09608 29.1339 5.98234C29.0867 5.86859 29.0625 5.74677 29.0625 5.62366C29.0625 5.50054 29.0867 5.37862 29.1339 5.26487C29.181 5.15113 29.25 5.04775 29.3371 4.96069C29.4241 4.87364 29.5275 4.80452 29.6412 4.7574C29.755 4.71029 29.8769 4.68604 30 4.68604Z" fill="white"/>
<path d="M26.25 4.68604C26.3731 4.68603 26.495 4.71029 26.6088 4.7574C26.7225 4.80452 26.8259 4.87364 26.9129 4.96069C27 5.04775 27.069 5.15112 27.1162 5.26487C27.1633 5.37862 27.1875 5.50054 27.1875 5.62366C27.1875 5.74678 27.1633 5.86859 27.1162 5.98234C27.069 6.09608 27 6.19946 26.9129 6.28651C26.8259 6.37357 26.7225 6.44269 26.6088 6.4898C26.495 6.53692 26.3731 6.56117 26.25 6.56117C26.1269 6.56117 26.005 6.53692 25.8912 6.4898C25.7775 6.44269 25.6741 6.37357 25.5871 6.28651C25.5 6.19946 25.431 6.09608 25.3839 5.98234C25.3367 5.86859 25.3125 5.74677 25.3125 5.62366C25.3125 5.50054 25.3367 5.37862 25.3839 5.26487C25.431 5.15113 25.5 5.04775 25.5871 4.96069C25.6741 4.87364 25.7775 4.80452 25.8912 4.7574C26.005 4.71029 26.1269 4.68604 26.25 4.68604Z" fill="white"/>
<path d="M33.75 4.68604C33.8731 4.68603 33.995 4.71029 34.1088 4.7574C34.2225 4.80452 34.3259 4.87364 34.4129 4.96069C34.5 5.04775 34.569 5.15112 34.6162 5.26487C34.6633 5.37862 34.6875 5.50054 34.6875 5.62366C34.6875 5.74678 34.6633 5.86859 34.6162 5.98234C34.569 6.09608 34.5 6.19946 34.4129 6.28651C34.3259 6.37357 34.2225 6.44269 34.1088 6.4898C33.995 6.53692 33.8731 6.56117 33.75 6.56117C33.6269 6.56117 33.505 6.53692 33.3912 6.4898C33.2775 6.44269 33.1741 6.37357 33.0871 6.28651C33 6.19946 32.931 6.09608 32.8839 5.98234C32.8367 5.86859 32.8125 5.74677 32.8125 5.62366C32.8125 5.50054 32.8367 5.37862 32.8839 5.26487C32.931 5.15113 33 5.04775 33.0871 4.96069C33.1741 4.87364 33.2775 4.80452 33.3912 4.7574C33.505 4.71029 33.6269 4.68604 33.75 4.68604Z" fill="white"/>
<path d="M50.625 54.3735C50.625 54.4967 50.6492 54.6186 50.6964 54.7323C50.7435 54.8461 50.8125 54.9495 50.8996 55.0365C50.9866 55.1236 51.09 55.1927 51.2037 55.2398C51.3175 55.2869 51.4394 55.3112 51.5625 55.3112C51.6856 55.3112 51.8075 55.2869 51.9213 55.2398C52.035 55.1927 52.1384 55.1236 52.2254 55.0365C52.3125 54.9495 52.3815 54.8461 52.4287 54.7323C52.4758 54.6186 52.5 54.4967 52.5 54.3735C52.5 54.2504 52.4758 54.1286 52.4287 54.0149C52.3815 53.9011 52.3125 53.7978 52.2254 53.7107C52.1384 53.6236 52.035 53.5545 51.9213 53.5074C51.8075 53.4603 51.6856 53.436 51.5625 53.436C51.4394 53.436 51.3175 53.4603 51.2037 53.5074C51.09 53.5545 50.9866 53.6236 50.8996 53.7107C50.8125 53.7978 50.7435 53.9011 50.6964 54.0149C50.6492 54.1286 50.625 54.2504 50.625 54.3735Z" fill="white"/>
<path d="M48.75 54.3735C48.75 55.3111 47.8125 55.3112 47.8125 55.3112H38.4375C37.8123 55.3112 37.5 54.8424 37.5 54.3735C37.5 53.9047 37.8122 53.436 38.4375 53.436H47.8125C47.8125 53.436 48.75 53.436 48.75 54.3735Z" fill="white"/>
<path d="M39.375 50.6235C39.375 50.7467 39.3508 50.8686 39.3037 50.9823C39.2565 51.0961 39.1875 51.1995 39.1004 51.2865C39.0134 51.3736 38.91 51.4426 38.7963 51.4897C38.6826 51.5368 38.5606 51.5611 38.4375 51.5611C38.3144 51.5611 38.1925 51.5368 38.0787 51.4897C37.965 51.4426 37.8616 51.3736 37.7746 51.2865C37.6875 51.1995 37.6185 51.0961 37.5714 50.9823C37.5242 50.8686 37.5 50.7467 37.5 50.6235C37.5 50.5004 37.5242 50.3785 37.5714 50.2648C37.6185 50.151 37.6875 50.0476 37.7746 49.9606C37.8616 49.8735 37.965 49.8045 38.0787 49.7574C38.1925 49.7103 38.3144 49.686 38.4375 49.686C38.5606 49.686 38.6826 49.7103 38.7963 49.7574C38.91 49.8045 39.0134 49.8735 39.1004 49.9606C39.1875 50.0476 39.2565 50.151 39.3037 50.2648C39.3508 50.3785 39.375 50.5004 39.375 50.6235Z" fill="white"/>
<path d="M41.25 50.6235C41.25 51.561 42.1875 51.5611 42.1875 51.5611H45.9375C46.5627 51.5611 46.875 51.0924 46.875 50.6235C46.875 50.1547 46.5625 49.686 45.9375 49.686H42.1875C42.1875 49.686 41.25 49.686 41.25 50.6235Z" fill="white"/>
<path d="M7.5 54.3735C7.5 54.4967 7.52424 54.6186 7.57136 54.7323C7.61847 54.8461 7.68752 54.9495 7.77458 55.0365C7.86163 55.1236 7.96498 55.1927 8.07872 55.2398C8.19246 55.2869 8.31437 55.3112 8.43749 55.3112C8.56061 55.3112 8.68252 55.2869 8.79627 55.2398C8.91001 55.1927 9.01337 55.1236 9.10042 55.0365C9.18748 54.9495 9.25654 54.8461 9.30365 54.7323C9.35077 54.6186 9.37501 54.4967 9.37501 54.3735C9.37501 54.2504 9.35077 54.1286 9.30365 54.0149C9.25654 53.9011 9.18748 53.7978 9.10042 53.7107C9.01337 53.6236 8.91001 53.5545 8.79627 53.5074C8.68252 53.4603 8.56061 53.436 8.43749 53.436C8.31437 53.436 8.19246 53.4603 8.07872 53.5074C7.96498 53.5545 7.86163 53.6236 7.77458 53.7107C7.68752 53.7978 7.61847 53.9011 7.57136 54.0149C7.52424 54.1286 7.5 54.2504 7.5 54.3735Z" fill="white"/>
<path d="M22.5 54.3735C22.5 55.3111 21.5625 55.3112 21.5625 55.3112H12.1875C11.5623 55.3112 11.25 54.8424 11.25 54.3735C11.25 53.9047 11.5622 53.436 12.1875 53.436H21.5625C21.5625 53.436 22.5 53.436 22.5 54.3735Z" fill="white"/>
<path d="M22.5 50.6235C22.5 50.7467 22.4758 50.8686 22.4287 50.9823C22.3815 51.0961 22.3125 51.1995 22.2254 51.2865C22.1384 51.3736 22.035 51.4426 21.9213 51.4897C21.8075 51.5368 21.6856 51.5611 21.5625 51.5611C21.4394 51.5611 21.3175 51.5368 21.2037 51.4897C21.09 51.4426 20.9866 51.3736 20.8996 51.2865C20.8125 51.1995 20.7435 51.0961 20.6964 50.9823C20.6492 50.8686 20.625 50.7467 20.625 50.6235C20.625 50.5004 20.6492 50.3785 20.6964 50.2648C20.7435 50.151 20.8125 50.0476 20.8996 49.9606C20.9866 49.8735 21.09 49.8045 21.2037 49.7574C21.3175 49.7103 21.4394 49.686 21.5625 49.686C21.6856 49.686 21.8075 49.7103 21.9213 49.7574C22.035 49.8045 22.1384 49.8735 22.2254 49.9606C22.3125 50.0476 22.3815 50.151 22.4287 50.2648C22.4758 50.3785 22.5 50.5004 22.5 50.6235Z" fill="white"/>
<path d="M13.125 50.6235C13.125 51.561 14.0625 51.5611 14.0625 51.5611H17.8125C18.4377 51.5611 18.75 51.0924 18.75 50.6235C18.75 50.1547 18.4375 49.686 17.8125 49.686H14.0625C14.0625 49.686 13.125 49.686 13.125 50.6235Z" fill="white"/>
<path d="M10.3125 22.4985C10.4356 22.4985 10.5575 22.5228 10.6713 22.5699C10.785 22.617 10.8884 22.686 10.9754 22.7731C11.0625 22.8601 11.1315 22.9635 11.1786 23.0773C11.2258 23.191 11.25 23.3129 11.25 23.436C11.25 23.5592 11.2258 23.6811 11.1787 23.7948C11.1315 23.9086 11.0625 24.012 10.9754 24.099C10.8884 24.1861 10.785 24.2551 10.6713 24.3022C10.5575 24.3493 10.4356 24.3736 10.3125 24.3736C10.1894 24.3736 10.0675 24.3493 9.95372 24.3022C9.83998 24.2551 9.73663 24.186 9.64958 24.0989C9.56252 24.0118 9.49347 23.9086 9.44636 23.7948C9.39924 23.6811 9.375 23.5592 9.375 23.436C9.375 23.1874 9.47377 22.9489 9.64959 22.7731C9.8254 22.5973 10.0639 22.4985 10.3125 22.4985Z" fill="white"/>
<path d="M6.56249 20.6235C6.6856 20.6235 6.80751 20.6477 6.92126 20.6948C7.035 20.7419 7.13836 20.811 7.22541 20.8981C7.31247 20.9851 7.38153 21.0885 7.42864 21.2023C7.47576 21.316 7.50001 21.4378 7.50001 21.5609C7.50001 21.6841 7.47577 21.806 7.42865 21.9197C7.38154 22.0335 7.31248 22.1368 7.22542 22.2239C7.13837 22.311 7.03501 22.3801 6.92127 22.4272C6.80752 22.4743 6.68561 22.4985 6.56249 22.4985C6.43937 22.4985 6.31746 22.4742 6.20372 22.4271C6.08998 22.38 5.98663 22.311 5.89957 22.2239C5.81252 22.1368 5.74347 22.0335 5.69636 21.9197C5.64924 21.806 5.625 21.6841 5.625 21.5609C5.625 21.3123 5.72377 21.0739 5.89959 20.8981C6.0754 20.7223 6.31385 20.6235 6.56249 20.6235Z" fill="white"/>
<path d="M53.4375 24.3735C53.5606 24.3735 53.6825 24.3978 53.7963 24.4449C53.91 24.492 54.0134 24.561 54.1004 24.6481C54.1875 24.7351 54.2565 24.8385 54.3036 24.9523C54.3508 25.066 54.375 25.1879 54.375 25.311C54.375 25.4342 54.3508 25.5561 54.3037 25.6698C54.2565 25.7836 54.1875 25.8868 54.1004 25.9739C54.0134 26.061 53.91 26.1301 53.7963 26.1772C53.6825 26.2243 53.5606 26.2486 53.4375 26.2486C53.3144 26.2486 53.1925 26.2243 53.0787 26.1772C52.965 26.1301 52.8616 26.061 52.7746 25.9739C52.6875 25.8868 52.6185 25.7836 52.5714 25.6698C52.5242 25.5561 52.5 25.4342 52.5 25.311C52.5 25.0624 52.5988 24.8239 52.7746 24.6481C52.9504 24.4723 53.1889 24.3735 53.4375 24.3735Z" fill="white"/>
<path d="M49.6875 22.4985C49.8106 22.4985 49.9325 22.5228 50.0463 22.5699C50.16 22.617 50.2634 22.686 50.3504 22.7731C50.4375 22.8601 50.5065 22.9635 50.5536 23.0773C50.6008 23.191 50.625 23.3129 50.625 23.436C50.625 23.5592 50.6008 23.6811 50.5537 23.7948C50.5065 23.9086 50.4375 24.012 50.3504 24.099C50.2634 24.1861 50.16 24.2551 50.0463 24.3022C49.9325 24.3493 49.8106 24.3736 49.6875 24.3736C49.5644 24.3736 49.4425 24.3493 49.3287 24.3022C49.215 24.2551 49.1116 24.186 49.0246 24.0989C48.9375 24.0118 48.8685 23.9086 48.8214 23.7948C48.7742 23.6811 48.75 23.5592 48.75 23.436C48.75 23.1874 48.8488 22.9489 49.0246 22.7731C49.2004 22.5973 49.4389 22.4985 49.6875 22.4985Z" fill="white"/>
<path d="M6.56249 24.3735C6.6856 24.3735 6.80751 24.3978 6.92126 24.4449C7.035 24.492 7.13836 24.561 7.22541 24.6481C7.31247 24.7351 7.38153 24.8385 7.42864 24.9523C7.47576 25.066 7.50001 25.1879 7.50001 25.311C7.50001 25.4342 7.47577 25.5561 7.42865 25.6698C7.38154 25.7836 7.31248 25.8868 7.22542 25.9739C7.13837 26.061 7.03501 26.1301 6.92127 26.1772C6.80752 26.2243 6.68561 26.2486 6.56249 26.2486C6.43937 26.2486 6.31746 26.2243 6.20372 26.1772C6.08998 26.1301 5.98663 26.061 5.89957 25.9739C5.81252 25.8868 5.74347 25.7836 5.69636 25.6698C5.64924 25.5561 5.625 25.4342 5.625 25.311C5.625 25.0624 5.72377 24.8239 5.89959 24.6481C6.0754 24.4723 6.31385 24.3735 6.56249 24.3735Z" fill="white"/>
<path d="M53.4375 20.6235C53.5606 20.6235 53.6825 20.6477 53.7963 20.6948C53.91 20.7419 54.0134 20.811 54.1004 20.8981C54.1875 20.9851 54.2565 21.0885 54.3036 21.2023C54.3508 21.316 54.375 21.4378 54.375 21.5609C54.375 21.6841 54.3508 21.806 54.3037 21.9197C54.2565 22.0335 54.1875 22.1368 54.1004 22.2239C54.0134 22.311 53.91 22.3801 53.7963 22.4272C53.6825 22.4743 53.5606 22.4985 53.4375 22.4985C53.3144 22.4985 53.1925 22.4742 53.0787 22.4271C52.965 22.38 52.8616 22.311 52.7746 22.2239C52.6875 22.1368 52.6185 22.0335 52.5714 21.9197C52.5242 21.806 52.5 21.6841 52.5 21.5609C52.5 21.3123 52.5988 21.0739 52.7746 20.8981C52.9504 20.7223 53.1889 20.6235 53.4375 20.6235Z" fill="white"/>
</svg>
