<svg width="60" height="60" viewBox="0 0 60 60" fill="none" xmlns="http://www.w3.org/2000/svg">
<path d="M56.2922 57.9776H54.6069V5.05617C54.6069 4.49754 54.154 4.04496 53.5956 4.04496H34.7192C34.1607 4.04496 33.708 4.49754 33.708 5.05617V9.43816H31.6856V5.05617C31.6856 4.49754 31.2327 4.04496 30.6744 4.04496H26.2922V1.01121C26.2922 0.452578 25.8394 0 25.281 0C24.7226 0 24.2698 0.452578 24.2698 1.01121V4.04496H19.8878C19.3293 4.04496 18.8766 4.49754 18.8766 5.05617V9.43816H15.8429C15.2844 9.43816 14.8317 9.89074 14.8317 10.4494V18.8763H6.4047C5.84619 18.8763 5.39349 19.3289 5.39349 19.8875V57.9775H3.70787C3.14935 57.9775 2.69666 58.43 2.69666 58.9887C2.69666 59.5473 3.14947 60 3.70787 60H56.2922C56.8508 60 57.3035 59.5474 57.3035 58.9888C57.3035 58.4302 56.8506 57.9776 56.2922 57.9776ZM20.8989 6.06738H29.6629V9.43816H20.8989V6.06738ZM17.5281 57.9776H16.854V56.2922C16.854 55.7336 16.4011 55.281 15.8427 55.281C15.2844 55.281 14.8315 55.7336 14.8315 56.2922V57.9776H14.1574V54.6068H17.5281V57.9776ZM24.2697 32.0224V33.7621V57.9776H19.5506V53.5956C19.5506 53.037 19.0977 52.5844 18.5394 52.5844H13.1461C12.5876 52.5844 12.1349 53.037 12.1349 53.5956V57.9776H7.4158V20.8989H24.2697V32.0224ZM25.2809 18.8764H16.854V11.4607H33.7079V31.0112H26.2922V27.6404H29.326C29.8845 27.6404 30.3372 27.1879 30.3372 26.6292C30.3372 26.0706 29.8844 25.618 29.326 25.618H26.2922V22.2472H29.326C29.8845 22.2472 30.3372 21.7946 30.3372 21.236C30.3372 20.6774 29.8844 20.2248 29.326 20.2248H26.2922V19.8878C26.2922 19.329 25.8394 18.8764 25.2809 18.8764ZM43.1462 57.9776H26.2922V33.7621V33.0337H43.1462V57.9776ZM52.5843 57.9776H45.1686V32.0224V30.6741C45.1686 30.1154 44.7158 29.6629 44.1574 29.6629C43.599 29.6629 43.1462 30.1154 43.1462 30.6741V31.0111H41.1237V30.6741C41.1237 30.1154 40.6709 29.6629 40.1125 29.6629C39.5541 29.6629 39.1013 30.1154 39.1013 30.6741V31.0111H35.7305V10.4495V6.06738H52.5844V57.9776H52.5843Z" fill="white"/>
<path d="M30.6742 55.9554C31.2327 55.9554 31.6854 55.5026 31.6854 54.9442V36.0679C31.6854 35.5092 31.2326 35.0566 30.6742 35.0566C30.1158 35.0566 29.663 35.5092 29.663 36.0679V54.9443C29.663 55.5027 30.1157 55.9554 30.6742 55.9554Z" fill="white"/>
<path d="M34.7192 55.9554C35.2777 55.9554 35.7304 55.5026 35.7304 54.9442V36.0679C35.7304 35.5092 35.2776 35.0566 34.7192 35.0566C34.1608 35.0566 33.708 35.5092 33.708 36.0679V54.9443C33.7079 55.5027 34.1607 55.9554 34.7192 55.9554Z" fill="white"/>
<path d="M38.764 55.9554C39.3225 55.9554 39.7752 55.5026 39.7752 54.9442V36.0679C39.7752 35.5092 39.3224 35.0566 38.764 35.0566C38.2056 35.0566 37.7528 35.5092 37.7528 36.0679V54.9443C37.7528 55.5027 38.2056 55.9554 38.764 55.9554Z" fill="white"/>
<path d="M40.1124 12.8091C40.6709 12.8091 41.1236 12.3566 41.1236 11.7979V10.4497C41.1236 9.89105 40.6708 9.43848 40.1124 9.43848C39.554 9.43848 39.1012 9.89105 39.1012 10.4497V11.798C39.1012 12.3566 39.5539 12.8091 40.1124 12.8091Z" fill="white"/>
<path d="M44.1573 12.8091C44.7158 12.8091 45.1685 12.3566 45.1685 11.7979V10.4497C45.1685 9.89105 44.7157 9.43848 44.1573 9.43848C43.5989 9.43848 43.1461 9.89105 43.1461 10.4497V11.798C43.1461 12.3566 43.5988 12.8091 44.1573 12.8091Z" fill="white"/>
<path d="M48.2024 12.8091C48.7609 12.8091 49.2136 12.3566 49.2136 11.7979V10.4497C49.2136 9.89105 48.7608 9.43848 48.2024 9.43848C47.644 9.43848 47.1912 9.89105 47.1912 10.4497V11.798C47.1912 12.3566 47.6439 12.8091 48.2024 12.8091Z" fill="white"/>
<path d="M40.1124 19.5505C40.6709 19.5505 41.1236 19.0979 41.1236 18.5393V17.1909C41.1236 16.6323 40.6708 16.1797 40.1124 16.1797C39.554 16.1797 39.1012 16.6323 39.1012 17.1909V18.5393C39.1012 19.0979 39.5539 19.5505 40.1124 19.5505Z" fill="white"/>
<path d="M44.1573 19.5505C44.7158 19.5505 45.1685 19.0979 45.1685 18.5393V17.1909C45.1685 16.6323 44.7157 16.1797 44.1573 16.1797C43.5989 16.1797 43.1461 16.6323 43.1461 17.1909V18.5393C43.1461 19.0979 43.5988 19.5505 44.1573 19.5505Z" fill="white"/>
<path d="M48.2024 19.5505C48.7609 19.5505 49.2136 19.0979 49.2136 18.5393V17.1909C49.2136 16.6323 48.7608 16.1797 48.2024 16.1797C47.644 16.1797 47.1912 16.6323 47.1912 17.1909V18.5393C47.1912 19.0979 47.6439 19.5505 48.2024 19.5505Z" fill="white"/>
<path d="M40.1124 26.2922C40.6709 26.2922 41.1236 25.8396 41.1236 25.281V23.9326C41.1236 23.374 40.6708 22.9214 40.1124 22.9214C39.554 22.9214 39.1012 23.374 39.1012 23.9326V25.281C39.1012 25.8395 39.5539 26.2922 40.1124 26.2922Z" fill="white"/>
<path d="M44.1573 26.2922C44.7158 26.2922 45.1685 25.8396 45.1685 25.281V23.9326C45.1685 23.374 44.7157 22.9214 44.1573 22.9214C43.5989 22.9214 43.1461 23.374 43.1461 23.9326V25.281C43.1461 25.8395 43.5988 26.2922 44.1573 26.2922Z" fill="white"/>
<path d="M48.2024 26.2922C48.7609 26.2922 49.2136 25.8396 49.2136 25.281V23.9326C49.2136 23.374 48.7608 22.9214 48.2024 22.9214C47.644 22.9214 47.1912 23.374 47.1912 23.9326V25.281C47.1912 25.8395 47.6439 26.2922 48.2024 26.2922Z" fill="white"/>
<path d="M11.7978 28.9889C12.3563 28.9889 12.809 28.5364 12.809 27.9777V26.6294C12.809 26.0707 12.3562 25.6182 11.7978 25.6182C11.2394 25.6182 10.7866 26.0707 10.7866 26.6294V27.9777C10.7866 28.5363 11.2394 28.9889 11.7978 28.9889Z" fill="white"/>
<path d="M15.8428 28.9889C16.4013 28.9889 16.854 28.5364 16.854 27.9777V26.6294C16.854 26.0707 16.4012 25.6182 15.8428 25.6182C15.2844 25.6182 14.8315 26.0707 14.8315 26.6294V27.9777C14.8315 28.5363 15.2842 28.9889 15.8428 28.9889Z" fill="white"/>
<path d="M19.8877 28.9889C20.4462 28.9889 20.8989 28.5364 20.8989 27.9777V26.6294C20.8989 26.0707 20.4461 25.6182 19.8877 25.6182C19.3293 25.6182 18.8765 26.0707 18.8765 26.6294V27.9777C18.8765 28.5363 19.3292 28.9889 19.8877 28.9889Z" fill="white"/>
<path d="M11.7978 35.7302C12.3563 35.7302 12.809 35.2776 12.809 34.7189V33.3706C12.809 32.812 12.3562 32.3594 11.7978 32.3594C11.2394 32.3594 10.7866 32.812 10.7866 33.3706V34.7189C10.7866 35.2775 11.2394 35.7302 11.7978 35.7302Z" fill="white"/>
<path d="M15.8428 35.7302C16.4013 35.7302 16.854 35.2776 16.854 34.7189V33.3706C16.854 32.812 16.4012 32.3594 15.8428 32.3594C15.2844 32.3594 14.8315 32.812 14.8315 33.3706V34.7189C14.8315 35.2775 15.2842 35.7302 15.8428 35.7302Z" fill="white"/>
<path d="M19.8877 35.7302C20.4462 35.7302 20.8989 35.2776 20.8989 34.7189V33.3706C20.8989 32.812 20.4461 32.3594 19.8877 32.3594C19.3293 32.3594 18.8765 32.812 18.8765 33.3706V34.7189C18.8765 35.2775 19.3292 35.7302 19.8877 35.7302Z" fill="white"/>
<path d="M11.7978 42.4719C12.3563 42.4719 12.809 42.0193 12.809 41.4606V40.1123C12.809 39.5537 12.3562 39.1011 11.7978 39.1011C11.2394 39.1011 10.7866 39.5537 10.7866 40.1123V41.4606C10.7866 42.0193 11.2394 42.4719 11.7978 42.4719Z" fill="white"/>
<path d="M15.8428 42.4719C16.4013 42.4719 16.854 42.0193 16.854 41.4606V40.1123C16.854 39.5537 16.4012 39.1011 15.8428 39.1011C15.2844 39.1011 14.8315 39.5537 14.8315 40.1123V41.4606C14.8315 42.0193 15.2842 42.4719 15.8428 42.4719Z" fill="white"/>
<path d="M19.8877 42.4719C20.4462 42.4719 20.8989 42.0193 20.8989 41.4606V40.1123C20.8989 39.5537 20.4461 39.1011 19.8877 39.1011C19.3293 39.1011 18.8765 39.5537 18.8765 40.1123V41.4606C18.8765 42.0193 19.3292 42.4719 19.8877 42.4719Z" fill="white"/>
<path d="M11.7978 49.2136C12.3563 49.2136 12.809 48.761 12.809 48.2023V46.854C12.809 46.2954 12.3562 45.8428 11.7978 45.8428C11.2394 45.8428 10.7866 46.2954 10.7866 46.854V48.2023C10.7866 48.761 11.2394 49.2136 11.7978 49.2136Z" fill="white"/>
<path d="M15.8428 49.2136C16.4013 49.2136 16.854 48.761 16.854 48.2023V46.854C16.854 46.2954 16.4012 45.8428 15.8428 45.8428C15.2844 45.8428 14.8315 46.2954 14.8315 46.854V48.2023C14.8315 48.761 15.2842 49.2136 15.8428 49.2136Z" fill="white"/>
<path d="M19.8877 49.2136C20.4462 49.2136 20.8989 48.761 20.8989 48.2023V46.854C20.8989 46.2954 20.4461 45.8428 19.8877 45.8428C19.3293 45.8428 18.8765 46.2954 18.8765 46.854V48.2023C18.8765 48.761 19.3292 49.2136 19.8877 49.2136Z" fill="white"/>
<path d="M48.2024 33.0339C48.7609 33.0339 49.2136 32.5813 49.2136 32.0227V30.6743C49.2136 30.1157 48.7608 29.6631 48.2024 29.6631C47.644 29.6631 47.1912 30.1157 47.1912 30.6743V32.0227C47.1912 32.5812 47.6439 33.0339 48.2024 33.0339Z" fill="white"/>
<path d="M48.2024 39.7751C48.7609 39.7751 49.2136 39.3225 49.2136 38.7639V37.4155C49.2136 36.8569 48.7608 36.4043 48.2024 36.4043C47.644 36.4043 47.1912 36.8569 47.1912 37.4155V38.7639C47.1912 39.3224 47.6439 39.7751 48.2024 39.7751Z" fill="white"/>
<path d="M48.2024 46.5168C48.7609 46.5168 49.2136 46.0642 49.2136 45.5056V44.1572C49.2136 43.5986 48.7608 43.146 48.2024 43.146C47.644 43.146 47.1912 43.5986 47.1912 44.1572V45.5056C47.1912 46.0641 47.6439 46.5168 48.2024 46.5168Z" fill="white"/>
<path d="M48.2024 53.2585C48.7609 53.2585 49.2136 52.8059 49.2136 52.2473V50.8989C49.2136 50.3403 48.7608 49.8877 48.2024 49.8877C47.644 49.8877 47.1912 50.3403 47.1912 50.8989V52.2473C47.1912 52.8058 47.6439 53.2585 48.2024 53.2585Z" fill="white"/>
<path d="M30.3371 15.8428C30.3371 15.2841 29.8843 14.8315 29.3259 14.8315H21.2359C20.6774 14.8315 20.2247 15.2841 20.2247 15.8428C20.2247 16.4014 20.6775 16.854 21.2359 16.854H29.3259C29.8844 16.854 30.3371 16.4014 30.3371 15.8428Z" fill="white"/>
</svg>
