<svg width="50" height="50" viewBox="0 0 50 50" fill="none" xmlns="http://www.w3.org/2000/svg">
<path d="M47.6562 43.75H46.875C46.8672 43.2299 46.7567 42.7165 46.55 42.2392C46.3433 41.7619 46.0443 41.3302 45.6703 40.9687C45.1319 40.4231 44.4409 40.0535 43.6882 39.9086C43.3382 39.1866 42.792 38.5778 42.1121 38.1519C41.4322 37.7259 40.6461 37.5 39.8438 37.5C39.0414 37.5 38.2553 37.7259 37.5754 38.1519C36.8955 38.5778 36.3493 39.1866 35.9993 39.9086C35.2466 40.0535 34.5556 40.4231 34.0172 40.9687C33.6432 41.3302 33.3442 41.7619 33.1375 42.2392C32.9308 42.7165 32.8203 43.2299 32.8125 43.75H23.4375V25.7812C23.4375 25.574 23.3552 25.3753 23.2087 25.2288C23.0622 25.0823 22.8635 25 22.6562 25H11.7188C11.5115 25 11.3128 25.0823 11.1663 25.2288C11.0198 25.3753 10.9375 25.574 10.9375 25.7812V43.75H7.8125V22.1628L25 8.04252L42.1875 22.1628V35.9375C42.1875 36.1447 42.2698 36.3434 42.4163 36.4899C42.5628 36.6364 42.7616 36.7188 42.9688 36.7188C43.1759 36.7188 43.3747 36.6364 43.5212 36.4899C43.6677 36.3434 43.75 36.1447 43.75 35.9375V23.4464L44.5118 24.0723C44.6708 24.203 44.8749 24.2657 45.0799 24.2467C45.2848 24.2277 45.474 24.1285 45.6062 23.9708L48.2548 20.8145C48.3211 20.7354 48.3711 20.6439 48.4019 20.5453C48.4327 20.4467 48.4436 20.343 48.4341 20.2402C48.4245 20.1374 48.3947 20.0375 48.3463 19.9462C48.2979 19.855 48.2319 19.7743 48.1522 19.7087L43.75 16.0925V3.125C43.7496 2.71073 43.5848 2.31354 43.2919 2.0206C42.999 1.72767 42.6018 1.56291 42.1875 1.5625H35.9375C35.5232 1.56291 35.126 1.72767 34.8331 2.0206C34.5402 2.31354 34.3754 2.71073 34.375 3.125V8.39162L26.881 2.2358C26.3448 1.81396 25.6823 1.58463 25 1.58463C24.3177 1.58463 23.6552 1.81396 23.119 2.2358L1.84784 19.7086C1.76806 19.7742 1.70208 19.8549 1.6537 19.9462C1.60531 20.0374 1.57549 20.1373 1.56595 20.2401C1.55641 20.343 1.56734 20.4467 1.59811 20.5452C1.62888 20.6438 1.67888 20.7353 1.74523 20.8145L4.39377 23.9707C4.52599 24.1285 4.71515 24.2276 4.92011 24.2466C5.12506 24.2656 5.32923 24.2029 5.4882 24.0722L6.25 23.4464V43.75H2.34375C2.13655 43.75 1.93784 43.8323 1.79132 43.9788C1.64481 44.1253 1.5625 44.3241 1.5625 44.5312V47.6562C1.5625 47.8634 1.64481 48.0622 1.79132 48.2087C1.93784 48.3552 2.13655 48.4375 2.34375 48.4375H47.6562C47.8634 48.4375 48.0622 48.3552 48.2087 48.2087C48.3552 48.0622 48.4375 47.8634 48.4375 47.6562V44.5312C48.4375 44.3241 48.3552 44.1253 48.2087 43.9788C48.0622 43.8323 47.8634 43.75 47.6562 43.75ZM35.9375 3.125H42.1875V14.809L35.9375 9.67507V3.125ZM5.09375 22.3743L3.44963 20.4151L24.1108 3.44352C24.3641 3.24375 24.6774 3.13511 25 3.13511C25.3226 3.13511 25.6359 3.24375 25.8892 3.44352L46.5504 20.4151L44.9062 22.3743L25.4959 6.42777C25.3562 6.31284 25.1809 6.25 25 6.25C24.8191 6.25 24.6438 6.31284 24.5041 6.42777L5.09375 22.3743ZM35.1139 42.0818C35.4804 41.6872 35.987 41.4522 36.525 41.4272C36.6891 41.4297 36.8499 41.3804 36.9845 41.2863C37.119 41.1922 37.2205 41.0581 37.2746 40.9031C37.4569 40.3664 37.8027 39.9002 38.2635 39.5701C38.7243 39.24 39.2769 39.0625 39.8438 39.0625C40.4106 39.0625 40.9632 39.24 41.424 39.5701C41.8848 39.9002 42.2306 40.3664 42.4129 40.9031C42.4653 41.0592 42.5664 41.1944 42.7013 41.2888C42.8363 41.3832 42.9979 41.4317 43.1625 41.4272C43.6991 41.4578 44.2038 41.6919 44.5736 42.0818C44.8004 42.2977 44.9824 42.5561 45.1092 42.8423C45.236 43.1286 45.3051 43.437 45.3125 43.75H34.375C34.3824 43.437 34.4515 43.1286 34.5783 42.8423C34.7051 42.5561 34.8871 42.2977 35.1139 42.0818ZM12.5 26.5625H21.875V43.75H12.5V26.5625ZM46.875 46.875H3.125V45.3125H46.875V46.875ZM27.3438 25C27.1365 25 26.9378 25.0823 26.7913 25.2288C26.6448 25.3753 26.5625 25.574 26.5625 25.7812V35.1562C26.5625 35.3634 26.6448 35.5622 26.7913 35.7087C26.9378 35.8552 27.1365 35.9375 27.3438 35.9375H38.2812C38.4884 35.9375 38.6872 35.8552 38.8337 35.7087C38.9802 35.5622 39.0625 35.3634 39.0625 35.1562V25.7812C39.0625 25.574 38.9802 25.3753 38.8337 25.2288C38.6872 25.0823 38.4884 25 38.2812 25H27.3438ZM37.5 29.6875H33.5938V26.5625H37.5V29.6875ZM32.0312 26.5625V29.6875H28.125V26.5625H32.0312ZM28.125 31.25H32.0312V34.375H28.125V31.25ZM33.5938 34.375V31.25H37.5V34.375H33.5938Z" fill="white"/>
</svg>
