<svg width="60" height="60" viewBox="0 0 60 60" fill="none" xmlns="http://www.w3.org/2000/svg">
<path d="M56.2924 57.9776H54.607V5.05617C54.607 4.49754 54.1542 4.04496 53.5958 4.04496H34.7193C34.1608 4.04496 33.7081 4.49754 33.7081 5.05617V9.43816H31.6857V5.05617C31.6857 4.49754 31.2329 4.04496 30.6745 4.04496H26.2924V1.01121C26.2924 0.452578 25.8396 0 25.2812 0C24.7228 0 24.2699 0.452578 24.2699 1.01121V4.04496H19.888C19.3294 4.04496 18.8767 4.49754 18.8767 5.05617V9.43816H15.843C15.2845 9.43816 14.8318 9.89074 14.8318 10.4494V18.8763H6.40482C5.84631 18.8763 5.39361 19.3289 5.39361 19.8875V57.9775H3.70799C3.14947 57.9775 2.69678 58.43 2.69678 58.9887C2.69678 59.5473 3.14959 60 3.70799 60H56.2924C56.8509 60 57.3036 59.5474 57.3036 58.9888C57.3036 58.4302 56.8508 57.9776 56.2924 57.9776ZM20.899 6.06738H29.663V9.43816H20.899V6.06738ZM17.5283 57.9776H16.8541V56.2922C16.8541 55.7336 16.4013 55.281 15.8429 55.281C15.2845 55.281 14.8317 55.7336 14.8317 56.2922V57.9776H14.1575V54.6068H17.5283V57.9776ZM24.2698 32.0224V33.7621V57.9776H19.5507V53.5956C19.5507 53.037 19.0979 52.5844 18.5395 52.5844H13.1463C12.5878 52.5844 12.1351 53.037 12.1351 53.5956V57.9776H7.41592V20.8989H24.2698V32.0224ZM25.281 18.8764H16.8541V11.4607H33.708V31.0112H26.2924V27.6404H29.3261C29.8846 27.6404 30.3373 27.1879 30.3373 26.6292C30.3373 26.0706 29.8845 25.618 29.3261 25.618H26.2924V22.2472H29.3261C29.8846 22.2472 30.3373 21.7946 30.3373 21.236C30.3373 20.6774 29.8845 20.2248 29.3261 20.2248H26.2924V19.8878C26.2924 19.329 25.8396 18.8764 25.281 18.8764ZM43.1463 57.9776H26.2924V33.7621V33.0337H43.1463V57.9776ZM52.5844 57.9776H45.1687V32.0224V30.6741C45.1687 30.1154 44.7159 29.6629 44.1575 29.6629C43.5991 29.6629 43.1463 30.1154 43.1463 30.6741V31.0111H41.1239V30.6741C41.1239 30.1154 40.671 29.6629 40.1126 29.6629C39.5542 29.6629 39.1014 30.1154 39.1014 30.6741V31.0111H35.7306V10.4495V6.06738H52.5846V57.9776H52.5844Z" fill="#E63A27"/>
<path d="M30.6743 55.9554C31.2328 55.9554 31.6855 55.5026 31.6855 54.9442V36.0679C31.6855 35.5092 31.2327 35.0566 30.6743 35.0566C30.1159 35.0566 29.6631 35.5092 29.6631 36.0679V54.9443C29.6631 55.5027 30.1158 55.9554 30.6743 55.9554Z" fill="#E63A27"/>
<path d="M34.7192 55.9554C35.2777 55.9554 35.7304 55.5026 35.7304 54.9442V36.0679C35.7304 35.5092 35.2776 35.0566 34.7192 35.0566C34.1608 35.0566 33.708 35.5092 33.708 36.0679V54.9443C33.7079 55.5027 34.1607 55.9554 34.7192 55.9554Z" fill="#E63A27"/>
<path d="M38.7641 55.9554C39.3227 55.9554 39.7754 55.5026 39.7754 54.9442V36.0679C39.7754 35.5092 39.3225 35.0566 38.7641 35.0566C38.2057 35.0566 37.7529 35.5092 37.7529 36.0679V54.9443C37.7529 55.5027 38.2057 55.9554 38.7641 55.9554Z" fill="#E63A27"/>
<path d="M40.1123 12.8091C40.6708 12.8091 41.1235 12.3566 41.1235 11.7979V10.4497C41.1235 9.89105 40.6707 9.43848 40.1123 9.43848C39.5539 9.43848 39.1011 9.89105 39.1011 10.4497V11.798C39.1011 12.3566 39.5538 12.8091 40.1123 12.8091Z" fill="#E63A27"/>
<path d="M44.1577 12.8091C44.7162 12.8091 45.1689 12.3566 45.1689 11.7979V10.4497C45.1689 9.89105 44.7161 9.43848 44.1577 9.43848C43.5993 9.43848 43.1465 9.89105 43.1465 10.4497V11.798C43.1465 12.3566 43.5992 12.8091 44.1577 12.8091Z" fill="#E63A27"/>
<path d="M48.2026 12.8091C48.7611 12.8091 49.2138 12.3566 49.2138 11.7979V10.4497C49.2138 9.89105 48.761 9.43848 48.2026 9.43848C47.6442 9.43848 47.1914 9.89105 47.1914 10.4497V11.798C47.1914 12.3566 47.6441 12.8091 48.2026 12.8091Z" fill="#E63A27"/>
<path d="M40.1123 19.5505C40.6708 19.5505 41.1235 19.0979 41.1235 18.5393V17.1909C41.1235 16.6323 40.6707 16.1797 40.1123 16.1797C39.5539 16.1797 39.1011 16.6323 39.1011 17.1909V18.5393C39.1011 19.0979 39.5538 19.5505 40.1123 19.5505Z" fill="#E63A27"/>
<path d="M44.1577 19.5505C44.7162 19.5505 45.1689 19.0979 45.1689 18.5393V17.1909C45.1689 16.6323 44.7161 16.1797 44.1577 16.1797C43.5993 16.1797 43.1465 16.6323 43.1465 17.1909V18.5393C43.1465 19.0979 43.5992 19.5505 44.1577 19.5505Z" fill="#E63A27"/>
<path d="M48.2026 19.5505C48.7611 19.5505 49.2138 19.0979 49.2138 18.5393V17.1909C49.2138 16.6323 48.761 16.1797 48.2026 16.1797C47.6442 16.1797 47.1914 16.6323 47.1914 17.1909V18.5393C47.1914 19.0979 47.6441 19.5505 48.2026 19.5505Z" fill="#E63A27"/>
<path d="M40.1123 26.2922C40.6708 26.2922 41.1235 25.8396 41.1235 25.281V23.9326C41.1235 23.374 40.6707 22.9214 40.1123 22.9214C39.5539 22.9214 39.1011 23.374 39.1011 23.9326V25.281C39.1011 25.8395 39.5538 26.2922 40.1123 26.2922Z" fill="#E63A27"/>
<path d="M44.1577 26.2922C44.7162 26.2922 45.1689 25.8396 45.1689 25.281V23.9326C45.1689 23.374 44.7161 22.9214 44.1577 22.9214C43.5993 22.9214 43.1465 23.374 43.1465 23.9326V25.281C43.1465 25.8395 43.5992 26.2922 44.1577 26.2922Z" fill="#E63A27"/>
<path d="M48.2026 26.2922C48.7611 26.2922 49.2138 25.8396 49.2138 25.281V23.9326C49.2138 23.374 48.761 22.9214 48.2026 22.9214C47.6442 22.9214 47.1914 23.374 47.1914 23.9326V25.281C47.1914 25.8395 47.6441 26.2922 48.2026 26.2922Z" fill="#E63A27"/>
<path d="M11.7978 28.9889C12.3563 28.9889 12.809 28.5364 12.809 27.9777V26.6294C12.809 26.0707 12.3562 25.6182 11.7978 25.6182C11.2394 25.6182 10.7866 26.0707 10.7866 26.6294V27.9777C10.7866 28.5363 11.2394 28.9889 11.7978 28.9889Z" fill="#E63A27"/>
<path d="M15.8428 28.9889C16.4013 28.9889 16.854 28.5364 16.854 27.9777V26.6294C16.854 26.0707 16.4012 25.6182 15.8428 25.6182C15.2844 25.6182 14.8315 26.0707 14.8315 26.6294V27.9777C14.8315 28.5363 15.2842 28.9889 15.8428 28.9889Z" fill="#E63A27"/>
<path d="M19.8877 28.9889C20.4462 28.9889 20.8989 28.5364 20.8989 27.9777V26.6294C20.8989 26.0707 20.4461 25.6182 19.8877 25.6182C19.3293 25.6182 18.8765 26.0707 18.8765 26.6294V27.9777C18.8765 28.5363 19.3292 28.9889 19.8877 28.9889Z" fill="#E63A27"/>
<path d="M11.7978 35.7302C12.3563 35.7302 12.809 35.2776 12.809 34.7189V33.3706C12.809 32.812 12.3562 32.3594 11.7978 32.3594C11.2394 32.3594 10.7866 32.812 10.7866 33.3706V34.7189C10.7866 35.2775 11.2394 35.7302 11.7978 35.7302Z" fill="#E63A27"/>
<path d="M15.8428 35.7302C16.4013 35.7302 16.854 35.2776 16.854 34.7189V33.3706C16.854 32.812 16.4012 32.3594 15.8428 32.3594C15.2844 32.3594 14.8315 32.812 14.8315 33.3706V34.7189C14.8315 35.2775 15.2842 35.7302 15.8428 35.7302Z" fill="#E63A27"/>
<path d="M19.8877 35.7302C20.4462 35.7302 20.8989 35.2776 20.8989 34.7189V33.3706C20.8989 32.812 20.4461 32.3594 19.8877 32.3594C19.3293 32.3594 18.8765 32.812 18.8765 33.3706V34.7189C18.8765 35.2775 19.3292 35.7302 19.8877 35.7302Z" fill="#E63A27"/>
<path d="M11.7978 42.4719C12.3563 42.4719 12.809 42.0193 12.809 41.4606V40.1123C12.809 39.5537 12.3562 39.1011 11.7978 39.1011C11.2394 39.1011 10.7866 39.5537 10.7866 40.1123V41.4606C10.7866 42.0193 11.2394 42.4719 11.7978 42.4719Z" fill="#E63A27"/>
<path d="M15.8428 42.4719C16.4013 42.4719 16.854 42.0193 16.854 41.4606V40.1123C16.854 39.5537 16.4012 39.1011 15.8428 39.1011C15.2844 39.1011 14.8315 39.5537 14.8315 40.1123V41.4606C14.8315 42.0193 15.2842 42.4719 15.8428 42.4719Z" fill="#E63A27"/>
<path d="M19.8877 42.4719C20.4462 42.4719 20.8989 42.0193 20.8989 41.4606V40.1123C20.8989 39.5537 20.4461 39.1011 19.8877 39.1011C19.3293 39.1011 18.8765 39.5537 18.8765 40.1123V41.4606C18.8765 42.0193 19.3292 42.4719 19.8877 42.4719Z" fill="#E63A27"/>
<path d="M11.7978 49.2136C12.3563 49.2136 12.809 48.761 12.809 48.2023V46.854C12.809 46.2954 12.3562 45.8428 11.7978 45.8428C11.2394 45.8428 10.7866 46.2954 10.7866 46.854V48.2023C10.7866 48.761 11.2394 49.2136 11.7978 49.2136Z" fill="#E63A27"/>
<path d="M15.8428 49.2136C16.4013 49.2136 16.854 48.761 16.854 48.2023V46.854C16.854 46.2954 16.4012 45.8428 15.8428 45.8428C15.2844 45.8428 14.8315 46.2954 14.8315 46.854V48.2023C14.8315 48.761 15.2842 49.2136 15.8428 49.2136Z" fill="#E63A27"/>
<path d="M19.8877 49.2136C20.4462 49.2136 20.8989 48.761 20.8989 48.2023V46.854C20.8989 46.2954 20.4461 45.8428 19.8877 45.8428C19.3293 45.8428 18.8765 46.2954 18.8765 46.854V48.2023C18.8765 48.761 19.3292 49.2136 19.8877 49.2136Z" fill="#E63A27"/>
<path d="M48.2026 33.0339C48.7611 33.0339 49.2138 32.5813 49.2138 32.0227V30.6743C49.2138 30.1157 48.761 29.6631 48.2026 29.6631C47.6442 29.6631 47.1914 30.1157 47.1914 30.6743V32.0227C47.1914 32.5812 47.6441 33.0339 48.2026 33.0339Z" fill="#E63A27"/>
<path d="M48.2026 39.7751C48.7611 39.7751 49.2138 39.3225 49.2138 38.7639V37.4155C49.2138 36.8569 48.761 36.4043 48.2026 36.4043C47.6442 36.4043 47.1914 36.8569 47.1914 37.4155V38.7639C47.1914 39.3224 47.6441 39.7751 48.2026 39.7751Z" fill="#E63A27"/>
<path d="M48.2026 46.5168C48.7611 46.5168 49.2138 46.0642 49.2138 45.5056V44.1572C49.2138 43.5986 48.761 43.146 48.2026 43.146C47.6442 43.146 47.1914 43.5986 47.1914 44.1572V45.5056C47.1914 46.0641 47.6441 46.5168 48.2026 46.5168Z" fill="#E63A27"/>
<path d="M48.2026 53.2585C48.7611 53.2585 49.2138 52.8059 49.2138 52.2473V50.8989C49.2138 50.3403 48.761 49.8877 48.2026 49.8877C47.6442 49.8877 47.1914 50.3403 47.1914 50.8989V52.2473C47.1914 52.8058 47.6441 53.2585 48.2026 53.2585Z" fill="#E63A27"/>
<path d="M30.3374 15.8428C30.3374 15.2841 29.8846 14.8315 29.3262 14.8315H21.2363C20.6778 14.8315 20.2251 15.2841 20.2251 15.8428C20.2251 16.4014 20.6779 16.854 21.2363 16.854H29.3262C29.8847 16.854 30.3374 16.4014 30.3374 15.8428Z" fill="#E63A27"/>
</svg>
