<svg width="60" height="60" viewBox="0 0 60 60" fill="none" xmlns="http://www.w3.org/2000/svg">
<g clip-path="url(#clip0_1581_1900)">
<path d="M57.8743 47.1509C57.2258 43.2631 54.4999 40.073 50.7607 38.8263L42.4574 36.0589V34.8247H40.5276V36.5124L33.773 49.1782L27.0184 36.5134V34.8247H25.0885V36.9958L32.808 51.4699V53.1586H21.2287V55.0885H32.808V57.9833H18.4623L19.2323 51.8221C20.4761 51.0039 21.2287 49.623 21.2287 48.1061V47.3689H19.2989V48.1061C19.2989 49.0692 18.7633 49.9357 17.9026 50.366L17.4404 50.5967L16.5169 57.9833H9.82315L10.9222 51.3869L9.01839 51.0704L7.54492 59.9132H60.0001L57.8743 47.1509ZM34.7379 57.9833V55.0885H46.3172V53.1586H34.7379V51.4699L41.9605 37.928L46.3172 39.3792V48.1052C46.3172 49.6221 47.0699 51.0029 48.3137 51.8221L49.0837 57.9833H34.7379ZM51.029 57.9833L50.1055 50.5967L49.6433 50.366C48.7826 49.9347 48.2471 49.0692 48.2471 48.1061V40.0228L50.1499 40.6568C53.2098 41.6777 55.4397 44.2879 55.9705 47.4683L57.7218 57.9833H51.029Z" fill="white"/>
<path d="M17.3689 21.3156C17.3689 23.7916 19.2505 25.8142 21.6551 26.0863C22.1473 27.7797 23.0562 29.3323 24.3377 30.6138L28.1 34.3761C29.0109 35.287 30.2228 35.7897 31.512 35.7897H36.0337C37.3229 35.7897 38.5348 35.287 39.4457 34.3761L43.208 30.6138C44.4895 29.3323 45.3975 27.7797 45.8906 26.0863C48.2952 25.8142 50.1768 23.7916 50.1768 21.3156C50.1768 20.2252 49.7996 19.2294 49.1868 18.4208H51.1418V12.6311H48.109C47.3419 6.9351 43.1839 2.16926 37.6326 0.631141V0.0869141H29.9131V0.631141C24.3628 2.16926 20.2048 6.9351 19.4367 12.6311H16.4039V18.4208H18.3589C17.7462 19.2294 17.3689 20.2252 17.3689 21.3156ZM19.2988 21.3156C19.2988 20.0593 20.1083 18.9978 21.2286 18.5983V23.1075C21.2286 23.423 21.247 23.7357 21.274 24.0464C20.1305 23.6604 19.2988 22.5884 19.2988 21.3156ZM44.3872 23.1075C44.3872 25.4282 43.4831 27.608 41.8436 29.2493L38.0813 33.0117C37.5342 33.5588 36.8076 33.8598 36.0337 33.8598H31.512C30.7381 33.8598 30.0106 33.5588 29.4644 33.0117L25.7021 29.2493C24.0627 27.6089 23.1585 25.4282 23.1585 23.1085V18.4208H44.3872V23.1075ZM46.2717 24.0464C46.2988 23.7357 46.3171 23.424 46.3171 23.1075V18.5983C47.4374 18.9978 48.247 20.0593 48.247 21.3156C48.247 22.5884 47.4152 23.6604 46.2717 24.0464ZM29.9131 2.64015V10.7013H31.843V2.0168H35.7027V10.7013H37.6326V2.64015C42.1042 4.09045 45.4429 7.98495 46.1685 12.6311H21.3772C22.1038 7.98399 25.4416 4.09045 29.9131 2.64015ZM18.3338 16.4909V14.561H49.2119V16.4909H18.3338Z" fill="white"/>
<path d="M41.4924 8.77148H39.5625V10.7014H41.4924V8.77148Z" fill="white"/>
<path d="M27.9832 8.77148H26.0533V10.7014H27.9832V8.77148Z" fill="white"/>
<path d="M8.85913 49.2987H14.3004L14.7993 46.8111C15.1187 46.6992 15.4313 46.5699 15.7353 46.4261L17.8456 47.832L21.6928 43.9848L20.2869 41.8745C20.4307 41.5715 20.56 41.2579 20.6719 40.9385L23.1586 40.4396V34.9983L20.671 34.4994C20.4905 33.989 20.2705 33.4968 20.011 33.0317L18.3242 33.9706C18.607 34.4772 18.8328 35.0263 18.9958 35.5994L19.1579 36.1649L21.2287 36.5798V38.8581L19.1579 39.273L18.9958 39.8384C18.8328 40.4126 18.607 40.9607 18.3242 41.4672L18.0376 41.9816L19.2072 43.7358L17.5967 45.3463L15.8424 44.1768L15.3281 44.4634C14.8215 44.7461 14.2724 44.9719 13.6993 45.135L13.1338 45.2961L12.7189 47.3688H10.4407L10.0257 45.2981L9.46029 45.1369C8.88615 44.9738 8.33807 44.748 7.83147 44.4653L7.31716 44.1787L5.5629 45.3482L3.39275 43.1791L2.02832 44.5435L5.31587 47.832L7.4262 46.4261C7.72919 46.5699 8.04279 46.6992 8.36219 46.8111L8.85913 49.2987Z" fill="white"/>
<path d="M3.14764 42.4061L4.83435 41.4672C4.55162 40.9607 4.32583 40.4116 4.16275 39.8384L4.00064 39.273L1.92988 38.859V36.5808L4.00064 36.1659L4.16275 35.6004C4.32583 35.0263 4.55162 34.4782 4.83435 33.9716L5.12094 33.4573L3.95143 31.703L5.56192 30.0925L7.31618 31.262L7.83049 30.9755C8.33709 30.6927 8.88614 30.4669 9.45931 30.3039L10.0248 30.1427L10.4397 28.07H12.7179L13.1328 30.1408L13.6983 30.3019C14.2724 30.465 14.8205 30.6908 15.3271 30.9735L15.8414 31.2601L17.5957 30.0906L19.7658 32.2598L21.1303 30.8954L17.8427 27.6068L15.7324 29.0128C15.4294 28.869 15.1158 28.7397 14.7964 28.6278L14.2995 26.1401H8.85815L8.35928 28.6278C8.03988 28.7397 7.72724 28.869 7.42329 29.0128L5.31296 27.6068L1.46574 31.4541L2.87166 33.5644C2.72789 33.8674 2.59858 34.181 2.48665 34.5004L0 34.9993V40.4406L2.48762 40.9394C2.66806 41.4489 2.88807 41.941 3.14764 42.4061Z" fill="white"/>
<path d="M11.5793 32.895C8.919 32.895 6.75464 35.0594 6.75464 37.7197C6.75464 40.3801 8.919 42.5444 11.5793 42.5444C14.2397 42.5444 16.404 40.3801 16.404 37.7197C16.404 35.0594 14.2397 32.895 11.5793 32.895ZM11.5793 40.6145C9.98333 40.6145 8.68452 39.3157 8.68452 37.7197C8.68452 36.1237 9.98333 34.8249 11.5793 34.8249C13.1754 34.8249 14.4742 36.1237 14.4742 37.7197C14.4742 39.3157 13.1754 40.6145 11.5793 40.6145Z" fill="white"/>
</g>
<defs>
<clipPath id="clip0_1581_1900">
<rect width="60" height="60" fill="white"/>
</clipPath>
</defs>
</svg>
