<svg width="60" height="60" viewBox="0 0 60 60" fill="none" xmlns="http://www.w3.org/2000/svg">
<path d="M26.3249 3.14421C26.9816 -1.04807 33.0184 -1.04807 33.6751 3.14421C34.1746 6.33229 38.2186 7.41587 40.2451 4.90464C42.9101 1.6024 48.138 4.62077 46.6107 8.57977C45.4492 11.5904 48.4096 14.5509 51.4202 13.3893C55.3792 11.862 58.3976 17.09 55.0954 19.7549C52.5841 21.7814 53.6677 25.8254 56.8558 26.3249C61.0481 26.9816 61.0481 33.0184 56.8558 33.6751C53.6677 34.1746 52.5841 38.2186 55.0954 40.2451C58.3976 42.9101 55.3792 48.138 51.4202 46.6107C48.4096 45.4492 45.4492 48.4096 46.6107 51.4202C48.138 55.3792 42.9101 58.3976 40.2451 55.0954C38.2186 52.5841 34.1746 53.6677 33.6751 56.8558C33.0184 61.0481 26.9816 61.0481 26.3249 56.8558C25.8254 53.6677 21.7814 52.5841 19.7549 55.0954C17.09 58.3976 11.862 55.3792 13.3893 51.4202C14.5509 48.4096 11.5904 45.4492 8.57977 46.6107C4.62077 48.138 1.6024 42.9101 4.90464 40.2451C7.41587 38.2186 6.33229 34.1746 3.14421 33.6751C-1.04807 33.0184 -1.04807 26.9816 3.14421 26.3249C6.33229 25.8254 7.41587 21.7814 4.90464 19.7549C1.6024 17.0899 4.62077 11.862 8.57977 13.3893C11.5904 14.5509 14.5509 11.5904 13.3893 8.57977C11.862 4.62077 17.0899 1.6024 19.7549 4.90464C21.7814 7.41587 25.8254 6.33229 26.3249 3.14421Z" fill="#E63A27"/>
<path d="M37.7344 22.3164C37.8203 22.2305 37.9062 22.1875 38.0781 22.1875C38.207 22.1875 38.3359 22.2305 38.4648 22.3164L39.668 23.5625C39.7539 23.6484 39.8398 23.7773 39.8398 23.9062C39.8398 24.0781 39.7539 24.207 39.668 24.293L26.7773 37.1836C26.6914 37.2695 26.5625 37.3125 26.4336 37.3125C26.2617 37.3125 26.1328 37.2695 26.0469 37.1836L20.332 31.4258C20.2031 31.3398 20.1602 31.2539 20.1602 31.082C20.1602 30.9531 20.2031 30.8242 20.332 30.6953L21.5352 29.4922C21.6211 29.4062 21.75 29.3203 21.9219 29.3203C22.0508 29.3203 22.1797 29.4062 22.2656 29.4922L26.4336 33.6602L37.7344 22.3164Z" fill="white"/>
</svg>
