<svg width="70" height="70" viewBox="0 0 70 70" fill="none" xmlns="http://www.w3.org/2000/svg">
<path d="M5.18519 0.00012207C2.33687 0.00012207 2.33621e-06 2.33688 2.33621e-06 5.18524C2.33621e-06 8.03354 2.33687 10.3704 5.18519 10.3704C7.58374 10.3704 9.59985 8.70573 10.183 6.48155H20.7407V12.6795C15.2317 16.9504 11.6667 23.6129 11.6667 31.1113C11.6667 32.8971 11.8854 34.6299 12.2667 36.3015H5.18266C5.14133 36.2995 5.09993 36.2995 5.0586 36.3015C4.73849 36.3334 4.44172 36.4832 4.22599 36.7219C4.01027 36.9606 3.89101 37.271 3.89142 37.5927V52.0367C1.66572 52.6188 0 54.6375 0 57.0371C0 59.8855 2.33687 62.2222 5.18519 62.2222C8.03354 62.2222 10.3704 59.8855 10.3704 57.0371C10.3704 54.6394 8.707 52.6232 6.48401 52.0392V38.8839H13.0263C16.0986 47.5471 24.1323 53.8512 33.7088 54.3787V59.8146C31.4818 60.3958 29.8148 62.4144 29.8148 64.8149C29.8148 67.6632 32.1516 70.0001 35 70.0001C37.8483 70.0001 40.1852 67.6632 40.1852 64.8149C40.1852 62.4144 38.5181 60.3958 36.2912 59.8146V54.3787C45.866 53.8513 53.9002 47.5498 56.9737 38.889H63.5185V52.0392C61.2943 52.6224 59.6296 54.6386 59.6296 57.0371C59.6296 59.8855 61.9665 62.2222 64.8148 62.2222C67.6631 62.2222 70 59.8855 70 57.0371C70 54.6386 68.3352 52.6224 66.1111 52.0392V37.5927C66.1085 36.8764 65.5311 36.2934 64.8148 36.2964H57.7333C58.1139 34.6263 58.3333 32.8954 58.3333 31.1113C58.3333 23.6129 54.7683 16.9504 49.2593 12.6795V6.48155H59.817C60.4002 8.70573 62.4163 10.3704 64.8148 10.3704C67.6631 10.3704 70 8.03354 70 5.18524C70 2.33688 67.6631 0.00012207 64.8148 0.00012207C62.4163 0.00012207 60.4002 1.66475 59.817 3.88892H47.963C47.2467 3.88593 46.6689 4.469 46.6667 5.18524V10.9351C43.2301 8.94088 39.2532 7.77787 35 7.77787C30.7467 7.77787 26.7699 8.94088 23.3333 10.9351V5.18524C23.3307 4.469 22.7533 3.88593 22.037 3.88892H10.183C9.59985 1.66475 7.58374 0.00012207 5.18519 0.00012207ZM5.18519 2.5926C6.63241 2.5926 7.77778 3.73801 7.77778 5.18524C7.77778 6.63242 6.63241 7.77787 5.18519 7.77787C3.738 7.77787 2.59259 6.63242 2.59259 5.18524C2.59259 3.73801 3.738 2.5926 5.18519 2.5926ZM64.8148 2.5926C66.262 2.5926 67.4074 3.73801 67.4074 5.18524C67.4074 6.63242 66.262 7.77787 64.8148 7.77787C63.3676 7.77787 62.2222 6.63242 62.2222 5.18524C62.2222 3.73801 63.3676 2.5926 64.8148 2.5926ZM35 10.3704C46.4701 10.3704 55.7407 19.6412 55.7407 31.1113C55.7407 42.5815 46.4701 51.8519 35 51.8519C23.5298 51.8519 14.2593 42.5815 14.2593 31.1113C14.2593 19.6412 23.5298 10.3704 35 10.3704ZM5.18519 54.4445C6.63241 54.4445 7.77778 55.59 7.77778 57.0371C7.77778 58.4843 6.63241 59.6298 5.18519 59.6298C3.738 59.6298 2.59259 58.4843 2.59259 57.0371C2.59259 55.59 3.738 54.4445 5.18519 54.4445ZM64.8148 54.4445C66.262 54.4445 67.4074 55.59 67.4074 57.0371C67.4074 58.4843 66.262 59.6298 64.8148 59.6298C63.3676 59.6298 62.2222 58.4843 62.2222 57.0371C62.2222 55.59 63.3676 54.4445 64.8148 54.4445ZM35 62.2222C36.4472 62.2222 37.5926 63.3677 37.5926 64.8149C37.5926 66.2621 36.4472 67.4075 35 67.4075C33.5528 67.4075 32.4074 66.2621 32.4074 64.8149C32.4074 63.3677 33.5528 62.2222 35 62.2222Z" fill="#E63A27"/>
<path d="M35.0001 12.9631C34.6552 12.9631 34.3194 13.1052 34.081 13.3453L22.4169 25.0095C22.0372 25.3911 22.0371 25.926 22.0371 25.926C22.0371 25.926 22.0371 27.2223 23.3334 27.2223H24.6297V45.3704C24.6323 46.0866 25.2099 46.6695 25.926 46.6668H44.0741C44.7903 46.6694 45.3679 46.0866 45.3704 45.3704C45.3704 39.3211 45.3704 33.2717 45.3704 27.2223H46.6667C47.963 27.2223 47.963 25.926 47.963 25.926C47.963 25.926 47.963 25.3913 47.5832 25.0095L35.9191 13.3453C35.6712 13.0959 35.3525 12.9631 35.0001 12.9631ZM35.0001 16.09L43.5273 24.6273H26.4754L35.0001 16.09ZM27.2223 27.2225H29.8149V38.8892H27.2223V27.2225ZM32.4075 27.2225H37.5927V38.8892H32.4075V27.2225ZM40.1853 27.2225H42.7779V38.8892L40.1853 38.8842V27.2225ZM27.2223 41.4816H42.7779V44.0743H27.2223V41.4816Z" fill="#E63A27"/>
<path d="M35.0004 3.68731e-10C35.1706 -4.05964e-06 35.3392 0.0335363 35.4965 0.0986815C35.6538 0.163827 35.7967 0.259398 35.917 0.379774C36.0374 0.50015 36.1329 0.643087 36.198 0.800367C36.2632 0.957647 36.2967 1.12623 36.2967 1.29647C36.2967 1.4667 36.2632 1.63514 36.198 1.79242C36.1329 1.94969 36.0374 2.09263 35.917 2.21301C35.7967 2.33338 35.6538 2.42896 35.4965 2.4941C35.3392 2.55925 35.1706 2.59279 35.0004 2.59278C34.8301 2.59278 34.6616 2.55925 34.5043 2.4941C34.347 2.42895 34.2041 2.33338 34.0838 2.21301C33.9634 2.09263 33.8679 1.94969 33.8028 1.79242C33.7376 1.63514 33.7041 1.4667 33.7041 1.29647C33.7041 1.12623 33.7376 0.957643 33.8028 0.800367C33.8679 0.64309 33.9634 0.50015 34.0838 0.379774C34.2041 0.259399 34.347 0.16383 34.5043 0.0986815C34.6616 0.0335334 34.8301 2.37446e-06 35.0004 3.68731e-10Z" fill="#E63A27"/>
<path d="M29.8148 3.68731e-10C29.9851 -4.05964e-06 30.1536 0.0335363 30.3109 0.0986815C30.4682 0.163827 30.6111 0.259398 30.7315 0.379774C30.8519 0.50015 30.9473 0.643087 31.0125 0.800367C31.0776 0.957647 31.1112 1.12623 31.1112 1.29647C31.1112 1.4667 31.0776 1.63514 31.0125 1.79242C30.9473 1.94969 30.8519 2.09263 30.7315 2.21301C30.6111 2.33338 30.4682 2.42896 30.3109 2.4941C30.1536 2.55925 29.9851 2.59279 29.8148 2.59278C29.6446 2.59278 29.476 2.55925 29.3188 2.4941C29.1615 2.42895 29.0186 2.33338 28.8982 2.21301C28.7778 2.09263 28.6824 1.94969 28.6172 1.79242C28.5521 1.63514 28.5186 1.4667 28.5186 1.29647C28.5186 1.12623 28.5521 0.957643 28.6172 0.800367C28.6824 0.64309 28.7778 0.50015 28.8982 0.379774C29.0186 0.259399 29.1615 0.16383 29.3188 0.0986815C29.476 0.0335334 29.6446 2.37446e-06 29.8148 3.68731e-10Z" fill="#E63A27"/>
<path d="M40.185 3.68731e-10C40.3552 -4.05964e-06 40.5238 0.0335363 40.681 0.0986815C40.8383 0.163827 40.9812 0.259398 41.1016 0.379774C41.222 0.50015 41.3175 0.643087 41.3826 0.800367C41.4478 0.957647 41.4813 1.12623 41.4813 1.29647C41.4813 1.4667 41.4478 1.63514 41.3826 1.79242C41.3175 1.94969 41.222 2.09263 41.1016 2.21301C40.9812 2.33338 40.8383 2.42896 40.681 2.4941C40.5238 2.55925 40.3552 2.59279 40.185 2.59278C40.0147 2.59278 39.8462 2.55925 39.6889 2.4941C39.5316 2.42895 39.3887 2.33338 39.2683 2.21301C39.148 2.09263 39.0525 1.94969 38.9873 1.79242C38.9222 1.63514 38.8887 1.4667 38.8887 1.29647C38.8887 1.12623 38.9222 0.957643 38.9873 0.800367C39.0525 0.64309 39.148 0.50015 39.2683 0.379774C39.3887 0.259399 39.5316 0.16383 39.6889 0.0986815C39.8462 0.0335334 40.0147 2.37446e-06 40.185 3.68731e-10Z" fill="#E63A27"/>
<path d="M63.5186 68.7037C63.5186 68.874 63.5521 69.0425 63.6172 69.1998C63.6824 69.3571 63.7778 69.5 63.8982 69.6204C64.0186 69.7408 64.1615 69.8364 64.3188 69.9015C64.476 69.9667 64.6446 70.0002 64.8148 70.0002C64.9851 70.0002 65.1536 69.9667 65.3109 69.9015C65.4682 69.8364 65.6111 69.7408 65.7315 69.6204C65.8519 69.5 65.9474 69.3571 66.0125 69.1998C66.0776 69.0425 66.1112 68.874 66.1112 68.7037C66.1112 68.5335 66.0776 68.3651 66.0125 68.2078C65.9474 68.0505 65.8519 67.9076 65.7315 67.7872C65.6111 67.6668 65.4682 67.5712 65.3109 67.5061C65.1536 67.4409 64.9851 67.4074 64.8148 67.4074C64.6446 67.4074 64.476 67.4409 64.3188 67.5061C64.1615 67.5712 64.0186 67.6668 63.8982 67.7872C63.7778 67.9076 63.6824 68.0505 63.6172 68.2078C63.5521 68.3651 63.5186 68.5335 63.5186 68.7037Z" fill="#E63A27"/>
<path d="M60.9257 68.7037C60.9257 70.0001 59.6293 70.0002 59.6293 70.0002H46.6664C45.802 70.0002 45.3701 69.3521 45.3701 68.7037C45.3701 68.0554 45.8018 67.4074 46.6664 67.4074H59.6293C59.6293 67.4074 60.9257 67.4074 60.9257 68.7037Z" fill="#E63A27"/>
<path d="M47.9627 63.5187C47.9627 63.6889 47.9292 63.8575 47.8641 64.0148C47.7989 64.172 47.7034 64.315 47.5831 64.4354C47.4627 64.5557 47.3198 64.6512 47.1625 64.7163C47.0052 64.7815 46.8367 64.815 46.6664 64.815C46.4962 64.815 46.3276 64.7814 46.1704 64.7163C46.0131 64.6512 45.8702 64.5557 45.7498 64.4354C45.6294 64.315 45.5339 64.172 45.4688 64.0148C45.4036 63.8575 45.3701 63.6889 45.3701 63.5187C45.3701 63.3484 45.4036 63.1798 45.4688 63.0226C45.5339 62.8653 45.6294 62.7224 45.7498 62.602C45.8702 62.4816 46.0131 62.3862 46.1704 62.321C46.3276 62.2559 46.4962 62.2223 46.6664 62.2224C46.8367 62.2224 47.0052 62.2559 47.1625 62.321C47.3198 62.3862 47.4627 62.4816 47.5831 62.602C47.7034 62.7224 47.7989 62.8653 47.8641 63.0226C47.9292 63.1798 47.9627 63.3484 47.9627 63.5187Z" fill="#E63A27"/>
<path d="M50.5557 63.5187C50.5557 64.8149 51.852 64.815 51.852 64.815H57.0372C57.9016 64.815 58.3335 64.167 58.3335 63.5187C58.3335 62.8703 57.9014 62.2224 57.0372 62.2224H51.852C51.852 62.2224 50.5557 62.2223 50.5557 63.5187Z" fill="#E63A27"/>
<path d="M3.88867 68.7037C3.88867 68.874 3.92219 69.0425 3.98734 69.1998C4.05248 69.3571 4.14796 69.5 4.26833 69.6204C4.3887 69.7408 4.5316 69.8364 4.68888 69.9015C4.84615 69.9667 5.01472 70.0002 5.18495 70.0002C5.35519 70.0002 5.52376 69.9667 5.68104 69.9015C5.83832 69.8364 5.98123 69.7408 6.10161 69.6204C6.22198 69.5 6.31747 69.3571 6.38261 69.1998C6.44776 69.0425 6.48129 68.874 6.48128 68.7037C6.48129 68.5335 6.44776 68.3651 6.38261 68.2078C6.31747 68.0505 6.22198 67.9076 6.10161 67.7872C5.98123 67.6668 5.83832 67.5712 5.68104 67.5061C5.52376 67.4409 5.35519 67.4074 5.18495 67.4074C5.01472 67.4074 4.84615 67.4409 4.68888 67.5061C4.5316 67.5712 4.3887 67.6668 4.26833 67.7872C4.14796 67.9076 4.05248 68.0505 3.98734 68.2078C3.92219 68.3651 3.88867 68.5335 3.88867 68.7037Z" fill="#E63A27"/>
<path d="M24.6298 68.7037C24.6298 70.0001 23.3334 70.0002 23.3334 70.0002H10.3705C9.50605 70.0002 9.07422 69.3521 9.07422 68.7037C9.07422 68.0554 9.50585 67.4074 10.3705 67.4074H23.3334C23.3334 67.4074 24.6298 67.4074 24.6298 68.7037Z" fill="#E63A27"/>
<path d="M24.6297 63.5187C24.6297 63.6889 24.5962 63.8575 24.5311 64.0148C24.4659 64.172 24.3704 64.315 24.2501 64.4354C24.1297 64.5557 23.9868 64.6512 23.8295 64.7163C23.6722 64.7815 23.5037 64.815 23.3334 64.815C23.1632 64.815 22.9946 64.7814 22.8373 64.7163C22.6801 64.6512 22.5372 64.5557 22.4168 64.4354C22.2964 64.315 22.2009 64.172 22.1358 64.0148C22.0706 63.8575 22.0371 63.6889 22.0371 63.5187C22.0371 63.3484 22.0706 63.1798 22.1358 63.0226C22.2009 62.8653 22.2964 62.7224 22.4168 62.602C22.5372 62.4816 22.6801 62.3862 22.8373 62.321C22.9946 62.2559 23.1632 62.2223 23.3334 62.2224C23.5037 62.2224 23.6722 62.2559 23.8295 62.321C23.9868 62.3862 24.1297 62.4816 24.2501 62.602C24.3704 62.7224 24.4659 62.8653 24.5311 63.0226C24.5962 63.1798 24.6297 63.3484 24.6297 63.5187Z" fill="#E63A27"/>
<path d="M11.667 63.5187C11.667 64.8149 12.9633 64.815 12.9633 64.815H18.1485C19.0129 64.815 19.4448 64.167 19.4448 63.5187C19.4448 62.8703 19.0127 62.2224 18.1485 62.2224H12.9633C12.9633 62.2224 11.667 62.2223 11.667 63.5187Z" fill="#E63A27"/>
<path d="M7.77772 24.6298C7.94796 24.6298 8.11653 24.6633 8.2738 24.7284C8.43108 24.7936 8.57398 24.889 8.69436 25.0094C8.81474 25.1298 8.91022 25.2727 8.97537 25.43C9.04052 25.5873 9.07405 25.7558 9.07405 25.9261C9.07406 26.0963 9.04053 26.2649 8.97538 26.4222C8.91024 26.5795 8.81475 26.7224 8.69438 26.8428C8.574 26.9631 8.43109 27.0586 8.27381 27.1237C8.11653 27.1889 7.94796 27.2224 7.77772 27.2224C7.60749 27.2224 7.43893 27.1889 7.28165 27.1237C7.12438 27.0586 6.98148 26.963 6.86111 26.8426C6.74073 26.7222 6.64525 26.5795 6.58011 26.4222C6.51497 26.2649 6.48144 26.0963 6.48145 25.9261C6.48145 25.5823 6.61802 25.2525 6.86112 25.0094C7.10422 24.7663 7.43393 24.6298 7.77772 24.6298Z" fill="#E63A27"/>
<path d="M2.59218 22.0372C2.76241 22.0372 2.93098 22.0706 3.08826 22.1357C3.24553 22.2008 3.38844 22.2964 3.50881 22.4168C3.62919 22.5372 3.72468 22.6801 3.78983 22.8374C3.85497 22.9947 3.88851 23.1631 3.88851 23.3333C3.88851 23.5036 3.85498 23.6722 3.78984 23.8294C3.72469 23.9867 3.62921 24.1297 3.50883 24.25C3.38845 24.3704 3.24555 24.466 3.08827 24.5311C2.93099 24.5963 2.76242 24.6297 2.59218 24.6297C2.42195 24.6296 2.25338 24.5961 2.0961 24.531C1.93883 24.4658 1.79593 24.3704 1.67556 24.25C1.55519 24.1297 1.4597 23.9867 1.39456 23.8294C1.32942 23.6722 1.29589 23.5036 1.2959 23.3333C1.2959 22.9895 1.43248 22.6599 1.67557 22.4168C1.91867 22.1737 2.24838 22.0372 2.59218 22.0372Z" fill="#E63A27"/>
<path d="M67.4076 27.2224C67.5778 27.2223 67.7464 27.2559 67.9037 27.321C68.061 27.3862 68.2039 27.4816 68.3242 27.602C68.4446 27.7223 68.5401 27.8653 68.6052 28.0226C68.6704 28.1798 68.7039 28.3484 68.7039 28.5187C68.7039 28.6889 68.6704 28.8575 68.6053 29.0148C68.5401 29.172 68.4446 29.3148 68.3243 29.4352C68.2039 29.5556 68.061 29.6512 67.9037 29.7163C67.7464 29.7814 67.5778 29.815 67.4076 29.815C67.2374 29.815 67.0688 29.7815 66.9115 29.7163C66.7543 29.6512 66.6114 29.5556 66.491 29.4352C66.3706 29.3148 66.2751 29.172 66.21 29.0148C66.1448 28.8575 66.1113 28.6889 66.1113 28.5187C66.1113 28.1749 66.2479 27.8451 66.491 27.602C66.7341 27.3589 67.0638 27.2224 67.4076 27.2224Z" fill="#E63A27"/>
<path d="M62.2221 24.6298C62.3923 24.6298 62.5609 24.6633 62.7181 24.7284C62.8754 24.7936 63.0183 24.889 63.1387 25.0094C63.2591 25.1298 63.3546 25.2727 63.4197 25.43C63.4848 25.5873 63.5184 25.7558 63.5184 25.9261C63.5184 26.0963 63.4849 26.2649 63.4197 26.4222C63.3546 26.5795 63.2591 26.7224 63.1387 26.8428C63.0183 26.9631 62.8754 27.0586 62.7181 27.1237C62.5609 27.1889 62.3923 27.2224 62.2221 27.2224C62.0518 27.2224 61.8833 27.1889 61.726 27.1237C61.5687 27.0586 61.4258 26.963 61.3054 26.8426C61.1851 26.7222 61.0896 26.5795 61.0244 26.4222C60.9593 26.2649 60.9258 26.0963 60.9258 25.9261C60.9258 25.5823 61.0624 25.2525 61.3055 25.0094C61.5486 24.7663 61.8783 24.6298 62.2221 24.6298Z" fill="#E63A27"/>
<path d="M2.59218 27.2224C2.76241 27.2223 2.93098 27.2559 3.08826 27.321C3.24553 27.3862 3.38844 27.4816 3.50881 27.602C3.62919 27.7223 3.72468 27.8653 3.78983 28.0226C3.85497 28.1798 3.88851 28.3484 3.88851 28.5187C3.88851 28.6889 3.85498 28.8575 3.78984 29.0148C3.72469 29.172 3.62921 29.3148 3.50883 29.4352C3.38845 29.5556 3.24555 29.6512 3.08827 29.7163C2.93099 29.7814 2.76242 29.815 2.59218 29.815C2.42195 29.815 2.25338 29.7815 2.0961 29.7163C1.93883 29.6512 1.79593 29.5556 1.67556 29.4352C1.55519 29.3148 1.4597 29.172 1.39456 29.0148C1.32942 28.8575 1.29589 28.6889 1.2959 28.5187C1.2959 28.1749 1.43248 27.8451 1.67557 27.602C1.91867 27.3589 2.24838 27.2224 2.59218 27.2224Z" fill="#E63A27"/>
<path d="M67.4076 22.0372C67.5778 22.0372 67.7464 22.0706 67.9037 22.1357C68.061 22.2008 68.2039 22.2964 68.3242 22.4168C68.4446 22.5372 68.5401 22.6801 68.6052 22.8374C68.6704 22.9947 68.7039 23.1631 68.7039 23.3333C68.7039 23.5036 68.6704 23.6722 68.6053 23.8294C68.5401 23.9867 68.4446 24.1297 68.3243 24.25C68.2039 24.3704 68.061 24.466 67.9037 24.5311C67.7464 24.5963 67.5778 24.6297 67.4076 24.6297C67.2374 24.6296 67.0688 24.5961 66.9115 24.531C66.7543 24.4658 66.6114 24.3704 66.491 24.25C66.3706 24.1297 66.2751 23.9867 66.21 23.8294C66.1448 23.6722 66.1113 23.5036 66.1113 23.3333C66.1113 22.9895 66.2479 22.6599 66.491 22.4168C66.7341 22.1737 67.0638 22.0372 67.4076 22.0372Z" fill="#E63A27"/>
</svg>
