<svg width="60" height="60" viewBox="0 0 60 60" fill="none" xmlns="http://www.w3.org/2000/svg">
<path d="M29.2955 59.8109C29.5133 59.9369 29.7565 59.9999 29.9997 59.9999C30.2428 59.9999 30.486 59.9369 30.7038 59.8109C38.5774 55.2563 45.2882 48.2315 50.1105 39.4958C54.9295 30.7662 57.4766 21.0251 57.4766 11.3253C57.4766 10.7416 57.116 10.2186 56.5704 10.0109L30.4996 0.0919336C30.1775 -0.0306445 29.8215 -0.0306445 29.4995 0.0919336L3.42867 10.0109C2.88305 10.2185 2.52246 10.7416 2.52246 11.3253C2.52246 21.025 5.06965 30.7662 9.88863 39.4958C14.7111 48.2314 21.4218 55.2563 29.2955 59.8109ZM5.34398 12.2914L29.9995 2.91076L54.6551 12.2914C54.3184 30.4333 44.5259 48.179 29.9995 56.96C15.4733 48.1788 5.68066 30.4332 5.34398 12.2914ZM44.7653 26.9042C44.7653 18.7624 38.1414 12.1385 29.9995 12.1385C21.8577 12.1385 15.2338 18.7624 15.2338 26.9042C15.2338 35.046 21.8577 41.6698 29.9995 41.6698C38.1414 41.6698 44.7653 35.0462 44.7653 26.9042ZM18.0463 26.9042C18.0463 20.3131 23.4084 14.951 29.9995 14.951C36.5906 14.951 41.9528 20.3131 41.9528 26.9042C41.9528 33.4952 36.5906 38.8573 29.9995 38.8573C23.4084 38.8573 18.0463 33.4953 18.0463 26.9042ZM36.6193 24.1836L29.1892 31.6137C28.9146 31.8883 28.5547 32.0256 28.1948 32.0256C27.835 32.0256 27.4751 31.8883 27.2005 31.6137L23.3797 27.7929C22.8306 27.2437 22.8306 26.3534 23.3797 25.8042C23.929 25.255 24.8194 25.2551 25.3685 25.8042L28.195 28.6306L34.6307 22.1948C35.1799 21.6458 36.0702 21.6456 36.6195 22.1948C37.1685 22.744 37.1685 23.6343 36.6193 24.1836Z" fill="#E63A27"/>
</svg>
