<svg width="70" height="70" viewBox="0 0 70 70" fill="none" xmlns="http://www.w3.org/2000/svg">
<path d="M67.1753 0H2.82408C2.05408 0 1.42969 0.624395 1.42969 1.39439V57.8803C1.42969 64.5631 6.86658 69.9999 13.5493 69.9999C18.1973 69.9999 22.242 67.3691 24.2744 63.5188C26.3069 67.3693 30.3516 70 34.9996 70C39.6476 70 43.6923 67.3693 45.7248 63.519C47.7574 67.3693 51.8019 70 56.45 70C63.1328 70 68.5695 64.5631 68.5695 57.8804V1.39439C68.5697 0.624395 67.9453 0 67.1753 0ZM22.88 57.8804C22.88 63.0254 18.6943 67.2112 13.5493 67.2112C8.40426 67.2112 4.21848 63.0254 4.21848 57.8804V46.8569C6.4433 49.5392 9.80002 51.2508 13.5493 51.2508C17.2985 51.2508 20.6552 49.5395 22.88 46.8569V57.8804ZM22.88 39.0517V39.131C22.88 44.276 18.6943 48.4617 13.5493 48.4617C8.40426 48.4617 4.21848 44.276 4.21848 39.131V39.0517V27.9489C6.4433 30.6313 9.80002 32.3427 13.5493 32.3427C17.2985 32.3427 20.6552 30.6314 22.88 27.9489V39.0517ZM22.88 20.223C22.88 25.368 18.6943 29.5538 13.5493 29.5538C8.40426 29.5538 4.21848 25.368 4.21848 20.223V2.78879H22.88V20.223ZM44.3304 57.8804C44.3304 63.0254 40.1446 67.2112 34.9996 67.2112C29.8546 67.2112 25.6688 63.0254 25.6688 57.8804V46.8569C27.8937 49.5392 31.2504 51.2508 34.9996 51.2508C38.7488 51.2508 42.1056 49.5395 44.3304 46.8569V57.8804ZM44.3304 39.0518V39.1311C44.3304 44.2761 40.1446 48.4619 34.9996 48.4619C29.8546 48.4619 25.6688 44.2761 25.6688 39.1311V39.0518V27.949C27.8937 30.6313 31.2504 32.3429 34.9996 32.3429C38.7488 32.3429 42.1056 30.6316 44.3304 27.949V39.0518ZM44.3304 20.223C44.3304 25.368 40.1446 29.5538 34.9996 29.5538C29.8546 29.5538 25.6688 25.368 25.6688 20.223V2.78879H44.3304V20.223ZM65.7807 57.8804C65.7807 63.0254 61.595 67.2112 56.45 67.2112C51.305 67.2112 47.1192 63.0254 47.1192 57.8804V46.8569C49.344 49.5392 52.7007 51.2508 56.45 51.2508C60.1992 51.2508 63.5559 49.5395 65.7807 46.8569V57.8804ZM65.7807 39.0518V39.1311C65.7807 44.2761 61.595 48.4619 56.45 48.4619C51.305 48.4619 47.1192 44.2761 47.1192 39.1311V39.0518V27.949C49.344 30.6313 52.7007 32.3429 56.45 32.3429C60.1992 32.3429 63.5559 30.6316 65.7807 27.949V39.0518ZM65.7807 20.223C65.7807 25.368 61.595 29.5538 56.45 29.5538C51.305 29.5538 47.1192 25.368 47.1192 20.223V2.78879H65.7807V20.223Z" fill="#E63A27"/>
<path d="M63.1678 4.32977C62.3978 4.32977 61.7734 4.95417 61.7734 5.72417V12.1385C61.7734 12.9085 62.3978 13.5329 63.1678 13.5329C63.9378 13.5329 64.5622 12.9085 64.5622 12.1385V5.72417C64.5622 4.95417 63.9378 4.32977 63.1678 4.32977Z" fill="#E63A27"/>
<path d="M63.1678 14.9272C62.3978 14.9272 61.7734 15.5516 61.7734 16.3216V17.716C61.7734 18.486 62.3978 19.1104 63.1678 19.1104C63.9378 19.1104 64.5622 18.486 64.5622 17.716V16.3216C64.5622 15.5518 63.9378 14.9272 63.1678 14.9272Z" fill="#E63A27"/>
</svg>
