<svg width="70" height="70" viewBox="0 0 70 70" fill="none" xmlns="http://www.w3.org/2000/svg">
<path d="M66.4892 19.2924L62.669 4.52921C62.5064 3.90113 62.1079 3.37326 61.5467 3.04281C60.9854 2.71236 60.3303 2.61994 59.7025 2.78236L56.8604 3.51777C55.561 3.8541 54.7773 5.18492 55.1136 6.48429L55.4366 7.73213L54.1022 8.08964L43.7486 2.11203C41.9359 1.06517 39.9377 0.822086 37.9702 1.40943L19.3756 6.96117C17.539 7.50927 16.3804 9.81121 16.945 11.7905C17.1609 12.5474 18.0567 14.5809 21.4104 14.5808C22.2912 14.5808 23.3418 14.4405 24.594 14.0998L34.7618 11.3338C35.0225 11.2629 35.2797 11.2135 35.5355 11.1858C35.4482 11.3053 35.3657 11.4319 35.2885 11.5656C34.3132 13.2549 34.8815 15.4422 36.5822 16.5453C36.6237 16.5721 36.6667 16.5961 36.7113 16.6171C39.0953 17.7401 41.3374 19.3029 43.1391 20.5587C43.7701 20.9984 44.366 21.4137 44.8806 21.7476C45.9886 22.4663 47.1502 22.7172 48.2922 22.7172C49.3664 22.7172 50.4234 22.4952 51.4015 22.2317L58.6813 20.2716L58.9338 21.2476C59.2174 22.3435 60.2081 23.0725 61.2911 23.0725C61.4924 23.0725 61.6969 23.0472 61.9005 22.9946L64.7425 22.2592C66.0418 21.9227 66.8255 20.5919 66.4892 19.2924ZM50.8326 20.1194C48.6028 20.7197 47.2233 20.6598 46.0709 19.9123C45.5867 19.5982 45.032 19.2116 44.3898 18.764C42.5389 17.474 40.2401 15.8717 37.7186 14.6737C37.0247 14.1894 36.7932 13.3342 37.1828 12.6593C37.5971 11.9418 38.2685 11.7601 39.178 12.1171C40.3866 12.7239 41.5145 13.3994 42.7074 14.1144C43.2789 14.4569 43.8698 14.8111 44.4813 15.1642C44.6536 15.2637 44.8415 15.3109 45.0272 15.3109C45.4052 15.3109 45.7729 15.1147 45.9755 14.7638C46.2775 14.2406 46.0983 13.5718 45.5752 13.2698C44.9792 12.9257 44.3961 12.5762 43.8322 12.2382C42.5876 11.4923 41.4121 10.7877 40.1118 10.1378C40.1052 10.1345 40.0787 10.122 40.0718 10.1188L39.0251 9.64769C37.3967 8.91953 35.8144 8.78076 34.1877 9.22318L24.02 11.9891C21.3046 12.7278 19.3998 12.4217 19.0489 11.1907C18.8126 10.3626 19.3023 9.26597 20.0017 9.05734L38.5961 3.50601C39.9923 3.08929 41.358 3.25773 42.655 4.00681L53.401 10.211C53.6523 10.356 53.9507 10.3951 54.2308 10.3202L55.9847 9.85031L58.1333 18.1539L50.8326 20.1194ZM64.3438 20.0267C64.3197 20.0676 64.2743 20.1206 64.1944 20.1413L61.3525 20.8765C61.2229 20.9103 61.0851 20.829 61.0516 20.6995L57.2313 5.93646C57.1978 5.80685 57.279 5.66904 57.4085 5.63554L60.2506 4.90013C60.2718 4.89466 60.292 4.89234 60.3109 4.89234C60.3635 4.89234 60.4067 4.91011 60.4366 4.92775C60.4775 4.95181 60.5306 4.99734 60.5512 5.07718L64.3713 19.8402C64.3922 19.9205 64.3679 19.986 64.3438 20.0267ZM63.1832 18.6979C63.1245 19.1983 62.6715 19.5564 62.1711 19.4977C61.6707 19.4391 61.3126 18.986 61.3713 18.4856C61.4299 17.9852 61.883 17.6271 62.3834 17.6858C62.8838 17.7444 63.2418 18.1975 63.1832 18.6979ZM27.3478 40.2858C31.9598 40.2858 35.7117 36.5338 35.7117 31.9219C35.7117 27.31 31.9598 23.558 27.3478 23.558C22.736 23.558 18.9839 27.31 18.9839 31.9219C18.9841 36.5338 22.736 40.2858 27.3478 40.2858ZM27.3478 25.7455C30.7535 25.7455 33.5242 28.5162 33.5242 31.9219C33.5242 35.3276 30.7535 38.0983 27.3478 38.0983C23.9422 38.0983 21.1714 35.3276 21.1714 31.9219C21.1714 28.5162 23.9422 25.7455 27.3478 25.7455ZM11.5534 35.0269L13.5809 35.8073C13.8854 36.8882 14.3161 37.927 14.8662 38.9078L13.9839 40.8945C13.8001 41.3081 13.8901 41.7919 14.21 42.1118L17.1578 45.0596C17.4777 45.3795 17.9614 45.4694 18.3751 45.2859L20.3627 44.4031C21.3436 44.9531 22.3819 45.3838 23.4622 45.6881L24.2428 47.7162C24.4052 48.1385 24.811 48.417 25.2636 48.417H29.4323C29.8848 48.417 30.2904 48.1384 30.453 47.7162L31.2334 45.6887C32.3143 45.3842 33.3531 44.9535 34.334 44.4032L36.3207 45.2856C36.7343 45.4692 37.2181 45.3794 37.538 45.0595L40.4858 42.1117C40.8057 41.7918 40.8957 41.3079 40.7121 40.8944L39.8293 38.9067C40.3793 37.9261 40.8098 36.8875 41.1143 35.8073L43.1424 35.0267C43.5647 34.8642 43.8432 34.4585 43.8432 34.0059V29.8375C43.8432 29.385 43.5646 28.9793 43.1424 28.8168L41.1149 28.0365C40.8104 26.9557 40.3799 25.9168 39.8296 24.9359L40.712 22.9491C40.8956 22.5356 40.8057 22.0516 40.4857 21.7317L37.5379 18.7839C37.218 18.464 36.734 18.374 36.3206 18.5578L34.3329 19.4406C33.3521 18.8904 32.3137 18.4599 31.2335 18.1556L30.4529 16.1275C30.2904 15.7052 29.8847 15.4267 29.4321 15.4267H25.2634C24.811 15.4267 24.4052 15.7053 24.2427 16.1275L23.462 18.1556C22.3818 18.4599 21.3433 18.8904 20.3625 19.4406L18.3748 18.5578C17.9614 18.374 17.4774 18.4641 17.1575 18.7839L14.2097 21.7317C13.8898 22.0516 13.7998 22.5355 13.9834 22.9491L14.8661 24.9364C14.3159 25.9171 13.8854 26.9557 13.5809 28.0362L11.5531 28.8168C11.1308 28.9792 10.8523 29.385 10.8523 29.8375V34.0062C10.8524 34.4587 11.1311 34.8645 11.5534 35.0269ZM13.0399 30.5885L14.8913 29.8759C15.2277 29.7464 15.4789 29.4592 15.5624 29.1084C15.8592 27.8612 16.3514 26.674 17.0254 25.5794C17.2145 25.2722 17.2401 24.8916 17.0938 24.5619L16.2878 22.7474L18.1735 20.8616L19.9881 21.6676C20.3176 21.814 20.6984 21.7885 21.0056 21.5994C22.1002 20.9253 23.2874 20.4332 24.5343 20.1363C24.8851 20.0528 25.1724 19.8018 25.3018 19.4652L26.0146 17.6137H28.6813L29.3938 19.4652C29.5233 19.8018 29.8104 20.0528 30.1614 20.1363C31.4081 20.433 32.5954 20.9253 33.6899 21.5994C33.9972 21.7885 34.3778 21.8139 34.7074 21.6677L36.5222 20.8616L38.4078 22.7473L37.6022 24.5612C37.4557 24.8909 37.4813 25.2716 37.6705 25.5787C38.3447 26.6733 38.837 27.8608 39.1337 29.1082C39.2171 29.4591 39.4682 29.7463 39.8048 29.8759L41.6557 30.5882V33.2551L39.8043 33.9676C39.4677 34.0971 39.2167 34.3842 39.1331 34.735C38.8363 35.982 38.3441 37.1692 37.6701 38.2637C37.481 38.571 37.4555 38.9516 37.6017 39.2812L38.4078 41.096L36.5221 42.9816L34.7082 42.176C34.3785 42.0294 33.9977 42.055 33.6906 42.2443C32.5962 42.9183 31.4087 43.4107 30.1611 43.7075C29.8103 43.791 29.523 44.042 29.3936 44.3786L28.6811 46.2295H26.0144L25.3018 44.3781C25.1724 44.0415 24.8853 43.7905 24.5343 43.7069C23.2876 43.4103 22.1003 42.9181 21.0056 42.244C20.6987 42.055 20.3179 42.0294 19.9883 42.1757L18.1735 42.9818L16.2877 41.096L17.0934 39.2822C17.2398 38.9524 17.2142 38.5718 17.0252 38.2646C16.3511 37.1701 15.8588 35.9826 15.562 34.735C15.4785 34.3842 15.2274 34.097 14.8908 33.9675L13.0399 33.2551V30.5885ZM58.7427 51.0829L56.1878 49.637C55.0197 48.9759 53.5314 49.3884 52.8702 50.5565L52.3737 51.434L45.8492 47.6563C44.0405 46.6092 41.863 45.6455 39.4254 46.4364C38.8418 46.6256 38.1587 46.8727 37.4355 47.1341C35.3702 47.8807 32.7999 48.81 30.2065 49.2778C30.1581 49.2866 30.1101 49.2986 30.0633 49.3138C28.1349 49.9388 27.0199 51.9046 27.5246 53.7888C27.5645 53.938 27.6114 54.0816 27.6649 54.2196C27.4251 54.1267 27.1894 54.0124 26.956 53.8765L17.8505 48.5729C12.4601 45.4334 10.3752 47.9713 9.86452 48.8239C8.807 50.5898 9.33022 53.113 10.9624 54.1178L27.4867 64.2928C28.6571 65.0133 29.9367 65.3781 31.2614 65.3781C31.9159 65.3781 32.5814 65.2891 33.25 65.1098L44.7978 62.0156L45.9941 62.7063L45.3593 63.828C45.0397 64.3926 44.9595 65.0493 45.1336 65.677C45.3075 66.3045 45.7144 66.8262 46.2789 67.1457L48.8337 68.5917C49.2031 68.8007 49.6119 68.9073 50.0262 68.9073C50.2451 68.9073 50.4655 68.8775 50.6826 68.8175C51.3103 68.6436 51.8318 68.2367 52.1514 67.6722L59.6624 54.4008C60.3233 53.2323 59.9107 51.7441 58.7427 51.0829ZM45.4992 59.8946C45.2479 59.7494 44.9493 59.7104 44.6693 59.7853L32.6837 62.9969C31.2371 63.3846 29.8744 63.1939 28.6335 62.43L12.1092 52.255C11.4879 51.8725 11.2987 50.6866 11.7411 49.9479C12.3989 48.8496 14.318 49.047 16.7495 50.4632L25.8551 55.7668C27.3119 56.6148 28.8759 56.8903 30.6402 56.6081L31.7704 56.4244C31.7777 56.4231 31.8065 56.4179 31.8139 56.4164C33.238 56.1254 34.5557 55.749 35.9506 55.3507C36.5829 55.1701 37.2368 54.9834 37.9017 54.8052C38.4852 54.6488 38.8314 54.0492 38.6751 53.4656C38.5189 52.8821 37.9191 52.5361 37.3356 52.6922C36.6533 52.875 35.9906 53.0642 35.3498 53.2473C34.0127 53.6292 32.7486 53.9897 31.4245 54.2628C30.4529 54.372 29.852 54.0232 29.6375 53.2227C29.4358 52.4701 29.8807 51.704 30.6764 51.4157C33.4221 50.9111 36.0574 49.9583 38.179 49.1913C38.9152 48.9251 39.5511 48.6953 40.1 48.5171C41.4064 48.0934 42.7544 48.3923 44.753 49.5495L51.296 53.3378L47.0714 60.8024L45.4992 59.8946ZM57.7585 53.3232L50.2474 66.5946C50.2068 66.6665 50.1438 66.6967 50.0981 66.7093C50.0526 66.722 49.9829 66.7286 49.9111 66.6878L47.3562 65.2419C47.2843 65.2013 47.2541 65.1383 47.2415 65.0925C47.2288 65.0468 47.2222 64.9774 47.263 64.9054L54.7739 51.6342C54.8397 51.5175 54.9939 51.475 55.1104 51.5409L57.6652 52.9869C57.7817 53.0526 57.8244 53.2067 57.7585 53.3232ZM56.315 54.1192C56.2421 54.6176 55.7789 54.9626 55.2806 54.8897C54.7821 54.8168 54.4372 54.3536 54.5099 53.8552C54.5828 53.3567 55.046 53.0117 55.5444 53.0846C56.0428 53.1575 56.3879 53.6207 56.315 54.1192ZM47.3137 38.6579C49.0884 34.8886 48.9819 30.4013 46.8498 26.6604C46.5507 26.1357 46.7336 25.4677 47.2585 25.1686C47.7832 24.8693 48.4511 25.0522 48.7503 25.5772C51.3982 30.2226 51.3689 35.8528 48.8704 40.4141L49.7962 40.0795C50.3646 39.8742 50.9913 40.1682 51.1966 40.7363C51.402 41.3044 51.1079 41.9314 50.5398 42.1367L46.4354 43.6201C46.3146 43.6639 46.1888 43.6853 46.0637 43.6853C45.8344 43.6853 45.6077 43.6133 45.4175 43.4741C45.1237 43.259 44.9563 42.9118 44.9707 42.548L45.1282 38.6025C45.1523 37.9989 45.6602 37.5296 46.2648 37.5534C46.8576 37.5769 47.3203 38.0684 47.3137 38.6579ZM9.56756 25.2413C9.54405 25.83 9.05938 26.2914 8.47545 26.2914C8.46069 26.2914 8.44592 26.2911 8.43102 26.2906C7.83807 26.2669 7.37542 25.7752 7.38211 25.1856C5.60737 28.955 5.71374 33.4424 7.846 37.1833C8.14514 37.708 7.96221 38.376 7.43735 38.6751C7.26645 38.7725 7.08038 38.8188 6.89676 38.8188C6.51655 38.8188 6.14727 38.6204 5.94547 38.2665C3.29764 33.6211 3.3269 27.9908 5.82543 23.4296L4.89944 23.7643C4.33124 23.9697 3.70438 23.6756 3.49903 23.1075C3.29368 22.5394 3.58776 21.9125 4.15583 21.7071L8.26026 20.2237C8.60288 20.0998 8.98432 20.1547 9.27813 20.3697C9.57194 20.5848 9.73942 20.932 9.72493 21.2959L9.56756 25.2413Z" fill="#E63A27"/>
</svg>
