<svg width="60" height="60" viewBox="0 0 60 60" fill="none" xmlns="http://www.w3.org/2000/svg">
<g clip-path="url(#clip0_1852_7691)">
<path d="M30.0999 20.9326C30.9257 20.9326 31.5945 20.2633 31.5945 19.438C31.5945 18.6126 30.9257 17.9434 30.0999 17.9434C23.4966 17.9434 18.1436 23.2964 18.1436 29.9001C18.1436 36.5034 23.4966 41.8564 30.0999 41.8564C36.7036 41.8564 42.0566 36.5034 42.0566 29.9001C42.0566 29.0743 41.3874 28.4055 40.562 28.4055C39.7367 28.4055 39.0674 29.0743 39.0674 29.9001C39.0674 34.8527 35.0529 38.8677 30.0999 38.8677C25.1473 38.8677 21.1323 34.8527 21.1323 29.9001C21.1323 24.9471 25.1473 20.9326 30.0999 20.9326Z" fill="#E63A27"/>
<path d="M58.617 21.0228C58.3574 20.2386 57.5115 19.8134 56.7269 20.0729C55.9606 20.3265 55.534 21.1423 55.7624 21.9163C60.232 36.1496 52.3173 51.3111 38.084 55.7807C23.8513 60.2503 8.6897 52.3356 4.2201 38.1024C-0.249954 23.8692 7.66523 8.70759 21.898 4.238C27.1668 2.58364 32.8156 2.58364 38.084 4.238C38.8751 4.47649 39.7096 4.0288 39.9481 3.23778C40.1829 2.45867 39.7521 1.63515 38.9781 1.38338C23.1738 -3.57511 6.34183 5.21715 1.38334 21.0219C-3.57514 36.8261 5.21757 53.6581 21.0218 58.6166C36.8266 63.5751 53.6581 54.7828 58.6165 38.9781C60.4503 33.1334 60.4503 26.8675 58.617 21.0228Z" fill="#E63A27"/>
<path d="M32.947 10.6778C32.9548 9.82681 32.3011 9.11545 31.4524 9.05182C31.0061 9.01382 30.5593 8.97583 30.1011 8.97583C18.5449 8.97583 9.17676 18.344 9.17676 29.9002C9.17676 41.456 18.5449 50.8241 30.1011 50.8241C41.6569 50.8241 51.025 41.456 51.025 29.9002C51.025 29.3596 50.992 28.8194 50.9257 28.2829C50.8062 27.4626 50.0445 26.8945 49.2242 27.014C48.4039 27.133 47.8358 27.8952 47.9548 28.7155C47.9594 28.7466 47.9649 28.7773 47.9713 28.8084C48.0038 29.1705 48.0358 29.5294 48.0358 29.8993C48.0363 39.8048 40.0066 47.8344 30.1016 47.8353C20.196 47.8358 12.1664 39.8057 12.166 29.9006C12.1655 19.9956 20.1947 11.9655 30.1002 11.965H30.1007C30.4714 11.965 30.8308 11.9971 31.192 12.0291L31.4721 12.0525C32.2531 12.0859 32.9131 11.4798 32.9461 10.6989C32.9466 10.6915 32.9466 10.6847 32.947 10.6778Z" fill="#E63A27"/>
<path d="M39.0683 13.4596V18.8191L29.0442 28.8432C28.4504 29.4168 28.434 30.363 29.0075 30.9567C29.5811 31.5504 30.5273 31.5669 31.121 30.9933C31.1334 30.9814 31.1458 30.9691 31.1577 30.9567L41.1817 20.9326H46.5412C46.9377 20.9326 47.3176 20.7752 47.5982 20.4945L56.5653 11.527C57.149 10.9433 57.149 9.99712 56.5653 9.41347C56.2852 9.13332 55.9052 8.97585 55.5088 8.97585H51.025V4.49206C51.025 3.66672 50.3558 2.99747 49.53 2.99793C49.134 2.99793 48.7541 3.1554 48.4739 3.43555L39.5063 12.4031C39.2257 12.6833 39.0683 13.0632 39.0683 13.4596ZM42.0575 14.0785L48.0358 8.10015V10.4704C48.0358 11.2958 48.7051 11.965 49.5304 11.965H51.9007L45.9223 17.9434H42.0575V14.0785Z" fill="#E63A27"/>
</g>
<defs>
<clipPath id="clip0_1852_7691">
<rect width="60" height="60" fill="white"/>
</clipPath>
</defs>
</svg>
