<svg width="60" height="60" viewBox="0 0 60 60" fill="none" xmlns="http://www.w3.org/2000/svg">
<path d="M30 47.5781C18.4729 47.5781 8.27906 41.385 2.0325 30.5868C1.8225 30.2237 1.8225 29.7762 2.0325 29.4131C8.27918 18.615 18.473 12.4219 30 12.4219C41.527 12.4219 51.7208 18.615 57.9675 29.4132C58.1775 29.7763 58.1775 30.2238 57.9675 30.5869C51.7209 41.385 41.5271 47.5781 30 47.5781ZM4.40777 30C10.2491 39.6923 19.541 45.2344 30 45.2344C40.459 45.2344 49.7509 39.6923 55.5922 30C49.7509 20.3077 40.459 14.7656 30 14.7656C19.541 14.7656 10.2492 20.3077 4.40777 30Z" fill="#E63A27"/>
<path d="M30 39.375C24.8306 39.375 20.625 35.1694 20.625 30C20.625 24.8306 24.8306 20.625 30 20.625C35.1694 20.625 39.375 24.8306 39.375 30C39.375 35.1694 35.1694 39.375 30 39.375ZM30 22.9688C26.123 22.9688 22.9688 26.123 22.9688 30C22.9688 33.877 26.123 37.0312 30 37.0312C33.877 37.0312 37.0312 33.877 37.0312 30C37.0312 26.123 33.877 22.9688 30 22.9688Z" fill="#E63A27"/>
<path d="M30 47.5781C20.3073 47.5781 12.4219 39.6926 12.4219 30C12.4219 20.3074 20.3073 12.4219 30 12.4219C39.6926 12.4219 47.5781 20.3074 47.5781 30C47.5781 39.6926 39.6926 47.5781 30 47.5781ZM30 14.7656C21.5998 14.7656 14.7656 21.5998 14.7656 30C14.7656 38.4004 21.5998 45.2344 30 45.2344C38.4002 45.2344 45.2344 38.4004 45.2344 30C45.2344 21.5998 38.4002 14.7656 30 14.7656Z" fill="#E63A27"/>
<path d="M30 34.6875C27.4153 34.6875 25.3125 32.5847 25.3125 30C25.3125 27.4153 27.4153 25.3125 30 25.3125C32.5847 25.3125 34.6875 27.4153 34.6875 30C34.6875 32.5847 32.5847 34.6875 30 34.6875ZM30 27.6562C28.7077 27.6562 27.6562 28.7077 27.6562 30C27.6562 31.2923 28.7077 32.3438 30 32.3438C31.2923 32.3438 32.3438 31.2923 32.3438 30C32.3438 28.7077 31.2923 27.6562 30 27.6562Z" fill="#E63A27"/>
<path d="M30 10.0781C29.3528 10.0781 28.8281 9.55348 28.8281 8.90625V5.39062C28.8281 4.7434 29.3528 4.21875 30 4.21875C30.6472 4.21875 31.1719 4.7434 31.1719 5.39062V8.90625C31.1719 9.55348 30.6472 10.0781 30 10.0781Z" fill="#E63A27"/>
<path d="M20.8488 12.1674C20.4126 12.1674 19.994 11.9229 19.7921 11.5036L18.2667 8.33614C17.9859 7.75301 18.231 7.0527 18.8141 6.7718C19.3973 6.49102 20.0976 6.73618 20.3784 7.31919L21.9038 10.4866C22.1846 11.0698 21.9396 11.7701 21.3565 12.051C21.1925 12.13 21.0193 12.1674 20.8488 12.1674Z" fill="#E63A27"/>
<path d="M19.3216 53.3445C19.1511 53.3445 18.9779 53.3072 18.8141 53.2282C18.231 52.9473 17.9859 52.247 18.2667 51.6639L19.7921 48.4965C20.0729 47.9133 20.7732 47.6683 21.3565 47.9491C21.9396 48.2299 22.1846 48.9303 21.9038 49.5134L20.3784 52.6809C20.1764 53.1 19.7577 53.3445 19.3216 53.3445Z" fill="#E63A27"/>
<path d="M30 55.7812C29.3528 55.7812 28.8281 55.2565 28.8281 54.6094V51.0938C28.8281 50.4466 29.3528 49.9219 30 49.9219C30.6472 49.9219 31.1719 50.4466 31.1719 51.0938V54.6094C31.1719 55.2565 30.6472 55.7812 30 55.7812Z" fill="#E63A27"/>
<path d="M39.6222 52.6808L38.0968 49.5134C37.816 48.9303 38.061 48.2299 38.6442 47.9491C39.2274 47.668 39.9277 47.9133 40.2085 48.4964L41.7339 51.6639C42.0147 52.247 41.7697 52.9473 41.1865 53.2282C40.6058 53.5081 39.904 53.266 39.6222 52.6808Z" fill="#E63A27"/>
<path d="M38.6442 12.051C38.061 11.7702 37.816 11.0698 38.0968 10.4866L39.6222 7.31918C39.903 6.73605 40.6034 6.49136 41.1865 6.77179C41.7697 7.05257 42.0147 7.75289 41.7339 8.33613L40.2085 11.5036C39.9282 12.0858 39.2285 12.3322 38.6442 12.051Z" fill="#E63A27"/>
<path d="M30 41.7188C29.3528 41.7188 28.8281 41.194 28.8281 40.5469V33.5156C28.8281 32.8685 29.3528 32.3438 30 32.3438C30.6472 32.3438 31.1719 32.8685 31.1719 33.5156V40.5469C31.1719 41.194 30.6472 41.7188 30 41.7188Z" fill="#E63A27"/>
<path d="M30 27.6562C29.3528 27.6562 28.8281 27.1316 28.8281 26.4844V19.4531C28.8281 18.8059 29.3528 18.2812 30 18.2812C30.6472 18.2812 31.1719 18.8059 31.1719 19.4531V26.4844C31.1719 27.1316 30.6472 27.6562 30 27.6562Z" fill="#E63A27"/>
<path d="M26.4844 31.1719H19.4531C18.8059 31.1719 18.2812 30.6472 18.2812 30C18.2812 29.3528 18.8059 28.8281 19.4531 28.8281H26.4844C27.1316 28.8281 27.6562 29.3528 27.6562 30C27.6562 30.6472 27.1316 31.1719 26.4844 31.1719Z" fill="#E63A27"/>
<path d="M40.5469 31.1719H33.5156C32.8684 31.1719 32.3438 30.6472 32.3438 30C32.3438 29.3528 32.8684 28.8281 33.5156 28.8281H40.5469C41.1941 28.8281 41.7188 29.3528 41.7188 30C41.7188 30.6472 41.1941 31.1719 40.5469 31.1719Z" fill="#E63A27"/>
</svg>
