<svg width="173" height="51" viewBox="0 0 173 51" fill="none" xmlns="http://www.w3.org/2000/svg">
<path d="M61.1436 40.4688H64.3252C64.9775 40.4688 65.5381 40.5664 66.0068 40.7617C66.4795 40.957 66.8428 41.2461 67.0967 41.6289C67.3506 42.0117 67.4775 42.4824 67.4775 43.041C67.4775 43.498 67.3994 43.8906 67.2432 44.2188C67.0908 44.543 66.874 44.8145 66.5928 45.0332C66.3154 45.248 65.9893 45.4199 65.6143 45.5488L65.0576 45.8418H62.292L62.2803 44.4707H64.3369C64.6455 44.4707 64.9014 44.416 65.1045 44.3066C65.3076 44.1973 65.46 44.0449 65.5615 43.8496C65.667 43.6543 65.7197 43.4277 65.7197 43.1699C65.7197 42.8965 65.6689 42.6602 65.5674 42.4609C65.4658 42.2617 65.3115 42.1094 65.1045 42.0039C64.8975 41.8984 64.6377 41.8457 64.3252 41.8457H62.9014V49H61.1436V40.4688ZM65.9131 49L63.9678 45.1973L65.8252 45.1855L67.7939 48.918V49H65.9131ZM75.8389 44.5352V44.9395C75.8389 45.5879 75.751 46.1699 75.5752 46.6855C75.3994 47.2012 75.1514 47.6406 74.8311 48.0039C74.5107 48.3633 74.1279 48.6387 73.6826 48.8301C73.2412 49.0215 72.751 49.1172 72.2119 49.1172C71.6768 49.1172 71.1865 49.0215 70.7412 48.8301C70.2998 48.6387 69.917 48.3633 69.5928 48.0039C69.2686 47.6406 69.0166 47.2012 68.8369 46.6855C68.6611 46.1699 68.5732 45.5879 68.5732 44.9395V44.5352C68.5732 43.8828 68.6611 43.3008 68.8369 42.7891C69.0127 42.2734 69.2607 41.834 69.5811 41.4707C69.9053 41.1074 70.2881 40.8301 70.7295 40.6387C71.1748 40.4473 71.665 40.3516 72.2002 40.3516C72.7393 40.3516 73.2295 40.4473 73.6709 40.6387C74.1162 40.8301 74.499 41.1074 74.8193 41.4707C75.1436 41.834 75.3936 42.2734 75.5693 42.7891C75.749 43.3008 75.8389 43.8828 75.8389 44.5352ZM74.0635 44.9395V44.5234C74.0635 44.0703 74.0225 43.6719 73.9404 43.3281C73.8584 42.9844 73.7373 42.6953 73.5771 42.4609C73.417 42.2266 73.2217 42.0508 72.9912 41.9336C72.7607 41.8125 72.4971 41.752 72.2002 41.752C71.9033 41.752 71.6396 41.8125 71.4092 41.9336C71.1826 42.0508 70.9893 42.2266 70.8291 42.4609C70.6729 42.6953 70.5537 42.9844 70.4717 43.3281C70.3896 43.6719 70.3486 44.0703 70.3486 44.5234V44.9395C70.3486 45.3887 70.3896 45.7871 70.4717 46.1348C70.5537 46.4785 70.6748 46.7695 70.835 47.0078C70.9951 47.2422 71.1904 47.4199 71.4209 47.541C71.6514 47.6621 71.915 47.7227 72.2119 47.7227C72.5088 47.7227 72.7725 47.6621 73.0029 47.541C73.2334 47.4199 73.4268 47.2422 73.583 47.0078C73.7393 46.7695 73.8584 46.4785 73.9404 46.1348C74.0225 45.7871 74.0635 45.3887 74.0635 44.9395ZM84.1123 44.5352V44.9395C84.1123 45.5879 84.0244 46.1699 83.8486 46.6855C83.6729 47.2012 83.4248 47.6406 83.1045 48.0039C82.7842 48.3633 82.4014 48.6387 81.9561 48.8301C81.5146 49.0215 81.0244 49.1172 80.4854 49.1172C79.9502 49.1172 79.46 49.0215 79.0146 48.8301C78.5732 48.6387 78.1904 48.3633 77.8662 48.0039C77.542 47.6406 77.29 47.2012 77.1104 46.6855C76.9346 46.1699 76.8467 45.5879 76.8467 44.9395V44.5352C76.8467 43.8828 76.9346 43.3008 77.1104 42.7891C77.2861 42.2734 77.5342 41.834 77.8545 41.4707C78.1787 41.1074 78.5615 40.8301 79.0029 40.6387C79.4482 40.4473 79.9385 40.3516 80.4736 40.3516C81.0127 40.3516 81.5029 40.4473 81.9443 40.6387C82.3896 40.8301 82.7725 41.1074 83.0928 41.4707C83.417 41.834 83.667 42.2734 83.8428 42.7891C84.0225 43.3008 84.1123 43.8828 84.1123 44.5352ZM82.3369 44.9395V44.5234C82.3369 44.0703 82.2959 43.6719 82.2139 43.3281C82.1318 42.9844 82.0107 42.6953 81.8506 42.4609C81.6904 42.2266 81.4951 42.0508 81.2646 41.9336C81.0342 41.8125 80.7705 41.752 80.4736 41.752C80.1768 41.752 79.9131 41.8125 79.6826 41.9336C79.4561 42.0508 79.2627 42.2266 79.1025 42.4609C78.9463 42.6953 78.8271 42.9844 78.7451 43.3281C78.6631 43.6719 78.6221 44.0703 78.6221 44.5234V44.9395C78.6221 45.3887 78.6631 45.7871 78.7451 46.1348C78.8271 46.4785 78.9482 46.7695 79.1084 47.0078C79.2686 47.2422 79.4639 47.4199 79.6943 47.541C79.9248 47.6621 80.1885 47.7227 80.4854 47.7227C80.7822 47.7227 81.0459 47.6621 81.2764 47.541C81.5068 47.4199 81.7002 47.2422 81.8564 47.0078C82.0127 46.7695 82.1318 46.4785 82.2139 46.1348C82.2959 45.7871 82.3369 45.3887 82.3369 44.9395ZM87.1357 40.4688V49H85.3779V40.4688H87.1357ZM90.5342 44.1133V45.4844H86.6553V44.1133H90.5342ZM90.9443 40.4688V41.8457H86.6553V40.4688H90.9443ZM93.833 40.4688V49H92.0811V40.4688H93.833ZM102.423 40.4688V49H100.665L97.2373 43.2812V49H95.4795V40.4688H97.2373L100.671 46.1934V40.4688H102.423ZM110.714 44.541V47.9219C110.581 48.082 110.376 48.2559 110.099 48.4434C109.821 48.627 109.464 48.7852 109.026 48.918C108.589 49.0508 108.06 49.1172 107.438 49.1172C106.888 49.1172 106.386 49.0273 105.933 48.8477C105.479 48.6641 105.089 48.3965 104.761 48.0449C104.437 47.6934 104.187 47.2637 104.011 46.7559C103.835 46.2441 103.747 45.6602 103.747 45.0039V44.4707C103.747 43.8145 103.831 43.2305 103.999 42.7188C104.171 42.207 104.415 41.7754 104.731 41.4238C105.048 41.0723 105.425 40.8047 105.862 40.6211C106.3 40.4375 106.786 40.3457 107.321 40.3457C108.063 40.3457 108.673 40.4668 109.149 40.709C109.626 40.9473 109.989 41.2793 110.239 41.7051C110.493 42.127 110.649 42.6113 110.708 43.1582H109.003C108.96 42.8691 108.878 42.6172 108.757 42.4023C108.636 42.1875 108.462 42.0195 108.235 41.8984C108.013 41.7773 107.724 41.7168 107.368 41.7168C107.075 41.7168 106.813 41.7773 106.583 41.8984C106.356 42.0156 106.165 42.1895 106.009 42.4199C105.853 42.6504 105.733 42.9355 105.651 43.2754C105.569 43.6152 105.528 44.0098 105.528 44.459V45.0039C105.528 45.4492 105.571 45.8438 105.657 46.1875C105.743 46.5273 105.87 46.8145 106.038 47.0488C106.21 47.2793 106.421 47.4531 106.671 47.5703C106.921 47.6875 107.212 47.7461 107.544 47.7461C107.821 47.7461 108.052 47.7227 108.235 47.6758C108.423 47.6289 108.573 47.5723 108.687 47.5059C108.804 47.4355 108.894 47.3691 108.956 47.3066V45.7949H107.351V44.541H110.714ZM120.065 46.1699H121.817C121.782 46.7441 121.624 47.2539 121.343 47.6992C121.065 48.1445 120.677 48.4922 120.177 48.7422C119.681 48.9922 119.083 49.1172 118.384 49.1172C117.837 49.1172 117.347 49.0234 116.913 48.8359C116.479 48.6445 116.108 48.3711 115.8 48.0156C115.495 47.6602 115.263 47.2305 115.103 46.7266C114.942 46.2227 114.862 45.6582 114.862 45.0332V44.4414C114.862 43.8164 114.944 43.252 115.108 42.748C115.276 42.2402 115.515 41.8086 115.823 41.4531C116.136 41.0977 116.509 40.8242 116.942 40.6328C117.376 40.4414 117.86 40.3457 118.396 40.3457C119.106 40.3457 119.706 40.4746 120.194 40.7324C120.687 40.9902 121.067 41.3457 121.337 41.7988C121.61 42.252 121.774 42.7676 121.829 43.3457H120.071C120.052 43.002 119.983 42.7109 119.866 42.4727C119.749 42.2305 119.571 42.0488 119.333 41.9277C119.099 41.8027 118.786 41.7402 118.396 41.7402C118.103 41.7402 117.847 41.7949 117.628 41.9043C117.409 42.0137 117.226 42.1797 117.077 42.4023C116.929 42.625 116.817 42.9062 116.743 43.2461C116.673 43.582 116.638 43.9766 116.638 44.4297V45.0332C116.638 45.4746 116.671 45.8633 116.737 46.1992C116.804 46.5312 116.905 46.8125 117.042 47.043C117.183 47.2695 117.362 47.4414 117.581 47.5586C117.804 47.6719 118.071 47.7285 118.384 47.7285C118.751 47.7285 119.054 47.6699 119.292 47.5527C119.53 47.4355 119.712 47.2617 119.837 47.0312C119.966 46.8008 120.042 46.5137 120.065 46.1699ZM129.979 44.5352V44.9395C129.979 45.5879 129.892 46.1699 129.716 46.6855C129.54 47.2012 129.292 47.6406 128.972 48.0039C128.651 48.3633 128.269 48.6387 127.823 48.8301C127.382 49.0215 126.892 49.1172 126.353 49.1172C125.817 49.1172 125.327 49.0215 124.882 48.8301C124.44 48.6387 124.058 48.3633 123.733 48.0039C123.409 47.6406 123.157 47.2012 122.978 46.6855C122.802 46.1699 122.714 45.5879 122.714 44.9395V44.5352C122.714 43.8828 122.802 43.3008 122.978 42.7891C123.153 42.2734 123.401 41.834 123.722 41.4707C124.046 41.1074 124.429 40.8301 124.87 40.6387C125.315 40.4473 125.806 40.3516 126.341 40.3516C126.88 40.3516 127.37 40.4473 127.812 40.6387C128.257 40.8301 128.64 41.1074 128.96 41.4707C129.284 41.834 129.534 42.2734 129.71 42.7891C129.89 43.3008 129.979 43.8828 129.979 44.5352ZM128.204 44.9395V44.5234C128.204 44.0703 128.163 43.6719 128.081 43.3281C127.999 42.9844 127.878 42.6953 127.718 42.4609C127.558 42.2266 127.362 42.0508 127.132 41.9336C126.901 41.8125 126.638 41.752 126.341 41.752C126.044 41.752 125.78 41.8125 125.55 41.9336C125.323 42.0508 125.13 42.2266 124.97 42.4609C124.813 42.6953 124.694 42.9844 124.612 43.3281C124.53 43.6719 124.489 44.0703 124.489 44.5234V44.9395C124.489 45.3887 124.53 45.7871 124.612 46.1348C124.694 46.4785 124.815 46.7695 124.976 47.0078C125.136 47.2422 125.331 47.4199 125.562 47.541C125.792 47.6621 126.056 47.7227 126.353 47.7227C126.649 47.7227 126.913 47.6621 127.144 47.541C127.374 47.4199 127.567 47.2422 127.724 47.0078C127.88 46.7695 127.999 46.4785 128.081 46.1348C128.163 45.7871 128.204 45.3887 128.204 44.9395ZM132.048 40.4688H133.536L135.728 46.7324L137.919 40.4688H139.407L136.325 49H135.13L132.048 40.4688ZM131.245 40.4688H132.728L132.997 46.5742V49H131.245V40.4688ZM138.728 40.4688H140.216V49H138.458V46.5742L138.728 40.4688ZM145.079 45.959H142.905V44.5879H145.079C145.415 44.5879 145.688 44.5332 145.899 44.4238C146.11 44.3105 146.265 44.1543 146.362 43.9551C146.46 43.7559 146.509 43.5312 146.509 43.2812C146.509 43.0273 146.46 42.791 146.362 42.5723C146.265 42.3535 146.11 42.1777 145.899 42.0449C145.688 41.9121 145.415 41.8457 145.079 41.8457H143.515V49H141.757V40.4688H145.079C145.747 40.4688 146.319 40.5898 146.796 40.832C147.276 41.0703 147.644 41.4004 147.897 41.8223C148.151 42.2441 148.278 42.7266 148.278 43.2695C148.278 43.8203 148.151 44.2969 147.897 44.6992C147.644 45.1016 147.276 45.4121 146.796 45.6309C146.319 45.8496 145.747 45.959 145.079 45.959ZM151.987 41.9277L149.667 49H147.798L150.968 40.4688H152.157L151.987 41.9277ZM153.915 49L151.589 41.9277L151.401 40.4688H152.603L155.79 49H153.915ZM153.81 45.8242V47.2012H149.304V45.8242H153.81ZM163.524 40.4688V49H161.767L158.339 43.2812V49H156.581V40.4688H158.339L161.772 46.1934V40.4688H163.524ZM166.062 40.4688L167.843 44.3594L169.624 40.4688H171.54L168.733 45.8945V49H166.952V45.8945L164.14 40.4688H166.062Z" fill="#6F6E77"/>
<path d="M62.9018 27V1.08H73.6118C73.8638 1.08 74.1878 1.092 74.5838 1.116C74.9798 1.128 75.3458 1.164 75.6818 1.224C77.1818 1.452 78.4178 1.95 79.3898 2.718C80.3738 3.486 81.0998 4.458 81.5678 5.634C82.0478 6.798 82.2878 8.094 82.2878 9.522C82.2878 11.634 81.7538 13.452 80.6858 14.976C79.6178 16.488 77.9798 17.424 75.7718 17.784L73.9178 17.946H67.2398V27H62.9018ZM77.7878 27L72.6758 16.452L77.0858 15.48L82.7018 27H77.7878ZM67.2398 13.896H73.4318C73.6718 13.896 73.9418 13.884 74.2418 13.86C74.5418 13.836 74.8178 13.788 75.0698 13.716C75.7898 13.536 76.3538 13.218 76.7618 12.762C77.1818 12.306 77.4758 11.79 77.6438 11.214C77.8238 10.638 77.9138 10.074 77.9138 9.522C77.9138 8.97 77.8238 8.406 77.6438 7.83C77.4758 7.242 77.1818 6.72 76.7618 6.264C76.3538 5.808 75.7898 5.49 75.0698 5.31C74.8178 5.238 74.5418 5.196 74.2418 5.184C73.9418 5.16 73.6718 5.148 73.4318 5.148H67.2398V13.896ZM93.9575 27.558C92.5175 27.558 91.3295 27.318 90.3935 26.838C89.4575 26.358 88.7135 25.746 88.1615 25.002C87.6095 24.258 87.2015 23.466 86.9375 22.626C86.6735 21.786 86.4995 20.994 86.4155 20.25C86.3435 19.494 86.3075 18.882 86.3075 18.414V7.56H90.6995V16.92C90.6995 17.52 90.7415 18.198 90.8255 18.954C90.9095 19.698 91.1015 20.418 91.4015 21.114C91.7135 21.798 92.1695 22.362 92.7695 22.806C93.3815 23.25 94.2035 23.472 95.2355 23.472C95.7875 23.472 96.3335 23.382 96.8735 23.202C97.4135 23.022 97.8995 22.716 98.3315 22.284C98.7755 21.84 99.1295 21.234 99.3935 20.466C99.6575 19.698 99.7895 18.726 99.7895 17.55L102.363 18.648C102.363 20.304 102.039 21.804 101.391 23.148C100.755 24.492 99.8135 25.566 98.5655 26.37C97.3175 27.162 95.7815 27.558 93.9575 27.558ZM100.311 27V20.97H99.7895V7.56H104.145V27H100.311ZM110.895 27V7.254C110.895 6.762 110.913 6.222 110.949 5.634C110.985 5.034 111.087 4.44 111.255 3.852C111.423 3.264 111.729 2.73 112.173 2.25C112.725 1.638 113.319 1.218 113.955 0.989999C114.603 0.749999 115.239 0.617999 115.863 0.593998C116.487 0.557999 117.033 0.539999 117.501 0.539999H119.931V4.068H117.681C116.853 4.068 116.235 4.278 115.827 4.698C115.431 5.106 115.233 5.646 115.233 6.318V27H110.895ZM107.763 10.962V7.56H119.931V10.962H107.763ZM123.009 27V7.254C123.009 6.762 123.027 6.222 123.063 5.634C123.099 5.034 123.201 4.44 123.369 3.852C123.537 3.264 123.843 2.73 124.287 2.25C124.839 1.638 125.433 1.218 126.069 0.989999C126.717 0.749999 127.353 0.617999 127.977 0.593998C128.601 0.557999 129.147 0.539999 129.615 0.539999H132.045V4.068H129.795C128.967 4.068 128.349 4.278 127.941 4.698C127.545 5.106 127.347 5.646 127.347 6.318V27H123.009ZM119.877 10.962V7.56H132.045V10.962H119.877ZM143.072 27.54C141.104 27.54 139.376 27.114 137.888 26.262C136.4 25.41 135.236 24.228 134.396 22.716C133.568 21.204 133.154 19.464 133.154 17.496C133.154 15.372 133.562 13.53 134.378 11.97C135.194 10.398 136.328 9.18 137.78 8.316C139.232 7.452 140.912 7.02 142.82 7.02C144.836 7.02 146.546 7.494 147.95 8.442C149.366 9.378 150.416 10.704 151.1 12.42C151.784 14.136 152.042 16.158 151.874 18.486H147.572V16.902C147.56 14.79 147.188 13.248 146.456 12.276C145.724 11.304 144.572 10.818 143 10.818C141.224 10.818 139.904 11.37 139.04 12.474C138.176 13.566 137.744 15.168 137.744 17.28C137.744 19.248 138.176 20.772 139.04 21.852C139.904 22.932 141.164 23.472 142.82 23.472C143.888 23.472 144.806 23.238 145.574 22.77C146.354 22.29 146.954 21.6 147.374 20.7L151.658 21.996C150.914 23.748 149.762 25.11 148.202 26.082C146.654 27.054 144.944 27.54 143.072 27.54ZM136.376 18.486V15.21H149.75V18.486H136.376ZM155.89 27V7.56H159.724V12.294L159.256 11.682C159.496 11.034 159.814 10.446 160.21 9.918C160.618 9.378 161.104 8.934 161.668 8.586C162.148 8.262 162.676 8.01 163.252 7.83C163.84 7.638 164.44 7.524 165.052 7.488C165.664 7.44 166.258 7.464 166.834 7.56V11.61C166.258 11.442 165.592 11.388 164.836 11.448C164.092 11.508 163.42 11.718 162.82 12.078C162.22 12.402 161.728 12.816 161.344 13.32C160.972 13.824 160.696 14.4 160.516 15.048C160.336 15.684 160.246 16.374 160.246 17.118V27H155.89Z" fill="#141422"/>
<path d="M40.6798 17.924C40.2841 17.8765 39.9067 17.9358 39.5687 18.0757L33.8564 12.1633C34.0091 11.786 34.0828 11.3658 34.0553 10.9249C33.9709 9.57003 32.9146 8.47025 31.6071 8.37551C31.2266 8.34795 30.862 8.40437 30.5284 8.52809C30.3914 8.57895 30.3546 8.7626 30.4576 8.86924L31.92 10.3825L30.7411 11.6046L29.2692 10.0815C29.1669 9.97562 28.9911 10.0125 28.9406 10.1529C28.8152 10.5018 28.7564 10.8841 28.7808 11.2839C28.8651 12.6532 29.9414 13.7607 31.2641 13.8388C31.6931 13.8642 32.1012 13.7829 32.4667 13.6191L38.2343 19.5888C38.1481 19.8892 38.1171 20.2141 38.1571 20.552C38.2899 21.6742 39.1976 22.5501 40.2876 22.6099C41.6475 22.6846 42.764 21.5196 42.6783 20.1081C42.6097 18.9831 41.7611 18.054 40.6798 17.924ZM40.8019 21.3399L39.7043 21.1507L39.3136 20.0716L40.0205 19.1815L41.1181 19.3707L41.5088 20.4498L40.8019 21.3399Z" fill="#141422"/>
<path d="M41.7712 8.18799L40.3734 9.27392L39.8928 10.3599L36.2671 14.2058L36.704 14.7489L40.3734 10.9028L41.4218 10.2694L42.4702 8.95724L41.7712 8.18799Z" fill="#141422"/>
<path d="M32.9118 16.1184C33.0296 16.2892 32.9977 16.5255 32.8393 16.6563L29.2022 19.6622C29.0696 19.7717 28.9727 19.9198 28.9221 20.0874C28.7769 20.568 28.5737 21.5629 29.1903 22.0335C29.6979 22.4208 30.2542 22.4529 30.6101 22.4194C30.8284 22.3988 31.0301 22.2918 31.1736 22.12L34.339 18.3276C34.4838 18.1542 34.7403 18.1445 34.8968 18.3067C34.9773 18.3901 35.1084 18.3882 35.1866 18.3024L35.4326 18.0326C35.6317 17.8142 35.633 17.4735 35.4358 17.2533L33.8605 15.4961C33.6653 15.2784 33.3415 15.2524 33.1163 15.4366L32.9913 15.5388C32.8198 15.6792 32.7848 15.9342 32.9118 16.1184Z" fill="#141422"/>
<path d="M17.4418 1C11.5952 1 6.85547 5.90941 6.85547 11.9653V20.6448L10.8505 17.913V11.9653C10.8505 8.2006 13.8074 5.13796 17.4418 5.13796H46.005V34.7238C46.005 38.4886 43.0481 41.5511 39.4136 41.5511H34.7332V45.6891H39.4136C45.2603 45.6891 49.9999 40.7797 49.9999 34.7238V1H17.4418Z" fill="#141422"/>
<path d="M16.6938 16.1846L0 27.5994H6.57565V45.1851H26.6661V27.4042H32.8915L16.6938 16.1846ZM16.0955 34.4331V38.0395H15.5412H12.4265V34.4331V34.2391H15.5412H16.0955V34.4331ZM16.0955 32.5247V32.7188H15.5412H12.4265V32.5247V28.9182H15.5412H16.0955V32.5247ZM20.8654 34.4331V38.0395H17.7505H17.1964V34.4331V34.2391H17.7505H20.8654V34.4331ZM20.8654 32.5247V32.7188H17.7505H17.1964V32.5247V28.9182H17.7505H20.8654V32.5247Z" fill="#E63A27"/>
<path d="M28.0576 49.2296C29.9499 46.9534 28.3629 45.6258 28.3629 45.6258V41.5793C29.7057 35.6361 34.1617 35.9521 34.1617 35.9521C29.2784 39.2398 31.9032 41.6424 31.9032 41.6424V41.7057H34.0397V45.6889H31.9032C29.8278 47.4592 32.0863 49.2296 32.0863 49.2296V50.9999H28.0576V49.2296Z" fill="#141422"/>
</svg>
