<svg width="60" height="60" viewBox="0 0 60 60" fill="none" xmlns="http://www.w3.org/2000/svg">
<g clip-path="url(#clip0_1675_14423)">
<path d="M54.5953 22.9392H5.37451V57.3526H54.5953V22.9392Z" fill="#CFDCE5"/>
<path d="M54.5953 22.9392H5.37451V26.641H54.5953V22.9392Z" fill="#BAC6CC"/>
<path d="M58.9565 22.9391H1.01318L6.2067 12.0118L8.12482 7.97681H51.8449L58.9565 22.9391Z" fill="#FCD577"/>
<path d="M12.9535 7.97681L11.407 14.7127L6.20654 12.0118L8.12467 7.97681H12.9535Z" fill="#EAC36E"/>
<path d="M28.134 30.3428H11.9556V44.4646H28.134V30.3428Z" fill="#4EBFED"/>
<path d="M28.134 30.3428V44.4647H16.8462L21.5887 30.3428H28.134Z" fill="#92DDF4"/>
<path d="M48.6997 30.3428H36.1875V57.3525H48.6997V30.3428Z" fill="#DCE8EF"/>
<path d="M45.2722 33.7705H39.6152V53.925H45.2722V33.7705Z" fill="#4EBFED"/>
<path d="M20.7304 2.64746H11.4072V14.7127H20.7304V2.64746Z" fill="#FF6F52"/>
<path d="M29.7107 44.4646H10.3789V47.8922H29.7107V44.4646Z" fill="#DCE8EF"/>
<path d="M23.6929 9.00513H43.7788C44.3468 9.00513 44.8071 8.5447 44.8071 7.97681C44.8071 7.40892 44.3468 6.94849 43.7788 6.94849H23.6929C23.125 6.94849 22.6646 7.40892 22.6646 7.97681C22.6646 8.5447 23.125 9.00513 23.6929 9.00513Z" fill="black"/>
<path d="M59.9003 22.4977L52.7887 7.53547C52.6184 7.17699 52.2569 6.94848 51.8601 6.94848H47.2067C46.6387 6.94848 46.1784 7.40891 46.1784 7.9768C46.1784 8.54469 46.6387 9.00512 47.2067 9.00512H51.2102L57.3442 21.9109H54.6104H5.38961H2.65562L8.78969 9.00512H10.394V14.7129C10.394 15.2807 10.8544 15.7412 11.4223 15.7412H20.7455C21.3134 15.7412 21.7738 15.2807 21.7738 14.7129V2.64746C21.7738 2.07957 21.3134 1.61914 20.7455 1.61914H11.4222C10.8543 1.61914 10.3939 2.07957 10.3939 2.64746V6.94848H8.14C7.74308 6.94848 7.38168 7.17688 7.21129 7.53547L0.0995304 22.4977C-0.0518759 22.8164 -0.0293759 23.1902 0.159062 23.4884C0.347616 23.7867 0.675624 23.9675 1.02836 23.9675H4.3614V57.3526C4.3614 57.9205 4.82184 58.3809 5.38973 58.3809H54.6105C55.1785 58.3809 55.6388 57.9205 55.6388 57.3526V23.9675H58.9718C59.3245 23.9675 59.6527 23.7867 59.8411 23.4884C60.0295 23.1902 60.0518 22.8164 59.9003 22.4977ZM12.4505 3.6759H19.7171V13.6845H12.4505V3.6759ZM53.5821 56.3244H49.7432V39.3918C49.7432 38.8239 49.2829 38.3635 48.7149 38.3635C48.1469 38.3635 47.6866 38.8239 47.6866 39.3918V56.3244H37.2312V31.3712H47.6866V35.9642C47.6866 36.5321 48.1469 36.9925 48.7149 36.9925C49.2829 36.9925 49.7432 36.5321 49.7432 35.9642V30.3429C49.7432 29.775 49.2829 29.3145 48.7149 29.3145H36.2029C35.6349 29.3145 35.1746 29.775 35.1746 30.3429V56.3243H6.41793V23.9675H53.5821V56.3244Z" fill="black"/>
<path d="M45.287 32.7422H39.6304C39.0624 32.7422 38.6021 33.2026 38.6021 33.7705V53.925C38.6021 54.4929 39.0624 54.9533 39.6304 54.9533H45.287C45.855 54.9533 46.3153 54.4929 46.3153 53.925V33.7704C46.3153 33.2025 45.855 32.7422 45.287 32.7422ZM40.6586 39.7345H44.2587V42.8194H40.6586V39.7345ZM40.6586 44.876H44.2587V47.9609H40.6586V44.876ZM44.2587 34.7987V37.6779H40.6586V34.7987H44.2587ZM40.6586 52.8967V50.0175H44.2587V52.8967H40.6586Z" fill="black"/>
<path d="M10.3942 48.9206H12.108C12.6759 48.9206 13.1363 48.4602 13.1363 47.8923C13.1363 47.3244 12.6759 46.864 12.108 46.864H11.4225V45.4929H11.9709H28.6978V46.864H14.8501C14.2822 46.864 13.8218 47.3244 13.8218 47.8923C13.8218 48.4602 14.2822 48.9206 14.8501 48.9206H29.726C30.2939 48.9206 30.7543 48.4602 30.7543 47.8923V44.4647C30.7543 43.8968 30.294 43.4364 29.726 43.4364H29.1776V30.3428C29.1776 29.7749 28.7171 29.3145 28.1492 29.3145H11.9708C11.4029 29.3145 10.9425 29.7749 10.9425 30.3428V43.4364H10.394C9.82615 43.4364 9.36572 43.8968 9.36572 44.4647V47.8923C9.36584 48.4602 9.82627 48.9206 10.3942 48.9206ZM21.0883 43.4364V38.432H27.1209V43.4364H21.0883ZM27.1209 36.3755H21.0883V31.3711H27.1209V36.3755ZM19.0318 31.3711V36.3755H12.9992V31.3711H19.0318ZM12.9991 38.432H19.0317V43.4364H12.9991V38.432Z" fill="black"/>
</g>
<defs>
<clipPath id="clip0_1675_14423">
<rect width="60" height="60" fill="white"/>
</clipPath>
</defs>
</svg>
