<svg width="60" height="60" viewBox="0 0 60 60" fill="none" xmlns="http://www.w3.org/2000/svg">
<g clip-path="url(#clip0_1675_14394)">
<path d="M33.8099 18.4501L30.8899 21.3701L30.4299 21.8301C30.1252 22.1338 29.7443 22.3499 29.3273 22.4554C28.9102 22.561 28.4724 22.5523 28.0599 22.4301C27.6815 22.3171 27.3377 22.1108 27.0599 21.8301L25.8599 20.6301C25.6822 20.4504 25.5825 20.2078 25.5825 19.9551C25.5825 19.7024 25.6822 19.4598 25.8599 19.2801C25.9504 19.1918 26.0219 19.0859 26.07 18.969C26.1182 18.8521 26.142 18.7265 26.1399 18.6001C26.14 18.4754 26.1154 18.352 26.0673 18.2369C26.0192 18.1219 25.9487 18.0176 25.8599 17.9301L24.5099 16.5801C24.3302 16.4024 24.0876 16.3027 23.8349 16.3027C23.5822 16.3027 23.3396 16.4024 23.1599 16.5801C22.9805 16.7556 22.7408 16.8558 22.4899 16.8601C22.2353 16.8596 21.991 16.7591 21.8099 16.5801L17.0899 11.8601L16.4099 11.1801C16.2322 11.0004 16.1325 10.7578 16.1325 10.5051C16.1325 10.2524 16.2322 10.0098 16.4099 9.8301L19.7899 6.4701C19.1669 5.8428 18.4012 5.37591 17.5582 5.10944C16.7152 4.84296 15.8202 4.78486 14.9499 4.9401C14.4644 4.92409 14.0031 4.72386 13.6599 4.3801C13.4044 4.12527 13.2274 3.8025 13.1499 3.4501C13.0605 2.96778 13.1647 2.46967 13.4398 2.06356C13.7149 1.65744 14.1388 1.37598 14.6199 1.2801C17.9199 0.630097 19.7899 1.0701 21.8199 3.0901L28.5599 9.8301C28.7376 10.0098 28.8373 10.2524 28.8373 10.5051C28.8373 10.7578 28.7376 11.0004 28.5599 11.1801C28.4694 11.2684 28.3979 11.3743 28.3497 11.4912C28.3016 11.6081 28.2778 11.7337 28.2799 11.8601C28.2798 11.9848 28.3044 12.1082 28.3525 12.2233C28.4006 12.3383 28.4711 12.4426 28.5599 12.5301L29.9099 13.8801C30.0896 14.0578 30.3322 14.1575 30.5849 14.1575C30.8376 14.1575 31.0802 14.0578 31.2599 13.8801C31.4393 13.7046 31.679 13.6044 31.9299 13.6001C32.1845 13.6006 32.4288 13.7011 32.6099 13.8801L33.8099 15.0801C34.2565 15.5271 34.5074 16.1332 34.5074 16.7651C34.5074 17.397 34.2565 18.0031 33.8099 18.4501Z" fill="#9E9E9E"/>
<path d="M33.81 15.0799L32.61 13.8799C32.4289 13.7009 32.1847 13.6004 31.93 13.5999C31.6791 13.6042 31.4394 13.7044 31.26 13.8799C31.0803 14.0576 30.8378 14.1573 30.585 14.1573C30.3323 14.1573 30.0897 14.0576 29.91 13.8799L28.56 12.5299C28.4712 12.4424 28.4007 12.3381 28.3526 12.2231C28.3046 12.108 28.2799 11.9846 28.28 11.8599C28.278 11.7335 28.3017 11.6079 28.3499 11.491C28.398 11.3741 28.4695 11.2682 28.56 11.1799C28.7377 11.0002 28.8374 10.7576 28.8374 10.5049C28.8374 10.2522 28.7377 10.0096 28.56 9.82989L21.82 3.08989C19.971 1.24989 18.242 0.731891 15.457 1.14289C16.7502 1.43426 17.9235 2.11355 18.82 3.08989L25.56 9.82989C25.7377 10.0096 25.8374 10.2522 25.8374 10.5049C25.8374 10.7576 25.7377 11.0002 25.56 11.1799C25.4695 11.2682 25.398 11.3741 25.3499 11.491C25.3017 11.6079 25.278 11.7335 25.28 11.8599C25.2799 11.9846 25.3046 12.108 25.3526 12.2231C25.4007 12.3381 25.4712 12.4424 25.56 12.5299L26.91 13.8799C27.0897 14.0576 27.3323 14.1573 27.585 14.1573C27.8378 14.1573 28.0803 14.0576 28.26 13.8799C28.4394 13.7044 28.6791 13.6042 28.93 13.5999C29.1847 13.6004 29.4289 13.7009 29.61 13.8799L30.81 15.0799C31.2567 15.5269 31.5075 16.133 31.5075 16.7649C31.5075 17.3968 31.2567 18.0029 30.81 18.4499L27.89 21.3699L27.43 21.8299C27.3698 21.8804 27.3071 21.9278 27.242 21.9719C27.4811 22.178 27.7593 22.3338 28.06 22.4299C28.4725 22.5521 28.9103 22.5608 29.3274 22.4552C29.7445 22.3496 30.1254 22.1336 30.43 21.8299L30.89 21.3699L33.81 18.4499C34.2567 18.0029 34.5075 17.3968 34.5075 16.7649C34.5075 16.133 34.2567 15.5269 33.81 15.0799Z" fill="#707070"/>
<path d="M21.1401 15.9101L5.62011 31.4401C5.44238 31.6184 5.23121 31.7599 4.99869 31.8565C4.76617 31.953 4.51688 32.0027 4.26511 32.0027C4.01334 32.0027 3.76405 31.953 3.53153 31.8565C3.29901 31.7599 3.08783 31.6184 2.91011 31.4401L1.57011 30.0901C1.38976 29.9146 1.24642 29.7047 1.14855 29.4728C1.05067 29.2409 1.00024 28.9918 1.00024 28.7401C1.00024 28.4884 1.05067 28.2393 1.14855 28.0074C1.24642 27.7756 1.38976 27.5657 1.57011 27.3901L17.0901 11.8601L21.1401 15.9101Z" fill="#A0522D"/>
<path d="M58.09 51.0001H1.90999C1.73213 51.0016 1.55783 50.9503 1.40911 50.8527C1.26038 50.7552 1.14389 50.6158 1.07434 50.4521C1.00479 50.2884 0.985311 50.1077 1.01835 49.933C1.05139 49.7582 1.13548 49.5971 1.25999 49.4701L28.06 22.4301C28.4725 22.5523 28.9103 22.561 29.3274 22.4555C29.7444 22.3499 30.1253 22.1338 30.43 21.8301L30.89 21.3701L58.74 49.4701C58.8645 49.5971 58.9486 49.7582 58.9816 49.933C59.0147 50.1077 58.9952 50.2884 58.9256 50.4521C58.8561 50.6158 58.7396 50.7552 58.5909 50.8527C58.4421 50.9503 58.2678 51.0016 58.09 51.0001Z" fill="#FFDC00"/>
<path d="M58.74 49.4701L30.89 21.3701L30.43 21.8301C30.0435 22.2086 29.5386 22.4427 29 22.4931L55.74 49.4701C55.8645 49.5971 55.9486 49.7582 55.9816 49.933C56.0147 50.1077 55.9952 50.2884 55.9257 50.4521C55.8561 50.6158 55.7396 50.7552 55.5909 50.8527C55.4422 50.9503 55.2679 51.0016 55.09 51.0001H58.09C58.2679 51.0016 58.4422 50.9503 58.5909 50.8527C58.7396 50.7552 58.8561 50.6158 58.9257 50.4521C58.9952 50.2884 59.0147 50.1077 58.9816 49.933C58.9486 49.7582 58.8645 49.5971 58.74 49.4701Z" fill="#FEC108"/>
<path d="M56 51V58C55.9745 58.2884 55.8364 58.5552 55.6154 58.7424C55.3945 58.9296 55.1087 59.0222 54.82 59H5.18C4.89129 59.0222 4.60547 58.9296 4.38456 58.7424C4.16365 58.5552 4.02547 58.2884 4 58V51H56Z" fill="#FEC108"/>
<path d="M30 47C34.4183 47 38 43.4183 38 39C38 34.5817 34.4183 31 30 31C25.5817 31 22 34.5817 22 39C22 43.4183 25.5817 47 30 47Z" fill="#00BCD4"/>
<path d="M30 31C29.4966 31.0014 28.9944 31.0499 28.5 31.145C30.3249 31.4973 31.9703 32.474 33.1534 33.9074C34.3366 35.3408 34.9838 37.1414 34.9838 39C34.9838 40.8586 34.3366 42.6593 33.1534 44.0927C31.9703 45.5261 30.3249 46.5028 28.5 46.855C29.5953 47.0664 30.7226 47.0464 31.8097 46.7964C32.8968 46.5463 33.9195 46.0716 34.8123 45.4029C35.7051 44.7341 36.4481 43.8861 36.9938 42.9132C37.5394 41.9403 37.8755 40.864 37.9806 39.7535C38.0857 38.643 37.9573 37.5228 37.6038 36.4648C37.2503 35.4068 36.6795 34.4345 35.928 33.6102C35.1765 32.7859 34.2609 32.1278 33.24 31.6783C32.2191 31.2288 31.1155 30.9978 30 31Z" fill="#0377BC"/>
<path d="M9.57805e-06 28.741C-0.000976805 29.1225 0.0742324 29.5003 0.221225 29.8523C0.368217 30.2043 0.584033 30.5235 0.85601 30.791L2.20401 32.148C2.7502 32.6935 3.49057 32.9999 4.26251 32.9999C5.03445 32.9999 5.77482 32.6935 6.32101 32.148L21.144 17.321C21.5053 17.6606 21.9843 17.8467 22.4801 17.8402C22.9759 17.8336 23.4498 17.635 23.802 17.286L25.152 18.572C24.787 18.9395 24.5822 19.4365 24.5822 19.9545C24.5822 20.4725 24.787 20.9694 25.152 21.337L26.352 22.537C26.386 22.572 26.427 22.595 26.463 22.628L0.54701 48.77C0.284664 49.0376 0.107329 49.3769 0.0373163 49.745C-0.0326967 50.1132 0.00773922 50.4939 0.153537 50.8391C0.299334 51.1844 0.543981 51.4788 0.856699 51.6854C1.16942 51.8919 1.53624 52.0014 1.91101 52H3.00001V58C3.02597 58.5539 3.26996 59.0751 3.67875 59.4498C4.08754 59.8244 4.62793 60.0222 5.18201 60H54.817C55.3713 60.0225 55.9119 59.8248 56.3209 59.4501C56.7299 59.0754 56.9741 58.5541 57 58V52H58.09C58.4653 52.0014 58.8325 51.8916 59.1455 51.6846C59.4584 51.4775 59.7031 51.1824 59.8485 50.8365C59.994 50.4906 60.0338 50.1094 59.9629 49.7409C59.8919 49.3724 59.7135 49.0332 59.45 48.766L32.3 21.37L34.519 19.152C35.1521 18.5169 35.5077 17.6567 35.5077 16.76C35.5077 15.8632 35.1521 15.003 34.519 14.368L33.319 13.168C32.9597 12.8123 32.4746 12.6128 31.969 12.6128C31.4635 12.6128 30.9783 12.8123 30.619 13.168L29.269 11.883C29.634 11.5154 29.8388 11.0185 29.8388 10.5005C29.8388 9.98249 29.634 9.48552 29.269 9.11797L22.522 2.37997C20.273 0.141972 18.075 -0.424028 14.42 0.299972C13.675 0.453867 13.0214 0.896731 12.6023 1.53157C12.1832 2.1664 12.0328 2.94145 12.184 3.68697C12.3235 4.31419 12.6688 4.87672 13.165 5.28499C13.6612 5.69327 14.2797 5.92383 14.922 5.93997C15.079 5.93997 15.267 5.93397 15.48 5.91997C16.4646 5.78103 17.4665 5.99843 18.305 6.53297L15.7 9.12197C15.3385 9.48505 15.1338 9.97551 15.1301 10.4879C15.1263 11.0003 15.3238 11.4937 15.68 11.862L0.86301 26.683C0.589211 26.9511 0.371812 27.2714 0.223604 27.6248C0.0753966 27.9782 -0.000625935 28.3577 9.57805e-06 28.741ZM55.015 57.941C54.9589 57.9869 54.8874 58.0098 54.815 58.005H5.18301C5.07001 58.005 5.00801 57.96 5.00101 57.993V52H55L55.015 57.941ZM2.14401 50L28.415 23.491C28.5231 23.5068 28.6319 23.5171 28.741 23.522C29.5134 23.5177 30.2609 23.2479 30.858 22.758L57.856 50H2.14401ZM20.492 7.17797C20.585 7.0851 20.6587 6.97481 20.7091 6.85341C20.7594 6.73201 20.7853 6.60189 20.7853 6.47047C20.7853 6.33906 20.7594 6.20893 20.7091 6.08753C20.6587 5.96613 20.585 5.85585 20.492 5.76297C19.84 5.07377 19.0347 4.54799 18.1415 4.22829C17.2483 3.90859 16.2922 3.80399 15.351 3.92297C15.202 3.93197 15.064 3.93997 14.982 3.93997C14.7473 3.93399 14.5239 3.83805 14.358 3.67197C14.2496 3.55662 14.1725 3.41549 14.134 3.26197C14.0921 3.04057 14.139 2.81158 14.2646 2.62448C14.3901 2.43737 14.5843 2.30716 14.805 2.26197C17.81 1.66897 19.343 2.04197 21.105 3.79697L27.869 10.453C27.6828 10.6332 27.5343 10.8488 27.4323 11.0871C27.3304 11.3254 27.2769 11.5816 27.275 11.8408C27.2731 12.1 27.3229 12.3569 27.4215 12.5966C27.5201 12.8364 27.6654 13.054 27.849 13.237L29.199 14.587C29.3743 14.7678 29.5841 14.9116 29.816 15.0098C30.0479 15.108 30.2972 15.1586 30.549 15.1586C30.8008 15.1586 31.0501 15.108 31.282 15.0098C31.5139 14.9116 31.7237 14.7678 31.899 14.587L33.099 15.787C33.3579 16.0466 33.5033 16.3983 33.5033 16.765C33.5033 17.1316 33.3579 17.4833 33.099 17.743L29.72 21.119C29.4602 21.378 29.1083 21.5234 28.7415 21.5234C28.3747 21.5234 28.0228 21.378 27.763 21.119L26.548 20.005C26.7338 19.8246 26.8818 19.609 26.9835 19.3709C27.0851 19.1327 27.1383 18.8767 27.14 18.6177C27.1417 18.3588 27.0918 18.1021 26.9932 17.8626C26.8947 17.6232 26.7495 17.4057 26.566 17.223L25.216 15.872C24.852 15.5067 24.3577 15.3009 23.842 15.3C23.5932 15.2977 23.3466 15.3474 23.1181 15.4459C22.8896 15.5444 22.6842 15.6895 22.515 15.872L21.868 15.234C21.859 15.224 21.857 15.212 21.848 15.203L17.8 11.155C17.745 11.1091 17.6845 11.0702 17.62 11.039L17.112 10.539L20.492 7.17797ZM2.27301 28.1L17.091 13.278L19.725 15.911L4.90801 30.734C4.73446 30.8987 4.5043 30.9905 4.26501 30.9905C4.02572 30.9905 3.79556 30.8987 3.62201 30.734L2.26901 29.374C2.18417 29.2916 2.11666 29.193 2.07046 29.0841C2.02427 28.9753 2.00031 28.8582 2.00001 28.74C2.00076 28.6205 2.02529 28.5024 2.07216 28.3925C2.11903 28.2826 2.18731 28.1832 2.27301 28.1Z" fill="black"/>
<path d="M30 30C28.22 30 26.4799 30.5278 24.9999 31.5168C23.5198 32.5057 22.3663 33.9113 21.6851 35.5559C21.0039 37.2004 20.8257 39.01 21.1729 40.7558C21.5202 42.5016 22.3774 44.1053 23.636 45.364C24.8947 46.6226 26.4984 47.4798 28.2442 47.8271C29.99 48.1743 31.7996 47.9961 33.4442 47.3149C35.0887 46.6337 36.4943 45.4802 37.4832 44.0001C38.4722 42.5201 39 40.78 39 39C38.9974 36.6139 38.0483 34.3262 36.361 32.639C34.6738 30.9517 32.3861 30.0026 30 30ZM30 46C28.6155 46 27.2622 45.5895 26.111 44.8203C24.9599 44.0511 24.0627 42.9579 23.5328 41.6788C23.003 40.3997 22.8644 38.9922 23.1345 37.6344C23.4046 36.2765 24.0713 35.0292 25.0503 34.0503C26.0292 33.0713 27.2765 32.4046 28.6344 32.1345C29.9922 31.8644 31.3997 32.003 32.6788 32.5328C33.9579 33.0627 35.0511 33.9599 35.8203 35.111C36.5895 36.2622 37 37.6155 37 39C36.9976 40.8558 36.2594 42.6349 34.9471 43.9471C33.6349 45.2594 31.8558 45.9976 30 46Z" fill="black"/>
<path d="M31 38.465V36C31 35.7348 30.8946 35.4804 30.7071 35.2929C30.5196 35.1054 30.2652 35 30 35C29.7348 35 29.4804 35.1054 29.2929 35.2929C29.1054 35.4804 29 35.7348 29 36V39C29 39.1646 29.0406 39.3266 29.1182 39.4718C29.1958 39.6169 29.3081 39.7407 29.445 39.832L32.445 41.832C32.5543 41.9049 32.6768 41.9555 32.8056 41.9811C32.9345 42.0066 33.0671 42.0065 33.1959 41.9808C33.3247 41.955 33.4471 41.9042 33.5563 41.8311C33.6654 41.7581 33.7591 41.6643 33.832 41.555C33.9049 41.4457 33.9555 41.3232 33.9811 41.1944C34.0066 41.0655 34.0065 40.9329 33.9808 40.8041C33.955 40.6753 33.9042 40.5529 33.8311 40.4437C33.7581 40.3346 33.6643 40.2409 33.555 40.168L31 38.465Z" fill="black"/>
</g>
<defs>
<clipPath id="clip0_1675_14394">
<rect width="60" height="60" fill="white"/>
</clipPath>
</defs>
</svg>
