<svg width="50" height="50" viewBox="0 0 50 50" fill="none" xmlns="http://www.w3.org/2000/svg">
<path d="M49.7709 24.7866L35.7085 7.17794C35.6804 7.14272 35.6593 7.12609 35.6359 7.10848C35.5015 6.97446 35.3359 6.8913 35.1562 6.8913H33.1359L35.7085 3.66989C35.932 3.39011 35.9992 2.96946 35.8781 2.60359C35.7577 2.23772 35.4726 2 35.1562 2H14.8438C14.636 2 14.4376 2.10272 14.2915 2.28663L0.229053 19.8953C0.00561656 20.1751 -0.0615705 20.5958 0.0595225 20.9616C0.180616 21.3275 0.46577 21.5652 0.781393 21.5652H2.80169L0.229053 24.7866C0.00561656 25.0664 -0.0615705 25.4871 0.0595225 25.8529C0.180616 26.2188 0.46577 26.4565 0.781393 26.4565H2.34388V46.0217C2.34388 46.5627 2.6931 47 3.12513 47H46.8749C47.3069 47 47.6561 46.5627 47.6561 46.0217V26.4565H49.2186C49.5342 26.4565 49.8194 26.2188 49.9405 25.8529C50.0616 25.4871 49.9944 25.0664 49.7709 24.7866ZM30.6984 7.17696L30.6968 7.17891L27.8015 10.8043H22.9797L28.4484 3.95652H33.2703L30.6984 7.17696ZM8.91728 19.6087L14.386 12.7609H19.2078L13.7391 19.6087H8.91728ZM26.2391 3.95652L20.7703 10.8043H15.9485L21.4172 3.95652H26.2391ZM21.4172 12.7609H26.2391L20.7703 19.6087H15.9485L21.4172 12.7609ZM15.1672 3.95652H19.2078L13.7391 10.8043H9.69853L15.1672 3.95652ZM8.13604 12.7609H12.1766L6.70792 19.6087H2.66732L8.13604 12.7609ZM5.01106 21.5652H21.0938C21.3016 21.5652 21.4992 21.4615 21.6461 21.2786L31.5734 8.84783H33.2703L20.7703 24.5H2.66732L5.01106 21.5652ZM3.90637 26.4565H21.0938H22.6563V45.0435H3.90637V26.4565ZM32.0312 45.0435V31.3478H38.2812V45.0435H32.0312ZM46.8749 24.5C46.4428 24.5 46.0936 24.9373 46.0936 25.4783V45.0435H39.8437V30.3696C39.8437 29.8286 39.4944 29.3913 39.0624 29.3913H31.25C30.8179 29.3913 30.4687 29.8286 30.4687 30.3696V45.0435H24.2188V25.4783C24.2188 24.9373 23.8695 24.5 23.4375 24.5H22.9797L35.1562 9.25283L47.3327 24.5H46.8749Z" fill="white"/>
<path d="M35.1562 16.6739C33.0023 16.6739 31.25 18.8681 31.25 21.5652C31.25 24.2623 33.0023 26.4565 35.1562 26.4565C37.3101 26.4565 39.0625 24.2623 39.0625 21.5652C39.0625 18.8681 37.3101 16.6739 35.1562 16.6739ZM35.1562 24.5C33.864 24.5 32.8125 23.1832 32.8125 21.5652C32.8125 19.9471 33.864 18.6304 35.1562 18.6304C36.4484 18.6304 37.5 19.9471 37.5 21.5652C37.5 23.1842 36.4492 24.5 35.1562 24.5Z" fill="white"/>
<path d="M20.3124 29.3913H6.25C5.81797 29.3913 5.46875 29.8286 5.46875 30.3696V40.1522C5.46875 40.6931 5.81797 41.1304 6.25 41.1304H20.3124C20.7444 41.1304 21.0937 40.6931 21.0937 40.1522V30.3696C21.0937 29.8296 20.7444 29.3913 20.3124 29.3913ZM7.03124 31.3478H12.5V39.1739H7.03124V31.3478ZM19.5312 39.1739H14.0624V31.3478H19.5312V39.1739Z" fill="white"/>
</svg>
