<svg width="50" height="50" viewBox="0 0 50 50" fill="none" xmlns="http://www.w3.org/2000/svg">
<path d="M47.9826 0H2.01748C1.46748 0 1.02148 0.445996 1.02148 0.995996V41.3431C1.02148 46.1165 4.90498 49.9999 9.67832 49.9999C12.9983 49.9999 15.8874 48.1208 17.3392 45.3706C18.7909 48.1209 21.68 50 25 50C28.32 50 31.2091 48.1209 32.6608 45.3707C34.1127 48.1209 37.0017 50 40.3217 50C45.0951 50 48.9785 46.1165 48.9785 41.3432V0.995996C48.9786 0.445996 48.5326 0 47.9826 0ZM16.3432 41.3432C16.3432 45.0182 13.3533 48.008 9.67832 48.008C6.00332 48.008 3.01348 45.0182 3.01348 41.3432V33.4692C4.60264 35.3852 7.00029 36.6077 9.67832 36.6077C12.3563 36.6077 14.754 35.3854 16.3432 33.4692V41.3432ZM16.3432 27.894V27.9507C16.3432 31.6257 13.3533 34.6155 9.67832 34.6155C6.00332 34.6155 3.01348 31.6257 3.01348 27.9507V27.894V19.9635C4.60264 21.8795 7.00029 23.102 9.67832 23.102C12.3563 23.102 14.754 21.8796 16.3432 19.9635V27.894ZM16.3432 14.445C16.3432 18.12 13.3533 21.1099 9.67832 21.1099C6.00332 21.1099 3.01348 18.12 3.01348 14.445V1.99199H16.3432V14.445ZM31.6648 41.3432C31.6648 45.0182 28.675 48.008 25 48.008C21.325 48.008 18.3352 45.0182 18.3352 41.3432V33.4692C19.9243 35.3852 22.322 36.6077 25 36.6077C27.678 36.6077 30.0757 35.3854 31.6648 33.4692V41.3432ZM31.6648 27.8941V27.9508C31.6648 31.6258 28.675 34.6156 25 34.6156C21.325 34.6156 18.3352 31.6258 18.3352 27.9508V27.8941V19.9636C19.9243 21.8795 22.322 23.1021 25 23.1021C27.678 23.1021 30.0757 21.8797 31.6648 19.9636V27.8941ZM31.6648 14.445C31.6648 18.12 28.675 21.1099 25 21.1099C21.325 21.1099 18.3352 18.12 18.3352 14.445V1.99199H31.6648V14.445ZM46.9865 41.3432C46.9865 45.0182 43.9967 48.008 40.3217 48.008C36.6467 48.008 33.6568 45.0182 33.6568 41.3432V33.4692C35.246 35.3852 37.6437 36.6077 40.3217 36.6077C42.9997 36.6077 45.3974 35.3854 46.9865 33.4692V41.3432ZM46.9865 27.8941V27.9508C46.9865 31.6258 43.9967 34.6156 40.3217 34.6156C36.6467 34.6156 33.6568 31.6258 33.6568 27.9508V27.8941V19.9636C35.246 21.8795 37.6437 23.1021 40.3217 23.1021C42.9997 23.1021 45.3974 21.8797 46.9865 19.9636V27.8941ZM46.9865 14.445C46.9865 18.12 43.9967 21.1099 40.3217 21.1099C36.6467 21.1099 33.6568 18.12 33.6568 14.445V1.99199H46.9865V14.445Z" fill="white"/>
<path d="M45.119 3.09265C44.569 3.09265 44.123 3.53865 44.123 4.08865V8.67029C44.123 9.22029 44.569 9.66628 45.119 9.66628C45.669 9.66628 46.115 9.22029 46.115 8.67029V4.08865C46.115 3.53865 45.669 3.09265 45.119 3.09265Z" fill="white"/>
<path d="M45.119 10.6623C44.569 10.6623 44.123 11.1083 44.123 11.6583V12.6543C44.123 13.2043 44.569 13.6503 45.119 13.6503C45.669 13.6503 46.115 13.2043 46.115 12.6543V11.6583C46.115 11.1084 45.669 10.6623 45.119 10.6623Z" fill="white"/>
</svg>
