<svg width="50" height="50" viewBox="0 0 50 50" fill="none" xmlns="http://www.w3.org/2000/svg">
<g clip-path="url(#clip0_1864_7136)">
<path d="M44.2069 26.7224C43.7745 26.7224 43.424 27.0728 43.424 27.5053V48.4343H20.8249C20.3925 48.4343 20.042 48.7848 20.042 49.2172C20.042 49.6496 20.3924 50.0001 20.8249 50.0001H44.2069C44.6394 50.0001 44.9898 49.6496 44.9898 49.2172V27.5052C44.9898 27.0728 44.6393 26.7224 44.2069 26.7224Z" fill="white"/>
<path d="M49.6903 18.5309L25.4732 0.159302C25.1934 -0.0529053 24.8065 -0.0529053 24.5268 0.159302L14.9269 7.44192V4.90627H15.8142C16.2466 4.90627 16.5971 4.55579 16.5971 4.12336V0.783032C16.5971 0.350708 16.2467 0.00012207 15.8142 0.00012207H4.1233C3.69088 0.00012207 3.34039 0.35061 3.34039 0.783032V4.12336C3.34039 4.55569 3.69078 4.90627 4.1233 4.90627H5.0106V14.9649L0.309725 18.5309C0.0419514 18.734 -0.0663494 19.0856 0.0409748 19.4041C0.148104 19.7228 0.446834 19.9374 0.782967 19.9374H5.01051V49.2171C5.01051 49.6494 5.3609 50 5.79342 50H15.8143C16.2467 50 16.5972 49.6495 16.5972 49.2171C16.5972 48.7847 16.2468 48.4342 15.8143 48.4342H6.57623V19.1545C6.57623 18.7222 6.22584 18.3716 5.79332 18.3716H3.11021L25.0001 1.76575L46.8898 18.3718H44.2067C43.7743 18.3718 43.4238 18.7223 43.4238 19.1547V23.3301C43.4238 23.7624 43.7742 24.113 44.2067 24.113C44.6391 24.113 44.9896 23.7625 44.9896 23.3301V19.9375H49.2171C49.5534 19.9375 49.852 19.7229 49.9591 19.4042C50.0663 19.0856 49.9581 18.7341 49.6903 18.5309ZM4.90611 3.34045V1.56594H15.0313V3.34045H4.90611ZM13.3613 8.62981L6.57633 13.777V4.90627H13.3613V8.62981Z" fill="white"/>
<path d="M41.6925 39.7145L34.5931 31.3642C34.4587 31.2059 34.2669 31.1077 34.0599 31.0909L31.7056 30.9003C31.7001 30.8999 31.6946 30.9001 31.6889 30.8998L30.1434 29.0819L33.6493 25.576L34.2766 26.2033C34.5782 26.5048 35.0824 26.5048 35.3839 26.2033L37.7458 23.8414C37.7911 23.7961 37.8305 23.7455 37.8636 23.6906L39.635 20.7381C39.8199 20.4301 39.7713 20.0356 39.5173 19.7817L38.3364 18.6009C38.0824 18.3469 37.6881 18.2981 37.3801 18.4831L34.4276 20.2546C34.3727 20.2875 34.322 20.327 34.2767 20.3724L31.9147 22.7344C31.6134 23.0357 31.6134 23.5401 31.9147 23.8415L32.5421 24.4688L29.1259 27.8851L25.4246 23.5317L26.8477 22.3219L33.4557 19.9796C33.9637 19.7995 34.1402 19.1446 33.7899 18.7337L31.3252 15.8435C30.106 14.4097 28.4017 13.5363 26.5257 13.3844C24.6492 13.2324 22.827 13.8203 21.3932 15.0392L14.0369 21.2935L13.9202 21.1562C13.5139 20.6783 12.9458 20.3871 12.3205 20.3365C11.6964 20.2861 11.0876 20.4817 10.6096 20.8882L9.17811 22.1052C8.20291 22.9343 8.08045 24.44 8.91004 25.4158L14.9952 32.5732C15.8239 33.5484 17.3302 33.6708 18.3058 32.8413L19.7373 31.6243C20.2421 31.1952 20.5437 30.5652 20.5637 29.9031C20.5831 29.2579 20.3303 28.6958 19.9192 28.2123L21.6869 26.7095L25.6453 31.3656L24.1512 32.8598L23.5239 32.2325C23.377 32.0856 23.178 32.0032 22.9703 32.0032H20.6084C20.4008 32.0032 20.2017 32.0856 20.0548 32.2325L12.3049 39.9824C11.3995 40.8878 11.3994 42.3985 12.3048 43.3039L14.8142 45.8135C15.7196 46.7161 17.2308 46.7184 18.1358 45.8135L25.8859 38.0633C26.0327 37.9165 26.1151 37.7174 26.1151 37.5098V35.1478C26.1151 34.9402 26.0327 34.7411 25.8859 34.5943L25.2586 33.967L26.6631 32.5625L28.2635 34.4449L28.1266 36.1352C28.1099 36.3423 28.1762 36.5474 28.3105 36.7055L35.4098 45.0559C36.2377 46.0296 37.7462 46.1523 38.7204 45.3239L41.4244 43.0252C42.3996 42.1962 42.5221 40.6904 41.6925 39.7145ZM35.3159 21.5477L37.6616 20.1403L37.978 20.4568L36.5707 22.8025L34.8304 24.5428L33.5757 23.288L35.3159 21.5477ZM17.0288 44.7063C16.7232 45.0116 16.2267 45.0114 15.9215 44.7063H15.9216L13.412 42.1968C13.1103 41.895 13.1104 41.3913 13.4121 41.0896L20.0181 34.4836L23.6347 38.1003L17.0288 44.7063ZM24.5497 36.8009L21.3178 33.5689H22.6464L23.5977 34.5202C23.5978 34.5203 23.5979 34.5204 23.5979 34.5205C23.5979 34.5206 23.5981 34.5206 23.5982 34.5207L24.5497 35.4722V36.8009ZM26.3998 14.945C27.8589 15.0632 29.1846 15.7424 30.1334 16.8586L31.8606 18.884L26.6977 20.714L22.694 16.0047C23.7605 15.2115 25.063 14.8366 26.3998 14.945ZM18.9967 29.8979C18.9798 30.1064 18.8827 30.2958 18.7235 30.4311C18.7235 30.4311 18.7235 30.4311 18.7234 30.4311L17.2919 31.6481C16.9667 31.9246 16.4645 31.8836 16.1885 31.5588L10.1033 24.4014C9.82674 24.0761 9.86766 23.5741 10.1927 23.2978L11.6242 22.0809C11.9495 21.8042 12.4514 21.8453 12.7276 22.1702L18.8128 29.3276C18.9482 29.4869 19.0135 29.6895 18.9967 29.8979ZM18.9054 27.0193L15.0514 22.4862L21.493 17.0097L25.347 21.5428L18.9054 27.0193ZM22.8802 25.6952L24.232 24.5458L30.355 31.7476L29.003 32.8972L22.8802 25.6952ZM40.4104 41.8321C40.4104 41.8321 40.4104 41.8321 40.4103 41.8321L37.7063 44.131C37.3811 44.4074 36.8792 44.3667 36.6029 44.0416L29.7137 35.9383L29.8518 34.2305L31.9025 32.4869L33.6102 32.6252L40.4996 40.7286C40.7762 41.0538 40.7353 41.5559 40.4104 41.8321Z" fill="white"/>
</g>
<defs>
<clipPath id="clip0_1864_7136">
<rect width="50" height="50" fill="white"/>
</clipPath>
</defs>
</svg>
