<svg width="50" height="50" viewBox="0 0 50 50" fill="none" xmlns="http://www.w3.org/2000/svg">
<g clip-path="url(#clip0_1864_7116)">
<path d="M41.4062 25.4578V10.9375H42.9688C43.176 10.9375 43.3747 10.8552 43.5212 10.7087C43.6677 10.5622 43.75 10.3635 43.75 10.1562V7.03125C43.75 6.82405 43.6677 6.62534 43.5212 6.47882C43.3747 6.33231 43.176 6.25 42.9688 6.25H41.4062V1.5625C41.4062 1.3553 41.3239 1.15659 41.1774 1.01007C41.0309 0.86356 40.8322 0.78125 40.625 0.78125H32.8125C32.6053 0.78125 32.4066 0.86356 32.2601 1.01007C32.1136 1.15659 32.0312 1.3553 32.0312 1.5625V6.25H30.4688C30.2615 6.25 30.0628 6.33231 29.9163 6.47882C29.7698 6.62534 29.6875 6.82405 29.6875 7.03125V10.1562C29.6875 10.3635 29.7698 10.5622 29.9163 10.7087C30.0628 10.8552 30.2615 10.9375 30.4688 10.9375H32.0312V16.0828L25.5523 9.60391C25.4058 9.45744 25.2072 9.37517 25 9.37517C24.7928 9.37517 24.5942 9.45744 24.4477 9.60391L1.01016 33.0414C0.863633 33.1879 0.781294 33.3866 0.78125 33.5938V39.8438C0.781283 39.9982 0.82712 40.1493 0.912968 40.2777C0.998815 40.4061 1.12082 40.5063 1.26355 40.5654C1.40629 40.6245 1.56334 40.64 1.71487 40.6098C1.86639 40.5797 2.00558 40.5053 2.11484 40.3961L7.8125 34.6984V48.4375C7.8125 48.6447 7.89481 48.8434 8.04132 48.9899C8.18784 49.1364 8.38655 49.2188 8.59375 49.2188H13.2812C13.4885 49.2188 13.6872 49.1364 13.8337 48.9899C13.9802 48.8434 14.0625 48.6447 14.0625 48.4375V36.7188H35.9375V48.4375C35.9375 48.6447 36.0198 48.8434 36.1663 48.9899C36.3128 49.1364 36.5115 49.2188 36.7188 49.2188H41.4062C41.6135 49.2188 41.8122 49.1364 41.9587 48.9899C42.1052 48.8434 42.1875 48.6447 42.1875 48.4375V34.6984L47.8852 40.3961C48.0316 40.5426 48.2303 40.625 48.4375 40.625C48.5402 40.6253 48.6419 40.6051 48.7367 40.5656C48.8794 40.5064 49.0014 40.4063 49.0872 40.2778C49.173 40.1493 49.2188 39.9983 49.2188 39.8438V33.5938C49.2187 33.3866 49.1364 33.1879 48.9898 33.0414L41.4062 25.4578ZM33.5938 2.34375H39.8438V6.25H33.5938V2.34375ZM31.25 9.375V7.8125H42.1875V9.375H31.25ZM39.8438 10.9375V23.8953L33.5938 17.6453V10.9375H39.8438ZM12.5 47.6562H9.375V33.1359L12.5 30.0109V47.6562ZM35.9375 35.1562H14.0625V33.5938H35.9375V35.1562ZM14.0625 32.0312V28.4484L22.6562 19.8547V32.0312H14.0625ZM24.2188 32.0312V18.2922L25 17.5109L25.7812 18.2922V32.0312H24.2188ZM35.9375 32.0312H27.3438V19.8547L35.9375 28.4484V32.0312ZM40.625 47.6562H37.5V30.0109L40.625 33.1359V47.6562ZM47.6562 37.9578L25.5523 15.8539C25.4058 15.7074 25.2072 15.6252 25 15.6252C24.7928 15.6252 24.5942 15.7074 24.4477 15.8539L2.34375 37.9578V33.9172L25 11.2609L47.6562 33.9172V37.9578Z" fill="white"/>
</g>
<defs>
<clipPath id="clip0_1864_7116">
<rect width="50" height="50" fill="white"/>
</clipPath>
</defs>
</svg>
