<svg width="60" height="60" viewBox="0 0 60 60" fill="none" xmlns="http://www.w3.org/2000/svg">
<path d="M19 6.5H41V56.5H19V6.5Z" fill="#FDBD40"/>
<path d="M27 44.5H33V56.5H27V44.5Z" fill="#5A6470"/>
<path d="M1 28.5H19V54.5H1V28.5Z" fill="#A7C6D3"/>
<path d="M3 16.5H15V28.5H3V16.5Z" fill="#CFDFE8"/>
<path d="M5 9.5H13V16.5H5V9.5Z" fill="#A7C6D3"/>
<path d="M8 2.5H10V9.5H8V2.5Z" fill="#5A6470"/>
<path d="M41 28.5H59V54.5H41V28.5Z" fill="#E9686A"/>
<path d="M57 28.5H45V9.5L57 13.5V28.5Z" fill="#F98C96"/>
<path d="M48 15.5H50V28.5H48V15.5Z" fill="#5A6470"/>
<path d="M52 15.5H54V28.5H52V15.5Z" fill="#5A6470"/>
<path d="M4 31.5H16V33.5H4V31.5Z" fill="#5A6470"/>
<path d="M4 35.5H16V37.5H4V35.5Z" fill="#5A6470"/>
<path d="M4 39.5H16V41.5H4V39.5Z" fill="#5A6470"/>
<path d="M4 43.5H16V45.5H4V43.5Z" fill="#5A6470"/>
<path d="M24 12.5H28V16.5H24V12.5Z" fill="#5A6470"/>
<path d="M32 12.5H36V16.5H32V12.5Z" fill="#5A6470"/>
<path d="M24 20.5H28V24.5H24V20.5Z" fill="#5A6470"/>
<path d="M32 20.5H36V24.5H32V20.5Z" fill="#5A6470"/>
<path d="M24 28.5H28V32.5H24V28.5Z" fill="#5A6470"/>
<path d="M32 28.5H36V32.5H32V28.5Z" fill="#5A6470"/>
<path d="M24 36.5H28V40.5H24V36.5Z" fill="#5A6470"/>
<path d="M32 36.5H36V40.5H32V36.5Z" fill="#5A6470"/>
<path d="M47 48.5H53V54.5H47V48.5Z" fill="#5A6470"/>
<path d="M44 31.5H46V33.5H44V31.5Z" fill="#5A6470"/>
<path d="M48 31.5H52V33.5H48V31.5Z" fill="#5A6470"/>
<path d="M54 31.5H56V33.5H54V31.5Z" fill="#5A6470"/>
<path d="M44 35.5H46V37.5H44V35.5Z" fill="#5A6470"/>
<path d="M48 35.5H52V37.5H48V35.5Z" fill="#5A6470"/>
<path d="M54 35.5H56V37.5H54V35.5Z" fill="#5A6470"/>
<path d="M44 39.5H46V41.5H44V39.5Z" fill="#5A6470"/>
<path d="M48 39.5H52V41.5H48V39.5Z" fill="#5A6470"/>
<path d="M54 39.5H56V41.5H54V39.5Z" fill="#5A6470"/>
<path d="M44 43.5H46V45.5H44V43.5Z" fill="#5A6470"/>
<path d="M48 43.5H52V45.5H48V43.5Z" fill="#5A6470"/>
<path d="M54 43.5H56V45.5H54V43.5Z" fill="#5A6470"/>
<path d="M58 12.779L44 8.112V27.5H42V5.5H18V27.5H16V15.5H14V8.5H10V2.5H8V8.5H4V15.5H2V27.5H0V55.5H18V57.5H42V55.5H60V27.5H58V12.779ZM46 10.888L56 14.221V27.5H54V15.5H52V27.5H50V15.5H48V27.5H46V10.888ZM6 10.5H12V15.5H6V10.5ZM4 17.5H14V27.5H4V17.5ZM2 53.5V29.5H18V53.5H2ZM28 55.5V45.5H32V55.5H28ZM34 55.5V43.5H26V55.5H20V7.5H40V55.5H34ZM48 53.5V49.5H52V53.5H48ZM58 53.5H54V47.5H46V53.5H42V29.5H58V53.5Z" fill="black"/>
<path d="M4 31.5H16V33.5H4V31.5Z" fill="black"/>
<path d="M4 35.5H16V37.5H4V35.5Z" fill="black"/>
<path d="M4 39.5H16V41.5H4V39.5Z" fill="black"/>
<path d="M4 43.5H16V45.5H4V43.5Z" fill="black"/>
<path d="M23 17.5H29V11.5H23V17.5ZM25 13.5H27V15.5H25V13.5Z" fill="black"/>
<path d="M31 17.5H37V11.5H31V17.5ZM33 13.5H35V15.5H33V13.5Z" fill="black"/>
<path d="M23 25.5H29V19.5H23V25.5ZM25 21.5H27V23.5H25V21.5Z" fill="black"/>
<path d="M31 25.5H37V19.5H31V25.5ZM33 21.5H35V23.5H33V21.5Z" fill="black"/>
<path d="M23 33.5H29V27.5H23V33.5ZM25 29.5H27V31.5H25V29.5Z" fill="black"/>
<path d="M31 33.5H37V27.5H31V33.5ZM33 29.5H35V31.5H33V29.5Z" fill="black"/>
<path d="M23 41.5H29V35.5H23V41.5ZM25 37.5H27V39.5H25V37.5Z" fill="black"/>
<path d="M31 41.5H37V35.5H31V41.5ZM33 37.5H35V39.5H33V37.5Z" fill="black"/>
<path d="M44 31.5H46V33.5H44V31.5Z" fill="black"/>
<path d="M48 31.5H52V33.5H48V31.5Z" fill="black"/>
<path d="M54 31.5H56V33.5H54V31.5Z" fill="black"/>
<path d="M44 35.5H46V37.5H44V35.5Z" fill="black"/>
<path d="M48 35.5H52V37.5H48V35.5Z" fill="black"/>
<path d="M54 35.5H56V37.5H54V35.5Z" fill="black"/>
<path d="M44 39.5H46V41.5H44V39.5Z" fill="black"/>
<path d="M48 39.5H52V41.5H48V39.5Z" fill="black"/>
<path d="M54 39.5H56V41.5H54V39.5Z" fill="black"/>
<path d="M44 43.5H46V45.5H44V43.5Z" fill="black"/>
<path d="M48 43.5H52V45.5H48V43.5Z" fill="black"/>
<path d="M54 43.5H56V45.5H54V43.5Z" fill="black"/>
</svg>
