<svg width="50" height="50" viewBox="0 0 50 50" fill="none" xmlns="http://www.w3.org/2000/svg">
<path d="M46.9101 48.3146H45.5056V4.21348C45.5056 3.74795 45.1282 3.3708 44.6629 3.3708H28.9325C28.4671 3.3708 28.0898 3.74795 28.0898 4.21348V7.86514H26.4045V4.21348C26.4045 3.74795 26.0271 3.3708 25.5618 3.3708H21.9101V0.842676C21.9101 0.377148 21.5327 0 21.0674 0C20.6021 0 20.2247 0.377148 20.2247 0.842676V3.3708H16.573C16.1076 3.3708 15.7304 3.74795 15.7304 4.21348V7.86514H13.2022C12.7368 7.86514 12.3596 8.24229 12.3596 8.70781V15.7303H5.33711C4.87168 15.7303 4.49443 16.1074 4.49443 16.5729V48.3146H3.08975C2.62432 48.3146 2.24707 48.6917 2.24707 49.1572C2.24707 49.6228 2.62441 50 3.08975 50H46.9101C47.3755 50 47.7527 49.6229 47.7527 49.1573C47.7527 48.6918 47.3754 48.3146 46.9101 48.3146ZM17.4156 5.05615H24.7189V7.86514H17.4156V5.05615ZM14.6066 48.3146H14.0448V46.9102C14.0448 46.4446 13.6675 46.0675 13.2021 46.0675C12.7368 46.0675 12.3595 46.4446 12.3595 46.9102V48.3146H11.7977V45.5057H14.6066V48.3146ZM20.2246 26.6854V28.1351V48.3146H16.292V44.663C16.292 44.1975 15.9146 43.8203 15.4493 43.8203H10.955C10.4896 43.8203 10.1123 44.1975 10.1123 44.663V48.3146H6.17969V17.4157H20.2246V26.6854ZM21.0673 15.7304H14.0448V9.55059H28.0898V25.8427H21.9101V23.0337H24.4382C24.9036 23.0337 25.2809 22.6565 25.2809 22.191C25.2809 21.7255 24.9035 21.3483 24.4382 21.3483H21.9101V18.5394H24.4382C24.9036 18.5394 25.2809 18.1622 25.2809 17.6967C25.2809 17.2312 24.9035 16.854 24.4382 16.854H21.9101V16.5731C21.9101 16.1075 21.5327 15.7304 21.0673 15.7304ZM35.955 48.3146H21.9101V28.1351V27.5281H35.955V48.3146ZM43.8201 48.3146H37.6403V26.6854V25.5617C37.6403 25.0962 37.263 24.719 36.7977 24.719C36.3323 24.719 35.955 25.0962 35.955 25.5617V25.8426H34.2696V25.5617C34.2696 25.0962 33.8923 24.719 33.427 24.719C32.9616 24.719 32.5843 25.0962 32.5843 25.5617V25.8426H29.7753V8.70791V5.05615H43.8202V48.3146H43.8201Z" fill="white"/>
<path d="M25.5614 46.6294C26.0269 46.6294 26.4041 46.2521 26.4041 45.7867V30.0565C26.4041 29.5909 26.0268 29.2138 25.5614 29.2138C25.0961 29.2138 24.7188 29.5909 24.7188 30.0565V45.7868C24.7188 46.2522 25.096 46.6294 25.5614 46.6294Z" fill="white"/>
<path d="M28.9325 46.6294C29.3979 46.6294 29.7752 46.2521 29.7752 45.7867V30.0565C29.7752 29.5909 29.3979 29.2138 28.9325 29.2138C28.4672 29.2138 28.0898 29.5909 28.0898 30.0565V45.7868C28.0897 46.2522 28.4671 46.6294 28.9325 46.6294Z" fill="white"/>
<path d="M32.3036 46.6294C32.769 46.6294 33.1463 46.2521 33.1463 45.7867V30.0565C33.1463 29.5909 32.7689 29.2138 32.3036 29.2138C31.8383 29.2138 31.4609 29.5909 31.4609 30.0565V45.7868C31.4609 46.2522 31.8383 46.6294 32.3036 46.6294Z" fill="white"/>
<path d="M33.4267 10.6741C33.8921 10.6741 34.2693 10.297 34.2693 9.83145V8.70791C34.2693 8.24238 33.892 7.86523 33.4267 7.86523C32.9613 7.86523 32.584 8.24238 32.584 8.70791V9.83154C32.584 10.297 32.9612 10.6741 33.4267 10.6741Z" fill="white"/>
<path d="M36.7978 10.6741C37.2632 10.6741 37.6404 10.297 37.6404 9.83145V8.70791C37.6404 8.24238 37.2631 7.86523 36.7978 7.86523C36.3324 7.86523 35.9551 8.24238 35.9551 8.70791V9.83154C35.9551 10.297 36.3323 10.6741 36.7978 10.6741Z" fill="white"/>
<path d="M40.1688 10.6741C40.6343 10.6741 41.0115 10.297 41.0115 9.83145V8.70791C41.0115 8.24238 40.6342 7.86523 40.1688 7.86523C39.7035 7.86523 39.3262 8.24238 39.3262 8.70791V9.83154C39.3262 10.297 39.7034 10.6741 40.1688 10.6741Z" fill="white"/>
<path d="M33.4267 16.2921C33.8921 16.2921 34.2693 15.9149 34.2693 15.4494V14.3258C34.2693 13.8602 33.892 13.4831 33.4267 13.4831C32.9613 13.4831 32.584 13.8602 32.584 14.3258V15.4494C32.584 15.9149 32.9612 16.2921 33.4267 16.2921Z" fill="white"/>
<path d="M36.7978 16.2921C37.2632 16.2921 37.6404 15.9149 37.6404 15.4494V14.3258C37.6404 13.8602 37.2631 13.4831 36.7978 13.4831C36.3324 13.4831 35.9551 13.8602 35.9551 14.3258V15.4494C35.9551 15.9149 36.3323 16.2921 36.7978 16.2921Z" fill="white"/>
<path d="M40.1688 16.2921C40.6343 16.2921 41.0115 15.9149 41.0115 15.4494V14.3258C41.0115 13.8602 40.6342 13.4831 40.1688 13.4831C39.7035 13.4831 39.3262 13.8602 39.3262 14.3258V15.4494C39.3262 15.9149 39.7034 16.2921 40.1688 16.2921Z" fill="white"/>
<path d="M33.4267 21.9102C33.8921 21.9102 34.2693 21.533 34.2693 21.0675V19.9438C34.2693 19.4783 33.892 19.1012 33.4267 19.1012C32.9613 19.1012 32.584 19.4783 32.584 19.9438V21.0675C32.584 21.5329 32.9612 21.9102 33.4267 21.9102Z" fill="white"/>
<path d="M36.7978 21.9102C37.2632 21.9102 37.6404 21.533 37.6404 21.0675V19.9438C37.6404 19.4783 37.2631 19.1012 36.7978 19.1012C36.3324 19.1012 35.9551 19.4783 35.9551 19.9438V21.0675C35.9551 21.5329 36.3323 21.9102 36.7978 21.9102Z" fill="white"/>
<path d="M40.1688 21.9102C40.6343 21.9102 41.0115 21.533 41.0115 21.0675V19.9438C41.0115 19.4783 40.6342 19.1012 40.1688 19.1012C39.7035 19.1012 39.3262 19.4783 39.3262 19.9438V21.0675C39.3262 21.5329 39.7034 21.9102 40.1688 21.9102Z" fill="white"/>
<path d="M9.83096 24.1573C10.2964 24.1573 10.6736 23.7802 10.6736 23.3146V22.191C10.6736 21.7255 10.2963 21.3483 9.83096 21.3483C9.36563 21.3483 8.98828 21.7255 8.98828 22.191V23.3146C8.98828 23.7801 9.36563 24.1573 9.83096 24.1573Z" fill="white"/>
<path d="M13.2021 24.1573C13.6675 24.1573 14.0447 23.7802 14.0447 23.3146V22.191C14.0447 21.7255 13.6674 21.3483 13.2021 21.3483C12.7367 21.3483 12.3594 21.7255 12.3594 22.191V23.3146C12.3594 23.7801 12.7366 24.1573 13.2021 24.1573Z" fill="white"/>
<path d="M16.5731 24.1573C17.0386 24.1573 17.4158 23.7802 17.4158 23.3146V22.191C17.4158 21.7255 17.0385 21.3483 16.5731 21.3483C16.1078 21.3483 15.7305 21.7255 15.7305 22.191V23.3146C15.7305 23.7801 16.1077 24.1573 16.5731 24.1573Z" fill="white"/>
<path d="M9.83096 29.7753C10.2964 29.7753 10.6736 29.3981 10.6736 28.9326V27.809C10.6736 27.3435 10.2963 26.9663 9.83096 26.9663C9.36563 26.9663 8.98828 27.3435 8.98828 27.809V28.9326C8.98828 29.398 9.36563 29.7753 9.83096 29.7753Z" fill="white"/>
<path d="M13.2021 29.7753C13.6675 29.7753 14.0447 29.3981 14.0447 28.9326V27.809C14.0447 27.3435 13.6674 26.9663 13.2021 26.9663C12.7367 26.9663 12.3594 27.3435 12.3594 27.809V28.9326C12.3594 29.398 12.7366 29.7753 13.2021 29.7753Z" fill="white"/>
<path d="M16.5731 29.7753C17.0386 29.7753 17.4158 29.3981 17.4158 28.9326V27.809C17.4158 27.3435 17.0385 26.9663 16.5731 26.9663C16.1078 26.9663 15.7305 27.3435 15.7305 27.809V28.9326C15.7305 29.398 16.1077 29.7753 16.5731 29.7753Z" fill="white"/>
<path d="M9.83096 35.3933C10.2964 35.3933 10.6736 35.0161 10.6736 34.5506V33.427C10.6736 32.9614 10.2963 32.5843 9.83096 32.5843C9.36563 32.5843 8.98828 32.9614 8.98828 33.427V34.5506C8.98828 35.0161 9.36563 35.3933 9.83096 35.3933Z" fill="white"/>
<path d="M13.2021 35.3933C13.6675 35.3933 14.0447 35.0161 14.0447 34.5506V33.427C14.0447 32.9614 13.6674 32.5843 13.2021 32.5843C12.7367 32.5843 12.3594 32.9614 12.3594 33.427V34.5506C12.3594 35.0161 12.7366 35.3933 13.2021 35.3933Z" fill="white"/>
<path d="M16.5731 35.3933C17.0386 35.3933 17.4158 35.0161 17.4158 34.5506V33.427C17.4158 32.9614 17.0385 32.5843 16.5731 32.5843C16.1078 32.5843 15.7305 32.9614 15.7305 33.427V34.5506C15.7305 35.0161 16.1077 35.3933 16.5731 35.3933Z" fill="white"/>
<path d="M9.83096 41.0112C10.2964 41.0112 10.6736 40.6341 10.6736 40.1685V39.0449C10.6736 38.5794 10.2963 38.2022 9.83096 38.2022C9.36563 38.2022 8.98828 38.5794 8.98828 39.0449V40.1685C8.98828 40.6341 9.36563 41.0112 9.83096 41.0112Z" fill="white"/>
<path d="M13.2021 41.0112C13.6675 41.0112 14.0447 40.6341 14.0447 40.1685V39.0449C14.0447 38.5794 13.6674 38.2022 13.2021 38.2022C12.7367 38.2022 12.3594 38.5794 12.3594 39.0449V40.1685C12.3594 40.6341 12.7366 41.0112 13.2021 41.0112Z" fill="white"/>
<path d="M16.5731 41.0112C17.0386 41.0112 17.4158 40.6341 17.4158 40.1685V39.0449C17.4158 38.5794 17.0385 38.2022 16.5731 38.2022C16.1078 38.2022 15.7305 38.5794 15.7305 39.0449V40.1685C15.7305 40.6341 16.1077 41.0112 16.5731 41.0112Z" fill="white"/>
<path d="M40.1688 27.5281C40.6343 27.5281 41.0115 27.151 41.0115 26.6855V25.5618C41.0115 25.0963 40.6342 24.7191 40.1688 24.7191C39.7035 24.7191 39.3262 25.0963 39.3262 25.5618V26.6855C39.3262 27.1509 39.7034 27.5281 40.1688 27.5281Z" fill="white"/>
<path d="M40.1688 33.1461C40.6343 33.1461 41.0115 32.7689 41.0115 32.3034V31.1798C41.0115 30.7142 40.6342 30.3371 40.1688 30.3371C39.7035 30.3371 39.3262 30.7142 39.3262 31.1798V32.3034C39.3262 32.7688 39.7034 33.1461 40.1688 33.1461Z" fill="white"/>
<path d="M40.1688 38.7641C40.6343 38.7641 41.0115 38.3869 41.0115 37.9214V36.7978C41.0115 36.3322 40.6342 35.9551 40.1688 35.9551C39.7035 35.9551 39.3262 36.3322 39.3262 36.7978V37.9214C39.3262 38.3868 39.7034 38.7641 40.1688 38.7641Z" fill="white"/>
<path d="M40.1688 44.382C40.6343 44.382 41.0115 44.0049 41.0115 43.5394V42.4157C41.0115 41.9502 40.6342 41.5731 40.1688 41.5731C39.7035 41.5731 39.3262 41.9502 39.3262 42.4157V43.5394C39.3262 44.0048 39.7034 44.382 40.1688 44.382Z" fill="white"/>
<path d="M25.2805 13.2022C25.2805 12.7367 24.9031 12.3596 24.4378 12.3596H17.6962C17.2308 12.3596 16.8535 12.7367 16.8535 13.2022C16.8535 13.6678 17.2309 14.0449 17.6962 14.0449H24.4378C24.9032 14.0449 25.2805 13.6678 25.2805 13.2022Z" fill="white"/>
</svg>
