<svg width="60" height="60" viewBox="0 0 60 60" fill="none" xmlns="http://www.w3.org/2000/svg">
<g clip-path="url(#clip0_2000_4441)">
<path d="M30 9.55579L16.875 22.6808H43.125L30 9.55579Z" fill="#D08A1C"/>
<path d="M13.125 37.6808H46.875V41.4308H13.125V37.6808Z" fill="#E8AB4C"/>
<path d="M15 41.4308H45V45.1808H15V41.4308Z" fill="#D08A1C"/>
<path d="M13.125 30.1808H46.875V33.9308H13.125V30.1808Z" fill="#E8AB4C"/>
<path d="M15 33.9308H45V37.6808H15V33.9308Z" fill="#D08A1C"/>
<path d="M46.875 26.4308H13.125L16.875 22.6808H43.125L46.875 26.4308Z" fill="#E8AB4C"/>
<path d="M15 26.4308H45V30.1808H15V26.4308Z" fill="#D08A1C"/>
<path d="M26.25 22.6808H33.75V30.1808H26.25V22.6808Z" fill="#A4D7F5"/>
<path d="M26.25 33.9308H33.75V45.1808H26.25V33.9308Z" fill="#E8AB4C"/>
<path d="M26.25 43.3058H33.75V45.1808H26.25V43.3058Z" fill="#D08A1C"/>
<path d="M50.625 24.5558L30 3.93079L9.375 24.5558L12.1875 27.3683L30 9.55579L47.8125 27.3683L50.625 24.5558Z" fill="#E8AB4C"/>
<path d="M0 45.1808H60V56.4308H0V45.1808Z" fill="#52CD8D"/>
<path d="M58.125 45.1808H60V56.4308H58.125V45.1808Z" fill="#31A469"/>
<path d="M7.5 51.8019H9.375V53.5597H7.5V51.8019Z" fill="white"/>
<path d="M15 51.8019H16.875V53.5597H15V51.8019Z" fill="white"/>
<path d="M50.625 48.0519H52.5V49.8097H50.625V48.0519Z" fill="white"/>
<path d="M8.4375 9.55579C8.4375 8.00259 9.69681 6.74329 11.25 6.74329C12.8032 6.74329 14.0625 8.00259 14.0625 9.55579" fill="#A4D7F5"/>
<path d="M14.0625 9.55579C14.0625 8.52032 14.902 7.68079 15.9375 7.68079C16.973 7.68079 17.8125 8.52032 17.8125 9.55579" fill="#73C1EF"/>
<path d="M50.625 11.4308C50.625 9.87759 49.3657 8.61829 47.8125 8.61829C46.2593 8.61829 45 9.87759 45 11.4308" fill="#73C1EF"/>
<path d="M45 11.4308C45 10.3953 44.1605 9.55579 43.125 9.55579C42.0895 9.55579 41.25 10.3953 41.25 11.4308" fill="#A4D7F5"/>
<path d="M11.25 51.8605H13.125V53.6183H11.25V51.8605Z" fill="black"/>
<path d="M46.875 48.1105H48.75V49.8683H46.875V48.1105Z" fill="black"/>
<path d="M54.375 48.1105H56.25V49.8683H54.375V48.1105Z" fill="black"/>
<path d="M45.8203 44.3605V42.3683H47.6953V36.8605H45.8203V34.8683H47.6953V29.3605H45.8203V27.3683H46.5111L47.8125 28.6404L51.8678 24.5705L30 2.69531L8.13217 24.5595L12.1875 28.6423L13.4889 27.3683H14.0625V29.3605H12.1875V34.8683H14.0625V36.8605H12.1875V42.3683H14.0625V44.3605H0V46.1183H60V44.3605H45.8203ZM45.9375 40.6105H40.7812V42.3683H44.0625V44.3605H34.5703V42.3683H38.9062V40.6105H34.5703V38.6183H45.9375V40.6105ZM27.0703 34.8683H32.8125V44.3605H27.0703V34.8683ZM44.0625 36.8605H34.5703V34.8683H44.0625V36.8605ZM44.0625 29.3605H34.5703V27.3683H44.0625V29.3605ZM15.2467 25.6105L17.2389 23.6183H25.3125V25.6105H15.2467ZM27.0703 19.8683V13.6697L29.0625 11.6776V21.8605H23.3203V17.4197L25.3125 15.4276V19.8683H27.0703ZM34.5703 25.6105V23.6183H42.7611L44.7533 25.6105H34.5703ZM29.0625 23.6183V25.6105H27.0703V23.6183H29.0625ZM30.8203 23.6183H32.8125V25.6105H30.8203V23.6183ZM38.3203 21.8605V19.1776L41.0033 21.8605H38.3203ZM36.5625 21.8605H34.5703V15.4276L36.5625 17.4197V21.8605ZM32.8125 21.8605H30.8203V11.6776L32.8125 13.6697V21.8605ZM21.5625 21.8605H18.9967L21.5625 19.1776V21.8605ZM27.0703 27.3683H29.0625V29.3605H27.0703V27.3683ZM30.8203 27.3683H32.8125V29.3605H30.8203V27.3683ZM10.6178 24.5558L30 5.17365L49.3822 24.5558L47.8125 26.1255L30 8.31299L12.1875 26.1255L10.6178 24.5558ZM15.8203 27.3683H25.3125V29.3605H15.8203V27.3683ZM15.8203 34.8683H20.1562V33.1105H13.9453V31.1183H45.9375V33.1105H22.0312V34.8683H25.3125V36.8605H15.8203V34.8683ZM13.9453 38.6183H25.3125V40.6105H13.9453V38.6183ZM15.8203 42.3683H25.3125V44.3605H15.8203V42.3683Z" fill="black"/>
<path d="M0 55.6105H60V57.3683H0V55.6105Z" fill="black"/>
<path d="M23.4375 48.1105H45V49.8683H23.4375V48.1105Z" fill="black"/>
<path d="M3.75 48.1105H21.5625V49.8683H3.75V48.1105Z" fill="black"/>
<path d="M38.4375 51.8605H52.5V53.6183H38.4375V51.8605Z" fill="black"/>
<path d="M18.75 51.8605H36.5625V53.6183H18.75V51.8605Z" fill="black"/>
<path d="M11.25 7.62219C12.3161 7.62219 13.1836 8.48965 13.1836 9.55579H14.9414C14.9414 9.00647 15.3882 8.55969 15.9375 8.55969C16.4868 8.55969 16.9336 9.00647 16.9336 9.55579H18.6914C18.6914 8.03738 17.4559 6.80188 15.9375 6.80188C15.2962 6.80188 14.7061 7.02298 14.2378 7.39148C13.5663 6.46725 12.4773 5.86438 11.25 5.86438C9.21478 5.86438 7.55859 7.52057 7.55859 9.55579H9.31641C9.31641 8.48965 10.1839 7.62219 11.25 7.62219Z" fill="black"/>
<path d="M43.125 10.4347C43.6743 10.4347 44.1211 10.8815 44.1211 11.4308H45.8789C45.8789 10.3647 46.7464 9.49719 47.8125 9.49719C48.8786 9.49719 49.7461 10.3647 49.7461 11.4308H51.5039C51.5039 9.39557 49.8477 7.73938 47.8125 7.73938C46.5852 7.73938 45.4962 8.34225 44.8247 9.26648C44.3564 8.89798 43.7663 8.67688 43.125 8.67688C41.6066 8.67688 40.3711 9.91238 40.3711 11.4308H42.1289C42.1289 10.8815 42.5757 10.4347 43.125 10.4347Z" fill="black"/>
</g>
<defs>
<clipPath id="clip0_2000_4441">
<rect width="60" height="60" fill="white"/>
</clipPath>
</defs>
</svg>
