<svg width="60" height="60" viewBox="0 0 60 60" fill="none" xmlns="http://www.w3.org/2000/svg">
<path d="M6.5625 32.8125H58.125V54.375H6.5625V32.8125Z" fill="#95AFD1"/>
<path d="M41.25 36.5625H58.125V54.375H41.25V36.5625Z" fill="#C1CFE8"/>
<path d="M14.0034 15L18.75 6.5625H58.125V36.5625H1.875L10.8394 20.625L14.0034 15Z" fill="#828A93"/>
<path d="M41.25 36.5625L58.125 6.5625V36.5625H41.25Z" fill="#585E68"/>
<path d="M40.3125 6.5625L29.7656 25.3125L45.9356 28.2328L58.125 6.5625H40.3125Z" fill="#F9CB5D"/>
<path d="M29.0194 18.3066L35.625 6.5625H18.75L14.0034 15L29.0194 18.3066Z" fill="#F9CB5D"/>
<path d="M43.125 25.3125H27.1875C26.4416 25.3125 25.7262 25.6088 25.1988 26.1363C24.6713 26.6637 24.375 27.3791 24.375 28.125C24.375 28.8709 24.6713 29.5863 25.1988 30.1137C25.7262 30.6412 26.4416 30.9375 27.1875 30.9375H43.125V25.3125Z" fill="#F79B31"/>
<path d="M26.25 15H10.3125C9.56658 15 8.85121 15.2963 8.32376 15.8238C7.79632 16.3512 7.5 17.0666 7.5 17.8125C7.5 18.5584 7.79632 19.2738 8.32376 19.8012C8.85121 20.3287 9.56658 20.625 10.3125 20.625H26.25V15Z" fill="#F79B31"/>
<path d="M26.25 20.625C27.8033 20.625 29.0625 19.3658 29.0625 17.8125C29.0625 16.2592 27.8033 15 26.25 15C24.6967 15 23.4375 16.2592 23.4375 17.8125C23.4375 19.3658 24.6967 20.625 26.25 20.625Z" fill="#EC8329"/>
<path d="M45.9966 36.5625L58.125 15V6.5625L41.25 36.5625H45.9966Z" fill="#3C4047"/>
<path d="M43.125 30.9375C44.6783 30.9375 45.9375 29.6783 45.9375 28.125C45.9375 26.5717 44.6783 25.3125 43.125 25.3125C41.5717 25.3125 40.3125 26.5717 40.3125 28.125C40.3125 29.6783 41.5717 30.9375 43.125 30.9375Z" fill="#EC8329"/>
<path d="M35.7212 21.1106L39.4104 14.5528L41.0427 15.4711L37.3535 22.0289L35.7212 21.1106Z" fill="#FFEACD"/>
<path d="M46.0315 16.118L48.491 11.7462L50.1233 12.6645L47.6638 17.0363L46.0315 16.118Z" fill="#FFEACD"/>
<path d="M22.6643 11.7341L24.4798 8.50702L26.1121 9.42531L24.2966 12.6524L22.6643 11.7341Z" fill="#FFEACD"/>
<path d="M16.455 39.375H41.25V54.375H10.3125V45.5175C10.3125 43.8884 10.9597 42.326 12.1116 41.1741C13.2635 40.0222 14.8259 39.375 16.455 39.375Z" fill="#A5BADB"/>
<path d="M58.125 54.375V39.375H50.9222C50.0214 39.375 49.1294 39.5524 48.2971 39.8972C47.4648 40.2419 46.7086 40.7472 46.0717 41.3842C45.4347 42.0211 44.9294 42.7773 44.5847 43.6096C44.2399 44.4419 44.0625 45.3339 44.0625 46.2347V54.375H58.125Z" fill="#D7E0EF"/>
<path d="M58.1251 5.625H18.7501C18.5838 5.62512 18.4205 5.66946 18.277 5.75348C18.1335 5.8375 18.015 5.95817 17.9335 6.10313L13.456 14.0625H10.3126C9.40554 14.0604 8.52865 14.3879 7.84509 14.984C7.16153 15.5802 6.71787 16.4044 6.59668 17.3033C6.47549 18.2022 6.68503 19.1145 7.1863 19.8704C7.68757 20.6263 8.44643 21.1744 9.32162 21.4125L1.05849 36.1031C0.978332 36.2457 0.936883 36.4068 0.938266 36.5704C0.939648 36.734 0.983814 36.8944 1.06637 37.0356C1.14893 37.1769 1.26701 37.294 1.40888 37.3755C1.55075 37.457 1.71146 37.4999 1.87506 37.5H5.62506V54.375H7.50006V37.5H40.3126V54.375H42.1876V37.5H57.1876V54.375H59.0626V6.5625C59.0626 6.31386 58.9638 6.0754 58.788 5.89959C58.6122 5.72377 58.3737 5.625 58.1251 5.625ZM57.1876 14.7553L45.4482 35.625H42.8522L45.4116 31.0753C45.8051 30.7708 46.1335 30.3905 46.3775 29.9568C46.6214 29.5232 46.776 29.045 46.8319 28.5506L57.1876 10.1409V14.7553ZM41.2501 28.125C41.2501 27.7542 41.36 27.3916 41.566 27.0833C41.7721 26.775 42.0649 26.5346 42.4075 26.3927C42.7501 26.2508 43.1271 26.2137 43.4909 26.286C43.8546 26.3584 44.1887 26.537 44.4509 26.7992C44.7131 27.0614 44.8917 27.3955 44.964 27.7592C45.0364 28.1229 44.9992 28.4999 44.8573 28.8425C44.7154 29.1851 44.4751 29.478 44.1668 29.684C43.8584 29.89 43.4959 30 43.1251 30C42.6278 30 42.1509 29.8025 41.7992 29.4508C41.4476 29.0992 41.2501 28.6223 41.2501 28.125ZM46.1541 25.9331C45.8087 25.4521 45.3539 25.06 44.8273 24.7892C44.3007 24.5183 43.7173 24.3763 43.1251 24.375H31.3679L40.8601 7.5H56.5229L46.1541 25.9331ZM39.8963 26.25C39.5553 26.816 39.375 27.4642 39.375 28.125C39.375 28.7858 39.5553 29.434 39.8963 30H27.1876C26.6903 30 26.2134 29.8025 25.8617 29.4508C25.5101 29.0992 25.3126 28.6223 25.3126 28.125C25.3126 27.6277 25.5101 27.1508 25.8617 26.7992C26.2134 26.4475 26.6903 26.25 27.1876 26.25H39.8963ZM19.2985 7.5H34.0229L29.3794 15.7547C29.0387 15.2356 28.5744 14.8092 28.0282 14.5139C27.482 14.2185 26.871 14.0634 26.2501 14.0625H15.6066L19.2985 7.5ZM24.3751 17.8125C24.3751 17.4417 24.485 17.0791 24.691 16.7708C24.8971 16.4625 25.1899 16.2221 25.5325 16.0802C25.8751 15.9383 26.2521 15.9012 26.6158 15.9735C26.9796 16.0459 27.3137 16.2245 27.5759 16.4867C27.8381 16.7489 28.0167 17.083 28.089 17.4467C28.1614 17.8104 28.1242 18.1874 27.9823 18.53C27.8404 18.8726 27.6001 19.1655 27.2917 19.3715C26.9834 19.5775 26.6209 19.6875 26.2501 19.6875C25.7528 19.6875 25.2759 19.49 24.9242 19.1383C24.5726 18.7867 24.3751 18.3098 24.3751 17.8125ZM8.43756 17.8125C8.43756 17.3152 8.6351 16.8383 8.98673 16.4867C9.33836 16.135 9.81527 15.9375 10.3126 15.9375H23.0213C22.6803 16.5035 22.5 17.1517 22.5 17.8125C22.5 18.4733 22.6803 19.1215 23.0213 19.6875H10.3126C9.81527 19.6875 9.33836 19.49 8.98673 19.1383C8.6351 18.7867 8.43756 18.3098 8.43756 17.8125ZM11.3879 21.5625H26.2501C27.0954 21.5606 27.9153 21.2732 28.5767 20.7469C29.2382 20.2205 29.7024 19.4861 29.8941 18.6628L36.1735 7.5H38.7104L29.2182 24.375H27.1876C26.193 24.375 25.2392 24.7701 24.5359 25.4734C23.8326 26.1766 23.4376 27.1304 23.4376 28.125C23.4376 29.1196 23.8326 30.0734 24.5359 30.7766C25.2392 31.4799 26.193 31.875 27.1876 31.875H42.8119L40.7026 35.625H3.47818L11.3879 21.5625ZM47.5988 35.625L57.1876 18.5784V35.625H47.5988Z" fill="black"/>
<path d="M35.7212 21.1106L39.4104 14.5528L41.0427 15.4711L37.3535 22.0289L35.7212 21.1106Z" fill="black"/>
<path d="M46.0513 16.08L48.5108 11.7031L50.1449 12.6214L47.6855 16.9982L46.0513 16.08Z" fill="black"/>
<path d="M22.6643 11.7341L24.4798 8.50702L26.1121 9.42531L24.2966 12.6524L22.6643 11.7341Z" fill="black"/>
</svg>
