<svg width="60" height="60" viewBox="0 0 60 60" fill="none" xmlns="http://www.w3.org/2000/svg">
<g clip-path="url(#clip0_2000_1548)">
<path fill-rule="evenodd" clip-rule="evenodd" d="M29.024 38.989C28.5223 38.994 28.0374 38.8085 27.667 38.47L16.692 28.348C16.3087 27.9935 15.7173 27.9935 15.334 28.348L4.43801 38.4C3.7141 39.0982 2.59396 39.1774 1.77901 38.588C1.312 38.2282 1.02749 37.6808 1.00146 37.0918C0.97544 36.5029 1.21056 35.9325 1.64401 35.533L14.656 23.533C15.4224 22.8246 16.6046 22.8246 17.371 23.533L30.287 35.443C31.1092 36.1661 31.2323 37.4018 30.569 38.273C30.1852 38.7283 29.6195 38.9905 29.024 38.989Z" fill="#A0522D"/>
<path fill-rule="evenodd" clip-rule="evenodd" d="M29 57V47.921C29 47.3773 28.7787 46.857 28.387 46.48L16.83 35.36C16.3414 34.8802 15.5586 34.8802 15.07 35.36L3.613 46.39C3.2213 46.767 2.99998 47.2873 3 47.831V57C3 58.1046 3.89543 59 5 59H27C28.1046 59 29 58.1046 29 57Z" fill="#FF9801"/>
<path fill-rule="evenodd" clip-rule="evenodd" d="M28.3872 46.48L16.8302 35.36C16.3416 34.8802 15.5588 34.8802 15.0702 35.36L14.4502 35.96L25.3872 46.48C25.7789 46.857 26.0002 47.3773 26.0002 47.921V57C26.0002 58.1046 25.1048 59 24.0002 59H27.0002C28.1048 59 29.0002 58.1046 29.0002 57V47.921C29.0002 47.3773 28.7789 46.857 28.3872 46.48Z" fill="#F57C00"/>
<path fill-rule="evenodd" clip-rule="evenodd" d="M13 49H19C19.5523 49 20 49.4477 20 50V59H12V50C12 49.4477 12.4477 49 13 49Z" fill="#A0522D"/>
<path fill-rule="evenodd" clip-rule="evenodd" d="M23 28.72V26C23 25.4477 23.4477 25 24 25H26C26.5523 25 27 25.4477 27 26V32.41L23 28.72Z" fill="#F57C00"/>
<path fill-rule="evenodd" clip-rule="evenodd" d="M38 53H54C56.7614 53 59 55.2386 59 58C59 58.5523 58.5523 59 58 59H34C33.4477 59 33 58.5523 33 58C33 55.2386 35.2386 53 38 53Z" fill="#9E9E9E"/>
<path fill-rule="evenodd" clip-rule="evenodd" d="M54 53H51C53.7614 53 56 55.2386 56 58C56 58.5523 55.5523 59 55 59H58C58.5523 59 59 58.5523 59 58C59 55.2386 56.7614 53 54 53Z" fill="#707070"/>
<path fill-rule="evenodd" clip-rule="evenodd" d="M49 51V53H43V47L49 51Z" fill="#FF9801"/>
<path fill-rule="evenodd" clip-rule="evenodd" d="M49 45V51L43 47V41L49 45Z" fill="#F57C00"/>
<path fill-rule="evenodd" clip-rule="evenodd" d="M49 39V45L43 41V35L49 39Z" fill="#FF9801"/>
<path fill-rule="evenodd" clip-rule="evenodd" d="M49 33V39L43 35V29L49 33Z" fill="#F57C00"/>
<path fill-rule="evenodd" clip-rule="evenodd" d="M49 27V33L43 29V23L49 27Z" fill="#FF9801"/>
<path fill-rule="evenodd" clip-rule="evenodd" d="M49 20V27L43 23V20H49Z" fill="#F57C00"/>
<path fill-rule="evenodd" clip-rule="evenodd" d="M52 11V17C52 18.6569 50.6569 20 49 20H39C37.8968 19.9967 37.0033 19.1032 37 18V16H43C44.1032 15.9967 44.9967 15.1032 45 14V11H52Z" fill="#FFDC00"/>
<path fill-rule="evenodd" clip-rule="evenodd" d="M49 11V17C49 18.6569 47.6569 20 46 20H49C50.6569 20 52 18.6569 52 17V11H49Z" fill="#FEC108"/>
<path fill-rule="evenodd" clip-rule="evenodd" d="M45 11V14C44.9967 15.1032 44.1032 15.9967 43 16H37V11H45Z" fill="#00BCD4"/>
<path d="M58 7H8C7.44772 7 7 7.44772 7 8V10C7 10.5523 7.44772 11 8 11H58C58.5523 11 59 10.5523 59 10V8C59 7.44772 58.5523 7 58 7Z" fill="#FF9801"/>
<path fill-rule="evenodd" clip-rule="evenodd" d="M58 7H55C55.5523 7 56 7.44772 56 8V10C56 10.5523 55.5523 11 55 11H58C58.5523 11 59 10.5523 59 10V8C59 7.44772 58.5523 7 58 7Z" fill="#F57C00"/>
<path fill-rule="evenodd" clip-rule="evenodd" d="M48 1H45.721C45.2904 0.999896 44.9081 1.27546 44.772 1.684L43 7H49V2C49 1.44772 48.5523 1 48 1Z" fill="#FEC108"/>
<path d="M12 60H27C28.6569 60 30 58.6569 30 57V47.921C29.9983 47.1056 29.6664 46.3256 29.08 45.759L17.523 34.64C16.6455 33.7918 15.2535 33.7918 14.376 34.64L2.919 45.669C2.33315 46.2359 2.00165 47.0158 2 47.831V57C2 58.6569 3.34315 60 5 60H12ZM13 58V50H19V58H13ZM4 57V47.831C4.00087 47.5593 4.11117 47.2994 4.306 47.11L15.763 36.081C15.8111 36.0287 15.8789 35.9989 15.95 35.9989C16.0211 35.9989 16.0889 36.0287 16.137 36.081L27.693 47.2C27.8884 47.3895 27.9991 47.6498 28 47.922V57C28 57.5523 27.5523 58 27 58H21V50C21 48.8955 20.1046 48 19 48H13C11.8954 48 11 48.8955 11 50V58H5C4.44772 58 4 57.5523 4 57Z" fill="black"/>
<path d="M58.0002 6H50.0002V2C50.0002 0.895432 49.1048 1.99784e-06 48.0002 1.99784e-06H45.7212C44.8595 -0.00121053 44.0939 0.549613 43.8212 1.367L42.2792 6H8.00021C6.89564 6 6.00021 6.89543 6.00021 8V10C6.00021 11.1046 6.89564 12 8.00021 12H15.0002V22.185C14.6217 22.3169 14.274 22.5245 13.9782 22.795L0.966211 34.8C0.317356 35.3989 -0.0346994 36.2533 0.00383988 37.1354C0.0423792 38.0176 0.467599 38.838 1.16621 39.378C2.36895 40.2636 4.03297 40.1622 5.11921 39.137L16.0192 29.088L26.9892 39.205C27.5417 39.7122 28.2652 39.9922 29.0152 39.989H29.0272C29.9195 39.9912 30.7665 39.5961 31.3382 38.911C32.348 37.6338 32.1843 35.7902 30.9652 34.711L28.0002 31.973V26C28.0002 24.8954 27.1048 24 26.0002 24H24.0002C22.8956 24 22.0002 24.8954 22.0002 26V26.439L18.0492 22.8C17.7466 22.5218 17.3893 22.3096 17.0002 22.177V12H36.0002V18C36.0002 19.6569 37.3434 21 39.0002 21H42.0002V52H38.0002C34.6879 52.0033 32.0035 54.6877 32.0002 58C32.0002 59.1046 32.8956 60 34.0002 60H58.0002C59.1048 60 60.0002 59.1046 60.0002 58C59.9969 54.6877 57.3125 52.0033 54.0002 52H50.0002V20.858C51.7609 20.4034 52.9934 18.8184 53.0002 17V12H58.0002C59.1048 12 60.0002 11.1046 60.0002 10V8C60.0002 6.89543 59.1048 6 58.0002 6ZM24.0002 26H26.0002V30.128L24.0002 28.284V26ZM29.6092 36.178C30.0419 36.5404 30.1241 37.1742 29.7982 37.635C29.6049 37.8635 29.3195 37.9934 29.0202 37.989C28.7728 37.9913 28.5335 37.9002 28.3502 37.734L17.3702 27.612C16.6019 26.9106 15.4255 26.9106 14.6572 27.612L3.76121 37.661C3.39689 38.0221 2.83 38.08 2.40021 37.8C2.16475 37.621 2.0206 37.347 2.00652 37.0515C1.99243 36.7561 2.10985 36.4696 2.32721 36.269L15.3382 24.269C15.7233 23.9171 16.3132 23.9171 16.6982 24.269L29.6092 36.178ZM45.7212 2H48.0002V6H44.3872L45.7212 2ZM38.0002 12H44.0002V14C44.0002 14.5523 43.5525 15 43.0002 15H38.0002V12ZM48.0002 37.132L44.0002 34.465V30.865L48.0002 33.532V37.132ZM44.0002 36.868L48.0002 39.535V43.135L44.0002 40.468V36.868ZM48.0002 31.132L44.0002 28.465V24.865L48.0002 27.532V31.132ZM44.0002 42.868L48.0002 45.535V49.135L44.0002 46.468V42.868ZM48.0002 25.132L44.0002 22.465V21H48.0002V25.132ZM44.0002 48.868L48.0002 51.535V52H44.0002V48.868ZM58.0002 58H34.0002C34.0002 55.7909 35.7911 54 38.0002 54H54.0002C56.2094 54 58.0002 55.7909 58.0002 58ZM51.0002 17C51.0002 18.1046 50.1048 19 49.0002 19H39.0002C38.4479 19 38.0002 18.5523 38.0002 18V17H43.0002C44.6571 17 46.0002 15.6569 46.0002 14V12H51.0002V17ZM58.0002 10H8.00021V8H58.0002V10Z" fill="black"/>
</g>
<defs>
<clipPath id="clip0_2000_1548">
<rect width="60" height="60" fill="white"/>
</clipPath>
</defs>
</svg>
