<svg width="60" height="60" viewBox="0 0 60 60" fill="none" xmlns="http://www.w3.org/2000/svg">
<path d="M56.9903 16.5363L53.7158 3.88211C53.5765 3.34375 53.2349 2.89129 52.7538 2.60805C52.2728 2.32481 51.7112 2.24559 51.1731 2.38481L48.737 3.01516C47.6232 3.30344 46.9515 4.44415 47.2398 5.5579L47.5166 6.62747L46.3729 6.93391L37.4984 1.81024C35.9446 0.912935 34.2319 0.704576 32.5454 1.20801L16.6072 5.96665C15.0329 6.43645 14.0399 8.40954 14.5239 10.1061C14.7089 10.7548 15.4767 12.4979 18.3513 12.4977C19.1063 12.4977 20.0068 12.3775 21.0802 12.0855L29.7954 9.71465C30.0189 9.65383 30.2393 9.61153 30.4586 9.58774C30.3837 9.69016 30.313 9.79868 30.2468 9.91329C29.4109 11.3613 29.8979 13.2361 31.3557 14.1816C31.3913 14.2046 31.4282 14.2252 31.4664 14.2431C33.5098 15.2057 35.4316 16.5453 36.9759 17.6216C37.5168 17.9985 38.0276 18.3545 38.4687 18.6407C39.4184 19.2568 40.414 19.4718 41.3929 19.4718C42.3136 19.4718 43.2196 19.2815 44.0579 19.0557L50.2978 17.3756L50.5143 18.2122C50.7573 19.1515 51.6064 19.7764 52.5348 19.7764C52.7073 19.7764 52.8826 19.7547 53.0571 19.7096L55.4931 19.0792C56.6068 18.7908 57.2786 17.6501 56.9903 16.5363ZM43.5703 17.2451C41.6591 17.7597 40.4767 17.7084 39.4889 17.0676C39.0738 16.7984 38.5984 16.467 38.048 16.0833C36.4615 14.9777 34.4911 13.6042 32.3298 12.5774C31.735 12.1622 31.5366 11.4292 31.8706 10.8508C32.2256 10.2358 32.8011 10.08 33.5807 10.386C34.6166 10.9061 35.5834 11.4851 36.6059 12.098C37.0957 12.3916 37.6022 12.6952 38.1264 12.9978C38.274 13.0831 38.4352 13.1235 38.5943 13.1235C38.9183 13.1235 39.2334 12.9554 39.4071 12.6547C39.666 12.2062 39.5123 11.6329 39.064 11.374C38.5532 11.0791 38.0534 10.7795 37.57 10.4898C36.5032 9.85047 35.4956 9.24649 34.3811 8.6895C34.3754 8.68668 34.3527 8.6759 34.3468 8.67321L33.4496 8.26938C32.0538 7.64524 30.6976 7.52629 29.3033 7.90551L20.5881 10.2763C18.2606 10.9095 16.628 10.6471 16.3272 9.59196C16.1247 8.88215 16.5444 7.94219 17.1438 7.76336L33.0819 3.00508C34.2786 2.6479 35.4492 2.79227 36.561 3.43434L45.7718 8.75219C45.9872 8.87653 46.243 8.91004 46.4831 8.84583L47.9864 8.44305L49.8281 15.5604L43.5703 17.2451ZM55.1514 17.1657C55.1307 17.2007 55.0918 17.2462 55.0233 17.2639L52.5874 17.8941C52.4763 17.9231 52.3582 17.8533 52.3295 17.7423L49.0549 5.08833C49.0262 4.97723 49.0958 4.85911 49.2068 4.8304L51.6429 4.20004C51.6611 4.19536 51.6784 4.19336 51.6946 4.19336C51.7397 4.19336 51.7767 4.2086 51.8024 4.22372C51.8374 4.24434 51.8829 4.28336 51.9006 4.3518L55.1749 17.0058C55.1929 17.0746 55.172 17.1307 55.1514 17.1657ZM54.1566 16.0267C54.1063 16.4556 53.7179 16.7625 53.289 16.7123C52.8601 16.662 52.5532 16.2736 52.6035 15.8447C52.6538 15.4158 53.0421 15.1089 53.471 15.1592C53.8999 15.2095 54.2068 15.5978 54.1566 16.0267ZM23.4405 34.5306C27.3936 34.5306 30.6096 31.3147 30.6096 27.3616C30.6096 23.4085 27.3936 20.1925 23.4405 20.1925C19.4876 20.1925 16.2715 23.4085 16.2715 27.3616C16.2716 31.3147 19.4876 34.5306 23.4405 34.5306ZM23.4405 22.0675C26.3597 22.0675 28.7346 24.4424 28.7346 27.3616C28.7346 30.2807 26.3597 32.6556 23.4405 32.6556C20.5214 32.6556 18.1465 30.2807 18.1465 27.3616C18.1465 24.4424 20.5214 22.0675 23.4405 22.0675ZM9.90246 30.023L11.6404 30.6919C11.9013 31.6184 12.2705 32.5088 12.742 33.3495L11.9857 35.0523C11.8282 35.4068 11.9053 35.8216 12.1795 36.0958L14.7062 38.6225C14.9804 38.8967 15.395 38.9737 15.7497 38.8164L17.4533 38.0597C18.294 38.5312 19.1841 38.9003 20.11 39.1612L20.7791 40.8995C20.9183 41.2615 21.2661 41.5002 21.654 41.5002H25.2272C25.6151 41.5002 25.9628 41.2614 26.1021 40.8995L26.771 39.1616C27.6975 38.9007 28.5879 38.5315 29.4287 38.0598L31.1316 38.8162C31.4861 38.9736 31.9008 38.8966 32.175 38.6223L34.7017 36.0957C34.9759 35.8214 35.053 35.4067 34.8956 35.0522L34.1389 33.3486C34.6104 32.508 34.9794 31.6178 35.2404 30.6919L36.9788 30.0228C37.3407 29.8836 37.5795 29.5357 37.5795 29.1479V25.5749C37.5795 25.187 37.3406 24.8393 36.9788 24.7L35.2409 24.0312C34.9799 23.1048 34.6109 22.2143 34.1392 21.3735L34.8955 19.6706C35.0529 19.3162 34.9759 18.9013 34.7016 18.6271L32.1749 16.1004C31.9007 15.8262 31.4858 15.7491 31.1314 15.9066L29.4278 16.6633C28.5871 16.1917 27.697 15.8227 26.7711 15.5618L26.102 13.8235C25.9628 13.4615 25.615 13.2228 25.2271 13.2228H21.6539C21.2661 13.2228 20.9183 13.4616 20.779 13.8235L20.1098 15.5618C19.1839 15.8227 18.2938 16.1917 17.4531 16.6633L15.7494 15.9066C15.395 15.7491 14.9802 15.8263 14.706 16.1004L12.1793 18.6271C11.9051 18.9013 11.828 19.3161 11.9854 19.6706L12.7419 21.374C12.2704 22.2146 11.9013 23.1048 11.6404 24.031L9.90223 24.7C9.54024 24.8392 9.30153 25.187 9.30153 25.5749V29.1481C9.30164 29.536 9.54047 29.8838 9.90246 30.023ZM11.1766 26.2186L12.7635 25.6079C13.0519 25.4969 13.2672 25.2507 13.3388 24.95C13.5932 23.881 14.015 22.8633 14.5928 21.9251C14.7548 21.6618 14.7768 21.3356 14.6514 21.053L13.9605 19.4977L15.5768 17.8813L17.1322 18.5722C17.4147 18.6977 17.741 18.6757 18.0043 18.5137C18.9425 17.9359 19.9602 17.5141 21.0289 17.2597C21.3297 17.1881 21.5759 16.9729 21.6868 16.6844L22.2977 15.0974H24.5835L25.1943 16.6844C25.3052 16.9729 25.5513 17.1881 25.8521 17.2597C26.9208 17.514 27.9384 17.9359 28.8766 18.5137C29.14 18.6757 29.4662 18.6975 29.7488 18.5723L31.3043 17.8813L32.9205 19.4976L32.23 21.0524C32.1045 21.335 32.1264 21.6613 32.2886 21.9245C32.8664 22.8627 33.2884 23.8806 33.5427 24.9498C33.6142 25.2506 33.8295 25.4968 34.118 25.6079L35.7045 26.2184V28.5043L34.1175 29.115C33.829 29.226 33.6138 29.4721 33.5422 29.7728C33.2878 30.8417 32.8659 31.8592 32.2882 32.7974C32.1261 33.0607 32.1042 33.387 32.2296 33.6695L32.9205 35.2251L31.3042 36.8413L29.7495 36.1507C29.4668 36.0251 29.1404 36.047 28.8772 36.2093C27.9391 36.7871 26.9213 37.2091 25.8519 37.4635C25.5512 37.5351 25.305 37.7502 25.194 38.0388L24.5834 39.6252H22.2976L21.6868 38.0383C21.5759 37.7498 21.3298 37.5346 21.0289 37.463C19.9603 37.2087 18.9427 36.7868 18.0043 36.2091C17.7413 36.047 17.4149 36.0251 17.1323 36.1505L15.5768 36.8414L13.9604 35.2251L14.651 33.6704C14.7765 33.3877 14.7546 33.0614 14.5925 32.7981C14.0148 31.86 13.5928 30.8422 13.3384 29.7728C13.2668 29.4721 13.0516 29.2259 12.7631 29.1149L11.1766 28.5043V26.2186ZM50.3504 43.7853L48.1605 42.5459C47.1593 41.9793 45.8836 42.3329 45.3169 43.3341L44.8913 44.0862L39.2988 40.8482C37.7486 39.9507 35.8821 39.1246 33.7928 39.8025C33.2925 39.9647 32.707 40.1765 32.0871 40.4006C30.3169 41.0405 28.1138 41.837 25.8908 42.238C25.8493 42.2456 25.8082 42.2559 25.7681 42.2689C24.1152 42.8047 23.1594 44.4896 23.5921 46.1047C23.6263 46.2325 23.6665 46.3555 23.7123 46.4739C23.5068 46.3942 23.3047 46.2963 23.1047 46.1798L15.3 41.6338C10.6797 38.9429 8.89254 41.1182 8.45485 41.849C7.5484 43.3626 7.99688 45.5254 9.39586 46.3866L23.5596 55.1081C24.5627 55.7256 25.6596 56.0383 26.795 56.0383C27.356 56.0383 27.9265 55.962 28.4995 55.8084L38.3977 53.1562L39.423 53.7482L38.8789 54.7096C38.605 55.1936 38.5363 55.7564 38.6855 56.2945C38.8345 56.8323 39.1833 57.2795 39.6671 57.5534L41.857 58.7928C42.1737 58.972 42.5241 59.0634 42.8791 59.0634C43.0668 59.0634 43.2557 59.0378 43.4418 58.9864C43.9798 58.8373 44.4268 58.4886 44.7007 58.0047L51.1388 46.6292C51.7052 45.6276 51.3516 44.352 50.3504 43.7853ZM38.9988 51.3381C38.7834 51.2137 38.5275 51.1803 38.2875 51.2445L28.0141 53.9972C26.7742 54.3296 25.6062 54.1661 24.5426 53.5114L10.3788 44.7899C9.84633 44.462 9.68414 43.4455 10.0634 42.8124C10.6272 41.871 12.2721 42.0402 14.3563 43.2541L22.1611 47.8C23.4097 48.5269 24.7504 48.7631 26.2625 48.5212L27.2313 48.3637C27.2375 48.3626 27.2623 48.3582 27.2686 48.3569C28.4892 48.1074 29.6187 47.7848 30.8143 47.4434C31.3563 47.2886 31.9168 47.1285 32.4867 46.9758C32.9869 46.8418 33.2836 46.3278 33.1496 45.8276C33.0157 45.3275 32.5016 45.0309 32.0014 45.1647C31.4167 45.3214 30.8487 45.4836 30.2994 45.6405C29.1533 45.9678 28.0698 46.2768 26.9348 46.5109C26.102 46.6045 25.587 46.3055 25.4031 45.6194C25.2302 44.9743 25.6116 44.3177 26.2936 44.0705C28.6471 43.638 30.9059 42.8213 32.7244 42.1639C33.3554 41.9357 33.9005 41.7387 34.371 41.586C35.4907 41.2229 36.6462 41.479 38.3592 42.4709L43.9676 45.718L40.3465 52.1163L38.9988 51.3381ZM49.5068 45.7055L43.0687 57.081C43.0339 57.1427 42.9799 57.1686 42.9408 57.1793C42.9018 57.1902 42.842 57.1959 42.7805 57.1609L40.5906 55.9216C40.5289 55.8868 40.503 55.8327 40.4923 55.7935C40.4814 55.7543 40.4757 55.6948 40.5107 55.6332L46.9486 44.2578C47.005 44.1578 47.1371 44.1214 47.237 44.1779L49.4269 45.4172C49.5267 45.4736 49.5633 45.6057 49.5068 45.7055ZM48.2695 46.3878C48.2071 46.815 47.81 47.1107 47.3829 47.0482C46.9556 46.9858 46.66 46.5888 46.7223 46.1615C46.7848 45.7342 47.1818 45.4386 47.6091 45.501C48.0362 45.5635 48.332 45.9605 48.2695 46.3878ZM40.5541 33.1353C42.0754 29.9044 41.9841 26.0582 40.1565 22.8517C39.9001 22.402 40.0569 21.8294 40.5068 21.573C40.9566 21.3164 41.529 21.4732 41.7855 21.9232C44.0551 25.905 44.03 30.7309 41.8884 34.6406L42.682 34.3538C43.1692 34.1778 43.7064 34.4298 43.8824 34.9168C44.0584 35.4037 43.8063 35.9411 43.3194 36.1171L39.8013 37.3886C39.6977 37.4261 39.5899 37.4445 39.4827 37.4445C39.2862 37.4445 39.0919 37.3827 38.9289 37.2634C38.677 37.0791 38.5335 36.7814 38.5459 36.4696L38.6809 33.0878C38.7015 32.5704 39.1369 32.1681 39.6551 32.1885C40.1632 32.2087 40.5598 32.63 40.5541 33.1353ZM8.20031 21.6353C8.18016 22.1399 7.76473 22.5354 7.26422 22.5354C7.25157 22.5354 7.23891 22.5352 7.22614 22.5347C6.71789 22.5145 6.32133 22.0929 6.32707 21.5876C4.80586 24.8185 4.89703 28.6648 6.72469 31.8713C6.9811 32.3211 6.8243 32.8936 6.37442 33.15C6.22793 33.2335 6.06844 33.2732 5.91106 33.2732C5.58516 33.2732 5.26864 33.1032 5.09567 32.7998C2.8261 28.818 2.85118 23.9921 4.99278 20.0825L4.19907 20.3693C3.71203 20.5454 3.17473 20.2933 2.99871 19.8064C2.8227 19.3195 3.07477 18.782 3.56168 18.606L7.07977 17.3345C7.37344 17.2284 7.70039 17.2754 7.95223 17.4597C8.20407 17.644 8.34762 17.9417 8.3352 18.2535L8.20031 21.6353Z" fill="#E63A27"/>
</svg>
