<svg width="50" height="50" viewBox="0 0 50 50" fill="none" xmlns="http://www.w3.org/2000/svg">
<g clip-path="url(#clip0_1825_10458)">
<path d="M48.2282 39.2924C47.6879 36.0526 45.4163 33.3942 42.3003 32.3553L35.3809 30.0491V29.0206H33.7726V30.427L28.1438 40.9819L22.515 30.4278V29.0206H20.9068V30.8299L27.3397 42.8916V44.2989H17.6903V45.9071H27.3397V48.3194H15.3849L16.0266 43.1852C17.0631 42.5033 17.6903 41.3526 17.6903 40.0885V39.4742H16.0821V40.0885C16.0821 40.891 15.6358 41.6131 14.9185 41.9717L14.5333 42.1639L13.7638 48.3194H8.18563L9.10152 42.8225L7.515 42.5587L6.28711 49.9277H49.9997L48.2282 39.2924ZM28.9479 48.3194V45.9071H38.5973V44.2989H28.9479V42.8916L34.9667 31.6067L38.5973 32.8161V40.0877C38.5973 41.3518 39.2245 42.5025 40.2611 43.1852L40.9027 48.3194H28.9479ZM42.5238 48.3194L41.7543 42.1639L41.3691 41.9717C40.6519 41.6123 40.2056 40.891 40.2056 40.0885V33.3524L41.7913 33.8807C44.3411 34.7315 46.1995 36.9066 46.6417 39.557L48.1012 48.3194H42.5238Z" fill="#E63A27"/>
<path d="M14.474 17.763C14.474 19.8263 16.0421 21.5118 18.0459 21.7385C18.456 23.1497 19.2135 24.4436 20.2814 25.5114L23.4166 28.6467C24.1757 29.4058 25.1857 29.8247 26.26 29.8247H30.0281C31.1024 29.8247 32.1123 29.4058 32.8714 28.6467L36.0067 25.5114C37.0746 24.4436 37.8312 23.1497 38.2421 21.7385C40.246 21.5118 41.814 19.8263 41.814 17.763C41.814 16.8543 41.4996 16.0245 40.989 15.3506H42.6181V10.5259H40.0908C39.4515 5.77921 35.9866 1.80767 31.3605 0.52591V0.0723877H24.9276V0.52591C20.3023 1.80767 16.8373 5.77921 16.1973 10.5259H13.6699V15.3506H15.2991C14.7884 16.0245 14.474 16.8543 14.474 17.763ZM16.0823 17.763C16.0823 16.716 16.7569 15.8315 17.6905 15.4986V19.2562C17.6905 19.5192 17.7058 19.7797 17.7283 20.0386C16.7754 19.717 16.0823 18.8236 16.0823 17.763ZM36.9893 19.2562C36.9893 21.1901 36.2359 23.0066 34.8697 24.3744L31.7344 27.5097C31.2785 27.9656 30.673 28.2165 30.0281 28.2165H26.26C25.6151 28.2165 25.0088 27.9656 24.5536 27.5097L21.4184 24.3744C20.0522 23.0074 19.2987 21.1901 19.2987 19.257V15.3506H36.9893V19.2562ZM38.5598 20.0386C38.5823 19.7797 38.5976 19.52 38.5976 19.2562V15.4986C39.5311 15.8315 40.2058 16.716 40.2058 17.763C40.2058 18.8236 39.5126 19.717 38.5598 20.0386ZM24.9276 2.20008V8.91768H26.5358V1.68062H29.7523V8.91768H31.3605V2.20008C35.0868 3.40867 37.869 6.65409 38.4737 10.5259H17.8143C18.4198 6.65328 21.2013 3.40867 24.9276 2.20008ZM15.2782 13.7424V12.1341H41.0099V13.7424H15.2782Z" fill="#E63A27"/>
<path d="M34.577 7.30945H32.9688V8.91768H34.577V7.30945Z" fill="#E63A27"/>
<path d="M23.3192 7.30945H21.7109V8.91768H23.3192V7.30945Z" fill="#E63A27"/>
<path d="M7.38277 41.0824H11.9172L12.3329 39.0094C12.5991 38.9161 12.8596 38.8084 13.1129 38.6886L14.8715 39.8602L18.0775 36.6541L16.9059 34.8955C17.0257 34.643 17.1335 34.3817 17.2268 34.1155L19.299 33.6998V29.1654L17.226 28.7497C17.0756 28.3243 16.8923 27.9142 16.676 27.5266L15.2704 28.309C15.506 28.7312 15.6941 29.1887 15.83 29.6664L15.9651 30.1376L17.6908 30.4834V32.3819L15.9651 32.7276L15.83 33.1989C15.6941 33.6773 15.506 34.134 15.2704 34.5562L15.0315 34.9848L16.0061 36.4467L14.6641 37.7888L13.2022 36.8142L12.7736 37.053C12.3514 37.2886 11.8939 37.4768 11.4162 37.6127L10.945 37.7469L10.5992 39.4742H8.70072L8.35495 37.7485L7.88374 37.6143C7.40529 37.4784 6.94855 37.2902 6.52639 37.0546L6.0978 36.8158L4.63591 37.7904L2.82745 35.9827L1.69043 37.1197L4.43006 39.8602L6.18866 38.6886C6.44115 38.8084 6.70249 38.9161 6.96865 39.0094L7.38277 41.0824Z" fill="#E63A27"/>
<path d="M2.62303 35.3386L4.02863 34.5562C3.79302 34.134 3.60486 33.6765 3.46896 33.1988L3.33387 32.7276L1.60823 32.3826V30.4841L3.33387 30.1383L3.46896 29.6671C3.60486 29.1887 3.79302 28.7319 4.02863 28.3098L4.26745 27.8812L3.29286 26.4193L4.63493 25.0772L6.09682 26.0518L6.52541 25.813C6.94757 25.5774 7.40511 25.3892 7.88276 25.2533L8.35397 25.119L8.69974 23.3918H10.5983L10.944 25.1174L11.4152 25.2517C11.8937 25.3876 12.3504 25.5758 12.7726 25.8114L13.2012 26.0502L14.6631 25.0756L16.4715 26.8833L17.6086 25.7463L14.8689 23.0058L13.1103 24.1774C12.8578 24.0576 12.5965 23.9499 12.3303 23.8566L11.9162 21.7836H7.3818L6.96607 23.8566C6.6999 23.9499 6.43937 24.0576 6.18607 24.1774L4.42747 23.0058L1.22145 26.2118L2.39305 27.9704C2.27324 28.2229 2.16549 28.4843 2.07221 28.7504L0 29.1662V33.7006L2.07301 34.1163C2.22338 34.5409 2.40672 34.951 2.62303 35.3386Z" fill="#E63A27"/>
<path d="M9.64949 27.4124C7.43254 27.4124 5.62891 29.216 5.62891 31.4329C5.62891 33.6499 7.43254 35.4535 9.64949 35.4535C11.8664 35.4535 13.6701 33.6499 13.6701 31.4329C13.6701 29.216 11.8664 27.4124 9.64949 27.4124ZM9.64949 33.8453C8.31948 33.8453 7.23714 32.7629 7.23714 31.4329C7.23714 30.1029 8.31948 29.0206 9.64949 29.0206C10.9795 29.0206 12.0618 30.1029 12.0618 31.4329C12.0618 32.7629 10.9795 33.8453 9.64949 33.8453Z" fill="#E63A27"/>
</g>
<defs>
<clipPath id="clip0_1825_10458">
<rect width="50" height="50" fill="white"/>
</clipPath>
</defs>
</svg>
