<svg width="60" height="60" viewBox="0 0 60 60" fill="none" xmlns="http://www.w3.org/2000/svg">
<path fill-rule="evenodd" clip-rule="evenodd" d="M10.7038 50.7022L48.1822 50.7021C49.2307 50.7021 50.8701 50.9668 51.4954 50.1249C52.1206 49.2833 51.5572 47.5702 51.2545 46.5665C48.429 37.1975 39.7333 30.3738 29.443 30.3738C19.1526 30.3738 10.4567 37.1974 7.63138 46.5665C7.32857 47.5705 7.50259 48.565 8.12791 49.4067C8.7531 50.2485 9.65533 50.7022 10.7038 50.7022Z" fill="#8AC9FE"/>
<path fill-rule="evenodd" clip-rule="evenodd" d="M48.1823 50.7022C49.2306 50.7022 50.8701 50.9668 51.4954 50.1252C52.1206 49.2834 51.5574 47.5705 51.2546 46.5668C48.4291 37.1976 39.7333 30.374 29.4431 30.374C28.3537 30.374 27.2825 30.4514 26.2339 30.5991C35.0901 31.848 42.3099 38.1894 44.8362 46.5668C45.139 47.5705 44.965 48.565 44.3397 49.4068C43.7145 50.2487 42.8123 50.7022 41.7639 50.7022H48.1823Z" fill="#60B7FF"/>
<path d="M37.5805 27.0004C42.0777 22.5033 42.0777 15.212 37.5805 10.7149C33.0834 6.21782 25.7922 6.21782 21.2951 10.7149C16.798 15.212 16.798 22.5033 21.2951 27.0004C25.7922 31.4975 33.0834 31.4975 37.5805 27.0004Z" fill="#F6DCCD"/>
<path fill-rule="evenodd" clip-rule="evenodd" d="M29.443 7.33936C35.8038 7.33936 40.9603 12.4958 40.9603 18.8567C40.9603 25.2175 35.8037 30.374 29.443 30.374C28.8985 30.374 28.3628 30.3353 27.8384 30.2622C33.4395 29.4812 37.7512 24.6728 37.7512 18.8567C37.7512 13.0404 33.4395 8.23209 27.8384 7.45115C28.3628 7.37803 28.8983 7.33936 29.443 7.33936Z" fill="#F1CBBC"/>
<path fill-rule="evenodd" clip-rule="evenodd" d="M17.021 20.1935H41.8647C42.7804 20.1935 43.5296 19.4445 43.5296 18.5288C43.5296 17.6131 42.7804 16.864 41.8647 16.864H41.529C41.5532 16.5515 41.5659 16.2358 41.5659 15.917C41.5659 10.5243 38.0443 5.95536 33.1757 4.38118C33.3587 2.47325 31.014 1.87454 29.4427 1.87524C27.8715 1.87454 25.5268 2.47325 25.7097 4.38118C20.8412 5.95536 17.3196 10.5244 17.3196 15.917C17.3196 16.2358 17.3322 16.5515 17.3565 16.864H17.0208C16.1051 16.864 15.356 17.6131 15.356 18.5288C15.3561 19.4445 16.1053 20.1935 17.021 20.1935Z" fill="#FFD064"/>
<path fill-rule="evenodd" clip-rule="evenodd" d="M15.356 18.5288C15.356 19.4445 16.1051 20.1935 17.0208 20.1935H41.8646C42.7803 20.1935 43.5295 19.4445 43.5295 18.5288C43.5295 17.6131 42.7803 16.864 41.8646 16.864C33.5833 16.864 25.3021 16.864 17.0208 16.864C16.1051 16.864 15.356 17.6131 15.356 18.5288Z" fill="#FFE177"/>
<path fill-rule="evenodd" clip-rule="evenodd" d="M15.4141 18.9635C15.6065 19.6702 16.2555 20.1935 17.0208 20.1935H41.8646C42.7803 20.1935 43.5295 19.4445 43.5295 18.5288C43.5295 17.7634 43.006 17.1145 42.2995 16.9221C42.3372 17.0609 42.3576 17.2067 42.3576 17.3569C42.3576 18.2726 41.6084 19.0217 40.6927 19.0217C32.4114 19.0217 24.1302 19.0217 15.8489 19.0217C15.6987 19.0217 15.5528 19.0013 15.4141 18.9635Z" fill="#FFD064"/>
<path fill-rule="evenodd" clip-rule="evenodd" d="M17.1077 34.8702C18.1582 35.1202 19.1616 35.5368 20.0812 36.1029L22.0134 35.2448L24.2907 37.5221L23.4327 39.4537C23.9991 40.3733 24.4157 41.3771 24.6657 42.428L26.637 43.1868V46.4073L24.6652 47.1662C24.4151 48.2168 23.9986 49.2202 23.4325 50.1398L24.2907 52.0719L22.0134 54.3492L20.0818 53.4913C19.1621 54.0578 18.1584 54.4743 17.1074 54.7243L16.3486 56.6956H13.1281L12.3692 54.7238C11.3186 54.4738 10.3152 54.0572 9.39566 53.4911L7.46348 54.3492L5.18617 52.0719L6.0441 50.1403C5.47773 49.2207 5.06125 48.2168 4.81117 47.166L2.83984 46.4072V43.1866L4.81141 42.4276C5.06148 41.3771 5.47797 40.3735 6.04422 39.4539L5.18617 37.5219L7.46348 35.2445L9.39566 36.1027C10.3152 35.5366 11.3186 35.12 12.3692 34.87L13.1282 32.8982H16.3487L17.1077 34.8702Z" fill="#837683"/>
<path fill-rule="evenodd" clip-rule="evenodd" d="M9.39586 53.491L7.46367 54.3491L7.16613 54.0516L8.97773 53.247C9.1152 53.3317 9.25465 53.413 9.39586 53.491ZM17.1077 34.8701C18.1583 35.1201 19.1617 35.5367 20.0813 36.1028L19.532 36.3467C18.6124 35.7805 17.1909 35.1201 16.1404 34.87L15.3814 32.8982H16.3488L17.1077 34.8701ZM20.082 53.4912C19.1623 54.0577 18.1586 54.4742 17.1076 54.7241L16.3488 56.6955H15.3814L16.1402 54.7241C17.1911 54.4742 18.613 53.8137 19.5327 53.2472L20.082 53.4912ZM7.16602 35.5421L7.46355 35.2445L9.39574 36.1027C9.25453 36.1806 9.1152 36.2619 8.97762 36.3466L7.16602 35.5421ZM21.3436 35.5421L22.0134 35.2445L24.2907 37.5218L23.4328 39.4534C23.9992 40.3731 24.4158 41.3768 24.6657 42.4278L26.6371 43.1866V46.4071L24.6653 47.166C24.4152 48.2166 23.9987 49.22 23.4326 50.1395L24.2907 52.0717L22.0134 54.349L21.3436 54.0515L23.3234 52.0716L22.4652 50.1394C23.0313 49.2198 23.4479 48.2165 23.6979 47.1659L25.6697 46.407V43.1864L23.6984 42.4276C23.4483 41.3768 23.0318 40.373 22.4654 39.4533L23.3234 37.5217L21.3436 35.5421Z" fill="#685E68"/>
<path d="M18.7028 48.7644C20.8957 46.5715 20.8957 43.0159 18.7028 40.823C16.5098 38.63 12.9543 38.63 10.7613 40.823C8.56829 43.0159 8.56829 46.5715 10.7613 48.7644C12.9543 50.9574 16.5098 50.9574 18.7028 48.7644Z" fill="#ECEFF1"/>
<path fill-rule="evenodd" clip-rule="evenodd" d="M14.7383 39.1807C11.6363 39.1807 9.12207 41.6949 9.12207 44.797C9.12207 47.8989 11.6363 50.4132 14.7383 50.4132C14.8886 50.4132 15.0376 50.4071 15.185 50.3955C12.2919 50.1678 10.0154 47.7486 10.0154 44.7969C10.0154 41.8452 12.2919 39.4258 15.185 39.1982C15.0376 39.1866 14.8886 39.1807 14.7383 39.1807Z" fill="#D1D1D6"/>
<path fill-rule="evenodd" clip-rule="evenodd" d="M40.8248 50.8124C41.608 52.7305 41.2214 55.0142 39.6644 56.5711C38.2025 58.033 36.0993 58.4631 34.2601 57.8615L38.0315 54.0902L37.3155 51.418L34.6434 50.702L30.872 54.4734C30.2704 52.6341 30.7004 50.531 32.1624 49.069C33.7193 47.5122 36.0031 47.1255 37.9211 47.9086L46.9358 38.894C46.1526 36.9759 46.5867 34.6446 48.0961 33.1353C49.6056 31.6259 51.6611 31.2433 53.5004 31.8448L49.729 35.6162L50.445 38.2884L53.1171 39.0044L56.8884 35.2329C57.49 37.0722 57.1074 39.1278 55.5981 40.6373C54.0887 42.1466 51.7574 42.5808 49.8393 41.7977L40.8248 50.8124Z" fill="#8D9CA8"/>
<path fill-rule="evenodd" clip-rule="evenodd" d="M40.8246 50.8124C41.6078 52.7305 41.2212 55.0141 39.6643 56.5711C38.2023 58.033 36.0992 58.4631 34.2599 57.8614L35.1876 56.9338C36.3929 56.8328 37.5701 56.3214 38.4924 55.3992C40.0493 53.8423 40.4361 51.5585 39.6528 49.6405L48.6674 40.6258C50.5855 41.409 52.9168 40.9748 54.4261 39.4655C55.3783 38.5133 55.8818 37.3438 55.973 36.1485L56.8884 35.2331C57.49 37.0724 57.1074 39.128 55.598 40.6374C54.0886 42.1468 51.7573 42.581 49.8393 41.7978L40.8246 50.8124ZM37.3154 51.4181L37.0677 50.4939L33.4714 49.5302L30.6276 52.3739C30.5684 53.0794 30.6497 53.7944 30.8718 54.4735L34.6432 50.7022L37.3154 51.4181ZM51.413 31.5885L48.557 34.4444L49.5208 38.0407L50.445 38.2883L49.729 35.6162L53.5005 31.8448C52.8212 31.6227 52.1127 31.535 51.413 31.5885Z" fill="#8192A5"/>
<path fill-rule="evenodd" clip-rule="evenodd" d="M14.7352 49.4747C12.1538 49.4747 10.0578 47.3758 10.0578 44.795C10.0578 42.2147 12.1538 40.1159 14.7352 40.1159C17.3166 40.1159 19.4181 42.2148 19.4181 44.795C19.4181 47.3759 17.3166 49.4747 14.7352 49.4747ZM14.7352 38.2411C11.1223 38.2411 8.18232 41.1811 8.18232 44.795C8.18232 48.4091 11.1223 51.3495 14.7352 51.3495C18.3536 51.3495 21.2936 48.409 21.2936 44.795C21.2935 41.1811 18.3536 38.2411 14.7352 38.2411ZM43.1971 49.7626L49.1763 43.7823C50.0808 45.6798 50.6987 47.6825 51.0241 49.7626H43.1971ZM39.9537 51.1653C39.8103 50.815 39.893 50.414 40.1634 50.1471L49.1763 41.133C49.441 40.8661 49.8437 40.785 50.1912 40.9278C51.8019 41.5842 53.7049 41.1997 54.9349 39.973C55.6961 39.209 56.1318 38.2476 56.209 37.2343L53.7765 39.6657C53.5393 39.9023 53.1973 39.995 52.8719 39.9084L50.2022 39.1925C49.8768 39.1059 49.6231 38.8528 49.5404 38.529L48.8233 35.8571C48.7351 35.5339 48.8288 35.188 49.066 34.9514L51.4985 32.52C50.4836 32.595 49.5237 33.0318 48.7571 33.7958C47.5271 35.0242 47.1465 36.9294 47.8028 38.5372C47.9463 38.8875 47.8635 39.2885 47.5987 39.5543L38.5803 48.5694C38.3156 48.8369 37.9129 48.9174 37.5653 48.7746C35.9327 48.1077 34.0683 48.4828 32.8217 49.7294C32.0771 50.4785 31.6413 51.4466 31.5585 52.4592L33.98 50.0367C34.1565 49.8586 34.3937 49.7625 34.6419 49.7625C34.7246 49.7625 34.8018 49.773 34.8846 49.7945L37.5542 50.5104C37.8796 50.597 38.1333 50.8501 38.2161 51.1734L38.9331 53.8453C39.0214 54.1691 38.9276 54.5144 38.6904 54.751L36.269 57.1735C37.284 57.0914 38.2492 56.6556 38.9994 55.9065C40.2461 54.6586 40.6212 52.798 39.9537 51.1653ZM31.4979 48.4046C33.1307 46.773 35.497 46.1861 37.6702 46.8282L45.8062 38.6924C41.6582 33.9967 35.7121 31.3093 29.4406 31.3093C25.5463 31.3093 21.768 32.3336 18.4365 34.2834C19.0211 34.4897 19.5947 34.7451 20.1408 35.0485L21.6302 34.3855C21.9887 34.2283 22.4024 34.3054 22.6727 34.5797L24.9507 36.8572C25.2265 37.1313 25.3037 37.5461 25.1493 37.8997L24.4819 39.3929C24.8956 40.132 25.2155 40.9131 25.4472 41.7239L26.9751 42.3097C27.3336 42.4493 27.5763 42.7973 27.5763 43.1851V46.4059C27.5763 46.7936 27.3336 47.1417 26.9751 47.2796L25.4472 47.8671C25.2597 48.5206 25.017 49.1551 24.7081 49.7628H30.4667C30.7422 49.2729 31.0843 48.8156 31.4979 48.4046ZM21.8065 53.2293L23.169 51.8625L22.5732 50.5188C22.4464 50.2358 22.4739 49.9093 22.6339 49.6456C23.1468 48.8089 23.5219 47.9005 23.7536 46.9467C23.8253 46.6466 24.0404 46.4006 24.3272 46.2892L25.7007 45.7618V43.8279L24.3272 43.3005C24.0404 43.1891 23.8253 42.9431 23.7536 42.6419C23.5219 41.6883 23.1468 40.7798 22.6339 39.9419C22.4739 39.6799 22.4464 39.3528 22.5732 39.0704L23.169 37.7273L21.8065 36.3599L20.4606 36.9573C20.1793 37.0826 19.8538 37.0604 19.5891 36.8988C18.7508 36.3831 17.8461 36.0069 16.8919 35.7797C16.5885 35.7085 16.3403 35.4929 16.2301 35.2044L15.706 33.8332H13.7699L13.2405 35.2044C13.1302 35.4929 12.8875 35.7085 12.5841 35.7797C11.6299 36.0069 10.7253 36.3831 9.88682 36.8988C9.62209 37.0604 9.29666 37.0826 9.01529 36.9573L7.66939 36.3599L6.30146 37.7273L6.89713 39.0716C7.02404 39.354 7.00189 39.68 6.84193 39.9436C6.32338 40.7798 5.94838 41.6883 5.72221 42.6419C5.65049 42.9431 5.43533 43.1891 5.14857 43.3005L3.77514 43.8279V45.7618L5.14857 46.2892C5.43545 46.4006 5.65049 46.6466 5.72221 46.9467C5.94838 47.9015 6.32338 48.81 6.84193 49.6467C7.00189 49.9104 7.02393 50.2358 6.89713 50.5188L6.30146 51.8625L7.66939 53.2293L9.01529 52.6325C9.29654 52.5074 9.62197 52.5283 9.88682 52.691C10.7253 53.2057 11.6299 53.5829 12.5841 53.8107C12.8875 53.8818 13.1302 54.0964 13.2405 54.3849L13.7699 55.7557H15.706L16.2301 54.3855C16.3403 54.0976 16.5885 53.8818 16.8919 53.8107C17.8462 53.5829 18.7508 53.2067 19.5891 52.691C19.8538 52.5294 20.1793 52.5072 20.4606 52.6325L21.8065 53.2293ZM19.1092 21.1291H39.7717C38.7292 25.9302 34.46 29.4343 29.4405 29.4343C24.4266 29.4344 20.1572 25.9302 19.1092 21.1291ZM16.2906 18.5263C16.2906 18.1258 16.6216 17.7998 17.0187 17.7998H17.3552H41.8622C42.2649 17.7998 42.5903 18.1258 42.5903 18.5263C42.5903 18.9273 42.2649 19.2543 41.8622 19.2543H17.9895H17.0187C16.6216 19.2543 16.2906 18.9273 16.2906 18.5263ZM24.9285 5.67923L25.6181 10.9606C25.6843 11.4742 26.1531 11.836 26.6661 11.7692C27.1791 11.7025 27.5431 11.2325 27.4769 10.7196L26.644 4.3372C26.6 3.97978 26.7103 3.7972 26.804 3.67743C27.1736 3.23013 28.1554 2.90856 29.4406 2.81259C30.7258 2.90856 31.7131 3.23013 32.0772 3.67743C32.1765 3.79708 32.2813 3.97966 32.2372 4.3372L31.4043 10.7196C31.3436 11.2326 31.7021 11.7025 32.2151 11.7692C32.2592 11.7753 32.2979 11.7775 32.3364 11.7775C32.8053 11.7775 33.2079 11.4328 33.2687 10.9606L33.9527 5.67923C37.9847 7.44981 40.6269 11.4307 40.6269 15.9156V15.9249H36.6665V9.97767C36.6665 9.4597 36.2473 9.03993 35.7288 9.03993C35.2103 9.03993 34.791 9.4597 34.791 9.97767V15.9249H24.0958V9.97767C24.0958 9.4597 23.6711 9.03993 23.1581 9.03993C22.6396 9.03993 22.2203 9.4597 22.2203 9.97767V15.9249H18.2542C18.2542 15.9217 18.2542 15.9178 18.2542 15.9156C18.2542 11.4306 20.8965 7.44981 24.9285 5.67923ZM56.2587 41.2985C57.9576 39.6002 58.5257 37.2234 57.7756 34.9398C57.6763 34.6303 57.4226 34.3947 57.1027 34.3197C56.7883 34.2437 56.4519 34.3374 56.2257 34.5679L52.8335 37.9575L51.2118 37.5212L50.7705 35.8945L54.1627 32.5056C54.3944 32.275 54.4881 31.9419 54.4109 31.6241C54.3337 31.308 54.102 31.0527 53.7931 30.9516C51.5096 30.2054 49.1267 30.7724 47.4333 32.4702C46.4956 33.4046 45.9054 34.6126 45.6958 35.884C42.651 33.013 38.9112 31.0152 34.8736 30.0658C38.3596 28.3768 40.9577 25.1076 41.6858 21.129H41.8622C43.2964 21.129 44.4657 19.9618 44.4657 18.526C44.4657 17.312 43.6273 16.2894 42.5021 16.0031C42.5021 15.9739 42.5021 15.9446 42.5021 15.9154C42.5021 10.4497 39.1429 5.62497 34.0849 3.70661C34.0076 3.25825 33.8201 2.84563 33.5278 2.48821C32.6122 1.37118 30.8361 1.02817 29.5067 0.937705C29.4626 0.935479 29.4185 0.935479 29.3799 0.937705C28.0505 1.02817 26.2744 1.37118 25.3533 2.48821C25.061 2.84563 24.8735 3.25825 24.8017 3.70661C19.7382 5.62509 16.379 10.4498 16.379 15.9154V16.0031C15.2538 16.2894 14.4154 17.312 14.4154 18.526C14.4154 19.9618 15.5848 21.129 17.019 21.129H17.1954C17.929 25.1054 20.5215 28.3725 24.0021 30.062C21.6523 30.614 19.3962 31.5248 17.3057 32.7725L17.223 32.5596C17.0851 32.1972 16.7376 31.9584 16.346 31.9584H13.1247C12.7386 31.9584 12.3911 32.1972 12.2532 32.5596L11.663 34.0831C10.8522 34.3148 10.0744 34.6386 9.33533 35.0484L7.84049 34.3854C7.48752 34.2282 7.07385 34.3053 6.79799 34.5795L4.51998 36.8571C4.24975 37.1312 4.17252 37.546 4.32697 37.8996L4.98885 39.3938C4.58068 40.1319 4.25525 40.9129 4.02357 41.7238L2.50119 42.3096C2.13709 42.4491 1.8999 42.7972 1.8999 43.185V46.4058C1.8999 46.7935 2.13709 47.1416 2.50119 47.2795L4.02357 47.867C4.25525 48.6778 4.58068 49.4583 4.98885 50.1963L4.32697 51.6895C4.17252 52.0447 4.24975 52.4595 4.51998 52.7336L6.79799 55.0106C7.07385 55.2847 7.48752 55.3609 7.84049 55.2037L9.33533 54.5407C10.0744 54.9511 10.8522 55.2743 11.663 55.5065L12.2532 57.0311C12.3911 57.393 12.7386 57.6308 13.1247 57.6308H16.346C16.7376 57.6308 17.0851 57.393 17.223 57.0311L17.8078 55.5077C18.6186 55.2754 19.4019 54.9522 20.141 54.5418L21.6303 55.2037C21.9888 55.362 22.4026 55.2848 22.6728 55.0106L24.9508 52.7326C25.2267 52.4585 25.3038 52.0448 25.1494 51.6895L25.1219 51.6376H29.7773C29.5843 52.6575 29.6449 53.7297 29.9814 54.7629C30.0807 55.0724 30.3344 55.3067 30.6543 55.3828C30.9687 55.4594 31.3052 55.364 31.5313 55.1346L34.9236 51.7456L36.5507 52.1813L36.9864 53.8079L33.5942 57.1968C33.3625 57.4269 33.2688 57.7605 33.346 58.0772C33.4232 58.3943 33.6549 58.6491 33.9693 58.7512C34.6092 58.9609 35.271 59.064 35.9219 59.064C37.549 59.064 39.1321 58.4252 40.3236 57.2321C41.8129 55.745 42.4306 53.6474 42.0445 51.6374H52.0888C52.3536 51.6374 52.6073 51.5254 52.7839 51.3274C52.9659 51.1289 53.0486 50.864 53.0211 50.6004C52.7397 47.9638 52.0281 45.4303 50.9029 43.0502C52.8333 43.3339 54.8576 42.7023 56.2587 41.2985Z" fill="black"/>
</svg>
