<svg width="60" height="60" viewBox="0 0 60 60" fill="none" xmlns="http://www.w3.org/2000/svg">
<path d="M6.5625 32.8125H58.125V54.375H6.5625V32.8125Z" fill="#95AFD1"/>
<path d="M41.25 36.5625H58.125V54.375H41.25V36.5625Z" fill="#C1CFE8"/>
<path d="M14.0034 15L18.75 6.5625H58.125V36.5625H1.875L10.8394 20.625L14.0034 15Z" fill="#828A93"/>
<path d="M41.25 36.5625L58.125 6.5625V36.5625H41.25Z" fill="#585E68"/>
<path d="M40.3125 6.5625L29.7656 25.3125L45.9356 28.2328L58.125 6.5625H40.3125Z" fill="#F9CB5D"/>
<path d="M29.0194 18.3066L35.625 6.5625H18.75L14.0034 15L29.0194 18.3066Z" fill="#F9CB5D"/>
<path d="M43.125 25.3125H27.1875C26.4416 25.3125 25.7262 25.6088 25.1988 26.1363C24.6713 26.6637 24.375 27.3791 24.375 28.125C24.375 28.8709 24.6713 29.5863 25.1988 30.1137C25.7262 30.6412 26.4416 30.9375 27.1875 30.9375H43.125V25.3125Z" fill="#F79B31"/>
<path d="M26.25 15H10.3125C9.56658 15 8.85121 15.2963 8.32376 15.8238C7.79632 16.3512 7.5 17.0666 7.5 17.8125C7.5 18.5584 7.79632 19.2738 8.32376 19.8012C8.85121 20.3287 9.56658 20.625 10.3125 20.625H26.25V15Z" fill="#F79B31"/>
<path d="M26.25 20.625C27.8033 20.625 29.0625 19.3658 29.0625 17.8125C29.0625 16.2592 27.8033 15 26.25 15C24.6967 15 23.4375 16.2592 23.4375 17.8125C23.4375 19.3658 24.6967 20.625 26.25 20.625Z" fill="#EC8329"/>
<path d="M45.9966 36.5625L58.125 15V6.5625L41.25 36.5625H45.9966Z" fill="#3C4047"/>
<path d="M43.125 30.9375C44.6783 30.9375 45.9375 29.6783 45.9375 28.125C45.9375 26.5717 44.6783 25.3125 43.125 25.3125C41.5717 25.3125 40.3125 26.5717 40.3125 28.125C40.3125 29.6783 41.5717 30.9375 43.125 30.9375Z" fill="#EC8329"/>
<path d="M35.7212 21.1106L39.4104 14.5528L41.0427 15.4711L37.3535 22.0289L35.7212 21.1106Z" fill="#FFEACD"/>
<path d="M46.0312 16.1182L48.4907 11.7463L50.1231 12.6646L47.6636 17.0365L46.0312 16.1182Z" fill="#FFEACD"/>
<path d="M22.6641 11.7341L24.4795 8.50708L26.1118 9.42537L24.2964 12.6524L22.6641 11.7341Z" fill="#FFEACD"/>
<path d="M16.455 39.375H41.25V54.375H10.3125V45.5175C10.3125 43.8884 10.9597 42.326 12.1116 41.1741C13.2635 40.0222 14.8259 39.375 16.455 39.375Z" fill="#A5BADB"/>
<path d="M58.125 54.375V39.375H50.9222C50.0214 39.375 49.1294 39.5524 48.2971 39.8972C47.4648 40.2419 46.7086 40.7472 46.0717 41.3842C45.4347 42.0211 44.9294 42.7773 44.5847 43.6096C44.2399 44.4419 44.0625 45.3339 44.0625 46.2347V54.375H58.125Z" fill="#D7E0EF"/>
<path d="M58.1248 5.625H18.7498C18.5835 5.62512 18.4203 5.66946 18.2768 5.75348C18.1333 5.8375 18.0147 5.95817 17.9332 6.10313L13.4557 14.0625H10.3123C9.4053 14.0604 8.52841 14.3879 7.84485 14.984C7.16129 15.5802 6.71762 16.4044 6.59644 17.3033C6.47525 18.2022 6.68479 19.1145 7.18606 19.8704C7.68733 20.6263 8.44618 21.1744 9.32137 21.4125L1.05825 36.1031C0.978088 36.2457 0.936639 36.4068 0.938022 36.5704C0.939404 36.734 0.98357 36.8944 1.06613 37.0356C1.14869 37.1769 1.26677 37.294 1.40864 37.3755C1.5505 37.457 1.71122 37.4999 1.87481 37.5H5.62481V54.375H7.49981V37.5H40.3123V54.375H42.1873V37.5H57.1873V54.375H59.0623V6.5625C59.0623 6.31386 58.9635 6.0754 58.7877 5.89959C58.6119 5.72377 58.3735 5.625 58.1248 5.625ZM57.1873 14.7553L45.4479 35.625H42.852L45.4114 31.0753C45.8049 30.7708 46.1333 30.3905 46.3772 29.9568C46.6212 29.5232 46.7757 29.045 46.8317 28.5506L57.1873 10.1409V14.7553ZM41.2498 28.125C41.2498 27.7542 41.3598 27.3916 41.5658 27.0833C41.7718 26.775 42.0647 26.5346 42.4073 26.3927C42.7499 26.2508 43.1269 26.2137 43.4906 26.286C43.8543 26.3584 44.1884 26.537 44.4506 26.7992C44.7129 27.0614 44.8914 27.3955 44.9638 27.7592C45.0361 28.1229 44.999 28.4999 44.8571 28.8425C44.7152 29.1851 44.4748 29.478 44.1665 29.684C43.8582 29.89 43.4957 30 43.1248 30C42.6275 30 42.1506 29.8025 41.799 29.4508C41.4474 29.0992 41.2498 28.6223 41.2498 28.125ZM46.1539 25.9331C45.8084 25.4521 45.3537 25.06 44.827 24.7892C44.3004 24.5183 43.717 24.3763 43.1248 24.375H31.3676L40.8598 7.5H56.5226L46.1539 25.9331ZM39.8961 26.25C39.555 26.816 39.3748 27.4642 39.3748 28.125C39.3748 28.7858 39.555 29.434 39.8961 30H27.1873C26.69 30 26.2131 29.8025 25.8615 29.4508C25.5099 29.0992 25.3123 28.6223 25.3123 28.125C25.3123 27.6277 25.5099 27.1508 25.8615 26.7992C26.2131 26.4475 26.69 26.25 27.1873 26.25H39.8961ZM19.2982 7.5H34.0226L29.3792 15.7547C29.0384 15.2356 28.5741 14.8092 28.0279 14.5139C27.4817 14.2185 26.8707 14.0634 26.2498 14.0625H15.6064L19.2982 7.5ZM24.3748 17.8125C24.3748 17.4417 24.4848 17.0791 24.6908 16.7708C24.8968 16.4625 25.1897 16.2221 25.5323 16.0802C25.8749 15.9383 26.2519 15.9012 26.6156 15.9735C26.9793 16.0459 27.3134 16.2245 27.5756 16.4867C27.8379 16.7489 28.0164 17.083 28.0888 17.4467C28.1611 17.8104 28.124 18.1874 27.9821 18.53C27.8402 18.8726 27.5998 19.1655 27.2915 19.3715C26.9832 19.5775 26.6207 19.6875 26.2498 19.6875C25.7525 19.6875 25.2756 19.49 24.924 19.1383C24.5724 18.7867 24.3748 18.3098 24.3748 17.8125ZM8.43731 17.8125C8.43731 17.3152 8.63486 16.8383 8.98649 16.4867C9.33812 16.135 9.81503 15.9375 10.3123 15.9375H23.0211C22.68 16.5035 22.4998 17.1517 22.4998 17.8125C22.4998 18.4733 22.68 19.1215 23.0211 19.6875H10.3123C9.81503 19.6875 9.33812 19.49 8.98649 19.1383C8.63486 18.7867 8.43731 18.3098 8.43731 17.8125ZM11.3876 21.5625H26.2498C27.0951 21.5606 27.915 21.2732 28.5765 20.7469C29.238 20.2205 29.7022 19.4861 29.8939 18.6628L36.1732 7.5H38.7101L29.2179 24.375H27.1873C26.1927 24.375 25.2389 24.7701 24.5357 25.4734C23.8324 26.1766 23.4373 27.1304 23.4373 28.125C23.4373 29.1196 23.8324 30.0734 24.5357 30.7766C25.2389 31.4799 26.1927 31.875 27.1873 31.875H42.8117L40.7023 35.625H3.47794L11.3876 21.5625ZM47.5986 35.625L57.1873 18.5784V35.625H47.5986Z" fill="black"/>
<path d="M35.7207 21.1106L39.4099 14.5528L41.0423 15.4711L37.353 22.0289L35.7207 21.1106Z" fill="black"/>
<path d="M46.0513 16.0798L48.5108 11.7029L50.1449 12.6212L47.6855 16.9981L46.0513 16.0798Z" fill="black"/>
<path d="M22.6641 11.7341L24.4795 8.50708L26.1118 9.42537L24.2964 12.6524L22.6641 11.7341Z" fill="black"/>
</svg>
