<svg width="60" height="60" viewBox="0 0 60 60" fill="none" xmlns="http://www.w3.org/2000/svg">
<path d="M42.3718 36.5239C42.3718 36.6554 42.3694 36.787 42.3647 36.9185L39.1513 38.7624L37.1551 42.2711C37.0121 42.5227 36.8955 42.788 36.7744 43.0499L34.5716 43.0396L34.9478 39.4603L31.9213 38.1702L29.1428 34.5206L31.5071 31.1214L29.9286 30.7879L31.1331 28.5864L33.0404 28.4617L33.5192 26.5798L35.4599 25.1133C39.5691 27.2631 42.3718 31.5658 42.3718 36.5239Z" fill="#49CB5C"/>
<path d="M50.0943 46.731C51.3682 46.731 52.402 47.7636 52.402 49.0386C52.402 50.3136 51.3682 51.3463 50.0943 51.3463C48.8193 51.3463 47.7866 50.3136 47.7866 49.0386C47.7866 47.7636 48.8194 46.731 50.0943 46.731Z" fill="#FD6814"/>
<path d="M10.2868 15C12.5171 15 14.3252 13.1919 14.3252 10.9616C14.3252 8.73118 12.5171 6.9231 10.2868 6.9231C8.05637 6.9231 6.24829 8.73118 6.24829 10.9616C6.24829 13.1919 8.05637 15 10.2868 15Z" fill="#FD6814"/>
<path d="M37.6768 33.2978L38.8769 35.0978L37.0768 36.8978L35.2768 35.6978L34.6768 33.2978L36.4769 30.2966L37.6768 33.2978Z" fill="#89C8FD"/>
<path d="M54.4213 15.577C54.8992 15.577 55.2867 15.1895 55.2867 14.7116C55.2867 14.2336 54.8992 13.8462 54.4213 13.8462C53.9434 13.8462 53.5559 14.2336 53.5559 14.7116C53.5559 15.1895 53.9434 15.577 54.4213 15.577Z" fill="#E867FF"/>
<path d="M54.4213 39.8077C54.8992 39.8077 55.2867 39.4202 55.2867 38.9423C55.2867 38.4644 54.8992 38.0769 54.4213 38.0769C53.9434 38.0769 53.5559 38.4644 53.5559 38.9423C53.5559 39.4202 53.9434 39.8077 54.4213 39.8077Z" fill="#E867FF"/>
<path d="M53.1465 25.3789C54.388 26.3193 54.5138 28.1412 53.4119 29.2431L53.4072 29.2477C52.5004 30.1546 51.0638 30.2539 50.0403 29.4796L29.6657 14.0539L9.39262 29.1381C8.36339 29.9029 6.93897 29.7896 6.04301 28.8935C4.93416 27.7858 5.06801 25.9523 6.3257 25.0166L29.6967 7.62695L43.7483 18.2643V14.0989C43.7483 12.525 45.0094 11.2454 46.5764 11.2154C48.1942 11.1843 49.5175 12.547 49.5175 14.1646V22.6316L53.1465 25.3789Z" fill="#FD646F"/>
<path d="M45.1906 31.1539C45.6685 31.1539 46.056 30.7664 46.056 30.2885C46.056 29.8105 45.6685 29.4231 45.1906 29.4231C44.7126 29.4231 44.3252 29.8105 44.3252 30.2885C44.3252 30.7664 44.7126 31.1539 45.1906 31.1539Z" fill="#E867FF"/>
<path d="M42.3058 54.8077C42.7838 54.8077 43.1712 54.4202 43.1712 53.9423C43.1712 53.4644 42.7838 53.0769 42.3058 53.0769C41.8279 53.0769 41.4404 53.4644 41.4404 53.9423C41.4404 54.4202 41.8279 54.8077 42.3058 54.8077Z" fill="#E867FF"/>
<path d="M39.1513 38.7625L42.3648 36.9186C42.1571 43.8441 36.479 49.394 29.503 49.394C27.463 49.394 25.5337 48.9198 23.8191 48.0729L25.3272 43.1148L26.908 41.6562L23.9207 40.5739L22.2626 38.7094L19.3999 37.7967V35.3079L22.8857 31.6536L24.5022 31.4886L24.4641 29.9552L25.2095 29.1647L25.1253 27.7558L26.5791 27.2966L27.2022 28.5854L30.4768 26.0966L29.8744 23.6597C31.8857 23.7162 33.7825 24.2343 35.4602 25.1135L33.5195 26.5801L33.0407 28.462L31.1334 28.5866L29.9289 30.7881L31.5073 31.1216L29.1431 34.5208L31.9216 38.1704L34.9481 39.4606L34.5718 43.0398L36.7746 43.0502C36.8958 42.7882 37.0123 42.523 37.1554 42.2713L39.1513 38.7625Z" fill="#89C8FD"/>
<path d="M39.9982 6.92315C40.4761 6.92315 40.8636 6.53571 40.8636 6.05777C40.8636 5.57983 40.4761 5.19238 39.9982 5.19238C39.5203 5.19238 39.1328 5.57983 39.1328 6.05777C39.1328 6.53571 39.5203 6.92315 39.9982 6.92315Z" fill="#E867FF"/>
<path d="M29.8745 23.6596L30.4769 26.0965L27.2023 28.5853L26.5792 27.2965L25.1254 27.7557L25.2096 29.1646L24.4642 29.9551L24.5023 31.4885L22.8857 31.6535L19.4 35.3077V37.7965L22.2627 38.7092L23.9207 40.5737L26.9081 41.656L25.3273 43.1146L23.8192 48.0727C19.5615 45.975 16.6331 41.5915 16.6331 36.5238C16.6331 29.4161 22.3954 23.6538 29.5031 23.6538C29.6277 23.6538 29.7511 23.6561 29.8745 23.6596Z" fill="#49CB5C"/>
<path d="M19.8061 8.07696C20.284 8.07696 20.6714 7.68951 20.6714 7.21158C20.6714 6.73364 20.284 6.34619 19.8061 6.34619C19.3281 6.34619 18.9407 6.73364 18.9407 7.21158C18.9407 7.68951 19.3281 8.07696 19.8061 8.07696Z" fill="#E867FF"/>
<path d="M12.883 51.3462C13.3609 51.3462 13.7483 50.9588 13.7483 50.4809C13.7483 50.0029 13.3609 49.6155 12.883 49.6155C12.405 49.6155 12.0176 50.0029 12.0176 50.4809C12.0176 50.9588 12.405 51.3462 12.883 51.3462Z" fill="#E867FF"/>
<path d="M6.53677 36.3462C7.01471 36.3462 7.40216 35.9588 7.40216 35.4809C7.40216 35.0029 7.01471 34.6155 6.53677 34.6155C6.05883 34.6155 5.67139 35.0029 5.67139 35.4809C5.67139 35.9588 6.05883 36.3462 6.53677 36.3462Z" fill="#E867FF"/>
<path d="M5.95987 19.6155C6.43781 19.6155 6.82525 19.2281 6.82525 18.7502C6.82525 18.2722 6.43781 17.8848 5.95987 17.8848C5.48193 17.8848 5.09448 18.2722 5.09448 18.7502C5.09448 19.2281 5.48193 19.6155 5.95987 19.6155Z" fill="#E867FF"/>
<path d="M51.5901 30.5772C51.59 30.5772 51.59 30.5772 51.5899 30.5772C50.8996 30.5771 50.2432 30.3568 49.6922 29.9398L29.6625 14.7753L9.73701 29.6009C9.1894 30.0078 8.54059 30.2228 7.86028 30.2228C7.01936 30.2228 6.22909 29.8956 5.63498 29.3015C4.98813 28.6552 4.65501 27.7614 4.72148 26.8493C4.78782 25.9368 5.24705 25.1001 5.98125 24.5538L29.3524 7.16414C29.5582 7.01102 29.8404 7.01206 30.0451 7.16702L43.1714 17.1039V14.0989C43.1714 12.2266 44.6939 10.6744 46.5654 10.6386C46.5872 10.6381 46.609 10.638 46.6308 10.638C48.5407 10.638 50.0945 12.2201 50.0945 14.1646V22.3448L53.4947 24.9191C54.2196 25.4682 54.6711 26.3037 54.7336 27.2113C54.7959 28.1189 54.4627 29.0082 53.8198 29.6512C53.2209 30.2498 52.4306 30.5772 51.5901 30.5772ZM29.6657 13.4769C29.7883 13.4769 29.911 13.5159 30.0139 13.5939L50.3885 29.0197C50.7374 29.2837 51.153 29.4233 51.5901 29.4233H51.5902C52.1225 29.4233 52.6229 29.2161 52.9993 28.8397C53.411 28.428 53.6219 27.8649 53.5825 27.2902C53.5429 26.7155 53.2571 26.1864 52.7981 25.8388L49.1695 23.0915C49.0254 22.9824 48.9408 22.8123 48.9408 22.6316V14.1646C48.9408 12.8784 47.8831 11.7919 46.6309 11.7919L46.5876 11.7922C45.3401 11.8161 44.3254 12.8509 44.3254 14.0989V18.2643C44.3254 18.4833 44.2015 18.6833 44.0054 18.7808C43.8095 18.8784 43.5751 18.8565 43.4004 18.7242L29.6938 8.34833L6.67009 25.4794C6.20509 25.8254 5.91432 26.3551 5.87221 26.933C5.83021 27.5103 6.04101 28.0761 6.45063 28.4854C6.82701 28.8618 7.32755 29.069 7.86017 29.069C8.29067 29.069 8.70155 28.9328 9.0484 28.6751L29.3211 13.5911C29.4235 13.5149 29.5445 13.4769 29.6657 13.4769Z" fill="black"/>
<path d="M23.819 48.6503C23.5004 48.6503 23.2421 48.3926 23.2421 48.0739C23.2421 48.017 23.2505 47.9593 23.267 47.9049L24.7751 42.9468C24.805 42.8486 24.8605 42.7602 24.9358 42.6906L25.8193 41.8755L23.7239 41.1163C23.6337 41.0837 23.5532 41.029 23.4894 40.9572L21.9364 39.211L19.2244 38.3463C18.9852 38.27 18.8228 38.0478 18.8228 37.7966V35.3078C18.8228 35.1595 18.8799 35.0169 18.9822 34.9096L22.468 31.2553C22.5628 31.1559 22.6901 31.0936 22.8268 31.0796L23.9119 30.9689L23.8871 29.9695C23.8833 29.8174 23.9398 29.6699 24.0441 29.5594L24.6185 28.9503L24.5492 27.7903C24.5334 27.5263 24.6992 27.2854 24.9513 27.2058L26.4051 26.7466C26.6785 26.6603 26.9735 26.7875 27.0983 27.0455L27.4144 27.6994L29.8255 25.8669L29.3141 23.7981C29.2376 23.4888 29.4265 23.1761 29.7357 23.0996C30.0449 23.0229 30.3578 23.2119 30.4343 23.5212L31.0366 25.9581C31.0918 26.1816 31.009 26.4166 30.8256 26.5558L27.551 29.0447C27.4133 29.1494 27.2357 29.1867 27.0674 29.1464C26.8992 29.1061 26.7579 28.9924 26.6825 28.8365L26.2766 27.997L25.7277 28.1703L25.7852 29.1301C25.7946 29.2888 25.7381 29.4446 25.6289 29.5603L25.0465 30.1781L25.0787 31.4741C25.0862 31.7754 24.8604 32.0318 24.5605 32.0624L23.1558 32.2058L19.9765 35.5386V37.3749L22.4375 38.1596C22.5362 38.191 22.6246 38.2486 22.6933 38.3259L24.2543 40.0811L27.104 41.1136C27.2934 41.1822 27.4333 41.3446 27.473 41.5421C27.5128 41.7395 27.4467 41.9435 27.2987 42.08L25.8331 43.4323L24.3744 48.2277C24.3071 48.4713 24.0839 48.6503 23.819 48.6503Z" fill="black"/>
<path d="M36.7744 43.6269C36.7735 43.6269 36.7726 43.6269 36.7718 43.6269L34.569 43.6165C34.4059 43.6157 34.2509 43.546 34.1421 43.4247C34.0334 43.3033 33.981 43.1415 33.9979 42.9794L34.3296 39.8241L31.6952 38.7012C31.6031 38.6619 31.5229 38.5995 31.4622 38.5199L28.6838 34.8703C28.5322 34.6711 28.5263 34.3969 28.6692 34.1915L30.5369 31.5064L29.8095 31.3527C29.631 31.315 29.4807 31.195 29.4045 31.0292C29.3282 30.8634 29.3349 30.6713 29.4226 30.5113L30.6272 28.3097C30.7219 28.1365 30.8987 28.0238 31.0957 28.011L32.5848 27.9137L32.9604 26.4379C32.9926 26.3109 33.0672 26.1988 33.1717 26.1199L35.1123 24.6533C35.3665 24.4612 35.7285 24.5115 35.9205 24.7658C36.1126 25.02 36.0623 25.3817 35.808 25.5739L34.0286 26.9184L33.5996 28.6043C33.538 28.8465 33.3274 29.0214 33.0781 29.0377L31.4871 29.1417L30.8072 30.3841L31.6262 30.5572C31.8156 30.5971 31.972 30.7292 32.0433 30.909C32.1145 31.0888 32.091 31.2923 31.9807 31.4511L29.8562 34.5055L32.2878 37.6996L35.1739 38.9299C35.4071 39.0292 35.548 39.2689 35.5216 39.5209L35.212 42.4658L36.406 42.4715C36.4815 42.3105 36.5618 42.1476 36.6536 41.9862L38.6499 38.4772C38.7008 38.3877 38.7749 38.3134 38.8642 38.2621L42.0669 36.4244C42.2937 36.2873 42.5931 36.3208 42.7831 36.5202C43.0028 36.7509 42.9945 37.1154 42.7638 37.3352L42.7626 37.3364C42.7291 37.3682 42.6919 37.396 42.6518 37.419L39.5749 39.1846L37.6566 42.5566C37.5486 42.7465 37.4551 42.9503 37.3561 43.1662L37.2981 43.2924C37.2037 43.4963 36.9992 43.6269 36.7744 43.6269Z" fill="black"/>
<path d="M37.0765 37.4748C36.9657 37.4748 36.8542 37.443 36.7567 37.3778L34.9567 36.1778C34.8373 36.0983 34.7519 35.9769 34.717 35.8378L34.117 33.4378C34.08 33.2894 34.1033 33.1324 34.182 33.0012L35.9821 30C36.0949 29.8119 36.3035 29.7039 36.523 29.7216C36.7416 29.7391 36.9313 29.879 37.0126 30.0825L38.1902 33.0278L39.3569 34.7778C39.5094 35.0066 39.4793 35.3113 39.2848 35.5057L37.4848 37.3058C37.3731 37.4173 37.2254 37.4748 37.0765 37.4748ZM35.7823 35.3415L37.0032 36.1555L38.1343 35.0243L37.1967 33.6179C37.1745 33.5847 37.1558 33.5491 37.1411 33.5121L36.373 31.5914L35.2944 33.3898L35.7823 35.3415Z" fill="black"/>
<path d="M29.5031 49.9707C27.417 49.9707 25.4188 49.5062 23.5637 48.5899C21.3454 47.497 19.4706 45.8134 18.1424 43.7212C16.7775 41.5713 16.0562 39.0825 16.0562 36.5238C16.0562 29.1092 22.0885 23.0769 29.5031 23.0769C29.633 23.0769 29.7619 23.0793 29.8907 23.0829C31.9507 23.1408 33.9148 23.6521 35.7282 24.6024C40.1819 26.9325 42.9488 31.5006 42.9488 36.5238C42.9488 36.6621 42.9464 36.8004 42.9416 36.9387C42.8366 40.4408 41.3921 43.7191 38.8744 46.1669C36.3513 48.6198 33.0231 49.9707 29.5031 49.9707ZM29.5031 24.2308C22.7246 24.2308 17.21 29.7454 17.21 36.5238C17.21 41.2423 19.8402 45.4691 24.0742 47.5551C25.7695 48.3924 27.5959 48.8169 29.5031 48.8169C36.1916 48.8169 41.5879 43.5829 41.7883 36.9011C41.7927 36.7734 41.795 36.6486 41.795 36.5237C41.795 31.9313 39.2652 27.7549 35.1929 25.6245C33.536 24.7562 31.7413 24.2891 29.8583 24.2362C29.7404 24.2331 29.6224 24.2308 29.5031 24.2308Z" fill="black"/>
<path d="M29.5029 53.4324C20.1796 53.4324 12.5945 45.8474 12.5945 36.5239C12.5945 36.2053 12.8528 35.947 13.1714 35.947C13.49 35.947 13.7483 36.2053 13.7483 36.5239C13.7483 45.211 20.8158 52.2786 29.5029 52.2786C38.1894 52.2786 45.2564 45.211 45.2564 36.5239C45.2564 36.2053 45.5146 35.947 45.8333 35.947C46.1519 35.947 46.4103 36.2053 46.4103 36.5239C46.4103 45.8474 38.8256 53.4324 29.5029 53.4324Z" fill="black"/>
<path d="M10.2868 15.577C7.74185 15.577 5.67139 13.5065 5.67139 10.9616C5.67139 8.41665 7.74185 6.34619 10.2868 6.34619C12.8317 6.34619 14.9022 8.41665 14.9022 10.9616C14.9022 13.5065 12.8317 15.577 10.2868 15.577ZM10.2868 7.50004C8.37808 7.50004 6.82523 9.05288 6.82523 10.9616C6.82523 12.8703 8.37808 14.4231 10.2868 14.4231C12.1955 14.4231 13.7483 12.8703 13.7483 10.9616C13.7483 9.05288 12.1955 7.50004 10.2868 7.50004Z" fill="black"/>
<path d="M50.0943 51.923C48.5038 51.923 47.2097 50.629 47.2097 49.0384C47.2097 47.4478 48.5038 46.1538 50.0943 46.1538C51.6849 46.1538 52.9789 47.4478 52.9789 49.0384C52.9789 50.629 51.685 51.923 50.0943 51.923ZM50.0943 47.3077C49.14 47.3077 48.3636 48.0841 48.3636 49.0384C48.3636 49.9928 49.14 50.7692 50.0943 50.7692C51.0487 50.7692 51.8251 49.9928 51.8251 49.0384C51.8251 48.0841 51.0488 47.3077 50.0943 47.3077Z" fill="black"/>
</svg>
