<svg width="60" height="60" viewBox="0 0 60 60" fill="none" xmlns="http://www.w3.org/2000/svg">
<g clip-path="url(#clip0_2263_6905)">
<path d="M57.8743 47.1509C57.2258 43.2631 54.4999 40.073 50.7607 38.8263L42.4574 36.0589V34.8247H40.5276V36.5124L33.773 49.1782L27.0184 36.5134V34.8247H25.0885V36.9958L32.808 51.4699V53.1586H21.2287V55.0885H32.808V57.9833H18.4623L19.2323 51.8221C20.4761 51.0039 21.2287 49.623 21.2287 48.1061V47.3689H19.2989V48.1061C19.2989 49.0692 18.7633 49.9357 17.9026 50.366L17.4404 50.5967L16.5169 57.9833H9.82315L10.9222 51.3869L9.01839 51.0704L7.54492 59.9132H60.0001L57.8743 47.1509ZM34.7379 57.9833V55.0885H46.3172V53.1586H34.7379V51.4699L41.9605 37.928L46.3172 39.3792V48.1052C46.3172 49.6221 47.0699 51.0029 48.3137 51.8221L49.0837 57.9833H34.7379ZM51.029 57.9833L50.1055 50.5967L49.6433 50.366C48.7826 49.9347 48.2471 49.0692 48.2471 48.1061V40.0228L50.1499 40.6568C53.2098 41.6777 55.4397 44.2879 55.9705 47.4683L57.7218 57.9833H51.029Z" fill="#E63A27"/>
<path d="M17.3687 21.3156C17.3687 23.7916 19.2504 25.8142 21.655 26.0863C22.1471 27.7797 23.0561 29.3323 24.3375 30.6138L28.0999 34.3761C29.0108 35.287 30.2227 35.7897 31.5119 35.7897H36.0336C37.3228 35.7897 38.5347 35.287 39.4456 34.3761L43.2079 30.6138C44.4894 29.3323 45.3974 27.7797 45.8905 26.0863C48.2951 25.8142 50.1767 23.7916 50.1767 21.3156C50.1767 20.2252 49.7994 19.2294 49.1867 18.4208H51.1417V12.6311H48.1089C47.3417 6.9351 43.1838 2.16926 37.6325 0.631141V0.0869141H29.913V0.631141C24.3626 2.16926 20.2047 6.9351 19.4366 12.6311H16.4038V18.4208H18.3588C17.746 19.2294 17.3687 20.2252 17.3687 21.3156ZM19.2986 21.3156C19.2986 20.0593 20.1082 18.9978 21.2285 18.5983V23.1075C21.2285 23.423 21.2468 23.7357 21.2739 24.0464C20.1304 23.6604 19.2986 22.5884 19.2986 21.3156ZM44.3871 23.1075C44.3871 25.4282 43.4829 27.608 41.8435 29.2493L38.0812 33.0117C37.5341 33.5588 36.8075 33.8598 36.0336 33.8598H31.5119C30.738 33.8598 30.0104 33.5588 29.4643 33.0117L25.702 29.2493C24.0625 27.6089 23.1584 25.4282 23.1584 23.1085V18.4208H44.3871V23.1075ZM46.2716 24.0464C46.2986 23.7357 46.317 23.424 46.317 23.1075V18.5983C47.4373 18.9978 48.2468 20.0593 48.2468 21.3156C48.2468 22.5884 47.4151 23.6604 46.2716 24.0464ZM29.913 2.64015V10.7013H31.8429V2.0168H35.7026V10.7013H37.6325V2.64015C42.104 4.09045 45.4427 7.98495 46.1684 12.6311H21.3771C22.1037 7.98399 25.4414 4.09045 29.913 2.64015ZM18.3337 16.4909V14.561H49.2118V16.4909H18.3337Z" fill="#E63A27"/>
<path d="M41.4924 8.77148H39.5625V10.7014H41.4924V8.77148Z" fill="#E63A27"/>
<path d="M27.9831 8.77148H26.0532V10.7014H27.9831V8.77148Z" fill="#E63A27"/>
<path d="M8.85913 49.299H14.3004L14.7993 46.8113C15.1187 46.6994 15.4313 46.5701 15.7353 46.4263L17.8456 47.8322L21.6928 43.985L20.2869 41.8747C20.4307 41.5717 20.56 41.2581 20.6719 40.9387L23.1586 40.4398V34.9985L20.671 34.4997C20.4905 33.9892 20.2705 33.4971 20.011 33.032L18.3242 33.9709C18.607 34.4775 18.8328 35.0265 18.9958 35.5997L19.1579 36.1651L21.2287 36.5801V38.8583L19.1579 39.2732L18.9958 39.8387C18.8328 40.4128 18.607 40.9609 18.3242 41.4675L18.0376 41.9818L19.2072 43.7361L17.5967 45.3466L15.8424 44.177L15.3281 44.4636C14.8215 44.7464 14.2724 44.9722 13.6993 45.1352L13.1338 45.2964L12.7189 47.3691H10.4407L10.0257 45.2983L9.46029 45.1372C8.88615 44.9741 8.33807 44.7483 7.83147 44.4656L7.31716 44.179L5.5629 45.3485L3.39275 43.1793L2.02832 44.5437L5.31587 47.8322L7.4262 46.4263C7.72919 46.5701 8.04279 46.6994 8.36219 46.8113L8.85913 49.299Z" fill="#E63A27"/>
<path d="M3.14764 42.4064L4.83435 41.4675C4.55162 40.9609 4.32583 40.4118 4.16275 39.8387L4.00064 39.2732L1.92988 38.8593V36.581L4.00064 36.1661L4.16275 35.6007C4.32583 35.0265 4.55162 34.4784 4.83435 33.9718L5.12094 33.4575L3.95143 31.7033L5.56192 30.0928L7.31618 31.2623L7.83049 30.9757C8.33709 30.693 8.88614 30.4672 9.45931 30.3041L10.0248 30.143L10.4397 28.0703H12.7179L13.1328 30.141L13.6983 30.3022C14.2724 30.4652 14.8205 30.691 15.3271 30.9738L15.8414 31.2604L17.5957 30.0908L19.7658 32.26L21.1303 30.8956L17.8427 27.6071L15.7324 29.013C15.4294 28.8692 15.1158 28.7399 14.7964 28.628L14.2995 26.1404H8.85815L8.35928 28.628C8.03988 28.7399 7.72724 28.8692 7.42329 29.013L5.31296 27.6071L1.46574 31.4543L2.87166 33.5646C2.72789 33.8676 2.59858 34.1812 2.48665 34.5006L0 34.9995V40.4408L2.48762 40.9397C2.66806 41.4492 2.88807 41.9413 3.14764 42.4064Z" fill="#E63A27"/>
<path d="M11.5791 32.8948C8.91876 32.8948 6.75439 35.0591 6.75439 37.7195C6.75439 40.3798 8.91876 42.5442 11.5791 42.5442C14.2394 42.5442 16.4038 40.3798 16.4038 37.7195C16.4038 35.0591 14.2394 32.8948 11.5791 32.8948ZM11.5791 40.6143C9.98309 40.6143 8.68428 39.3155 8.68428 37.7195C8.68428 36.1235 9.98309 34.8247 11.5791 34.8247C13.1751 34.8247 14.4739 36.1235 14.4739 37.7195C14.4739 39.3155 13.1751 40.6143 11.5791 40.6143Z" fill="#E63A27"/>
</g>
<defs>
<clipPath id="clip0_2263_6905">
<rect width="60" height="60" fill="white"/>
</clipPath>
</defs>
</svg>
