<svg width="50" height="50" viewBox="0 0 50 50" fill="none" xmlns="http://www.w3.org/2000/svg">
<path d="M41.1137 0C37.9332 0 34.5735 0.672586 33.0569 2.1133C31.5403 0.672049 28.1806 0 25 0C21.8194 0 18.4597 0.672586 16.9431 2.1133C15.4265 0.672049 12.0668 0 8.88626 0C4.60664 0 0 1.21634 0 3.88629V49.0606C0 49.3098 0.0873811 49.5487 0.242921 49.7249C0.39846 49.901 0.609418 50 0.829384 50C1.04935 50 1.26031 49.901 1.41585 49.7249C1.57139 49.5487 1.65877 49.3098 1.65877 49.0606C1.65877 48.5931 3.91185 47.0531 8.88626 47.0531C13.8607 47.0531 16.1137 48.5931 16.1137 49.0606C16.1137 49.3098 16.2011 49.5487 16.3567 49.7249C16.5122 49.901 16.7232 50 16.9431 50C17.1631 50 17.3741 49.901 17.5296 49.7249C17.6851 49.5487 17.7725 49.3098 17.7725 49.0606C17.7725 48.5931 20.0256 47.0531 25 47.0531C29.9744 47.0531 32.2275 48.5931 32.2275 49.0606C32.2275 49.3098 32.3149 49.5487 32.4704 49.7249C32.6259 49.901 32.8369 50 33.0569 50C33.2768 50 33.4878 49.901 33.6433 49.7249C33.7989 49.5487 33.8863 49.3098 33.8863 49.0606C33.8863 48.5931 36.1393 47.0531 41.1137 47.0531C46.0882 47.0531 48.3412 48.5931 48.3412 49.0606C48.3412 49.3098 48.4286 49.5487 48.5842 49.7249C48.7397 49.901 48.9506 50 49.1706 50C49.3906 50 49.6015 49.901 49.7571 49.7249C49.9126 49.5487 50 49.3098 50 49.0606V3.88629C50 1.21634 45.3934 0 41.1137 0ZM41.1137 1.87873C46.09 1.87873 48.3412 3.41875 48.3412 3.88629V24.1841C46.6175 23.1642 43.8014 22.6865 41.1137 22.6865C38.4261 22.6865 35.61 23.1664 33.8863 24.1841V3.88629C33.8863 3.41875 36.1374 1.87873 41.1137 1.87873ZM25 1.87873C29.9763 1.87873 32.2275 3.41875 32.2275 3.88629V23.986C30.5038 22.9661 27.6877 22.4879 25 22.4879C22.3123 22.4879 19.4962 22.9677 17.7725 23.986V3.88629C17.7725 3.41875 20.0237 1.87873 25 1.87873ZM8.88626 1.87873C13.8626 1.87873 16.1137 3.41875 16.1137 3.88629V23.986C14.39 22.9661 11.5739 22.4879 8.88626 22.4879C6.19858 22.4879 3.38246 22.9677 1.65877 23.986V3.88629C1.65877 3.41875 3.90995 1.87873 8.88626 1.87873ZM8.88626 45.1743C6.19858 45.1743 3.38246 45.6542 1.65877 46.672V26.3742C1.65877 25.9066 3.91185 24.3666 8.88626 24.3666C13.8607 24.3666 16.1137 25.9066 16.1137 26.3742V46.673C14.39 45.6542 11.5739 45.1743 8.88626 45.1743ZM25 45.1743C22.3123 45.1743 19.4962 45.6542 17.7725 46.672V26.3742C17.7725 25.9066 20.0256 24.3666 25 24.3666C29.9744 24.3666 32.2275 25.9066 32.2275 26.3742V46.672C30.5038 45.6542 27.6877 45.1743 25 45.1743ZM48.3412 46.672C46.6175 45.6521 43.8014 45.1743 41.1137 45.1743C38.4261 45.1743 35.61 45.6542 33.8863 46.6725V26.5728C33.8863 26.1052 36.1393 24.5652 41.1137 24.5652C46.0882 24.5652 48.3412 26.1052 48.3412 26.5728V46.672Z" fill="#E63A27"/>
<path d="M4.6204 16.4082C4.84037 16.4082 5.05132 16.3092 5.20686 16.1331C5.3624 15.9569 5.44978 15.718 5.44978 15.4688V5.00162C5.44978 4.75249 5.3624 4.51356 5.20686 4.33739C5.05132 4.16122 4.84037 4.06226 4.6204 4.06226C4.40043 4.06226 4.18948 4.16122 4.03394 4.33739C3.8784 4.51356 3.79102 4.75249 3.79102 5.00162V15.4688C3.79102 15.718 3.8784 15.9569 4.03394 16.1331C4.18948 16.3092 4.40043 16.4082 4.6204 16.4082Z" fill="#E63A27"/>
<path d="M4.6204 20.6135C4.84037 20.6135 5.05132 20.5145 5.20686 20.3383C5.3624 20.1622 5.44978 19.9232 5.44978 19.6741V18.5109C5.44978 18.2618 5.3624 18.0228 5.20686 17.8467C5.05132 17.6705 4.84037 17.5715 4.6204 17.5715C4.40043 17.5715 4.18948 17.6705 4.03394 17.8467C3.8784 18.0228 3.79102 18.2618 3.79102 18.5109V19.6741C3.79102 19.9232 3.8784 20.1622 4.03394 20.3383C4.18948 20.5145 4.40043 20.6135 4.6204 20.6135Z" fill="#E63A27"/>
<path d="M20.7347 27.4574C20.5147 27.4574 20.3037 27.5564 20.1482 27.7325C19.9927 27.9087 19.9053 28.1476 19.9053 28.3968V41.4137C19.9053 41.6628 19.9927 41.9017 20.1482 42.0779C20.3037 42.2541 20.5147 42.353 20.7347 42.353C20.9546 42.353 21.1656 42.2541 21.3211 42.0779C21.4767 41.9017 21.564 41.6628 21.564 41.4137V28.3968C21.564 28.1476 21.4767 27.9087 21.3211 27.7325C21.1656 27.5564 20.9546 27.4574 20.7347 27.4574Z" fill="#E63A27"/>
</svg>
