<svg width="50" height="50" viewBox="0 0 50 50" fill="none" xmlns="http://www.w3.org/2000/svg">
<path d="M7.03125 3.90527C5.31463 3.90527 3.90625 5.31359 3.90625 7.03023C3.90625 8.74685 5.31463 10.1552 7.03125 10.1552C8.47681 10.1552 9.69188 9.15196 10.0433 7.81149H16.4063V11.5469C13.086 14.1209 10.9375 18.1362 10.9375 22.6553C10.9375 23.7316 11.0693 24.7759 11.2991 25.7833H7.02973C7.00482 25.7821 6.97987 25.7821 6.95496 25.7833C6.76204 25.8026 6.58318 25.8929 6.45317 26.0367C6.32315 26.1805 6.25128 26.3676 6.25152 26.5615V35.2666C4.91014 35.6174 3.90625 36.8341 3.90625 38.2803C3.90625 39.9969 5.31463 41.4052 7.03125 41.4052C8.74789 41.4052 10.1563 39.9969 10.1563 38.2803C10.1563 36.8352 9.15377 35.6201 7.81402 35.2681V27.3397H11.7569C13.6086 32.5608 18.4503 36.3602 24.2218 36.6781V39.9542C22.8797 40.3045 21.875 41.521 21.875 42.9677C21.875 44.6844 23.2834 46.0928 25 46.0928C26.7166 46.0928 28.125 44.6844 28.125 42.9677C28.125 41.521 27.1203 40.3045 25.7782 39.9542V36.6781C31.5487 36.3602 36.3907 32.5624 38.2431 27.3428H42.1875V35.2681C40.847 35.6196 39.8438 36.8347 39.8438 38.2803C39.8438 39.9969 41.2521 41.4052 42.9688 41.4052C44.6854 41.4052 46.0938 39.9969 46.0938 38.2803C46.0938 36.8347 45.0904 35.6196 43.75 35.2681V26.5615C43.7484 26.1298 43.4004 25.7784 42.9688 25.7802H38.7009C38.9302 24.7737 39.0625 23.7305 39.0625 22.6553C39.0625 18.1362 36.914 14.1209 33.5938 11.5469V7.81149H39.9567C40.3081 9.15196 41.5232 10.1552 42.9688 10.1552C44.6854 10.1552 46.0938 8.74685 46.0938 7.03023C46.0938 5.31359 44.6854 3.90527 42.9688 3.90527C41.5232 3.90527 40.3081 4.90851 39.9567 6.24897H32.8125C32.3808 6.24717 32.0326 6.59857 32.0313 7.03023V10.4955C29.9601 9.29368 27.5633 8.59276 25 8.59276C22.4367 8.59276 20.0399 9.29368 17.9688 10.4955V7.03023C17.9672 6.59857 17.6192 6.24717 17.1875 6.24897H10.0433C9.69188 4.90851 8.47681 3.90527 7.03125 3.90527ZM7.03125 5.46771C7.90346 5.46771 8.59375 6.15802 8.59375 7.03023C8.59375 7.90242 7.90346 8.59276 7.03125 8.59276C6.15906 8.59276 5.46875 7.90242 5.46875 7.03023C5.46875 6.15802 6.15906 5.46771 7.03125 5.46771ZM42.9688 5.46771C43.8409 5.46771 44.5313 6.15802 44.5313 7.03023C44.5313 7.90242 43.8409 8.59276 42.9688 8.59276C42.0965 8.59276 41.4063 7.90242 41.4063 7.03023C41.4063 6.15802 42.0965 5.46771 42.9688 5.46771ZM25 10.1552C31.9128 10.1552 37.5 15.7425 37.5 22.6553C37.5 29.5681 31.9128 35.1552 25 35.1552C18.0872 35.1552 12.5 29.5681 12.5 22.6553C12.5 15.7425 18.0872 10.1552 25 10.1552ZM7.03125 36.7177C7.90346 36.7177 8.59375 37.4081 8.59375 38.2803C8.59375 39.1524 7.90346 39.8428 7.03125 39.8428C6.15906 39.8428 5.46875 39.1524 5.46875 38.2803C5.46875 37.4081 6.15906 36.7177 7.03125 36.7177ZM42.9688 36.7177C43.8409 36.7177 44.5313 37.4081 44.5313 38.2803C44.5313 39.1524 43.8409 39.8428 42.9688 39.8428C42.0965 39.8428 41.4063 39.1524 41.4063 38.2803C41.4063 37.4081 42.0965 36.7177 42.9688 36.7177ZM25 41.4052C25.8722 41.4052 26.5625 42.0956 26.5625 42.9677C26.5625 43.84 25.8722 44.5303 25 44.5303C24.1278 44.5303 23.4375 43.84 23.4375 42.9677C23.4375 42.0956 24.1278 41.4052 25 41.4052Z" fill="#E63A27"/>
<path d="M25 11.7178C24.7921 11.7178 24.5898 11.8034 24.4461 11.9481L17.4164 18.9778C17.1875 19.2079 17.1875 19.5302 17.1875 19.5302C17.1875 19.5302 17.1875 20.3115 17.9687 20.3115H18.75V31.249C18.7516 31.6806 19.0996 32.0319 19.5312 32.0302H30.4688C30.9004 32.0318 31.2485 31.6806 31.25 31.249C31.25 27.6031 31.25 23.9573 31.25 20.3115H32.0312C32.8125 20.3115 32.8125 19.5302 32.8125 19.5302C32.8125 19.5302 32.8125 19.2079 32.5836 18.9778L25.5539 11.9481C25.4045 11.7978 25.2124 11.7178 25 11.7178ZM25 13.6023L30.1392 18.7475H19.8624L25 13.6023ZM20.3125 20.3116H21.875V27.3428H20.3125V20.3116ZM23.4375 20.3116H26.5625V27.3428H23.4375V20.3116ZM28.125 20.3116H29.6875V27.3428L28.125 27.3399V20.3116ZM20.3125 28.9053H29.6875V30.4678H20.3125V28.9053Z" fill="#E63A27"/>
<path d="M25 3.90515C25.1026 3.90515 25.2042 3.92536 25.299 3.96462C25.3938 4.00389 25.4799 4.06149 25.5524 4.13403C25.625 4.20658 25.6825 4.29273 25.7218 4.38752C25.7611 4.4823 25.7813 4.5839 25.7813 4.6865C25.7813 4.7891 25.7611 4.89061 25.7218 4.9854C25.6825 5.08019 25.625 5.16634 25.5524 5.23888C25.4799 5.31143 25.3938 5.36903 25.299 5.40829C25.2042 5.44755 25.1026 5.46777 25 5.46777C24.8974 5.46776 24.7958 5.44756 24.701 5.40829C24.6062 5.36903 24.5201 5.31143 24.4476 5.23888C24.375 5.16634 24.3175 5.08019 24.2782 4.9854C24.239 4.89061 24.2187 4.7891 24.2188 4.6865C24.2187 4.58391 24.239 4.4823 24.2782 4.38752C24.3175 4.29273 24.375 4.20658 24.4476 4.13403C24.5201 4.06149 24.6062 4.00389 24.701 3.96462C24.7958 3.92536 24.8974 3.90515 25 3.90515Z" fill="#E63A27"/>
<path d="M21.875 3.90515C21.9776 3.90515 22.0792 3.92536 22.174 3.96462C22.2688 4.00389 22.3549 4.06149 22.4274 4.13403C22.5 4.20658 22.5575 4.29273 22.5968 4.38752C22.6361 4.4823 22.6563 4.5839 22.6563 4.6865C22.6563 4.7891 22.6361 4.89061 22.5968 4.9854C22.5575 5.08019 22.5 5.16634 22.4274 5.23888C22.3549 5.31143 22.2688 5.36903 22.174 5.40829C22.0792 5.44755 21.9776 5.46777 21.875 5.46777C21.7724 5.46776 21.6708 5.44756 21.576 5.40829C21.4812 5.36903 21.3951 5.31143 21.3226 5.23888C21.25 5.16634 21.1925 5.08019 21.1532 4.9854C21.114 4.89061 21.0937 4.7891 21.0938 4.6865C21.0937 4.58391 21.114 4.4823 21.1532 4.38752C21.1925 4.29273 21.25 4.20658 21.3226 4.13403C21.3951 4.06149 21.4812 4.00389 21.576 3.96462C21.6708 3.92536 21.7724 3.90515 21.875 3.90515Z" fill="#E63A27"/>
<path d="M28.125 3.90515C28.2276 3.90515 28.3292 3.92536 28.424 3.96462C28.5188 4.00389 28.6049 4.06149 28.6774 4.13403C28.75 4.20658 28.8075 4.29273 28.8468 4.38752C28.8861 4.4823 28.9063 4.5839 28.9063 4.6865C28.9063 4.7891 28.8861 4.89061 28.8468 4.9854C28.8075 5.08019 28.75 5.16634 28.6774 5.23888C28.6049 5.31143 28.5188 5.36903 28.424 5.40829C28.3292 5.44755 28.2276 5.46777 28.125 5.46777C28.0224 5.46776 27.9208 5.44756 27.826 5.40829C27.7312 5.36903 27.6451 5.31143 27.5726 5.23888C27.5 5.16634 27.4425 5.08019 27.4032 4.9854C27.364 4.89061 27.3437 4.7891 27.3438 4.6865C27.3437 4.58391 27.364 4.4823 27.4032 4.38752C27.4425 4.29273 27.5 4.20658 27.5726 4.13403C27.6451 4.06149 27.7312 4.00389 27.826 3.96462C27.9208 3.92536 28.0224 3.90515 28.125 3.90515Z" fill="#E63A27"/>
<path d="M42.1875 45.3114C42.1875 45.414 42.2077 45.5156 42.247 45.6104C42.2862 45.7052 42.3438 45.7913 42.4163 45.8639C42.4889 45.9364 42.575 45.994 42.6698 46.0333C42.7646 46.0726 42.8661 46.0928 42.9687 46.0928C43.0713 46.0928 43.1729 46.0726 43.2677 46.0333C43.3625 45.994 43.4486 45.9364 43.5212 45.8639C43.5937 45.7913 43.6513 45.7052 43.6905 45.6104C43.7298 45.5156 43.75 45.414 43.75 45.3114C43.75 45.2088 43.7298 45.1073 43.6905 45.0125C43.6513 44.9177 43.5937 44.8316 43.5212 44.759C43.4486 44.6865 43.3625 44.6289 43.2677 44.5896C43.1729 44.5504 43.0713 44.5301 42.9687 44.5302C42.8661 44.5302 42.7646 44.5504 42.6698 44.5896C42.575 44.6289 42.4889 44.6865 42.4163 44.759C42.3438 44.8316 42.2862 44.9177 42.247 45.0125C42.2077 45.1073 42.1875 45.2088 42.1875 45.3114Z" fill="#E63A27"/>
<path d="M40.625 45.3114C40.625 46.0927 39.8437 46.0928 39.8437 46.0928H32.0312C31.5103 46.0928 31.25 45.7022 31.25 45.3114C31.25 44.9207 31.5101 44.5302 32.0312 44.5302H39.8437C39.8437 44.5302 40.625 44.5301 40.625 45.3114Z" fill="#E63A27"/>
<path d="M32.8125 42.1865C32.8125 42.2891 32.7923 42.3907 32.753 42.4855C32.7138 42.5803 32.6562 42.6665 32.5837 42.739C32.5112 42.8116 32.425 42.8691 32.3302 42.9083C32.2355 42.9476 32.1339 42.9678 32.0313 42.9678C31.9287 42.9678 31.8271 42.9476 31.7323 42.9083C31.6375 42.8691 31.5514 42.8116 31.4788 42.739C31.4063 42.6665 31.3487 42.5803 31.3095 42.4855C31.2702 42.3907 31.25 42.2891 31.25 42.1865C31.25 42.0839 31.2702 41.9823 31.3095 41.8875C31.3487 41.7928 31.4063 41.7066 31.4788 41.6341C31.5514 41.5615 31.6375 41.504 31.7323 41.4647C31.8271 41.4255 31.9287 41.4053 32.0313 41.4053C32.1339 41.4053 32.2355 41.4255 32.3302 41.4647C32.425 41.504 32.5112 41.5615 32.5837 41.6341C32.6562 41.7066 32.7138 41.7928 32.753 41.8875C32.7923 41.9823 32.8125 42.0839 32.8125 42.1865Z" fill="#E63A27"/>
<path d="M34.375 42.1865C34.375 42.9678 35.1563 42.9678 35.1563 42.9678H38.2813C38.8022 42.9678 39.0625 42.5772 39.0625 42.1865C39.0625 41.7958 38.8021 41.4053 38.2813 41.4053H35.1563C35.1563 41.4053 34.375 41.4053 34.375 42.1865Z" fill="#E63A27"/>
<path d="M6.25 45.3114C6.25 45.414 6.2702 45.5156 6.30946 45.6104C6.34872 45.7052 6.40627 45.7913 6.47881 45.8639C6.55136 45.9364 6.63748 45.994 6.73227 46.0333C6.82705 46.0726 6.92864 46.0928 7.03124 46.0928C7.13384 46.0928 7.23543 46.0726 7.33022 46.0333C7.42501 45.994 7.51114 45.9364 7.58369 45.8639C7.65623 45.7913 7.71378 45.7052 7.75304 45.6104C7.79231 45.5156 7.81251 45.414 7.81251 45.3114C7.81251 45.2088 7.79231 45.1073 7.75304 45.0125C7.71378 44.9177 7.65623 44.8316 7.58369 44.759C7.51114 44.6865 7.42501 44.6289 7.33022 44.5896C7.23543 44.5504 7.13384 44.5301 7.03124 44.5302C6.92864 44.5302 6.82705 44.5504 6.73227 44.5896C6.63748 44.6289 6.55136 44.6865 6.47881 44.759C6.40627 44.8316 6.34872 44.9177 6.30946 45.0125C6.2702 45.1073 6.25 45.2088 6.25 45.3114Z" fill="#E63A27"/>
<path d="M18.75 45.3114C18.75 46.0927 17.9687 46.0928 17.9687 46.0928H10.1562C9.63526 46.0928 9.375 45.7022 9.375 45.3114C9.375 44.9207 9.63514 44.5302 10.1562 44.5302H17.9687C17.9687 44.5302 18.75 44.5301 18.75 45.3114Z" fill="#E63A27"/>
<path d="M18.75 42.1865C18.75 42.2891 18.7298 42.3907 18.6905 42.4855C18.6513 42.5803 18.5937 42.6665 18.5212 42.739C18.4487 42.8116 18.3625 42.8691 18.2677 42.9083C18.173 42.9476 18.0714 42.9678 17.9688 42.9678C17.8662 42.9678 17.7646 42.9476 17.6698 42.9083C17.575 42.8691 17.4889 42.8116 17.4163 42.739C17.3438 42.6665 17.2862 42.5803 17.247 42.4855C17.2077 42.3907 17.1875 42.2891 17.1875 42.1865C17.1875 42.0839 17.2077 41.9823 17.247 41.8875C17.2862 41.7928 17.3438 41.7066 17.4163 41.6341C17.4889 41.5615 17.575 41.504 17.6698 41.4647C17.7646 41.4255 17.8662 41.4053 17.9688 41.4053C18.0714 41.4053 18.173 41.4255 18.2677 41.4647C18.3625 41.504 18.4487 41.5615 18.5212 41.6341C18.5937 41.7066 18.6513 41.7928 18.6905 41.8875C18.7298 41.9823 18.75 42.0839 18.75 42.1865Z" fill="#E63A27"/>
<path d="M10.9375 42.1865C10.9375 42.9678 11.7188 42.9678 11.7188 42.9678H14.8438C15.3647 42.9678 15.625 42.5772 15.625 42.1865C15.625 41.7958 15.3646 41.4053 14.8438 41.4053H11.7188C11.7188 41.4053 10.9375 41.4053 10.9375 42.1865Z" fill="#E63A27"/>
<path d="M8.59374 18.749C8.69634 18.749 8.79793 18.7692 8.89272 18.8085C8.9875 18.8478 9.07363 18.9053 9.14618 18.9778C9.21872 19.0504 9.27627 19.1365 9.31554 19.2313C9.3548 19.3261 9.37501 19.4277 9.37501 19.5303C9.37501 19.6329 9.35481 19.7345 9.31554 19.8293C9.27628 19.9241 9.21873 20.0102 9.14619 20.0828C9.07364 20.1553 8.98751 20.2128 8.89272 20.2521C8.79793 20.2913 8.69634 20.3116 8.59374 20.3115C8.49114 20.3115 8.38955 20.2913 8.29477 20.2521C8.19998 20.2128 8.11386 20.1552 8.04131 20.0827C7.96877 20.0101 7.91122 19.9241 7.87196 19.8293C7.8327 19.7345 7.8125 19.6329 7.8125 19.5303C7.8125 19.3231 7.89481 19.1243 8.04132 18.9778C8.18783 18.8313 8.38654 18.749 8.59374 18.749Z" fill="#E63A27"/>
<path d="M5.46874 17.1865C5.57134 17.1865 5.67293 17.2066 5.76772 17.2459C5.8625 17.2852 5.94863 17.3428 6.02118 17.4153C6.09372 17.4879 6.15127 17.574 6.19054 17.6688C6.2298 17.7636 6.25001 17.8651 6.25001 17.9677C6.25001 18.0703 6.22981 18.1719 6.19054 18.2667C6.15128 18.3615 6.09373 18.4476 6.02119 18.5202C5.94864 18.5927 5.86251 18.6503 5.76772 18.6896C5.67293 18.7288 5.57134 18.749 5.46874 18.749C5.36614 18.749 5.26455 18.7287 5.16977 18.6895C5.07498 18.6502 4.98886 18.5927 4.91631 18.5202C4.84377 18.4476 4.78622 18.3615 4.74696 18.2667C4.7077 18.1719 4.6875 18.0703 4.6875 17.9677C4.6875 17.7605 4.76981 17.5618 4.91632 17.4153C5.06283 17.2688 5.26154 17.1865 5.46874 17.1865Z" fill="#E63A27"/>
<path d="M44.5312 20.3115C44.6338 20.3115 44.7354 20.3317 44.8302 20.371C44.925 20.4103 45.0111 20.4678 45.0837 20.5403C45.1562 20.6129 45.2138 20.699 45.253 20.7938C45.2923 20.8886 45.3125 20.9902 45.3125 21.0928C45.3125 21.1954 45.2923 21.297 45.253 21.3918C45.2138 21.4866 45.1562 21.5726 45.0837 21.6452C45.0111 21.7177 44.925 21.7753 44.8302 21.8146C44.7354 21.8538 44.6338 21.8741 44.5312 21.874C44.4286 21.874 44.3271 21.8538 44.2323 21.8146C44.1375 21.7753 44.0514 21.7177 43.9788 21.6452C43.9063 21.5726 43.8487 21.4866 43.8095 21.3918C43.7702 21.297 43.75 21.1954 43.75 21.0928C43.75 20.8856 43.8323 20.6868 43.9788 20.5403C44.1253 20.3938 44.324 20.3115 44.5312 20.3115Z" fill="#E63A27"/>
<path d="M41.4062 18.749C41.5088 18.749 41.6104 18.7692 41.7052 18.8085C41.8 18.8478 41.8861 18.9053 41.9587 18.9778C42.0312 19.0504 42.0888 19.1365 42.128 19.2313C42.1673 19.3261 42.1875 19.4277 42.1875 19.5303C42.1875 19.6329 42.1673 19.7345 42.128 19.8293C42.0888 19.9241 42.0312 20.0102 41.9587 20.0828C41.8861 20.1553 41.8 20.2128 41.7052 20.2521C41.6104 20.2913 41.5088 20.3116 41.4062 20.3115C41.3036 20.3115 41.2021 20.2913 41.1073 20.2521C41.0125 20.2128 40.9264 20.1552 40.8538 20.0827C40.7813 20.0101 40.7237 19.9241 40.6845 19.8293C40.6452 19.7345 40.625 19.6329 40.625 19.5303C40.625 19.3231 40.7073 19.1243 40.8538 18.9778C41.0003 18.8313 41.199 18.749 41.4062 18.749Z" fill="#E63A27"/>
<path d="M5.46874 20.3115C5.57134 20.3115 5.67293 20.3317 5.76772 20.371C5.8625 20.4103 5.94863 20.4678 6.02118 20.5403C6.09372 20.6129 6.15127 20.699 6.19054 20.7938C6.2298 20.8886 6.25001 20.9902 6.25001 21.0928C6.25001 21.1954 6.22981 21.297 6.19054 21.3918C6.15128 21.4866 6.09373 21.5726 6.02119 21.6452C5.94864 21.7177 5.86251 21.7753 5.76772 21.8146C5.67293 21.8538 5.57134 21.8741 5.46874 21.874C5.36614 21.874 5.26455 21.8538 5.16977 21.8146C5.07498 21.7753 4.98886 21.7177 4.91631 21.6452C4.84377 21.5726 4.78622 21.4866 4.74696 21.3918C4.7077 21.297 4.6875 21.1954 4.6875 21.0928C4.6875 20.8856 4.76981 20.6868 4.91632 20.5403C5.06283 20.3938 5.26154 20.3115 5.46874 20.3115Z" fill="#E63A27"/>
<path d="M44.5312 17.1865C44.6338 17.1865 44.7354 17.2066 44.8302 17.2459C44.925 17.2852 45.0111 17.3428 45.0837 17.4153C45.1562 17.4879 45.2138 17.574 45.253 17.6688C45.2923 17.7636 45.3125 17.8651 45.3125 17.9677C45.3125 18.0703 45.2923 18.1719 45.253 18.2667C45.2138 18.3615 45.1562 18.4476 45.0837 18.5202C45.0111 18.5927 44.925 18.6503 44.8302 18.6896C44.7354 18.7288 44.6338 18.749 44.5312 18.749C44.4286 18.749 44.3271 18.7287 44.2323 18.6895C44.1375 18.6502 44.0514 18.5927 43.9788 18.5202C43.9063 18.4476 43.8487 18.3615 43.8095 18.2667C43.7702 18.1719 43.75 18.0703 43.75 17.9677C43.75 17.7605 43.8323 17.5618 43.9788 17.4153C44.1253 17.2688 44.324 17.1865 44.5312 17.1865Z" fill="#E63A27"/>
</svg>
