<svg width="60" height="60" viewBox="0 0 60 60" fill="none" xmlns="http://www.w3.org/2000/svg">
<path d="M8.4375 4.68628C6.37756 4.68628 4.6875 6.37626 4.6875 8.43623C4.6875 10.4962 6.37756 12.1862 8.4375 12.1862C10.1722 12.1862 11.6303 10.9823 12.052 9.37374H19.6875V13.8562C15.7033 16.945 13.125 21.7634 13.125 27.1863C13.125 28.4778 13.2832 29.7311 13.559 30.9399H8.43567C8.40578 30.9385 8.37584 30.9385 8.34595 30.9399C8.11445 30.9631 7.89981 31.0714 7.7438 31.244C7.58778 31.4166 7.50154 31.6411 7.50183 31.8738V42.3199C5.89217 42.7408 4.6875 44.2008 4.6875 45.9363C4.6875 47.9962 6.37756 49.6862 8.4375 49.6862C10.4975 49.6862 12.1875 47.9962 12.1875 45.9363C12.1875 44.2022 10.9845 42.7441 9.37683 42.3217V32.8076H14.1083C16.3303 39.0729 22.1404 43.6321 29.0662 44.0137V47.9449C27.4556 48.3653 26.25 49.8252 26.25 51.5612C26.25 53.6212 27.94 55.3113 30 55.3113C32.06 55.3113 33.75 53.6212 33.75 51.5612C33.75 49.8252 32.5444 48.3653 30.9338 47.9449V44.0137C37.8585 43.6322 43.6689 39.0749 45.8917 32.8113H50.625V42.3217C49.0164 42.7435 47.8125 44.2016 47.8125 45.9363C47.8125 47.9962 49.5025 49.6862 51.5625 49.6862C53.6224 49.6862 55.3125 47.9962 55.3125 45.9363C55.3125 44.2016 54.1085 42.7435 52.5 42.3217V31.8738C52.4981 31.3558 52.0805 30.9341 51.5625 30.9363H46.441C46.7163 29.7284 46.875 28.4766 46.875 27.1863C46.875 21.7634 44.2967 16.945 40.3125 13.8562V9.37374H47.948C48.3698 10.9823 49.8278 12.1862 51.5625 12.1862C53.6224 12.1862 55.3125 10.4962 55.3125 8.43623C55.3125 6.37626 53.6224 4.68628 51.5625 4.68628C49.8278 4.68628 48.3698 5.89016 47.948 7.49871H39.375C38.857 7.49655 38.4391 7.91823 38.4375 8.43623V12.5946C35.9522 11.1524 33.076 10.3113 30 10.3113C26.924 10.3113 24.0478 11.1524 21.5625 12.5946V8.43623C21.5606 7.91823 21.143 7.49655 20.625 7.49871H12.052C11.6303 5.89016 10.1722 4.68628 8.4375 4.68628ZM8.4375 6.5612C9.48415 6.5612 10.3125 7.38957 10.3125 8.43623C10.3125 9.48285 9.48415 10.3113 8.4375 10.3113C7.39088 10.3113 6.5625 9.48285 6.5625 8.43623C6.5625 7.38957 7.39088 6.5612 8.4375 6.5612ZM51.5625 6.5612C52.6091 6.5612 53.4375 7.38957 53.4375 8.43623C53.4375 9.48285 52.6091 10.3113 51.5625 10.3113C50.5159 10.3113 49.6875 9.48285 49.6875 8.43623C49.6875 7.38957 50.5159 6.5612 51.5625 6.5612ZM30 12.1862C38.2954 12.1862 45 18.891 45 27.1863C45 35.4817 38.2954 42.1862 30 42.1862C21.7046 42.1862 15 35.4817 15 27.1863C15 18.891 21.7046 12.1862 30 12.1862ZM8.4375 44.0612C9.48415 44.0612 10.3125 44.8896 10.3125 45.9363C10.3125 46.9829 9.48415 47.8113 8.4375 47.8113C7.39088 47.8113 6.5625 46.9829 6.5625 45.9363C6.5625 44.8896 7.39088 44.0612 8.4375 44.0612ZM51.5625 44.0612C52.6091 44.0612 53.4375 44.8896 53.4375 45.9363C53.4375 46.9829 52.6091 47.8113 51.5625 47.8113C50.5159 47.8113 49.6875 46.9829 49.6875 45.9363C49.6875 44.8896 50.5159 44.0612 51.5625 44.0612ZM30 49.6862C31.0466 49.6862 31.875 50.5146 31.875 51.5612C31.875 52.6079 31.0466 53.4363 30 53.4363C28.9534 53.4363 28.125 52.6079 28.125 51.5612C28.125 50.5146 28.9534 49.6862 30 49.6862Z" fill="#E63A27"/>
<path d="M30 14.0613C29.7505 14.0613 29.5077 14.164 29.3353 14.3377L20.8997 22.7734C20.6251 23.0494 20.625 23.4362 20.625 23.4362C20.625 23.4362 20.625 24.3737 21.5625 24.3737H22.5V37.4987C22.5019 38.0167 22.9196 38.4382 23.4375 38.4362H36.5625C37.0804 38.4381 37.4982 38.0167 37.5 37.4987C37.5 33.1237 37.5 28.7487 37.5 24.3737H38.4375C39.375 24.3737 39.375 23.4362 39.375 23.4362C39.375 23.4362 39.3749 23.0495 39.1003 22.7734L30.6647 14.3377C30.4854 14.1573 30.2549 14.0613 30 14.0613ZM30 16.3227L36.167 22.497H23.8348L30 16.3227ZM24.375 24.3738H26.25V32.8114H24.375V24.3738ZM28.125 24.3738H31.875V32.8114H28.125V24.3738ZM33.75 24.3738H35.625V32.8114L33.75 32.8078V24.3738ZM24.375 34.6863H35.625V36.5613H24.375V34.6863Z" fill="#E63A27"/>
<path d="M30 4.68628C30.1231 4.68628 30.245 4.71053 30.3588 4.75765C30.4725 4.80476 30.5759 4.87388 30.6629 4.96094C30.75 5.048 30.819 5.15137 30.8662 5.26512C30.9133 5.37886 30.9375 5.50078 30.9375 5.6239C30.9375 5.74702 30.9133 5.86883 30.8662 5.98258C30.819 6.09633 30.75 6.1997 30.6629 6.28676C30.5759 6.37382 30.4725 6.44293 30.3588 6.49005C30.245 6.53716 30.1231 6.56142 30 6.56142C29.8769 6.56141 29.755 6.53716 29.6412 6.49005C29.5275 6.44293 29.4241 6.37382 29.3371 6.28676C29.25 6.1997 29.181 6.09632 29.1339 5.98258C29.0867 5.86883 29.0625 5.74702 29.0625 5.6239C29.0625 5.50079 29.0867 5.37886 29.1339 5.26512C29.181 5.15137 29.25 5.04799 29.3371 4.96094C29.4241 4.87388 29.5275 4.80476 29.6412 4.75765C29.755 4.71053 29.8769 4.68628 30 4.68628Z" fill="#E63A27"/>
<path d="M26.25 4.68628C26.3731 4.68628 26.495 4.71053 26.6088 4.75765C26.7225 4.80476 26.8259 4.87388 26.9129 4.96094C27 5.048 27.069 5.15137 27.1162 5.26512C27.1633 5.37886 27.1875 5.50078 27.1875 5.6239C27.1875 5.74702 27.1633 5.86883 27.1162 5.98258C27.069 6.09633 27 6.1997 26.9129 6.28676C26.8259 6.37382 26.7225 6.44293 26.6088 6.49005C26.495 6.53716 26.3731 6.56142 26.25 6.56142C26.1269 6.56141 26.005 6.53716 25.8912 6.49005C25.7775 6.44293 25.6741 6.37382 25.5871 6.28676C25.5 6.1997 25.431 6.09632 25.3839 5.98258C25.3367 5.86883 25.3125 5.74702 25.3125 5.6239C25.3125 5.50079 25.3367 5.37886 25.3839 5.26512C25.431 5.15137 25.5 5.04799 25.5871 4.96094C25.6741 4.87388 25.7775 4.80476 25.8912 4.75765C26.005 4.71053 26.1269 4.68628 26.25 4.68628Z" fill="#E63A27"/>
<path d="M33.75 4.68628C33.8731 4.68628 33.995 4.71053 34.1088 4.75765C34.2225 4.80476 34.3259 4.87388 34.4129 4.96094C34.5 5.048 34.569 5.15137 34.6162 5.26512C34.6633 5.37886 34.6875 5.50078 34.6875 5.6239C34.6875 5.74702 34.6633 5.86883 34.6162 5.98258C34.569 6.09633 34.5 6.1997 34.4129 6.28676C34.3259 6.37382 34.2225 6.44293 34.1088 6.49005C33.995 6.53716 33.8731 6.56142 33.75 6.56142C33.6269 6.56141 33.505 6.53716 33.3912 6.49005C33.2775 6.44293 33.1741 6.37382 33.0871 6.28676C33 6.1997 32.931 6.09632 32.8839 5.98258C32.8367 5.86883 32.8125 5.74702 32.8125 5.6239C32.8125 5.50079 32.8367 5.37886 32.8839 5.26512C32.931 5.15137 33 5.04799 33.0871 4.96094C33.1741 4.87388 33.2775 4.80476 33.3912 4.75765C33.505 4.71053 33.6269 4.68628 33.75 4.68628Z" fill="#E63A27"/>
<path d="M50.625 54.3738C50.625 54.4969 50.6492 54.6188 50.6964 54.7326C50.7435 54.8463 50.8125 54.9497 50.8996 55.0368C50.9866 55.1238 51.09 55.1929 51.2037 55.24C51.3175 55.2872 51.4394 55.3114 51.5625 55.3114C51.6856 55.3114 51.8075 55.2872 51.9213 55.24C52.035 55.1929 52.1384 55.1238 52.2254 55.0368C52.3125 54.9497 52.3815 54.8463 52.4287 54.7326C52.4758 54.6188 52.5 54.4969 52.5 54.3738C52.5 54.2507 52.4758 54.1289 52.4287 54.0151C52.3815 53.9014 52.3125 53.798 52.2254 53.7109C52.1384 53.6239 52.035 53.5548 51.9213 53.5076C51.8075 53.4605 51.6856 53.4363 51.5625 53.4363C51.4394 53.4363 51.3175 53.4605 51.2037 53.5076C51.09 53.5548 50.9866 53.6239 50.8996 53.7109C50.8125 53.798 50.7435 53.9014 50.6964 54.0151C50.6492 54.1289 50.625 54.2507 50.625 54.3738Z" fill="#E63A27"/>
<path d="M48.75 54.3738C48.75 55.3113 47.8125 55.3114 47.8125 55.3114H38.4375C37.8123 55.3114 37.5 54.8427 37.5 54.3738C37.5 53.9049 37.8122 53.4363 38.4375 53.4363H47.8125C47.8125 53.4363 48.75 53.4363 48.75 54.3738Z" fill="#E63A27"/>
<path d="M39.375 50.6238C39.375 50.7469 39.3508 50.8688 39.3037 50.9826C39.2565 51.0963 39.1875 51.1997 39.1004 51.2868C39.0134 51.3738 38.91 51.4428 38.7963 51.4899C38.6826 51.5371 38.5606 51.5613 38.4375 51.5613C38.3144 51.5613 38.1925 51.5371 38.0787 51.4899C37.965 51.4428 37.8616 51.3738 37.7746 51.2868C37.6875 51.1997 37.6185 51.0963 37.5714 50.9826C37.5242 50.8688 37.5 50.7469 37.5 50.6238C37.5 50.5007 37.5242 50.3788 37.5714 50.265C37.6185 50.1513 37.6875 50.0479 37.7746 49.9608C37.8616 49.8738 37.965 49.8048 38.0787 49.7576C38.1925 49.7105 38.3144 49.6863 38.4375 49.6863C38.5606 49.6863 38.6826 49.7105 38.7963 49.7576C38.91 49.8048 39.0134 49.8738 39.1004 49.9608C39.1875 50.0479 39.2565 50.1513 39.3037 50.265C39.3508 50.3788 39.375 50.5007 39.375 50.6238Z" fill="#E63A27"/>
<path d="M41.25 50.6238C41.25 51.5613 42.1875 51.5613 42.1875 51.5613H45.9375C46.5627 51.5613 46.875 51.0926 46.875 50.6238C46.875 50.1549 46.5625 49.6863 45.9375 49.6863H42.1875C42.1875 49.6863 41.25 49.6863 41.25 50.6238Z" fill="#E63A27"/>
<path d="M7.5 54.3738C7.5 54.4969 7.52424 54.6188 7.57136 54.7326C7.61847 54.8463 7.68752 54.9497 7.77458 55.0368C7.86163 55.1238 7.96498 55.1929 8.07872 55.24C8.19246 55.2872 8.31437 55.3114 8.43749 55.3114C8.56061 55.3114 8.68252 55.2872 8.79627 55.24C8.91001 55.1929 9.01337 55.1238 9.10042 55.0368C9.18748 54.9497 9.25654 54.8463 9.30365 54.7326C9.35077 54.6188 9.37501 54.4969 9.37501 54.3738C9.37501 54.2507 9.35077 54.1289 9.30365 54.0151C9.25654 53.9014 9.18748 53.798 9.10042 53.7109C9.01337 53.6239 8.91001 53.5548 8.79627 53.5076C8.68252 53.4605 8.56061 53.4363 8.43749 53.4363C8.31437 53.4363 8.19246 53.4605 8.07872 53.5076C7.96498 53.5548 7.86163 53.6239 7.77458 53.7109C7.68752 53.798 7.61847 53.9014 7.57136 54.0151C7.52424 54.1289 7.5 54.2507 7.5 54.3738Z" fill="#E63A27"/>
<path d="M22.5 54.3738C22.5 55.3113 21.5625 55.3114 21.5625 55.3114H12.1875C11.5623 55.3114 11.25 54.8427 11.25 54.3738C11.25 53.9049 11.5622 53.4363 12.1875 53.4363H21.5625C21.5625 53.4363 22.5 53.4363 22.5 54.3738Z" fill="#E63A27"/>
<path d="M22.5 50.6238C22.5 50.7469 22.4758 50.8688 22.4287 50.9826C22.3815 51.0963 22.3125 51.1997 22.2254 51.2868C22.1384 51.3738 22.035 51.4428 21.9213 51.4899C21.8075 51.5371 21.6856 51.5613 21.5625 51.5613C21.4394 51.5613 21.3175 51.5371 21.2037 51.4899C21.09 51.4428 20.9866 51.3738 20.8996 51.2868C20.8125 51.1997 20.7435 51.0963 20.6964 50.9826C20.6492 50.8688 20.625 50.7469 20.625 50.6238C20.625 50.5007 20.6492 50.3788 20.6964 50.265C20.7435 50.1513 20.8125 50.0479 20.8996 49.9608C20.9866 49.8738 21.09 49.8048 21.2037 49.7576C21.3175 49.7105 21.4394 49.6863 21.5625 49.6863C21.6856 49.6863 21.8075 49.7105 21.9213 49.7576C22.035 49.8048 22.1384 49.8738 22.2254 49.9608C22.3125 50.0479 22.3815 50.1513 22.4287 50.265C22.4758 50.3788 22.5 50.5007 22.5 50.6238Z" fill="#E63A27"/>
<path d="M13.125 50.6238C13.125 51.5613 14.0625 51.5613 14.0625 51.5613H17.8125C18.4377 51.5613 18.75 51.0926 18.75 50.6238C18.75 50.1549 18.4375 49.6863 17.8125 49.6863H14.0625C14.0625 49.6863 13.125 49.6863 13.125 50.6238Z" fill="#E63A27"/>
<path d="M10.3125 22.4988C10.4356 22.4988 10.5575 22.523 10.6713 22.5701C10.785 22.6173 10.8884 22.6863 10.9754 22.7733C11.0625 22.8604 11.1315 22.9638 11.1786 23.0775C11.2258 23.1913 11.25 23.3132 11.25 23.4363C11.25 23.5594 11.2258 23.6813 11.1787 23.7951C11.1315 23.9088 11.0625 24.0122 10.9754 24.0993C10.8884 24.1863 10.785 24.2553 10.6713 24.3024C10.5575 24.3496 10.4356 24.3738 10.3125 24.3738C10.1894 24.3738 10.0675 24.3496 9.95372 24.3024C9.83998 24.2553 9.73663 24.1862 9.64958 24.0991C9.56252 24.0121 9.49347 23.9088 9.44636 23.7951C9.39924 23.6813 9.375 23.5594 9.375 23.4363C9.375 23.1877 9.47377 22.9491 9.64959 22.7733C9.8254 22.5975 10.0639 22.4988 10.3125 22.4988Z" fill="#E63A27"/>
<path d="M6.56249 20.6238C6.6856 20.6238 6.80751 20.6479 6.92126 20.695C7.035 20.7422 7.13836 20.8113 7.22541 20.8983C7.31247 20.9854 7.38153 21.0888 7.42864 21.2025C7.47576 21.3163 7.50001 21.4381 7.50001 21.5612C7.50001 21.6843 7.47577 21.8062 7.42865 21.92C7.38154 22.0337 7.31248 22.1371 7.22542 22.2241C7.13837 22.3112 7.03501 22.3803 6.92127 22.4274C6.80752 22.4746 6.68561 22.4987 6.56249 22.4987C6.43937 22.4987 6.31746 22.4744 6.20372 22.4273C6.08998 22.3802 5.98663 22.3112 5.89957 22.2241C5.81252 22.1371 5.74347 22.0337 5.69636 21.92C5.64924 21.8062 5.625 21.6843 5.625 21.5612C5.625 21.3125 5.72377 21.0741 5.89959 20.8983C6.0754 20.7225 6.31385 20.6238 6.56249 20.6238Z" fill="#E63A27"/>
<path d="M53.4375 24.3738C53.5606 24.3738 53.6825 24.398 53.7963 24.4451C53.91 24.4923 54.0134 24.5613 54.1004 24.6483C54.1875 24.7354 54.2565 24.8388 54.3036 24.9525C54.3508 25.0663 54.375 25.1882 54.375 25.3113C54.375 25.4344 54.3508 25.5563 54.3037 25.6701C54.2565 25.7838 54.1875 25.8871 54.1004 25.9741C54.0134 26.0612 53.91 26.1303 53.7963 26.1774C53.6825 26.2246 53.5606 26.2488 53.4375 26.2488C53.3144 26.2488 53.1925 26.2246 53.0787 26.1774C52.965 26.1303 52.8616 26.0612 52.7746 25.9741C52.6875 25.8871 52.6185 25.7838 52.5714 25.6701C52.5242 25.5563 52.5 25.4344 52.5 25.3113C52.5 25.0627 52.5988 24.8241 52.7746 24.6483C52.9504 24.4725 53.1889 24.3738 53.4375 24.3738Z" fill="#E63A27"/>
<path d="M49.6875 22.4988C49.8106 22.4988 49.9325 22.523 50.0463 22.5701C50.16 22.6173 50.2634 22.6863 50.3504 22.7733C50.4375 22.8604 50.5065 22.9638 50.5536 23.0775C50.6008 23.1913 50.625 23.3132 50.625 23.4363C50.625 23.5594 50.6008 23.6813 50.5537 23.7951C50.5065 23.9088 50.4375 24.0122 50.3504 24.0993C50.2634 24.1863 50.16 24.2553 50.0463 24.3024C49.9325 24.3496 49.8106 24.3738 49.6875 24.3738C49.5644 24.3738 49.4425 24.3496 49.3287 24.3024C49.215 24.2553 49.1116 24.1862 49.0246 24.0991C48.9375 24.0121 48.8685 23.9088 48.8214 23.7951C48.7742 23.6813 48.75 23.5594 48.75 23.4363C48.75 23.1877 48.8488 22.9491 49.0246 22.7733C49.2004 22.5975 49.4389 22.4988 49.6875 22.4988Z" fill="#E63A27"/>
<path d="M6.56249 24.3738C6.6856 24.3738 6.80751 24.398 6.92126 24.4451C7.035 24.4923 7.13836 24.5613 7.22541 24.6483C7.31247 24.7354 7.38153 24.8388 7.42864 24.9525C7.47576 25.0663 7.50001 25.1882 7.50001 25.3113C7.50001 25.4344 7.47577 25.5563 7.42865 25.6701C7.38154 25.7838 7.31248 25.8871 7.22542 25.9741C7.13837 26.0612 7.03501 26.1303 6.92127 26.1774C6.80752 26.2246 6.68561 26.2488 6.56249 26.2488C6.43937 26.2488 6.31746 26.2246 6.20372 26.1774C6.08998 26.1303 5.98663 26.0612 5.89957 25.9741C5.81252 25.8871 5.74347 25.7838 5.69636 25.6701C5.64924 25.5563 5.625 25.4344 5.625 25.3113C5.625 25.0627 5.72377 24.8241 5.89959 24.6483C6.0754 24.4725 6.31385 24.3738 6.56249 24.3738Z" fill="#E63A27"/>
<path d="M53.4375 20.6238C53.5606 20.6238 53.6825 20.6479 53.7963 20.695C53.91 20.7422 54.0134 20.8113 54.1004 20.8983C54.1875 20.9854 54.2565 21.0888 54.3036 21.2025C54.3508 21.3163 54.375 21.4381 54.375 21.5612C54.375 21.6843 54.3508 21.8062 54.3037 21.92C54.2565 22.0337 54.1875 22.1371 54.1004 22.2241C54.0134 22.3112 53.91 22.3803 53.7963 22.4274C53.6825 22.4746 53.5606 22.4987 53.4375 22.4987C53.3144 22.4987 53.1925 22.4744 53.0787 22.4273C52.965 22.3802 52.8616 22.3112 52.7746 22.2241C52.6875 22.1371 52.6185 22.0337 52.5714 21.92C52.5242 21.8062 52.5 21.6843 52.5 21.5612C52.5 21.3125 52.5988 21.0741 52.7746 20.8983C52.9504 20.7225 53.1889 20.6238 53.4375 20.6238Z" fill="#E63A27"/>
</svg>
