<svg width="60" height="60" viewBox="0 0 60 60" fill="none" xmlns="http://www.w3.org/2000/svg">
<path d="M56.2921 57.9776H54.6067V5.05617C54.6067 4.49754 54.1539 4.04496 53.5955 4.04496H34.7191C34.1606 4.04496 33.7079 4.49754 33.7079 5.05617V9.43816H31.6854V5.05617C31.6854 4.49754 31.2326 4.04496 30.6742 4.04496H26.2921V1.01121C26.2921 0.452578 25.8393 0 25.2809 0C24.7225 0 24.2697 0.452578 24.2697 1.01121V4.04496H19.8877C19.3292 4.04496 18.8765 4.49754 18.8765 5.05617V9.43816H15.8427C15.2842 9.43816 14.8315 9.89074 14.8315 10.4494V18.8763H6.40458C5.84606 18.8763 5.39337 19.3289 5.39337 19.8875V57.9775H3.70774C3.14923 57.9775 2.69653 58.43 2.69653 58.9887C2.69653 59.5473 3.14935 60 3.70774 60H56.2921C56.8506 60 57.3033 59.5474 57.3033 58.9888C57.3033 58.4302 56.8505 57.9776 56.2921 57.9776ZM20.8988 6.06738H29.6628V9.43816H20.8988V6.06738ZM17.528 57.9776H16.8538V56.2922C16.8538 55.7336 16.401 55.281 15.8426 55.281C15.2842 55.281 14.8314 55.7336 14.8314 56.2922V57.9776H14.1572V54.6068H17.528V57.9776ZM24.2696 32.0224V33.7621V57.9776H19.5504V53.5956C19.5504 53.037 19.0976 52.5844 18.5392 52.5844H13.146C12.5875 52.5844 12.1348 53.037 12.1348 53.5956V57.9776H7.41567V20.8989H24.2696V32.0224ZM25.2808 18.8764H16.8538V11.4607H33.7078V31.0112H26.2921V27.6404H29.3259C29.8844 27.6404 30.3371 27.1879 30.3371 26.6292C30.3371 26.0706 29.8843 25.618 29.3259 25.618H26.2921V22.2472H29.3259C29.8844 22.2472 30.3371 21.7946 30.3371 21.236C30.3371 20.6774 29.8843 20.2248 29.3259 20.2248H26.2921V19.8878C26.2921 19.329 25.8393 18.8764 25.2808 18.8764ZM43.146 57.9776H26.2921V33.7621V33.0337H43.146V57.9776ZM52.5842 57.9776H45.1684V32.0224V30.6741C45.1684 30.1154 44.7156 29.6629 44.1572 29.6629C43.5988 29.6629 43.146 30.1154 43.146 30.6741V31.0111H41.1236V30.6741C41.1236 30.1154 40.6708 29.6629 40.1124 29.6629C39.554 29.6629 39.1012 30.1154 39.1012 30.6741V31.0111H35.7304V10.4495V6.06738H52.5843V57.9776H52.5842Z" fill="#E63A27"/>
<path d="M30.6741 55.9554C31.2326 55.9554 31.6853 55.5026 31.6853 54.9442V36.0679C31.6853 35.5092 31.2325 35.0566 30.6741 35.0566C30.1157 35.0566 29.6628 35.5092 29.6628 36.0679V54.9443C29.6628 55.5027 30.1155 55.9554 30.6741 55.9554Z" fill="#E63A27"/>
<path d="M34.719 55.9554C35.2775 55.9554 35.7302 55.5026 35.7302 54.9442V36.0679C35.7302 35.5092 35.2774 35.0566 34.719 35.0566C34.1606 35.0566 33.7078 35.5092 33.7078 36.0679V54.9443C33.7076 55.5027 34.1605 55.9554 34.719 55.9554Z" fill="#E63A27"/>
<path d="M38.7639 55.9554C39.3224 55.9554 39.7751 55.5026 39.7751 54.9442V36.0679C39.7751 35.5092 39.3223 35.0566 38.7639 35.0566C38.2055 35.0566 37.7527 35.5092 37.7527 36.0679V54.9443C37.7527 55.5027 38.2055 55.9554 38.7639 55.9554Z" fill="#E63A27"/>
<path d="M40.1123 12.8089C40.6708 12.8089 41.1235 12.3563 41.1235 11.7977V10.4494C41.1235 9.89081 40.6707 9.43823 40.1123 9.43823C39.5539 9.43823 39.1011 9.89081 39.1011 10.4494V11.7978C39.1011 12.3563 39.5538 12.8089 40.1123 12.8089Z" fill="#E63A27"/>
<path d="M44.1572 12.8089C44.7157 12.8089 45.1684 12.3563 45.1684 11.7977V10.4494C45.1684 9.89081 44.7156 9.43823 44.1572 9.43823C43.5988 9.43823 43.146 9.89081 43.146 10.4494V11.7978C43.146 12.3563 43.5987 12.8089 44.1572 12.8089Z" fill="#E63A27"/>
<path d="M48.2021 12.8089C48.7606 12.8089 49.2133 12.3563 49.2133 11.7977V10.4494C49.2133 9.89081 48.7605 9.43823 48.2021 9.43823C47.6437 9.43823 47.1909 9.89081 47.1909 10.4494V11.7978C47.1909 12.3563 47.6436 12.8089 48.2021 12.8089Z" fill="#E63A27"/>
<path d="M40.1123 19.5505C40.6708 19.5505 41.1235 19.0979 41.1235 18.5393V17.1909C41.1235 16.6323 40.6707 16.1797 40.1123 16.1797C39.5539 16.1797 39.1011 16.6323 39.1011 17.1909V18.5393C39.1011 19.0979 39.5538 19.5505 40.1123 19.5505Z" fill="#E63A27"/>
<path d="M44.1572 19.5505C44.7157 19.5505 45.1684 19.0979 45.1684 18.5393V17.1909C45.1684 16.6323 44.7156 16.1797 44.1572 16.1797C43.5988 16.1797 43.146 16.6323 43.146 17.1909V18.5393C43.146 19.0979 43.5987 19.5505 44.1572 19.5505Z" fill="#E63A27"/>
<path d="M48.2021 19.5505C48.7606 19.5505 49.2133 19.0979 49.2133 18.5393V17.1909C49.2133 16.6323 48.7605 16.1797 48.2021 16.1797C47.6437 16.1797 47.1909 16.6323 47.1909 17.1909V18.5393C47.1909 19.0979 47.6436 19.5505 48.2021 19.5505Z" fill="#E63A27"/>
<path d="M40.1123 26.2922C40.6708 26.2922 41.1235 25.8396 41.1235 25.281V23.9326C41.1235 23.374 40.6707 22.9214 40.1123 22.9214C39.5539 22.9214 39.1011 23.374 39.1011 23.9326V25.281C39.1011 25.8395 39.5538 26.2922 40.1123 26.2922Z" fill="#E63A27"/>
<path d="M44.1572 26.2922C44.7157 26.2922 45.1684 25.8396 45.1684 25.281V23.9326C45.1684 23.374 44.7156 22.9214 44.1572 22.9214C43.5988 22.9214 43.146 23.374 43.146 23.9326V25.281C43.146 25.8395 43.5987 26.2922 44.1572 26.2922Z" fill="#E63A27"/>
<path d="M48.2021 26.2922C48.7606 26.2922 49.2133 25.8396 49.2133 25.281V23.9326C49.2133 23.374 48.7605 22.9214 48.2021 22.9214C47.6437 22.9214 47.1909 23.374 47.1909 23.9326V25.281C47.1909 25.8395 47.6436 26.2922 48.2021 26.2922Z" fill="#E63A27"/>
<path d="M11.7976 28.9887C12.3561 28.9887 12.8088 28.5361 12.8088 27.9775V26.6291C12.8088 26.0705 12.356 25.6179 11.7976 25.6179C11.2392 25.6179 10.7864 26.0705 10.7864 26.6291V27.9775C10.7864 28.536 11.2392 28.9887 11.7976 28.9887Z" fill="#E63A27"/>
<path d="M15.8425 28.9887C16.401 28.9887 16.8537 28.5361 16.8537 27.9775V26.6291C16.8537 26.0705 16.4009 25.6179 15.8425 25.6179C15.2841 25.6179 14.8313 26.0705 14.8313 26.6291V27.9775C14.8313 28.536 15.284 28.9887 15.8425 28.9887Z" fill="#E63A27"/>
<path d="M19.8877 28.9887C20.4462 28.9887 20.8989 28.5361 20.8989 27.9775V26.6291C20.8989 26.0705 20.4461 25.6179 19.8877 25.6179C19.3293 25.6179 18.8765 26.0705 18.8765 26.6291V27.9775C18.8765 28.536 19.3292 28.9887 19.8877 28.9887Z" fill="#E63A27"/>
<path d="M11.7976 35.7304C12.3561 35.7304 12.8088 35.2778 12.8088 34.7192V33.3708C12.8088 32.8122 12.356 32.3596 11.7976 32.3596C11.2392 32.3596 10.7864 32.8122 10.7864 33.3708V34.7192C10.7864 35.2777 11.2392 35.7304 11.7976 35.7304Z" fill="#E63A27"/>
<path d="M15.8425 35.7304C16.401 35.7304 16.8537 35.2778 16.8537 34.7192V33.3708C16.8537 32.8122 16.4009 32.3596 15.8425 32.3596C15.2841 32.3596 14.8313 32.8122 14.8313 33.3708V34.7192C14.8313 35.2777 15.284 35.7304 15.8425 35.7304Z" fill="#E63A27"/>
<path d="M19.8877 35.7304C20.4462 35.7304 20.8989 35.2778 20.8989 34.7192V33.3708C20.8989 32.8122 20.4461 32.3596 19.8877 32.3596C19.3293 32.3596 18.8765 32.8122 18.8765 33.3708V34.7192C18.8765 35.2777 19.3292 35.7304 19.8877 35.7304Z" fill="#E63A27"/>
<path d="M11.7976 42.4719C12.3561 42.4719 12.8088 42.0193 12.8088 41.4606V40.1123C12.8088 39.5537 12.356 39.1011 11.7976 39.1011C11.2392 39.1011 10.7864 39.5537 10.7864 40.1123V41.4606C10.7864 42.0193 11.2392 42.4719 11.7976 42.4719Z" fill="#E63A27"/>
<path d="M15.8425 42.4719C16.401 42.4719 16.8537 42.0193 16.8537 41.4606V40.1123C16.8537 39.5537 16.4009 39.1011 15.8425 39.1011C15.2841 39.1011 14.8313 39.5537 14.8313 40.1123V41.4606C14.8313 42.0193 15.284 42.4719 15.8425 42.4719Z" fill="#E63A27"/>
<path d="M19.8877 42.4719C20.4462 42.4719 20.8989 42.0193 20.8989 41.4606V40.1123C20.8989 39.5537 20.4461 39.1011 19.8877 39.1011C19.3293 39.1011 18.8765 39.5537 18.8765 40.1123V41.4606C18.8765 42.0193 19.3292 42.4719 19.8877 42.4719Z" fill="#E63A27"/>
<path d="M11.7976 49.2136C12.3561 49.2136 12.8088 48.761 12.8088 48.2023V46.854C12.8088 46.2954 12.356 45.8428 11.7976 45.8428C11.2392 45.8428 10.7864 46.2954 10.7864 46.854V48.2023C10.7864 48.761 11.2392 49.2136 11.7976 49.2136Z" fill="#E63A27"/>
<path d="M15.8425 49.2136C16.401 49.2136 16.8537 48.761 16.8537 48.2023V46.854C16.8537 46.2954 16.4009 45.8428 15.8425 45.8428C15.2841 45.8428 14.8313 46.2954 14.8313 46.854V48.2023C14.8313 48.761 15.284 49.2136 15.8425 49.2136Z" fill="#E63A27"/>
<path d="M19.8877 49.2136C20.4462 49.2136 20.8989 48.761 20.8989 48.2023V46.854C20.8989 46.2954 20.4461 45.8428 19.8877 45.8428C19.3293 45.8428 18.8765 46.2954 18.8765 46.854V48.2023C18.8765 48.761 19.3292 49.2136 19.8877 49.2136Z" fill="#E63A27"/>
<path d="M48.2021 33.0339C48.7606 33.0339 49.2133 32.5813 49.2133 32.0227V30.6743C49.2133 30.1157 48.7605 29.6631 48.2021 29.6631C47.6437 29.6631 47.1909 30.1157 47.1909 30.6743V32.0227C47.1909 32.5812 47.6436 33.0339 48.2021 33.0339Z" fill="#E63A27"/>
<path d="M48.2021 39.7753C48.7606 39.7753 49.2133 39.3227 49.2133 38.7641V37.4158C49.2133 36.8571 48.7605 36.4045 48.2021 36.4045C47.6437 36.4045 47.1909 36.8571 47.1909 37.4158V38.7641C47.1909 39.3226 47.6436 39.7753 48.2021 39.7753Z" fill="#E63A27"/>
<path d="M48.2021 46.5168C48.7606 46.5168 49.2133 46.0642 49.2133 45.5056V44.1572C49.2133 43.5986 48.7605 43.146 48.2021 43.146C47.6437 43.146 47.1909 43.5986 47.1909 44.1572V45.5056C47.1909 46.0641 47.6436 46.5168 48.2021 46.5168Z" fill="#E63A27"/>
<path d="M48.2021 53.2585C48.7606 53.2585 49.2133 52.8059 49.2133 52.2473V50.8989C49.2133 50.3403 48.7605 49.8877 48.2021 49.8877C47.6437 49.8877 47.1909 50.3403 47.1909 50.8989V52.2473C47.1909 52.8058 47.6436 53.2585 48.2021 53.2585Z" fill="#E63A27"/>
<path d="M30.337 15.8428C30.337 15.2841 29.8841 14.8315 29.3257 14.8315H21.2358C20.6773 14.8315 20.2246 15.2841 20.2246 15.8428C20.2246 16.4014 20.6774 16.854 21.2358 16.854H29.3257C29.8843 16.854 30.337 16.4014 30.337 15.8428Z" fill="#E63A27"/>
</svg>
