<svg width="60" height="60" viewBox="0 0 60 60" fill="none" xmlns="http://www.w3.org/2000/svg">
<g clip-path="url(#clip0_1581_1504)">
<path d="M53.048 32.0669C52.5291 32.0669 52.1085 32.4875 52.1085 33.0064V58.1212H24.9895C24.4706 58.1212 24.05 58.5418 24.05 59.0607C24.05 59.5796 24.4705 60.0002 24.9895 60.0002H53.048C53.5669 60.0002 53.9875 59.5796 53.9875 59.0607V33.0063C53.9875 32.4875 53.5668 32.0669 53.048 32.0669Z" fill="#E63A27"/>
<path d="M59.6283 22.2369L30.5678 0.191016C30.2321 -0.0636328 29.7678 -0.0636328 29.4322 0.191016L17.9123 8.93016V5.88738H18.9771C19.496 5.88738 19.9166 5.4668 19.9166 4.94789V0.939492C19.9166 0.420703 19.4961 0 18.9771 0H4.94796C4.42905 0 4.00847 0.420586 4.00847 0.939492V4.94789C4.00847 5.46668 4.42894 5.88738 4.94796 5.88738H6.01272V17.9577L0.37167 22.2369C0.0503417 22.4807 -0.0796193 22.9025 0.0491698 23.2848C0.177724 23.6672 0.536201 23.9248 0.93956 23.9248H6.01261V59.0604C6.01261 59.5792 6.43308 59.9999 6.9521 59.9999H18.9772C19.4961 59.9999 19.9167 59.5793 19.9167 59.0604C19.9167 58.5415 19.4962 58.1209 18.9772 58.1209H7.89147V22.9853C7.89147 22.4665 7.47101 22.0458 6.95198 22.0458H3.73226L30.0001 2.11875L56.2678 22.046H53.048C52.5291 22.046 52.1085 22.4666 52.1085 22.9855V27.996C52.1085 28.5148 52.529 28.9355 53.048 28.9355C53.5669 28.9355 53.9875 28.5149 53.9875 27.996V23.9249H59.0606C59.4641 23.9249 59.8224 23.6673 59.951 23.2849C60.0795 22.9025 59.9497 22.4808 59.6283 22.2369ZM5.88733 4.0084V1.87898H18.0376V4.0084H5.88733ZM16.0335 10.3556L7.89159 16.5322V5.88738H16.0335V10.3556Z" fill="#E63A27"/>
<path d="M50.0307 47.6574L41.5115 37.6369C41.3502 37.4471 41.12 37.3292 40.8717 37.309L38.0465 37.0803C38.0399 37.0798 38.0333 37.0801 38.0265 37.0797L36.1719 34.8983L40.3789 30.6911L41.1317 31.4439C41.4936 31.8057 42.0986 31.8057 42.4604 31.4439L45.2947 28.6096C45.3491 28.5553 45.3964 28.4945 45.436 28.4287L47.5618 24.8856C47.7836 24.516 47.7253 24.0427 47.4205 23.738L46.0034 22.321C45.6986 22.0162 45.2254 21.9577 44.8558 22.1797L41.3129 24.3054C41.247 24.3449 41.1861 24.3924 41.1318 24.4468L38.2974 27.2812C37.9358 27.6428 37.9358 28.2481 38.2974 28.6097L39.0502 29.3626L34.9508 33.4621L30.5093 28.238L32.217 26.7862L40.1466 23.9754C40.7563 23.7594 40.968 22.9735 40.5477 22.4804L37.59 19.0122C36.127 17.2915 34.0818 16.2435 31.8306 16.0612C29.5788 15.8788 27.3922 16.5843 25.6717 18.047L16.844 25.5522L16.704 25.3874C16.2165 24.8139 15.5347 24.4645 14.7843 24.4038C14.0354 24.3433 13.3049 24.578 12.7312 25.0658L11.0135 26.5262C9.84325 27.5211 9.6963 29.328 10.6918 30.4989L17.994 39.0878C18.9884 40.2581 20.7959 40.4049 21.9668 39.4095L23.6845 37.9491C24.2902 37.4342 24.6522 36.6782 24.6761 35.8837C24.6995 35.1094 24.3961 34.4349 23.9028 33.8547L26.024 32.0513L30.7741 37.6387L28.9811 39.4317L28.2284 38.679C28.0522 38.5027 27.8134 38.4038 27.5641 38.4038H24.7298C24.4807 38.4038 24.2418 38.5027 24.0655 38.679L14.7656 47.9788C13.6792 49.0653 13.679 50.8782 14.7655 51.9646L17.7768 54.9761C18.8633 56.0593 20.6768 56.062 21.7627 54.9761L31.0629 45.6759C31.239 45.4997 31.3379 45.2608 31.3379 45.0117V42.1774C31.3379 41.9282 31.239 41.6893 31.0629 41.5131L30.31 40.7603L31.9954 39.0749L33.9159 41.3338L33.7517 43.3622C33.7317 43.6107 33.8111 43.8568 33.9724 44.0465L42.4916 54.067C43.485 55.2355 45.2952 55.3828 46.4642 54.3887L49.709 51.6302C50.8793 50.6354 51.0263 48.8285 50.0307 47.6574ZM42.3788 25.8572L45.1937 24.1683L45.5734 24.5481L43.8846 27.363L41.7963 29.4513L40.2906 27.9455L42.3788 25.8572ZM20.4343 53.6476C20.0676 54.0139 19.4718 54.0137 19.1055 53.6476H19.1056L16.0942 50.6361C15.7322 50.274 15.7323 49.6695 16.0943 49.3075L24.0214 41.3803L28.3615 45.7203L20.4343 53.6476ZM29.4594 44.161L25.5811 40.2827H27.1754L28.317 41.4242C28.3172 41.4243 28.3173 41.4244 28.3173 41.4245C28.3173 41.4247 28.3175 41.4247 28.3176 41.4248L29.4594 42.5665V44.161ZM31.6795 17.934C33.4304 18.0758 35.0212 18.8908 36.1598 20.2303L38.2325 22.6607L32.037 24.8567L27.2326 19.2056C28.5124 18.2538 30.0753 17.8039 31.6795 17.934ZM22.7958 35.8775C22.7755 36.1277 22.659 36.3549 22.468 36.5173C22.468 36.5173 22.468 36.5173 22.4679 36.5173L20.75 37.9777C20.3598 38.3095 19.7572 38.2603 19.4259 37.8705L12.1237 29.2816C11.7918 28.8912 11.8409 28.2889 12.2309 27.9574L13.9488 26.497C14.3392 26.165 14.9414 26.2143 15.2729 26.6042L22.5751 35.1931C22.7376 35.3842 22.8159 35.6274 22.7958 35.8775ZM22.6862 32.4231L18.0614 26.9834L25.7913 20.4115L30.4161 25.8513L22.6862 32.4231ZM27.4559 30.8342L29.0782 29.4549L36.4257 38.0971L34.8034 39.4765L27.4559 30.8342ZM48.4923 50.1985C48.4923 50.1985 48.4923 50.1985 48.4922 50.1985L45.2474 52.9571C44.8571 53.2888 44.2548 53.24 43.9233 52.8499L35.6561 43.1259L35.822 41.0765L38.2828 38.9842L40.332 39.1502L48.5993 48.8743C48.9313 49.2645 48.8822 49.867 48.4923 50.1985Z" fill="#E63A27"/>
</g>
<defs>
<clipPath id="clip0_1581_1504">
<rect width="60" height="60" fill="white"/>
</clipPath>
</defs>
</svg>
