<svg width="30" height="30" viewBox="0 0 30 30" fill="none" xmlns="http://www.w3.org/2000/svg">
<g clip-path="url(#clip0_1820_7338)">
<path d="M6.6856 7.84893C6.76108 8.01058 6.88111 8.14734 7.03161 8.24315C7.1821 8.33896 7.35681 8.38984 7.53521 8.38981H12.0938V10C12.0938 10.2487 12.1926 10.4871 12.3684 10.6629C12.5442 10.8388 12.7827 10.9375 13.0313 10.9375C13.2799 10.9375 13.5184 10.8388 13.6942 10.6629C13.87 10.4871 13.9688 10.2487 13.9688 10V8.38981H14.4006C14.6493 8.38981 14.8877 8.29104 15.0636 8.11522C15.2394 7.93941 15.3381 7.70095 15.3381 7.45231C15.3381 7.20367 15.2394 6.96521 15.0636 6.7894C14.8877 6.61358 14.6493 6.51481 14.4006 6.51481H13.9688V0.888931C13.9688 0.696501 13.9095 0.508746 13.7991 0.351156C13.6886 0.193565 13.5324 0.0737746 13.3515 0.0080457C13.1707 -0.0576832 12.974 -0.0661661 12.7881 -0.0162512C12.6023 0.0336637 12.4363 0.139558 12.3127 0.287056L6.81627 6.85044C6.70175 6.9872 6.62863 7.15379 6.60549 7.33065C6.58235 7.50751 6.61014 7.68731 6.6856 7.84893ZM12.0938 3.4687V6.51493H9.54293L12.0938 3.4687ZM16.8381 23.3828L21.7496 15.7148H18.1333C17.8847 15.7148 17.6462 15.616 17.4704 15.4402C17.2946 15.2644 17.1958 15.0259 17.1958 14.7773C17.1958 14.5287 17.2946 14.2902 17.4704 14.1144C17.6462 13.9386 17.8847 13.8398 18.1333 13.8398H23.4634C23.6316 13.8398 23.7968 13.8851 23.9415 13.9708C24.0862 14.0566 24.2051 14.1798 24.2859 14.3274C24.3666 14.475 24.4061 14.6416 24.4003 14.8097C24.3945 14.9778 24.3436 15.1413 24.2528 15.283L18.4169 24.3943C18.3506 24.4983 18.2645 24.5881 18.1635 24.6588C18.0624 24.7294 17.9484 24.7795 17.828 24.806C17.7076 24.8325 17.5831 24.835 17.4618 24.8134C17.3404 24.7918 17.2244 24.7464 17.1206 24.6799C17.0168 24.6134 16.9271 24.527 16.8567 24.4258C16.7863 24.3246 16.7365 24.2105 16.7103 24.09C16.684 23.9696 16.6818 23.8451 16.7037 23.7238C16.7256 23.6024 16.7713 23.4866 16.838 23.383L16.8381 23.3828ZM21.746 6.15581C21.9218 6.33162 22.0205 6.57007 22.0205 6.81871C22.0205 7.06734 21.9218 7.30579 21.746 7.48161L7.92615 21.3015C7.74997 21.4755 7.51208 21.5728 7.26443 21.572C7.01677 21.5713 6.77948 21.4726 6.60436 21.2975C6.42924 21.1223 6.33053 20.885 6.32978 20.6374C6.32903 20.3897 6.4263 20.1518 6.60035 19.9757L20.42 6.15581C20.507 6.06873 20.6104 5.99965 20.7241 5.95253C20.8379 5.9054 20.9598 5.88114 21.083 5.88114C21.2061 5.88114 21.328 5.9054 21.4418 5.95253C21.5555 5.99965 21.6589 6.06873 21.746 6.15581ZM5.30279 4.19163C5.54009 3.32268 5.38968 2.66819 4.85578 2.24544C4.25812 1.77258 3.26302 1.68879 2.59031 2.05524C2.07925 2.33356 1.85279 2.81444 1.91724 3.48493C1.94101 3.73244 1.86548 3.97926 1.70727 4.17109C1.54906 4.36291 1.32112 4.48403 1.07361 4.5078C0.826096 4.53157 0.579278 4.45604 0.387453 4.29783C0.195627 4.13961 0.0745077 3.91168 0.0507392 3.66417C-0.0864288 2.23823 0.512341 1.05176 1.69341 0.40858C3.0191 -0.313295 4.83826 -0.159194 6.01904 0.775025C7.14802 1.66829 7.54611 3.09364 7.11134 4.68557C6.81791 5.76006 5.81349 6.54381 4.65041 7.45149C4.02252 7.94145 3.34529 8.46991 2.77746 9.06282H6.66099C6.90963 9.06282 7.14809 9.16159 7.32391 9.33741C7.49972 9.51322 7.59849 9.75168 7.59849 10.0003C7.59849 10.249 7.49972 10.4874 7.32391 10.6632C7.14809 10.839 6.90963 10.9378 6.66099 10.9378H0.957184C0.798298 10.9379 0.642005 10.8975 0.502983 10.8206C0.36396 10.7437 0.246769 10.6327 0.162415 10.498C0.0780605 10.3634 0.0293105 10.2095 0.0207428 10.0509C0.0121751 9.89222 0.0440707 9.73399 0.113435 9.59104C0.876618 8.01815 2.26857 6.93194 3.49664 5.97358C4.32111 5.33016 5.1733 4.66512 5.30279 4.19163ZM30.0001 15.0485C30.0001 18.0152 29.1203 20.9153 27.4721 23.3821C25.8239 25.8488 23.4812 27.7714 20.7403 28.9067C17.9994 30.042 14.9834 30.3391 12.0737 29.7603C9.16395 29.1815 6.4912 27.7529 4.39341 25.6551C2.99618 24.2655 1.88844 22.6125 1.13432 20.7918C0.380199 18.9712 -0.00532717 17.0191 5.55972e-05 15.0485C5.55972e-05 14.7998 0.0988277 14.5614 0.274643 14.3856C0.450458 14.2097 0.688915 14.111 0.937556 14.111C1.1862 14.111 1.42465 14.2097 1.60047 14.3856C1.77628 14.5614 1.87506 14.7998 1.87506 15.0485C1.87506 22.2856 7.76291 28.1735 15.0001 28.1735C22.2372 28.1735 28.1251 22.2856 28.1251 15.0485C28.1251 8.47799 23.2199 2.8834 16.7153 2.03479C16.592 2.02042 16.4727 1.98168 16.3644 1.92082C16.2561 1.85995 16.1611 1.77819 16.0847 1.68026C16.0083 1.58234 15.9521 1.47021 15.9194 1.35039C15.8867 1.23057 15.8781 1.10544 15.8942 0.982287C15.9103 0.85913 15.9506 0.740394 16.013 0.632975C16.0753 0.525556 16.1584 0.431597 16.2574 0.356555C16.3563 0.281513 16.4692 0.226884 16.5895 0.195842C16.7098 0.1648 16.835 0.157963 16.9579 0.175728C20.5659 0.65122 23.878 2.42195 26.2774 5.15811C28.6768 7.89427 29.9998 11.4093 30.0001 15.0485Z" fill="#E63A27"/>
</g>
<defs>
<clipPath id="clip0_1820_7338">
<rect width="30" height="30" fill="white"/>
</clipPath>
</defs>
</svg>
